<?xml version="1.0" standalone="no"?>
<!DOCTYPE svg PUBLIC "-//W3C//DTD SVG 1.1//EN" "http://www.w3.org/Graphics/SVG/1.1/DTD/svg11.dtd" >
<svg xmlns="http://www.w3.org/2000/svg" xmlns:xlink="http://www.w3.org/1999/xlink" version="1.1">
<metadata>
Created by FontForge 20201107 at Wed Jan 19 12:33:26 2022
 By 
Copyright (c) 2021 by www.fontiran.com (Moslem Ebrahimi). All rights reserved.
</metadata>
<defs>
<font id="Morabba-Medium" horiz-adv-x="0" >
  <font-face 
    font-family="Morabba Medium"
    font-weight="500"
    font-stretch="normal"
    units-per-em="2048"
    panose-1="0 0 0 0 0 0 0 0 0 0"
    ascent="1638"
    descent="-410"
    x-height="1079"
    cap-height="1453"
    bbox="-202 -895 3124 1821"
    underline-thickness="122"
    underline-position="-61"
    unicode-range="U+000D-FEFF"
  />
<missing-glyph horiz-adv-x="1875" 
d="M138 1600h1599v-1599h-1599v1599zM673 447h517v-69h-517v69zM392 789l87 109l-129 33l34 103l123 -45v129h100v-129l125 51l36 -98l-131 -43l90 -109l-86 -65l-81 117l-81 -117zM1670 69v1465h-1467v-1465h1467zM1154 789l82 109l-126 33l35 103l122 -45v129h102v-129
l121 51l38 -98l-131 -43l89 -109l-87 -65l-78 117l-84 -117z" />
    <glyph glyph-name="uni06C0" unicode="&#x647;&#x654;" horiz-adv-x="1038" 
d="M347 56q-96 56 -152.5 152t-56.5 209t56.5 208.5t152.5 152t209 56.5h416v-417q0 -113 -56 -209t-151.5 -152t-208.5 -56t-209 56zM654 247q45 26 71 71t26 99v196h-195q-53 0 -98.5 -26.5t-72 -71.5t-26.5 -98q0 -54 26.5 -99t72 -71t98.5 -26t98 26zM406 1116l110 28
q-24 30 -31 63q-4 24 -4 33q0 37 17.5 67.5t44.5 49.5t55 25l86 18l16 -85l-85 -17q-17 -3 -32 -19.5t-15 -40.5q0 -27 17 -44.5t41 -17.5q5 0 15 2l103 24v-92l-338 -84v90z" />
    <glyph glyph-name="uni06D2" unicode="&#x649;&#x621;&#x621;" horiz-adv-x="1453" 
d="M326.5 50.5q-86.5 50.5 -137.5 137t-51 188.5t51 187.5t137.5 136t187.5 50.5h542l-49 -157l-20 -64h-473q-41 0 -76.5 -20.5t-56 -56t-20.5 -76.5q0 -42 20.5 -77.5t56 -56.5t76.5 -21h873v-221h-873q-101 0 -187.5 50.5z" />
    <glyph glyph-name="uni06D3" unicode="&#x626;&#x621;&#x621;" horiz-adv-x="1453" 
d="M326.5 50.5q-86.5 50.5 -137.5 137t-51 188.5t51 187.5t137.5 136t187.5 50.5h542l-49 -157l-20 -64h-473q-41 0 -76.5 -20.5t-56 -56t-20.5 -76.5q0 -42 20.5 -77.5t56 -56.5t76.5 -21h873v-221h-873q-101 0 -187.5 50.5zM367 967l110 28q-24 30 -31 63q-4 24 -4 33
q0 37 17.5 67.5t44.5 49.5t55 25l86 18l16 -85l-85 -17q-17 -3 -32 -19.5t-15 -40.5q0 -27 17 -44.5t41 -17.5q5 0 15 2l103 24v-92l-338 -84v90z" />
    <glyph glyph-name="uni0627.ss03" unicode="&#x627;&#x621;&#x621;" horiz-adv-x="426" 
d="M138 1118l221 56l2 -1174h-223v1118z" />
    <glyph glyph-name="uni0622.fina" unicode="&#x622;" horiz-adv-x="556" arabic-form="final" 
d="M346 56.5q-96 56.5 -152 152t-56 208.5v858l221 56v-914q0 -53 26.5 -98t72 -71.5t98.5 -26.5l39 -111l-39 -110q-114 0 -210 56.5zM-105 1636h468v91l245 -91v-181h-713v181z" />
    <glyph glyph-name="uni0623.fina" unicode="&#x623;" horiz-adv-x="546" arabic-form="final" 
d="M138 1121l223 64v-964h185l39 -111l-39 -110h-408v1121zM99 1384l110 28q-24 30 -31 63q-4 24 -4 33q0 37 17.5 67.5t44.5 49.5t55 25l86 18l16 -85l-85 -17q-17 -3 -32 -19.5t-15 -40.5q0 -27 17 -44.5t41 -17.5q5 0 15 2l103 24v-92l-338 -84v90z" />
    <glyph glyph-name="uni0624.fina" unicode="&#x624;" horiz-adv-x="1022" arabic-form="final" 
d="M213 -283l426 283h-158q-95 0 -186.5 56.5t-150 152t-58.5 207.5q0 113 56 209t152 152.5t209 56.5h418v-912l-585 -390zM700 221v393h-197q-53 0 -98 -26.5t-71.5 -71.5t-26.5 -98q0 -54 26.5 -99t71.5 -71.5t98 -26.5h197zM843 221h179l39 -111l-39 -110h-179v221z
M460 1128l110 28q-24 30 -31 63q-4 24 -4 33q0 37 17.5 67.5t44.5 49.5t55 25l86 18l16 -85l-85 -17q-17 -3 -32 -19.5t-15 -40.5q0 -27 17 -44.5t41 -17.5q5 0 15 2l103 24v-92l-338 -84v90z" />
    <glyph glyph-name="uni0625.fina" unicode="&#x625;" horiz-adv-x="556" arabic-form="final" 
d="M346 56.5q-96 56.5 -152 152t-56 208.5v858l221 56v-914q0 -53 26.5 -98t72 -71.5t98.5 -26.5l39 -111l-39 -110q-114 0 -210 56.5zM175 -435l110 28q-24 30 -31 63q-4 24 -4 33q0 37 17.5 67.5t44.5 49.5t55 25l86 18l16 -85l-85 -17q-17 -3 -32 -19.5t-15 -40.5
q0 -27 17 -44.5t41 -17.5q5 0 15 2l103 24v-92l-338 -84v90z" />
    <glyph glyph-name="uni0626.init" unicode="&#x626;" horiz-adv-x="483" arabic-form="initial" 
d="M-7 0l-32 110l36 111h3q53 0 98 26.5t71 71.5t26 98v337l222 54v-391q0 -113 -56.5 -209t-152 -152t-208.5 -56h-7zM105 1050l110 28q-24 30 -31 63q-4 24 -4 33q0 37 17.5 67.5t44.5 49.5t55 25l86 18l16 -85l-85 -17q-17 -3 -32 -19.5t-15 -40.5q0 -27 17 -44.5
t41 -17.5q5 0 15 2l103 24v-92l-338 -84v90z" />
    <glyph glyph-name="uni0626.medi" unicode="&#x626;" horiz-adv-x="613" arabic-form="medial" 
d="M-4 0l-35 110l37 111h2q53 0 98 26.5t71.5 71.5t26.5 98v337l221 54v-391q0 -53 26 -98t71 -71.5t99 -26.5l39 -111l-39 -110q-91 0 -172 39t-135 106q-55 -67 -135 -106t-171 -39h-4zM97 1058l110 28q-24 30 -31 63q-4 24 -4 33q0 37 17.5 67.5t44.5 49.5t55 25l86 18
l16 -85l-85 -17q-17 -3 -32 -19.5t-15 -40.5q0 -27 17 -44.5t41 -17.5q5 0 15 2l103 24v-92l-338 -84v90z" />
    <glyph glyph-name="uni0626.fina" unicode="&#x626;" horiz-adv-x="1614" arabic-form="final" 
d="M347.5 -473q-96.5 56 -153 152t-56.5 210v540l222 54v-594q0 -54 26.5 -99t71.5 -71.5t99 -26.5h529q53 0 98 26.5t71.5 71.5t26.5 99q0 34 -16.5 64t-41.5 47h-530l37 221h883l39 -111l-39 -110h-132q22 -58 22 -111q0 -114 -56.5 -210t-152.5 -152t-209 -56h-529
q-113 0 -209.5 56zM100 743l110 28q-24 30 -31 63q-4 24 -4 33q0 37 17.5 67.5t44.5 49.5t55 25l86 18l16 -85l-85 -17q-17 -3 -32 -19.5t-15 -40.5q0 -27 17 -44.5t41 -17.5q5 0 15 2l103 24v-92l-338 -84v90z" />
    <glyph glyph-name="uni0627.fina" unicode="&#x627;" horiz-adv-x="556" arabic-form="final" 
d="M346 56.5q-96 56.5 -152 152t-56 208.5v858l221 56v-914q0 -53 26.5 -98t72 -71.5t98.5 -26.5l39 -111l-39 -110q-114 0 -210 56.5z" />
    <glyph glyph-name="uni0628.init" unicode="&#x628;" horiz-adv-x="483" arabic-form="initial" 
d="M-7 0l-32 110l36 111h3q53 0 98 26.5t71 71.5t26 98v337l222 54v-391q0 -113 -56.5 -209t-152 -152t-208.5 -56h-7zM-60 -205h206v-188h-206v188z" />
    <glyph glyph-name="uni0628.medi" unicode="&#x628;" horiz-adv-x="613" arabic-form="medial" 
d="M-4 0l-35 110l37 111h2q53 0 98 26.5t71.5 71.5t26.5 98v337l221 54v-391q0 -53 26 -98t71 -71.5t99 -26.5l39 -111l-39 -110q-91 0 -172 39t-135 106q-55 -67 -135 -106t-171 -39h-4zM-62 -205h206v-188h-206v188z" />
    <glyph glyph-name="uni0628.fina" unicode="&#x628;" horiz-adv-x="2104" arabic-form="final" 
d="M1933 39q-80 39 -133 106l-38 266l148 116l1 -110q1 -53 27 -98t70 -71.5t96 -26.5l40 -111l-40 -110q-91 0 -171 39zM347.5 56q-96.5 56 -153 152t-56.5 209v337l223 54v-391q0 -53 26.5 -98t71.5 -71.5t98 -26.5h937q53 0 97.5 26.5t71 71.5t26.5 98v337l222 54v-391
q0 -113 -56 -209t-152 -152t-209 -56h-937q-113 0 -209.5 56zM920 -205h206v-188h-206v188z" />
    <glyph glyph-name="uni0629.fina" unicode="&#x629;" horiz-adv-x="1170" arabic-form="final" 
d="M347 56q-96 56 -152.5 152t-56.5 209t56.5 208.5t152.5 152t209 56.5h416v-417q0 -113 -56 -209t-151.5 -152t-208.5 -56t-209 56zM654 247q45 26 71 71t26 99v196h-195q-53 0 -98.5 -26.5t-72 -71.5t-26.5 -98q0 -54 26.5 -99t72 -71t98.5 -26t98 26zM998 39
q-80 39 -136 107l-58 124l49 130l120 18q0 -54 26.5 -99t72 -71.5t98.5 -26.5l39 -111l-39 -110q-92 0 -172 39zM378 1199h464v-181h-464v181z" />
    <glyph glyph-name="uni062A.init" unicode="&#x62a;" horiz-adv-x="483" arabic-form="initial" 
d="M-7 0l-32 110l36 111h3q53 0 98 26.5t71 71.5t26 98v337l222 54v-391q0 -113 -56.5 -209t-152 -152t-208.5 -56h-7zM-20 1199h464v-181h-464v181z" />
    <glyph glyph-name="uni062A.medi" unicode="&#x62a;" horiz-adv-x="613" arabic-form="medial" 
d="M-4 0l-35 110l37 111h2q53 0 98 26.5t71.5 71.5t26.5 98v337l221 54v-391q0 -53 26 -98t71 -71.5t99 -26.5l39 -111l-39 -110q-91 0 -172 39t-135 106q-55 -67 -135 -106t-171 -39h-4zM-20 1199h464v-181h-464v181z" />
    <glyph glyph-name="uni062A.fina" unicode="&#x62a;" horiz-adv-x="2104" arabic-form="final" 
d="M1933 39q-80 39 -133 106l-38 266l148 116l1 -110q1 -53 27 -98t70 -71.5t96 -26.5l40 -111l-40 -110q-91 0 -171 39zM347.5 56q-96.5 56 -153 152t-56.5 209v337l223 54v-391q0 -53 26.5 -98t71.5 -71.5t98 -26.5h937q53 0 97.5 26.5t71 71.5t26.5 98v337l222 54v-391
q0 -113 -56 -209t-152 -152t-209 -56h-937q-113 0 -209.5 56zM795 784h464v-181h-464v181z" />
    <glyph glyph-name="uni062B.init" unicode="&#x62b;" horiz-adv-x="483" arabic-form="initial" 
d="M-7 0l-32 110l36 111h3q53 0 98 26.5t71 71.5t26 98v337l222 54v-391q0 -113 -56.5 -209t-152 -152t-208.5 -56h-7zM-22 1196h275v194l189 -58v-316h-464v180z" />
    <glyph glyph-name="uni062B.medi" unicode="&#x62b;" horiz-adv-x="613" arabic-form="medial" 
d="M-4 0l-35 110l37 111h2q53 0 98 26.5t71.5 71.5t26.5 98v337l221 54v-391q0 -53 26 -98t71 -71.5t99 -26.5l39 -111l-39 -110q-91 0 -172 39t-135 106q-55 -67 -135 -106t-171 -39h-4zM-22 1196h275v194l189 -58v-316h-464v180z" />
    <glyph glyph-name="uni062B.fina" unicode="&#x62b;" horiz-adv-x="2104" arabic-form="final" 
d="M1933 39q-80 39 -133 106l-38 266l148 116l1 -110q1 -53 27 -98t70 -71.5t96 -26.5l40 -111l-40 -110q-91 0 -171 39zM347.5 56q-96.5 56 -153 152t-56.5 209v337l223 54v-391q0 -53 26.5 -98t71.5 -71.5t98 -26.5h937q53 0 97.5 26.5t71 71.5t26.5 98v337l222 54v-391
q0 -113 -56 -209t-152 -152t-209 -56h-937q-113 0 -209.5 56zM795 783h275v194l189 -58v-316h-464v180z" />
    <glyph glyph-name="uni062C.init" unicode="&#x62c;" horiz-adv-x="1034" arabic-form="initial" 
d="M-39 110l39 111h745v196q0 53 -26.5 98t-71.5 71.5t-98 26.5h-389l54 221h335q114 0 210.5 -56t152.5 -151.5t56 -209.5v-417h-968zM398 -200h206v-188h-206v188z" />
    <glyph glyph-name="uni062C.medi" unicode="&#x62c;" horiz-adv-x="1088" arabic-form="medial" 
d="M-39 110l39 111h745v196q0 53 -26.5 98t-71.5 71.5t-98 26.5h-389l54 221h335q114 0 210.5 -56t152.5 -151.5t56 -209.5v-417h-968zM860 221h229l38 -111l-38 -110h-226zM393 -200h206v-188h-206v188z" />
    <glyph glyph-name="uni062C.fina" unicode="&#x62c;" horiz-adv-x="1193" arabic-form="final" 
d="M924 191l115 30h154l40 -111l-40 -110h-245zM347.5 -557q-96.5 56 -153 152t-56.5 210q0 113 56.5 208.5t153 151.5t209.5 56h303v196q0 53 -26.5 98t-71.5 71.5t-98 26.5h-392l54 222h338q113 0 208.5 -56t151.5 -152t56 -210v-417h-523q-53 0 -98 -26t-71.5 -71
t-26.5 -98q0 -54 26.5 -99t71.5 -71.5t98 -26.5h234l-66 -221h-168q-113 0 -209.5 56zM785 -200h206v-188h-206v188z" />
    <glyph glyph-name="uni062D.init" unicode="&#x62d;" horiz-adv-x="1034" arabic-form="initial" 
d="M-39 110l39 111h745v196q0 53 -26.5 98t-71.5 71.5t-98 26.5h-389l54 221h335q114 0 210.5 -56t152.5 -151.5t56 -209.5v-417h-968z" />
    <glyph glyph-name="uni062D.medi" unicode="&#x62d;" horiz-adv-x="1088" arabic-form="medial" 
d="M-39 110l39 111h745v196q0 53 -26.5 98t-71.5 71.5t-98 26.5h-389l54 221h335q114 0 210.5 -56t152.5 -151.5t56 -209.5v-417h-968zM860 221h229l38 -111l-38 -110h-226z" />
    <glyph glyph-name="uni062D.fina" unicode="&#x62d;" horiz-adv-x="1193" arabic-form="final" 
d="M924 202l114 19h155l39 -111l-39 -110h-245zM347 -557q-96 56 -152.5 152t-56.5 209t56.5 209t152.5 152t209 56h302v196q0 53 -26.5 98t-71 71.5t-97.5 26.5h-392l55 221h337q113 0 208.5 -56t151.5 -151.5t56 -209.5v-417h-523q-53 0 -98 -26.5t-71 -71.5t-26 -98
q0 -54 26 -98.5t71 -70.5t98 -26h538l-67 -222h-471q-113 0 -209 56z" />
    <glyph glyph-name="uni062E.init" unicode="&#x62e;" horiz-adv-x="1034" arabic-form="initial" 
d="M-39 110l39 111h745v196q0 53 -26.5 98t-71.5 71.5t-98 26.5h-389l54 221h335q114 0 210.5 -56t152.5 -151.5t56 -209.5v-417h-968zM297 1229h206v-188h-206v188z" />
    <glyph glyph-name="uni062E.medi" unicode="&#x62e;" horiz-adv-x="1088" arabic-form="medial" 
d="M-39 110l39 111h745v196q0 53 -26.5 98t-71.5 71.5t-98 26.5h-389l54 221h335q114 0 210.5 -56t152.5 -151.5t56 -209.5v-417h-968zM860 221h229l38 -111l-38 -110h-226zM293 1229h206v-188h-206v188z" />
    <glyph glyph-name="uni062E.fina" unicode="&#x62e;" horiz-adv-x="1193" arabic-form="final" 
d="M924 202l114 19h155l39 -111l-39 -110h-245zM347 -557q-96 56 -152.5 152t-56.5 209t56.5 209t152.5 152t209 56h302v196q0 53 -26.5 98t-71 71.5t-97.5 26.5h-392l55 221h337q113 0 208.5 -56t151.5 -151.5t56 -209.5v-417h-523q-53 0 -98 -26.5t-71 -71.5t-26 -98
q0 -54 26 -98.5t71 -70.5t98 -26h538l-67 -222h-471q-113 0 -209 56zM404 1228h206v-188h-206v188z" />
    <glyph glyph-name="uni062F.fina" unicode="&#x62f;" horiz-adv-x="885" arabic-form="final" 
d="M644 221h241l39 -110l-39 -111h-255zM96 221h451v196q0 53 -26 98t-71 71.5t-98 26.5h-214v221h214q114 0 209.5 -56t151 -151.5t55.5 -209.5v-417h-672v221z" />
    <glyph glyph-name="uni0630.fina" unicode="&#x630;" horiz-adv-x="885" arabic-form="final" 
d="M644 221h241l39 -110l-39 -111h-255zM96 221h451v196q0 53 -26 98t-71 71.5t-98 26.5h-214v221h214q114 0 209.5 -56t151 -151.5t55.5 -209.5v-417h-672v221zM196 1228h206v-188h-206v188z" />
    <glyph glyph-name="uni0631.fina" unicode="&#x631;" horiz-adv-x="589" arabic-form="final" 
d="M-4 -282l178 120v915l222 56v-1090l-278 -185zM434.5 56q-76.5 56 -124.5 142.5t-48 169.5l134 49q0 -53 26.5 -98t71 -71.5t97.5 -26.5l38 -111l-38 -110q-80 0 -156.5 56z" />
    <glyph glyph-name="uni0632.fina" unicode="&#x632;" horiz-adv-x="589" arabic-form="final" 
d="M-4 -282l178 120v915l222 56v-1090l-278 -185zM434.5 56q-76.5 56 -124.5 142.5t-48 169.5l134 49q0 -53 26.5 -98t71 -71.5t97.5 -26.5l38 -111l-38 -110q-80 0 -156.5 56zM187 1203h206v-188h-206v188z" />
    <glyph glyph-name="uni0633.init" unicode="&#x633;" horiz-adv-x="1554" arabic-form="initial" 
d="M-5 0l-34 110l36 111h3q53 0 98 26.5t71.5 71.5t26.5 98v315h221v-354q0 -42 21.5 -78t57.5 -57.5t78 -21.5q43 0 79 21t57 57.5t21 78.5v354h221v-354q0 -42 21.5 -78t57.5 -57.5t78 -21.5q43 0 79.5 21t57.5 57.5t21 78.5v369l221 55v-423q0 -102 -51 -189.5
t-138 -138.5t-190 -51q-71 0 -143 34t-124 84q-50 -55 -120 -86.5t-148 -31.5q-75 0 -152 39t-125 92q-56 -62 -133.5 -96.5t-163.5 -34.5h-5z" />
    <glyph glyph-name="uni0633.medi" unicode="&#x633;" horiz-adv-x="1684" arabic-form="medial" 
d="M-5 0l-34 110l36 111h3q53 0 98 26.5t71.5 71.5t26.5 98v315h221v-354q0 -42 21.5 -78t57.5 -57.5t78 -21.5q43 0 79 21t57 57.5t21 78.5v354h221v-354q0 -42 21.5 -78t57.5 -57.5t78 -21.5q43 0 79.5 21t57.5 57.5t21 78.5v369l221 55v-423q0 -102 -51 -189.5
t-138 -138.5t-190 -51q-71 0 -143 34t-124 84q-50 -55 -120 -86.5t-148 -31.5q-75 0 -152 39t-125 92q-56 -62 -133.5 -96.5t-163.5 -34.5h-5zM1511 39q-81 39 -135 106l-59 220l84 106l87 -54q0 -53 26.5 -98t71.5 -71.5t98 -26.5l39 -111l-39 -110q-92 0 -173 39z" />
    <glyph glyph-name="uni0633.fina" unicode="&#x633;" horiz-adv-x="2467" arabic-form="final" 
d="M2293.5 39q-81.5 39 -134.5 106l-59 220l83 106l87 -54q0 -53 26.5 -98t72 -71.5t98.5 -26.5l39 -111l-39 -110q-92 0 -173.5 39zM2270 802v-423q0 -102 -51 -189.5t-137.5 -138.5t-189.5 -51q-76 0 -151.5 37t-123.5 89q-46 -53 -119.5 -89.5t-153.5 -36.5h-188v221h188
q46 0 84.5 23t61.5 61.5t23 84.5v342h222v-354q0 -42 21.5 -78t57.5 -57.5t78 -21.5q43 0 79 21t57 57.5t21 78.5v369zM1121 -321q-56 -96 -151.5 -152t-208.5 -56h-204q-113 0 -209.5 56t-153 152t-56.5 210v456l223 54v-510q0 -54 26.5 -99t71.5 -71.5t98 -26.5h204
q53 0 97.5 26.5t71 71.5t26.5 99v843h221v-843q0 -114 -56 -210z" />
    <glyph glyph-name="uni0634.init" unicode="&#x634;" horiz-adv-x="1554" arabic-form="initial" 
d="M-5 0l-34 110l36 111h3q53 0 98 26.5t71.5 71.5t26.5 98v315h221v-354q0 -42 21.5 -78t57.5 -57.5t78 -21.5q43 0 79 21t57 57.5t21 78.5v354h221v-354q0 -42 21.5 -78t57.5 -57.5t78 -21.5q43 0 79.5 21t57.5 57.5t21 78.5v369l221 55v-423q0 -102 -51 -189.5
t-138 -138.5t-190 -51q-71 0 -143 34t-124 84q-50 -55 -120 -86.5t-148 -31.5q-75 0 -152 39t-125 92q-56 -62 -133.5 -96.5t-163.5 -34.5h-5zM617 1156h275v194l189 -58v-316h-464v180z" />
    <glyph glyph-name="uni0634.medi" unicode="&#x634;" horiz-adv-x="1684" arabic-form="medial" 
d="M-5 0l-34 110l36 111h3q53 0 98 26.5t71.5 71.5t26.5 98v315h221v-354q0 -42 21.5 -78t57.5 -57.5t78 -21.5q43 0 79 21t57 57.5t21 78.5v354h221v-354q0 -42 21.5 -78t57.5 -57.5t78 -21.5q43 0 79.5 21t57.5 57.5t21 78.5v369l221 55v-423q0 -102 -51 -189.5
t-138 -138.5t-190 -51q-71 0 -143 34t-124 84q-50 -55 -120 -86.5t-148 -31.5q-75 0 -152 39t-125 92q-56 -62 -133.5 -96.5t-163.5 -34.5h-5zM1511 39q-81 39 -135 106l-59 220l84 106l87 -54q0 -53 26.5 -98t71.5 -71.5t98 -26.5l39 -111l-39 -110q-92 0 -173 39z
M608 1156h275v194l189 -58v-316h-464v180z" />
    <glyph glyph-name="uni0634.fina" unicode="&#x634;" horiz-adv-x="2467" arabic-form="final" 
d="M2293.5 39q-81.5 39 -134.5 106l-59 220l83 106l87 -54q0 -53 26.5 -98t72 -71.5t98.5 -26.5l39 -111l-39 -110q-92 0 -173.5 39zM2270 802v-423q0 -102 -51 -189.5t-137.5 -138.5t-189.5 -51q-76 0 -151.5 37t-123.5 89q-46 -53 -119.5 -89.5t-153.5 -36.5h-188v221h188
q46 0 84.5 23t61.5 61.5t23 84.5v342h222v-354q0 -42 21.5 -78t57.5 -57.5t78 -21.5q43 0 79 21t57 57.5t21 78.5v369zM1121 -321q-56 -96 -151.5 -152t-208.5 -56h-204q-113 0 -209.5 56t-153 152t-56.5 210v456l223 54v-510q0 -54 26.5 -99t71.5 -71.5t98 -26.5h204
q53 0 97.5 26.5t71 71.5t26.5 99v843h221v-843q0 -114 -56 -210zM1396 1157h275v194l189 -58v-316h-464v180z" />
    <glyph glyph-name="uni0635.init" unicode="&#x635;" horiz-adv-x="1542" arabic-form="initial" 
d="M-39 112l39 109l129 1v559l222 57v-363l337 359h370q113 0 209 -56t152.5 -151.5t56.5 -209.5q0 -113 -57 -208.5t-152.5 -152t-206.5 -56.5h-1060zM1156 247.5q45 26.5 71.5 71.5t26.5 98t-26.5 98t-71.5 71.5t-98 26.5l-299 1l-369 -393h668q53 0 98 26.5z" />
    <glyph glyph-name="uni0635.medi" unicode="&#x635;" horiz-adv-x="1568" arabic-form="medial" 
d="M-39 112l39 109l129 1v559l222 57v-363l337 359h370q113 0 209 -56t152.5 -151.5t56.5 -209.5q0 -113 -57 -208.5t-152.5 -152t-206.5 -56.5h-1060zM1156 247.5q45 26.5 71.5 71.5t26.5 98t-26.5 98t-71.5 71.5t-98 26.5l-299 1l-369 -393h668q53 0 98 26.5zM1266 221
h302l39 -109l-39 -112h-548z" />
    <glyph glyph-name="uni0635.fina" unicode="&#x635;" horiz-adv-x="2385" arabic-form="final" 
d="M1948 221h437l40 -109l-40 -112h-540zM346 -473q-96 56 -152 152t-56 210v456l223 54v-510q0 -54 26 -99t71 -71.5t98 -26.5h205q53 0 97.5 26.5t70.5 71.5t26 99v893l223 56v-363l335 359h371q113 0 209 -56t152.5 -151.5t56.5 -209.5q0 -113 -55.5 -208.5t-150.5 -152
t-209 -56.5h-709v-111q0 -114 -56 -210t-152 -152t-209 -56h-205q-114 0 -210 56zM1983 247.5q45 26.5 71 71.5t26 98t-26 98t-71 71.5t-99 26.5l-299 1l-368 -393h668q53 0 98 26.5z" />
    <glyph glyph-name="uni0636.init" unicode="&#x636;" horiz-adv-x="1542" arabic-form="initial" 
d="M-39 112l39 109l129 1v559l222 57v-363l337 359h370q113 0 209 -56t152.5 -151.5t56.5 -209.5q0 -113 -57 -208.5t-152.5 -152t-206.5 -56.5h-1060zM1156 247.5q45 26.5 71.5 71.5t26.5 98t-26.5 98t-71.5 71.5t-98 26.5l-299 1l-369 -393h668q53 0 98 26.5zM799 1234
h206v-188h-206v188z" />
    <glyph glyph-name="uni0636.medi" unicode="&#x636;" horiz-adv-x="1568" arabic-form="medial" 
d="M-39 112l39 109l129 1v559l222 57v-363l337 359h370q113 0 209 -56t152.5 -151.5t56.5 -209.5q0 -113 -57 -208.5t-152.5 -152t-206.5 -56.5h-1060zM1156 247.5q45 26.5 71.5 71.5t26.5 98t-26.5 98t-71.5 71.5t-98 26.5l-299 1l-369 -393h668q53 0 98 26.5zM1266 221
h302l39 -109l-39 -112h-548zM807 1234h206v-188h-206v188z" />
    <glyph glyph-name="uni0636.fina" unicode="&#x636;" horiz-adv-x="2385" arabic-form="final" 
d="M1948 221h437l40 -109l-40 -112h-540zM346 -473q-96 56 -152 152t-56 210v456l223 54v-510q0 -54 26 -99t71 -71.5t98 -26.5h205q53 0 97.5 26.5t70.5 71.5t26 99v893l223 56v-363l335 359h371q113 0 209 -56t152.5 -151.5t56.5 -209.5q0 -113 -55.5 -208.5t-150.5 -152
t-209 -56.5h-709v-111q0 -114 -56 -210t-152 -152t-209 -56h-205q-114 0 -210 56zM1983 247.5q45 26.5 71 71.5t26 98t-26 98t-71 71.5t-99 26.5l-299 1l-368 -393h668q53 0 98 26.5zM1596 1232h206v-188h-206v188z" />
    <glyph glyph-name="uni0637.init" unicode="&#x637;" horiz-adv-x="1545" arabic-form="initial" 
d="M-39 110l39 111h133v1093l222 56v-536h707q113 0 208.5 -56t152 -152t56.5 -209q0 -115 -55.5 -210.5t-151 -151t-210.5 -55.5h-1062zM1160 247.5q45 26.5 71 71.5t26 98t-26 98t-71 71.5t-98 26.5h-707v-392h707q53 0 98 26.5z" />
    <glyph glyph-name="uni0637.medi" unicode="&#x637;" horiz-adv-x="1578" arabic-form="medial" 
d="M-39 110l39 111h133v1093l222 56v-536h707q113 0 208.5 -56t152 -152t56.5 -209q0 -115 -55.5 -210.5t-151 -151t-210.5 -55.5h-1062zM1160 247.5q45 26.5 71 71.5t26 98t-26 98t-71 71.5t-98 26.5h-707v-392h707q53 0 98 26.5zM1251 221h327l39 -111l-39 -110h-575z" />
    <glyph glyph-name="uni0637.fina" unicode="&#x637;" horiz-adv-x="1685" arabic-form="final" 
d="M1360 221h325l39 -109l-39 -112h-572zM138 221h99v1093l221 56v-536h707q114 0 210 -56t152 -151.5t56 -209.5q0 -115 -55.5 -210.5t-151 -151t-210.5 -55.5h-1028v221zM1264 247.5q45 26.5 71 71.5t26 98t-26 98t-71 71.5t-99 26.5h-707v-392h708q53 0 98 26.5z" />
    <glyph glyph-name="uni0638.init" unicode="&#x638;" horiz-adv-x="1545" arabic-form="initial" 
d="M-39 110l39 111h133v1093l222 56v-536h707q113 0 208.5 -56t152 -152t56.5 -209q0 -115 -55.5 -210.5t-151 -151t-210.5 -55.5h-1062zM1160 247.5q45 26.5 71 71.5t26 98t-26 98t-71 71.5t-98 26.5h-707v-392h707q53 0 98 26.5zM772 1232h206v-188h-206v188z" />
    <glyph glyph-name="uni0638.medi" unicode="&#x638;" horiz-adv-x="1578" arabic-form="medial" 
d="M-39 110l39 111h133v1093l222 56v-536h707q113 0 208.5 -56t152 -152t56.5 -209q0 -115 -55.5 -210.5t-151 -151t-210.5 -55.5h-1062zM1160 247.5q45 26.5 71 71.5t26 98t-26 98t-71 71.5t-98 26.5h-707v-392h707q53 0 98 26.5zM1251 221h327l39 -111l-39 -110h-575z
M767 1232h206v-188h-206v188z" />
    <glyph glyph-name="uni0638.fina" unicode="&#x638;" horiz-adv-x="1685" arabic-form="final" 
d="M1360 221h325l39 -109l-39 -112h-572zM138 221h99v1093l221 56v-536h707q114 0 210 -56t152 -151.5t56 -209.5q0 -115 -55.5 -210.5t-151 -151t-210.5 -55.5h-1028v221zM1264 247.5q45 26.5 71 71.5t26 98t-26 98t-71 71.5t-99 26.5h-707v-392h708q53 0 98 26.5z
M830 1232h206v-188h-206v188z" />
    <glyph glyph-name="uni0639.init" unicode="&#x639;" horiz-adv-x="905" arabic-form="initial" 
d="M-39 110l39 111h147v196q0 114 56.5 209.5t152.5 151.5t210 56h246v-221h-246q-54 0 -99 -26.5t-71 -71.5t-26 -98v-196h469v-221h-839z" />
    <glyph glyph-name="uni0639.medi" unicode="&#x639;" horiz-adv-x="1063" arabic-form="medial" 
d="M-39 119l39 102h288l-141 337v277h558q75 0 139 -38t100 -103q33 -61 33 -131q0 -79 -43 -146l-156 -196h292l39 -111l-39 -110h-1070zM762 558q0 29 -19.5 50t-50.5 21h-324v-41l158 -360l221 287q15 18 15 43z" />
    <glyph glyph-name="uni0639.fina" unicode="&#x639;" horiz-adv-x="1256" arabic-form="final" 
d="M342 -555q-96 58 -150 155t-54 210q0 98 46 182.5t127 140.5t181 71l-150 354v276h558q76 0 140 -37.5t100 -102.5q33 -61 33 -130q0 -81 -44 -147l-156 -196h283l39 -111l-39 -110h-698q-53 0 -99 -26t-73 -71t-27 -98q0 -54 27.5 -99t73 -71.5t98.5 -26.5h575l-58 -221
h-519q-118 0 -214 58zM958 558q0 28 -20 49t-50 21h-323v-40l158 -361l220 288q15 18 15 43z" />
    <glyph glyph-name="uni063A.init" unicode="&#x63a;" horiz-adv-x="905" arabic-form="initial" 
d="M-39 110l39 111h147v196q0 114 56.5 209.5t152.5 151.5t210 56h246v-221h-246q-54 0 -99 -26.5t-71 -71.5t-26 -98v-196h469v-221h-839zM413 1231h206v-188h-206v188z" />
    <glyph glyph-name="uni063A.medi" unicode="&#x63a;" horiz-adv-x="1063" arabic-form="medial" 
d="M-39 119l39 102h288l-141 337v277h558q75 0 139 -38t100 -103q33 -61 33 -131q0 -79 -43 -146l-156 -196h292l39 -111l-39 -110h-1070zM762 558q0 29 -19.5 50t-50.5 21h-324v-41l158 -360l221 287q15 18 15 43zM403 1232h206v-188h-206v188z" />
    <glyph glyph-name="uni063A.fina" unicode="&#x63a;" horiz-adv-x="1256" arabic-form="final" 
d="M342 -555q-96 58 -150 155t-54 210q0 98 46 182.5t127 140.5t181 71l-150 354v276h558q76 0 140 -37.5t100 -102.5q33 -61 33 -130q0 -81 -44 -147l-156 -196h283l39 -111l-39 -110h-698q-53 0 -99 -26t-73 -71t-27 -98q0 -54 27.5 -99t73 -71.5t98.5 -26.5h575l-58 -221
h-519q-118 0 -214 58zM958 558q0 28 -20 49t-50 21h-323v-40l158 -361l220 288q15 18 15 43zM586 1245h206v-188h-206v188z" />
    <glyph glyph-name="uni0641.init" unicode="&#x641;" horiz-adv-x="1022" arabic-form="initial" 
d="M-39 110l39 111h193q0 3 -19.5 30.5t-35.5 69.5t-16 96q0 114 56 209.5t152 151.5t209 56h418v-834h-957zM735 221v392h-196q-53 0 -98 -26.5t-71.5 -71.5t-26.5 -98t26.5 -98t71.5 -71.5t98 -26.5h196zM534 1240h206v-188h-206v188z" />
    <glyph glyph-name="uni0641.medi" unicode="&#x641;" horiz-adv-x="1066" arabic-form="medial" 
d="M-39 110l39 111h193q0 3 -19.5 30.5t-35.5 69.5t-16 96q0 114 56 209.5t152 151.5t209 56h418v-834h-957zM735 221v392h-196q-53 0 -98 -26.5t-71.5 -71.5t-26.5 -98t26.5 -98t71.5 -71.5t98 -26.5h196zM830 221h236l39 -109l-39 -112h-236v221zM511 1240h206v-188h-206
v188z" />
    <glyph glyph-name="uni0641.fina" unicode="&#x641;" horiz-adv-x="2075" arabic-form="final" 
d="M347 56q-96 56 -152.5 152t-56.5 209v337l223 54v-391q0 -53 26.5 -98t71 -71.5t97.5 -26.5h587q-33 41 -51.5 91.5t-18.5 104.5q0 112 56 208t152 152.5t209 56.5h421v-834h-1355q-113 0 -209 56zM1690 221v392h-200q-53 0 -97.5 -26.5t-70.5 -71.5t-26 -98t26 -98
t71 -71.5t98 -26.5h199zM1799 221h276l39 -109l-39 -112h-276v221zM1454 1240h206v-188h-206v188z" />
    <glyph glyph-name="uni0642.init" unicode="&#x642;" horiz-adv-x="1022" arabic-form="initial" 
d="M-39 110l39 111h193q0 3 -19.5 30.5t-35.5 69.5t-16 96q0 114 56 209.5t152 151.5t209 56h418v-834h-957zM735 221v392h-196q-53 0 -98 -26.5t-71.5 -71.5t-26.5 -98t26.5 -98t71.5 -71.5t98 -26.5h196zM371 1235h464v-181h-464v181z" />
    <glyph glyph-name="uni0642.medi" unicode="&#x642;" horiz-adv-x="1066" arabic-form="medial" 
d="M-39 110l39 111h193q0 3 -19.5 30.5t-35.5 69.5t-16 96q0 114 56 209.5t152 151.5t209 56h418v-834h-957zM735 221v392h-196q-53 0 -98 -26.5t-71.5 -71.5t-26.5 -98t26.5 -98t71.5 -71.5t98 -26.5h196zM830 221h236l39 -109l-39 -112h-236v221zM371 1235h464v-181h-464
v181z" />
    <glyph glyph-name="uni0642.fina" unicode="&#x642;" horiz-adv-x="1631" arabic-form="final" 
d="M347 -473q-96 56 -152.5 152t-56.5 210v456l223 54v-510q0 -54 26 -99t71 -71.5t98 -26.5h530q53 0 98 26.5t71 71.5t26 99v111h-614v417q0 113 56.5 209t153 152t209.5 56h417v-945q0 -114 -56 -210t-152 -152t-209 -56h-530q-113 0 -209 56zM1281 221v392h-195
q-54 0 -99 -26.5t-71.5 -71.5t-26.5 -98v-196h392zM1400 221h231l39 -109l-39 -112h-231v221zM930 1238h464v-181h-464v181z" />
    <glyph glyph-name="uni0643.init" unicode="&#x643;" horiz-adv-x="1756" arabic-form="initial" 
d="M-39 110l39 111h1273q54 0 99 26.5t71 71.5t26 98t-26 98t-71 71.5t-99 26.5h-1170v222l797 480l116 -173l-509 -308h766q114 0 210 -56t152 -151.5t56 -209.5q0 -113 -56 -209t-152 -152t-210 -56h-1273z" />
    <glyph glyph-name="uni0643.medi" unicode="&#x643;" horiz-adv-x="1886" arabic-form="medial" 
d="M-39 110l39 111h1273q54 0 99 26.5t71 71.5t26 98t-26 98t-71 71.5t-99 26.5h-1170v222l797 480l116 -173l-509 -308h766q114 0 210 -56t152 -151.5t56 -209.5q0 -113 -56 -209t-152 -152t-210 -56h-1273zM1714 39q-80 39 -136 107l-53 143l37 128h129q0 -53 26 -98
t71 -71.5t98 -26.5l39 -111l-39 -110q-92 0 -172 39z" />
    <glyph glyph-name="uni0643.fina" unicode="&#x643;" horiz-adv-x="2074" arabic-form="final" 
d="M1910 38q-79 38 -133 105q-54 -67 -133 -105t-169 -38h-923q-112 0 -206 55.5t-149.5 149.5t-55.5 206v330l218 55v-385q0 -53 26 -97t70 -70t97 -26h923q52 0 96.5 26t70.5 70t26 97v827l218 55v-882q0 -53 26 -97t70 -70t96 -26l34 -111l-34 -107q-89 0 -168 38z
M882 567h186q24 0 38 10.5t14 32.5t-14 32.5t-38 10.5h-186v177l207 154l65 -94l-186 -124h86q43 0 80 -21t58.5 -57t21.5 -78q0 -41 -21.5 -77t-58.5 -57.5t-80 -21.5h-172v113z" />
    <glyph glyph-name="uni0644.init" unicode="&#x644;" horiz-adv-x="501" arabic-form="initial" 
d="M-6 0l-33 110l36 111h3q53 0 98 26.5t71 71.5t26 98v858l223 54v-912q0 -113 -56 -209t-152 -152t-210 -56h-6z" />
    <glyph glyph-name="uni0644.medi" unicode="&#x644;" horiz-adv-x="613" arabic-form="medial" 
d="M-6 0l-33 110l36 111h3q53 0 98 26.5t71 71.5t26 98v858l223 54v-912q0 -113 -56 -209t-152 -152t-210 -56h-6zM442 39q-80 39 -135 106l-63 132l56 132l118 8q0 -53 26 -98t71 -71.5t98 -26.5l39 -111l-39 -110q-91 0 -171 39z" />
    <glyph glyph-name="uni0644.fina" unicode="&#x644;" horiz-adv-x="1374" arabic-form="final" 
d="M347.5 -474q-96.5 56 -153 152t-56.5 210v457l223 55v-512q0 -54 26.5 -99t71.5 -71t98 -26h204q54 0 98.5 26t70.5 71t26 99v1387l224 56v-1443q0 -114 -56.5 -210t-152.5 -152t-210 -56h-204q-113 0 -209.5 56zM1203 39q-80 39 -135 107l-48 122l40 127l120 22
q0 -53 26 -98t70.5 -71.5t97.5 -26.5l39 -111l-39 -110q-91 0 -171 39z" />
    <glyph glyph-name="uni0645.init" unicode="&#x645;" horiz-adv-x="1097" arabic-form="initial" 
d="M-4 0l-35 110l36 111h3q53 0 98 26.5t71.5 72t26.5 98.5v417h417q114 0 210 -56t152 -151.5t56 -209.5t-56 -210t-152 -152t-210 -56q-91 0 -171 39.5t-134 106.5q-55 -68 -135.5 -107t-172.5 -39h-4zM712 247.5q45 26.5 71 72t26 98.5t-26 98t-71 71t-99 26h-194v-195
q0 -53 26 -98.5t70.5 -72t97.5 -26.5q54 0 99 26.5z" />
    <glyph glyph-name="uni0645.medi" unicode="&#x645;" horiz-adv-x="1223" arabic-form="medial" 
d="M-4 0l-35 110l36 111h3q53 0 98 26.5t71.5 72t26.5 98.5v417h417q114 0 210 -56t152 -151.5t56 -209.5t-56 -210t-152 -152t-210 -56q-91 0 -171 39.5t-134 106.5q-55 -68 -135.5 -107t-172.5 -39h-4zM712 247.5q45 26.5 71 72t26 98.5t-26 98t-71 71t-99 26h-194v-195
q0 -53 26 -98.5t70.5 -72t97.5 -26.5q54 0 99 26.5zM1052 39q-80 39 -135 107l-67 163l74 141l107 -33q0 -53 26 -98t71 -71.5t99 -26.5l35 -111l-39 -110q-91 0 -171 39z" />
    <glyph glyph-name="uni0645.fina" unicode="&#x645;" horiz-adv-x="1588" arabic-form="final" 
d="M194.5 627q56.5 96 153 152t209.5 56h418q113 0 208.5 -56t152 -152t56.5 -210q0 -113 -56.5 -209t-152 -152t-208.5 -56q-114 0 -210 56t-152 152t-56 209v196q-53 0 -98 -26.5t-71.5 -71.5t-26.5 -98v-846l-223 -57v903q0 114 56.5 210zM1073 247.5q45 26.5 71.5 71.5
t26.5 98t-26.5 98t-71.5 71.5t-98 26.5h-195v-196q0 -53 26 -98t70.5 -71.5t98.5 -26.5q53 0 98 26.5zM1416.5 38.5q-79.5 38.5 -134.5 106.5l-61 127l54 145h118q0 -53 26 -98t71 -71.5t98 -26.5l39 -112l-39 -109q-92 0 -171.5 38.5z" />
    <glyph glyph-name="uni0646.init" unicode="&#x646;" horiz-adv-x="483" arabic-form="initial" 
d="M-7 0l-32 110l36 111h3q53 0 98 26.5t71 71.5t26 98v337l222 54v-391q0 -113 -56.5 -209t-152 -152t-208.5 -56h-7zM204 1205h206v-188h-206v188z" />
    <glyph glyph-name="uni0646.medi" unicode="&#x646;" horiz-adv-x="613" arabic-form="medial" 
d="M-4 0l-35 110l37 111h2q53 0 98 26.5t71.5 71.5t26.5 98v337l221 54v-391q0 -53 26 -98t71 -71.5t99 -26.5l39 -111l-39 -110q-91 0 -172 39t-135 106q-55 -67 -135 -106t-171 -39h-4zM202 1207h206v-188h-206v188z" />
    <glyph glyph-name="uni0646.fina" unicode="&#x646;" horiz-adv-x="1312" arabic-form="final" 
d="M347.5 -473.5q-96.5 56.5 -153 152.5t-56.5 210v456l223 55v-511q0 -54 26.5 -99.5t71.5 -72t98 -26.5h204q54 0 98.5 26.5t70.5 72t26 99.5v865l224 55v-920q0 -114 -56.5 -210t-152.5 -152.5t-210 -56.5h-204q-113 0 -209.5 56.5zM1099 221h213l39 -111l-39 -110h-213
v221zM480 827h206v-188h-206v188z" />
    <glyph glyph-name="uni0647.init" unicode="&#x647;" horiz-adv-x="1554" arabic-form="initial" 
d="M-39 110l39 111h173q-33 39 -51.5 90t-18.5 106t18.5 105t51.5 91h-72v221h969q114 0 210 -56t152 -152t56 -209t-56 -209t-152 -152t-210 -56h-1070zM618 247q45 26 71.5 71t26.5 99q0 53 -26.5 98t-71.5 71.5t-98 26.5t-98 -26.5t-71 -71.5t-26 -98q0 -54 26 -99
t71 -71t98 -26t98 26zM1169 247q45 26 71.5 71t26.5 99q0 53 -26.5 98t-71.5 71.5t-99 26.5h-201q33 -41 51 -91t18 -105t-18.5 -106t-50.5 -90h201q54 0 99 26z" />
    <glyph glyph-name="uni0647.medi" unicode="&#x647;" horiz-adv-x="1587" arabic-form="medial" 
d="M-39 110l39 111h173q-33 39 -51.5 90t-18.5 106t18.5 105t51.5 91h-72v221h969q114 0 210 -56t152 -152t56 -209t-56 -209t-152 -152t-210 -56h-1070zM618 247q45 26 71.5 71t26.5 99q0 53 -26.5 98t-71.5 71.5t-98 26.5t-98 -26.5t-71 -71.5t-26 -98q0 -54 26 -99
t71 -71t98 -26t98 26zM1169 247q45 26 71.5 71t26.5 99q0 53 -26.5 98t-71.5 71.5t-99 26.5h-201q33 -41 51 -91t18 -105t-18.5 -106t-50.5 -90h201q54 0 99 26zM1268 221h319l39 -111l-39 -110h-688z" />
    <glyph glyph-name="uni0647.fina" unicode="&#x647;" horiz-adv-x="1170" arabic-form="final" 
d="M347 56q-96 56 -152.5 152t-56.5 209t56.5 208.5t152.5 152t209 56.5h416v-417q0 -113 -56 -209t-151.5 -152t-208.5 -56t-209 56zM654 247q45 26 71 71t26 99v196h-195q-53 0 -98.5 -26.5t-72 -71.5t-26.5 -98q0 -54 26.5 -99t72 -71t98.5 -26t98 26zM998 39
q-80 39 -136 107l-58 124l49 130l120 18q0 -54 26.5 -99t72 -71.5t98.5 -26.5l39 -111l-39 -110q-92 0 -172 39z" />
    <glyph glyph-name="uni0648.fina" unicode="&#x648;" horiz-adv-x="1022" arabic-form="final" 
d="M213 -283l426 283h-158q-95 0 -186.5 56.5t-150 152t-58.5 207.5q0 113 56 209t152 152.5t209 56.5h418v-912l-585 -390zM700 221v393h-197q-53 0 -98 -26.5t-71.5 -71.5t-26.5 -98q0 -54 26.5 -99t71.5 -71.5t98 -26.5h197zM843 221h179l39 -111l-39 -110h-179v221z" />
    <glyph glyph-name="uni0649.fina" unicode="&#x649;" horiz-adv-x="1614" arabic-form="final" 
d="M347.5 -473q-96.5 56 -153 152t-56.5 210v540l222 54v-594q0 -54 26.5 -99t71.5 -71.5t99 -26.5h529q53 0 98 26.5t71.5 71.5t26.5 99q0 34 -16.5 64t-41.5 47h-530l37 221h883l39 -111l-39 -110h-132q22 -58 22 -111q0 -114 -56.5 -210t-152.5 -152t-209 -56h-529
q-113 0 -209.5 56z" />
    <glyph glyph-name="uni064A.init" unicode="&#x64a;" horiz-adv-x="483" arabic-form="initial" 
d="M-7 0l-32 110l36 111h3q53 0 98 26.5t71 71.5t26 98v337l222 54v-391q0 -113 -56.5 -209t-152 -152t-208.5 -56h-7zM262 -387h-464v181h464v-181z" />
    <glyph glyph-name="uni064A.medi" unicode="&#x64a;" horiz-adv-x="613" arabic-form="medial" 
d="M-4 0l-35 110l37 111h2q53 0 98 26.5t71.5 71.5t26.5 98v337l221 54v-391q0 -53 26 -98t71 -71.5t99 -26.5l39 -111l-39 -110q-91 0 -172 39t-135 106q-55 -67 -135 -106t-171 -39h-4zM262 -386h-464v181h464v-181z" />
    <glyph glyph-name="uni064A.fina" unicode="&#x64a;" horiz-adv-x="1614" arabic-form="final" 
d="M347.5 -473q-96.5 56 -153 152t-56.5 210v540l222 54v-594q0 -54 26.5 -99t71.5 -71.5t99 -26.5h529q53 0 98 26.5t71.5 71.5t26.5 99q0 34 -16.5 64t-41.5 47h-530l37 221h883l39 -111l-39 -110h-132q22 -58 22 -111q0 -114 -56.5 -210t-152.5 -152t-209 -56h-529
q-113 0 -209.5 56zM1007 -895h-464v181h464v-181z" />
    <glyph glyph-name="uni066E.init" unicode="&#x66e;" horiz-adv-x="483" 
d="M-7 0l-32 110l36 111h3q53 0 98 26.5t71 71.5t26 98v337l222 54v-391q0 -113 -56.5 -209t-152 -152t-208.5 -56h-7z" />
    <glyph glyph-name="uni066E.medi" unicode="&#x66e;" horiz-adv-x="613" 
d="M-4 0l-35 110l37 111h2q53 0 98 26.5t71.5 71.5t26.5 98v337l221 54v-391q0 -53 26 -98t71 -71.5t99 -26.5l39 -111l-39 -110q-91 0 -172 39t-135 106q-55 -67 -135 -106t-171 -39h-4z" />
    <glyph glyph-name="uni066E.fina" unicode="&#x66e;" horiz-adv-x="2104" 
d="M1933 39q-80 39 -133 106l-38 266l148 116l1 -110q1 -53 27 -98t70 -71.5t96 -26.5l40 -111l-40 -110q-91 0 -171 39zM347.5 56q-96.5 56 -153 152t-56.5 209v337l223 54v-391q0 -53 26.5 -98t71.5 -71.5t98 -26.5h937q53 0 97.5 26.5t71 71.5t26.5 98v337l222 54v-391
q0 -113 -56 -209t-152 -152t-209 -56h-937q-113 0 -209.5 56z" />
    <glyph glyph-name="uni066F.fina" unicode="&#x66f;" horiz-adv-x="1631" 
d="M347 -473q-96 56 -152.5 152t-56.5 210v456l223 54v-510q0 -54 26 -99t71 -71.5t98 -26.5h530q53 0 98 26.5t71 71.5t26 99v111h-614v417q0 113 56.5 209t153 152t209.5 56h417v-945q0 -114 -56 -210t-152 -152t-209 -56h-530q-113 0 -209 56zM1281 221v392h-195
q-54 0 -99 -26.5t-71.5 -71.5t-26.5 -98v-196h392zM1400 221h231l39 -109l-39 -112h-231v221z" />
    <glyph glyph-name="uni067E.init" unicode="&#x67e;" horiz-adv-x="483" arabic-form="initial" 
d="M-7 0l-32 110l36 111h3q53 0 98 26.5t71 71.5t26 98v337l222 54v-391q0 -113 -56.5 -209t-152 -152t-208.5 -56h-7zM274 -207v-316l-189 -58v194h-274v180h463z" />
    <glyph glyph-name="uni067E.medi" unicode="&#x67e;" horiz-adv-x="613" arabic-form="medial" 
d="M-4 0l-35 110l37 111h2q53 0 98 26.5t71.5 71.5t26.5 98v337l221 54v-391q0 -53 26 -98t71 -71.5t99 -26.5l39 -111l-39 -110q-91 0 -172 39t-135 106q-55 -67 -135 -106t-171 -39h-4zM274 -207v-316l-189 -58v194h-274v180h463z" />
    <glyph glyph-name="uni067E.fina" unicode="&#x67e;" horiz-adv-x="2104" arabic-form="final" 
d="M1933 39q-80 39 -133 106l-38 266l148 116l1 -110q1 -53 27 -98t70 -71.5t96 -26.5l40 -111l-40 -110q-91 0 -171 39zM347.5 56q-96.5 56 -153 152t-56.5 209v337l223 54v-391q0 -53 26.5 -98t71.5 -71.5t98 -26.5h937q53 0 97.5 26.5t71 71.5t26.5 98v337l222 54v-391
q0 -113 -56 -209t-152 -152t-209 -56h-937q-113 0 -209.5 56zM1256 -206v-316l-189 -58v194h-274v180h463z" />
    <glyph glyph-name="uni0686.init" unicode="&#x686;" horiz-adv-x="1034" arabic-form="initial" 
d="M-39 110l39 111h745v196q0 53 -26.5 98t-71.5 71.5t-98 26.5h-389l54 221h335q114 0 210.5 -56t152.5 -151.5t56 -209.5v-417h-968zM731 -202v-316l-189 -58v194h-274v180h463z" />
    <glyph glyph-name="uni0686.medi" unicode="&#x686;" horiz-adv-x="1088" arabic-form="medial" 
d="M-39 110l39 111h745v196q0 53 -26.5 98t-71.5 71.5t-98 26.5h-389l54 221h335q114 0 210.5 -56t152.5 -151.5t56 -209.5v-417h-968zM860 221h229l38 -111l-38 -110h-226zM728 -202v-316l-189 -58v194h-274v180h463z" />
    <glyph glyph-name="uni0686.fina" unicode="&#x686;" horiz-adv-x="1271" arabic-form="final" 
d="M1023 221h248l40 -111l-40 -110h-251zM346 -557.5q-96 56.5 -152 152.5t-56 210q0 113 56 208.5t152 151.5t210 56h381v196q0 53 -26.5 98t-71.5 71.5t-98 26.5h-392l56 221h336q113 0 209 -56t152.5 -151.5t56.5 -209.5v-417h-603q-53 0 -98.5 -26t-72 -71t-26.5 -98
q0 -54 26.5 -99t72 -71.5t98.5 -26.5h66l-66 -222q-114 0 -210 56.5zM1049 -174v-316l-189 -59v194h-274v181h463z" />
    <glyph glyph-name="uni0698.fina" unicode="&#x698;" horiz-adv-x="589" arabic-form="final" 
d="M-4 -282l178 120v915l222 56v-1090l-278 -185zM434.5 56q-76.5 56 -124.5 142.5t-48 169.5l134 49q0 -53 26.5 -98t71 -71.5t97.5 -26.5l38 -111l-38 -110q-80 0 -156.5 56zM57 1194h275v194l189 -58v-316h-464v180z" />
    <glyph glyph-name="uni06A1.init" unicode="&#x6a1;" horiz-adv-x="1022" 
d="M-39 110l39 111h193q0 3 -19.5 30.5t-35.5 69.5t-16 96q0 114 56 209.5t152 151.5t209 56h418v-834h-957zM735 221v392h-196q-53 0 -98 -26.5t-71.5 -71.5t-26.5 -98t26.5 -98t71.5 -71.5t98 -26.5h196z" />
    <glyph glyph-name="uni06A1.medi" unicode="&#x6a1;" horiz-adv-x="1066" 
d="M-39 110l39 111h193q0 3 -19.5 30.5t-35.5 69.5t-16 96q0 114 56 209.5t152 151.5t209 56h418v-834h-957zM735 221v392h-196q-53 0 -98 -26.5t-71.5 -71.5t-26.5 -98t26.5 -98t71.5 -71.5t98 -26.5h196zM830 221h236l39 -109l-39 -112h-236v221z" />
    <glyph glyph-name="uni06A1.fina" unicode="&#x6a1;" horiz-adv-x="2075" 
d="M347 56q-96 56 -152.5 152t-56.5 209v337l223 54v-391q0 -53 26.5 -98t71 -71.5t97.5 -26.5h587q-33 41 -51.5 91.5t-18.5 104.5q0 112 56 208t152 152.5t209 56.5h421v-834h-1355q-113 0 -209 56zM1690 221v392h-200q-53 0 -97.5 -26.5t-70.5 -71.5t-26 -98t26 -98
t71 -71.5t98 -26.5h199zM1799 221h276l39 -109l-39 -112h-276v221z" />
    <glyph glyph-name="uni06A4.init" unicode="&#x6a4;" horiz-adv-x="1022" arabic-form="initial" 
d="M-39 110l39 111h193q0 3 -19.5 30.5t-35.5 69.5t-16 96q0 114 56 209.5t152 151.5t209 56h418v-834h-957zM735 221v392h-196q-53 0 -98 -26.5t-71.5 -71.5t-26.5 -98t26.5 -98t71.5 -71.5t98 -26.5h196zM368 1234h275v194l189 -58v-316h-464v180z" />
    <glyph glyph-name="uni06A4.medi" unicode="&#x6a4;" horiz-adv-x="1066" arabic-form="medial" 
d="M-39 110l39 111h193q0 3 -19.5 30.5t-35.5 69.5t-16 96q0 114 56 209.5t152 151.5t209 56h418v-834h-957zM735 221v392h-196q-53 0 -98 -26.5t-71.5 -71.5t-26.5 -98t26.5 -98t71.5 -71.5t98 -26.5h196zM830 221h236l39 -109l-39 -112h-236v221zM368 1234h275v194
l189 -58v-316h-464v180z" />
    <glyph glyph-name="uni06A4.fina" unicode="&#x6a4;" horiz-adv-x="2075" arabic-form="final" 
d="M347 56q-96 56 -152.5 152t-56.5 209v337l223 54v-391q0 -53 26.5 -98t71 -71.5t97.5 -26.5h587q-33 41 -51.5 91.5t-18.5 104.5q0 112 56 208t152 152.5t209 56.5h421v-834h-1355q-113 0 -209 56zM1690 221v392h-200q-53 0 -97.5 -26.5t-70.5 -71.5t-26 -98t26 -98
t71 -71.5t98 -26.5h199zM1799 221h276l39 -109l-39 -112h-276v221zM1332 1230h275v194l189 -58v-316h-464v180z" />
    <glyph glyph-name="uni06A9.init" unicode="&#x6a9;" horiz-adv-x="1756" arabic-form="initial" 
d="M-39 110l39 111h1273q54 0 99 26.5t71 71.5t26 98t-26 98t-71 71.5t-99 26.5h-1170v222l797 480l116 -173l-509 -308h766q114 0 210 -56t152 -151.5t56 -209.5q0 -113 -56 -209t-152 -152t-210 -56h-1273z" />
    <glyph glyph-name="uni06A9.medi" unicode="&#x6a9;" horiz-adv-x="1886" arabic-form="medial" 
d="M-39 110l39 111h1273q54 0 99 26.5t71 71.5t26 98t-26 98t-71 71.5t-99 26.5h-1170v222l797 480l116 -173l-509 -308h766q114 0 210 -56t152 -151.5t56 -209.5q0 -113 -56 -209t-152 -152t-210 -56h-1273zM1714 39q-80 39 -136 107l-53 143l37 128h129q0 -53 26 -98
t71 -71.5t98 -26.5l39 -111l-39 -110q-92 0 -172 39z" />
    <glyph glyph-name="uni06A9.fina" unicode="&#x6a9;" horiz-adv-x="2449" arabic-form="final" 
d="M346 56q-96 56 -152 152t-56 209v337l221 54v-391q0 -53 26.5 -98t72 -71.5t98.5 -26.5h1281q53 0 98 26.5t71 71.5t26 98t-26 98t-71 71.5t-98 26.5h-1170v222l796 480l115 -173l-509 -308h768q113 0 209 -56t152.5 -152t56.5 -209t-56.5 -209t-152.5 -152t-209 -56
h-1281q-114 0 -210 56zM2278 39q-80 39 -135 107l-48 122l40 127l120 22q0 -53 26 -98t70.5 -71.5t97.5 -26.5l40 -111l-40 -110q-91 0 -171 39z" />
    <glyph glyph-name="uni06AF.init" unicode="&#x6af;" horiz-adv-x="1756" arabic-form="initial" 
d="M-39 110l39 111h1273q54 0 99 26.5t71 71.5t26 98t-26 98t-71 71.5t-99 26.5h-1170v222l797 480l116 -173l-509 -308h766q114 0 210 -56t152 -151.5t56 -209.5q0 -113 -56 -209t-152 -152t-210 -56h-1273zM363 1253l414 249l47 -80l-413 -249z" />
    <glyph glyph-name="uni06AF.medi" unicode="&#x6af;" horiz-adv-x="1886" arabic-form="medial" 
d="M-39 110l39 111h1273q54 0 99 26.5t71 71.5t26 98t-26 98t-71 71.5t-99 26.5h-1170v222l797 480l116 -173l-509 -308h766q114 0 210 -56t152 -151.5t56 -209.5q0 -113 -56 -209t-152 -152t-210 -56h-1273zM1714 39q-80 39 -136 107l-53 143l37 128h129q0 -53 26 -98
t71 -71.5t98 -26.5l39 -111l-39 -110q-92 0 -172 39zM363 1253l414 249l47 -80l-413 -249z" />
    <glyph glyph-name="uni06AF.fina" unicode="&#x6af;" horiz-adv-x="2449" arabic-form="final" 
d="M346 56q-96 56 -152 152t-56 209v337l221 54v-391q0 -53 26.5 -98t72 -71.5t98.5 -26.5h1281q53 0 98 26.5t71 71.5t26 98t-26 98t-71 71.5t-98 26.5h-1170v222l796 480l115 -173l-509 -308h768q113 0 209 -56t152.5 -152t56.5 -209t-56.5 -209t-152.5 -152t-209 -56
h-1281q-114 0 -210 56zM2278 39q-80 39 -135 107l-48 122l40 127l120 22q0 -53 26 -98t70.5 -71.5t97.5 -26.5l40 -111l-40 -110q-91 0 -171 39zM935 1253l414 249l47 -80l-413 -249z" />
    <glyph glyph-name="uni06BA.fina" unicode="&#x6ba;" horiz-adv-x="1312" arabic-form="final" 
d="M347.5 -473.5q-96.5 56.5 -153 152.5t-56.5 210v456l223 55v-511q0 -54 26.5 -99.5t71.5 -72t98 -26.5h204q54 0 98.5 26.5t70.5 72t26 99.5v865l224 55v-920q0 -114 -56.5 -210t-152.5 -152.5t-210 -56.5h-204q-113 0 -209.5 56.5zM1099 221h213l39 -111l-39 -110h-213
v221z" />
    <glyph glyph-name="uni06C2.fina" unicode="&#x6c2;" horiz-adv-x="1170" 
d="M347 56q-96 56 -152.5 152t-56.5 209t56.5 208.5t152.5 152t209 56.5h416v-417q0 -113 -56 -209t-151.5 -152t-208.5 -56t-209 56zM654 247q45 26 71 71t26 99v196h-195q-53 0 -98.5 -26.5t-72 -71.5t-26.5 -98q0 -54 26.5 -99t72 -71t98.5 -26t98 26zM998 39
q-80 39 -136 107l-58 124l49 130l120 18q0 -54 26.5 -99t72 -71.5t98.5 -26.5l39 -111l-39 -110q-92 0 -172 39zM406 1116l110 28q-24 30 -31 63q-4 24 -4 33q0 37 17.5 67.5t44.5 49.5t55 25l86 18l16 -85l-85 -17q-17 -3 -32 -19.5t-15 -40.5q0 -27 17 -44.5t41 -17.5
q5 0 15 2l103 24v-92l-338 -84v90z" />
    <glyph glyph-name="uni06C3.fina" unicode="&#x6c3;" horiz-adv-x="1170" 
d="M347 56q-96 56 -152.5 152t-56.5 209t56.5 208.5t152.5 152t209 56.5h416v-417q0 -113 -56 -209t-151.5 -152t-208.5 -56t-209 56zM654 247q45 26 71 71t26 99v196h-195q-53 0 -98.5 -26.5t-72 -71.5t-26.5 -98q0 -54 26.5 -99t72 -71t98.5 -26t98 26zM998 39
q-80 39 -136 107l-58 124l49 130l120 18q0 -54 26.5 -99t72 -71.5t98.5 -26.5l39 -111l-39 -110q-92 0 -172 39zM401 1179h464v-181h-464v181z" />
    <glyph glyph-name="uni06C7.fina" unicode="&#x6c7;" horiz-adv-x="1022" arabic-form="final" 
d="M213 -283l426 283h-158q-95 0 -186.5 56.5t-150 152t-58.5 207.5q0 113 56 209t152 152.5t209 56.5h418v-912l-585 -390zM700 221v393h-197q-53 0 -98 -26.5t-71.5 -71.5t-26.5 -98q0 -54 26.5 -99t71.5 -71.5t98 -26.5h197zM843 221h179l39 -111l-39 -110h-179v221z
M409 1099l143 35q-40 40 -40 98q0 38 18.5 69.5t50 50t69.5 18.5q37 0 68.5 -18.5t50 -50t18.5 -69.5q0 -47 -28 -85t-72 -48l-278 -69v69zM696.5 1185q19.5 20 19.5 47q0 28 -19.5 47.5t-46.5 19.5t-47 -19.5t-20 -47.5q0 -27 20 -47t47 -20t46.5 20z" />
    <glyph glyph-name="uni06CC.init" unicode="&#x6cc;" horiz-adv-x="483" arabic-form="initial" 
d="M-7 0l-32 110l36 111h3q53 0 98 26.5t71 71.5t26 98v337l222 54v-391q0 -113 -56.5 -209t-152 -152t-208.5 -56h-7zM262 -387h-464v181h464v-181z" />
    <glyph glyph-name="uni06CC.medi" unicode="&#x6cc;" horiz-adv-x="613" arabic-form="medial" 
d="M-4 0l-35 110l37 111h2q53 0 98 26.5t71.5 71.5t26.5 98v337l221 54v-391q0 -53 26 -98t71 -71.5t99 -26.5l39 -111l-39 -110q-91 0 -172 39t-135 106q-55 -67 -135 -106t-171 -39h-4zM262 -386h-464v181h464v-181z" />
    <glyph glyph-name="uni06CC.fina" unicode="&#x6cc;" horiz-adv-x="1614" arabic-form="final" 
d="M347.5 -473q-96.5 56 -153 152t-56.5 210v540l222 54v-594q0 -54 26.5 -99t71.5 -71.5t99 -26.5h529q53 0 98 26.5t71.5 71.5t26.5 99q0 34 -16.5 64t-41.5 47h-530l37 221h883l39 -111l-39 -110h-132q22 -58 22 -111q0 -114 -56.5 -210t-152.5 -152t-209 -56h-529
q-113 0 -209.5 56z" />
    <glyph glyph-name="uni06D5.fina" unicode="&#x6d5;" horiz-adv-x="1170" 
d="M347 56q-96 56 -152.5 152t-56.5 209t56.5 208.5t152.5 152t209 56.5h416v-417q0 -113 -56 -209t-151.5 -152t-208.5 -56t-209 56zM654 247q45 26 71 71t26 99v196h-195q-53 0 -98.5 -26.5t-72 -71.5t-26.5 -98q0 -54 26.5 -99t72 -71t98.5 -26t98 26zM998 39
q-80 39 -136 107l-58 124l49 130l120 18q0 -54 26.5 -99t72 -71.5t98.5 -26.5l39 -111l-39 -110q-92 0 -172 39z" />
    <glyph glyph-name="uniFDFC" unicode="&#xfdfc;" horiz-adv-x="2652" arabic-form="isolated" 
d="M417.5 -419q-96.5 56 -153 152t-56.5 210v456l223 56v-512q0 -53 26.5 -98.5t71.5 -72t98 -26.5h134q53 0 98 26.5t71 72t26 98.5v1208l224 56v-1264q0 -114 -56.5 -210t-152.5 -152t-210 -56h-134q-113 0 -209.5 56zM1575 -160h424v-182h-424v182zM1565 56.5
q-96 56.5 -152 152t-56 208.5v828l222 56v-884q0 -53 26 -98t71 -71.5t99 -26.5q53 0 97.5 26.5t71 71.5t26.5 98v337l221 55v-392q0 -113 -56 -208.5t-151.5 -152t-208.5 -56.5q-114 0 -210 56.5zM2185 -245l178 118v879l223 56v-1052l-279 -186z" />
    <glyph glyph-name="uni06440627" unicode="&#xfefb;" horiz-adv-x="1158" arabic-form="isolated" 
d="M138 221h103v1048l222 63v-1111h196q53 0 98 26.5t71.5 71.5t26.5 98v865l221 56v-921q0 -113 -56 -208.5t-152 -152t-209 -56.5h-521v221z" />
    <glyph glyph-name=".notdef" horiz-adv-x="1875" 
d="M138 1600h1599v-1599h-1599v1599zM673 447h517v-69h-517v69zM392 789l87 109l-129 33l34 103l123 -45v129h100v-129l125 51l36 -98l-131 -43l90 -109l-86 -65l-81 117l-81 -117zM1670 69v1465h-1467v-1465h1467zM1154 789l82 109l-126 33l35 103l122 -45v129h102v-129
l121 51l38 -98l-131 -43l89 -109l-87 -65l-78 117l-84 -117z" />
    <glyph glyph-name=".null" 
 />
    <glyph glyph-name="nonmarkingreturn" unicode="&#xd;" horiz-adv-x="464" 
 />
    <glyph glyph-name="space" unicode=" " horiz-adv-x="196" 
 />
    <glyph glyph-name="exclam" unicode="!" horiz-adv-x="481" 
d="M145 1247h192v-910h-192v910zM138 171h205v-189h-205v189z" />
    <glyph glyph-name="quotedbl" unicode="&#x22;" horiz-adv-x="657" 
d="M129 1533h173v-164l-26 -352h-151zM458 1533h173v-164l-26 -352h-151z" />
    <glyph glyph-name="numbersign" unicode="#" horiz-adv-x="1081" 
d="M242 364h-219v136h243l59 331h-236v137h259l65 369h142l-65 -369h211l66 369h142l-65 -369h214v-137h-238l-59 -331h229v-136h-251l-66 -364h-141l63 364h-209l-64 -364h-144zM617 500l61 331h-211l-59 -331h209z" />
    <glyph glyph-name="dollar" unicode="$" horiz-adv-x="1160" 
d="M301.5 51.5q-100.5 58.5 -152.5 158.5t-52 235h230q0 -137 70 -210.5t199 -73.5q66 0 118 27.5t81.5 75t29.5 105.5q0 85 -36 134q-34 46 -96 79.5t-186 84.5l-49 20q-160 67 -235.5 157.5t-75.5 235.5q0 111 50.5 196.5t142 136.5t213.5 60v200h120v-203
q122 -13 209.5 -71.5t133.5 -155.5t46 -224h-230q0 128 -62 201t-169 73q-66 0 -117 -26.5t-79 -75t-28 -110.5q0 -79 42 -131q36 -43 97.5 -76t182.5 -85l34 -15q115 -49 185.5 -101t106 -124.5t35.5 -175.5q0 -111 -48 -196t-137 -135.5t-211 -59.5v-195h-119v195
q-143 11 -243.5 69.5z" />
    <glyph glyph-name="percent" unicode="%" horiz-adv-x="1519" 
d="M342 177l708 1138l118 -62l-710 -1137zM959 17q-69 38 -107.5 107.5t-38.5 161.5v70q0 89 38 157t106.5 105.5t157.5 37.5q92 0 161.5 -37.5t108 -106.5t38.5 -161v-72q0 -88 -38.5 -156t-107.5 -106t-159 -38t-159 38zM1224 157.5q39 42.5 40 113.5l1 87q0 73 -41 118
t-109 45q-66 0 -105.5 -44t-40.5 -120v-82q0 -45 19 -81.5t53 -57.5t77 -21q67 0 106 42.5zM245 837q-69 37 -107.5 105.5t-38.5 159.5v72q0 88 38 156t107.5 106t158.5 38q91 0 159.5 -38t106 -107t37.5 -160v-72q0 -87 -38 -154.5t-106.5 -105t-157.5 -37.5q-90 0 -159 37
zM511.5 979.5q38.5 46.5 38.5 129.5v65q0 73 -39.5 117.5t-107.5 44.5q-66 0 -106 -44.5t-40 -121.5v-73q0 -73 40 -118.5t107 -45.5q69 0 107.5 46.5z" />
    <glyph glyph-name="ampersand" unicode="&#x26;" horiz-adv-x="1330" 
d="M335.5 509q-36.5 -59 -36.5 -121q0 -64 32 -115t89.5 -79.5t131.5 -28.5q146 0 250.5 79.5t158 201.5t53.5 245h200q0 -236 -102 -396.5t-258 -238t-317 -77.5q-139 0 -243 47.5t-160.5 136t-56.5 206.5q0 70 24.5 131.5t84 129t166.5 149.5q-72 94 -107 173.5t-35 159.5
q0 107 47 189t131.5 127.5t193.5 45.5q99 0 177.5 -41.5t122.5 -114t44 -163.5q0 -85 -49.5 -164.5t-149.5 -150.5l-106 -79l668 -761h-265l-566 645q-86 -77 -122.5 -136zM705.5 1051q27.5 43 27.5 91q0 40 -19.5 74t-54 53.5t-77.5 19.5q-75 0 -122 -47.5t-47 -125.5
q0 -109 106 -231l101 78q58 45 85.5 88z" />
    <glyph glyph-name="quotesingle" unicode="'" horiz-adv-x="380" 
d="M104 1533h173v-164l-26 -352h-151z" />
    <glyph glyph-name="parenleft" unicode="(" horiz-adv-x="843" 
d="M353 -164.5q-109 141.5 -177.5 330t-68.5 410.5q0 330 138.5 576t346.5 407l115 -137q-104 -91 -191 -200.5t-149 -273t-62 -372.5q0 -298 117.5 -500t284.5 -347l-115 -138q-130 103 -239 244.5z" />
    <glyph glyph-name="parenright" unicode=")" horiz-adv-x="843" 
d="M420.5 76q117.5 202 117.5 500q0 209 -62 372.5t-149 273t-191 200.5l115 137q208 -161 346.5 -407t138.5 -576q0 -222 -68.5 -410.5t-177.5 -330t-239 -244.5l-115 138q167 145 284.5 347z" />
    <glyph glyph-name="asterisk" unicode="*" horiz-adv-x="946" 
d="M426 800l-155 -156l-67 67l155 155h-220v94h219l-154 156l67 67l155 -156v220h95v-220l155 156l66 -67l-155 -156h220v-94h-220l155 -155l-66 -67l-155 156v-220h-95v220z" />
    <glyph glyph-name="plus" unicode="+" horiz-adv-x="1081" 
d="M366 365h-317v188h317v317h189v-317h316v-188h-316v-316h-189v316z" />
    <glyph glyph-name="comma" unicode="," horiz-adv-x="474" 
d="M289 2l-73 -95l-39 70l80 95l-39 -70l-22 64h93v-64z" />
    <glyph glyph-name="hyphen" unicode="-" horiz-adv-x="801" 
d="M138 323h525v-183h-525v183z" />
    <glyph glyph-name="period" unicode="." horiz-adv-x="481" 
d="M138 189h205v-189h-205v189z" />
    <glyph glyph-name="slash" unicode="/" horiz-adv-x="902" 
d="M138 57l451 996l174 -56l-452 -997z" />
    <glyph glyph-name="zero" unicode="0" horiz-adv-x="1160" 
d="M320.5 51.5q-107.5 72.5 -164 211t-56.5 333.5v265q0 193 56.5 331t164 210t258.5 72q153 0 260.5 -72.5t164 -210.5t56.5 -333v-264q0 -195 -56.5 -333t-164 -210t-260.5 -72q-151 0 -258.5 72.5zM763.5 266q62.5 101 63.5 298v327q-1 195 -63.5 296.5t-184.5 101.5
q-121 0 -183 -100.5t-63 -295.5v-327q1 -197 63 -299t183 -102q122 0 184.5 101z" />
    <glyph glyph-name="one" unicode="1" horiz-adv-x="1160" 
d="M535 1187l-364 -117v183l575 202h24v-1455h-235v1187z" />
    <glyph glyph-name="two" unicode="2" horiz-adv-x="1160" 
d="M112 158l478 522q196 221 196 363q0 117 -60 181.5t-170 64.5q-57 0 -112 -30t-92 -94t-38 -160h-234q2 114 54.5 221.5t160 177.5t264.5 70q146 0 250 -47.5t159 -140t55 -223.5q0 -110 -66.5 -229t-224.5 -286l-314 -363h655v-185h-961v158z" />
    <glyph glyph-name="three" unicode="3" horiz-adv-x="1160" 
d="M310 32q-113 51 -178 147t-65 225h234q0 -66 35.5 -121t97.5 -86.5t139 -31.5q79 0 138 29.5t90.5 83t31.5 125.5q0 249 -283 249h-145v179h143q122 0 190.5 61.5t68.5 170.5q0 103 -63.5 164.5t-175.5 61.5q-67 0 -122 -27t-86.5 -75.5t-31.5 -109.5h-235
q0 83 44.5 173.5t149.5 155.5t274 68q148 1 256 -47.5t166 -141t58 -218.5q0 -103 -63.5 -188.5t-178.5 -133.5q127 -37 197.5 -126t70.5 -219q0 -127 -62.5 -222t-176.5 -147t-263 -52q-142 2 -255 53z" />
    <glyph glyph-name="four" unicode="4" horiz-adv-x="1160" 
d="M691 342h-611l-12 139l620 969l240 3v-929h183v-182h-183v-342h-237v342zM691 524v627l-41 -74l-347 -553h388z" />
    <glyph glyph-name="five" unicode="5" horiz-adv-x="1160" 
d="M351 35q-109 55 -170.5 151t-63.5 216h216q8 -114 74 -175.5t182 -61.5q121 0 183.5 79.5t62.5 236.5q0 139 -69 216t-197 77q-77 0 -133.5 -22.5t-96.5 -68.5l-182 46l77 724h798v-185h-606l-42 -396q43 30 111 49.5t132 19.5q139 0 238 -57t151 -163.5t52 -253.5
t-55.5 -257t-161 -170.5t-251.5 -60.5q-140 1 -249 56z" />
    <glyph glyph-name="six" unicode="6" horiz-adv-x="1160" 
d="M356 43.5q-117 64.5 -186.5 188t-69.5 294.5v151q0 258 104 445q92 166 257.5 257.5t374.5 94.5h42v-188q-158 0 -274 -55t-183.5 -160t-82.5 -253q57 73 143 112.5t189 39.5q125 0 219 -61t145 -172.5t51 -257.5q-1 -136 -59 -250.5t-165.5 -182t-247.5 -67.5t-257 64.5
zM732 205.5q56 41.5 88 113.5t32 160q0 92 -32 162t-91 109t-137 39q-60 0 -115 -24t-94 -65.5t-53 -91.5v-112q0 -102 33.5 -177t96 -115t147.5 -40q69 0 125 41.5z" />
    <glyph glyph-name="seven" unicode="7" horiz-adv-x="1160" 
d="M817 1268h-756v185h1004v-126l-578 -1327h-247z" />
    <glyph glyph-name="eight" unicode="8" horiz-adv-x="1160" 
d="M321 29q-111 50 -170.5 143.5t-59.5 220.5q0 120 67.5 213t188.5 140q-104 46 -163.5 131t-59.5 195q0 123 56 214t158.5 139.5t240.5 48.5q139 0 242.5 -49t159.5 -140t56 -213q0 -110 -59.5 -195t-162.5 -131q120 -48 188 -139.5t68 -213.5q0 -127 -59 -220
t-169 -143.5t-259 -50.5q-152 0 -263 50zM717 194.5q57 29.5 88 84.5t31 129t-31.5 129t-89 85t-133.5 30q-77 0 -135 -30t-90 -85t-32 -129t31 -128.5t89.5 -84.5t138.5 -30q76 0 133 29.5zM699.5 863.5q50.5 28.5 77.5 80t27 118.5t-28 118.5t-79 80t-118 28.5
q-102 0 -161.5 -61t-59.5 -166q0 -102 60 -164.5t164 -62.5q67 0 117.5 28.5z" />
    <glyph glyph-name="nine" unicode="9" horiz-adv-x="1160" 
d="M300 171l57 3q216 3 333.5 116.5t129.5 329.5q-54 -74 -133.5 -114t-173.5 -40q-122 0 -219 60t-151.5 171t-54.5 260q0 146 63.5 264t172.5 185.5t240 67.5q149 0 260 -71.5t171 -202t60 -303.5v-142q0 -279 -108 -457q-90 -154 -248 -236.5t-369 -82.5h-30v192z
M726.5 690q69.5 51 95.5 135v101q0 178 -67.5 270.5t-190.5 92.5q-53 0 -109 -35t-95 -110.5t-39 -188.5q1 -94 32 -165.5t86 -111t125 -39.5q93 0 162.5 51z" />
    <glyph glyph-name="colon" unicode=":" horiz-adv-x="481" 
d="M138 184h205v-189h-205v189zM138 707h205v-189h-205v189z" />
    <glyph glyph-name="semicolon" unicode=";" horiz-adv-x="481" 
d="M343 501h-204v189h204v-189zM340 -11l-63 -239h-63v239h-73v188h199v-188z" />
    <glyph glyph-name="less" unicode="&#x3c;" horiz-adv-x="1045" 
d="M58 534v189l867 366v-215l-626 -247l626 -240v-217z" />
    <glyph glyph-name="equal" unicode="=" horiz-adv-x="1037" 
d="M49 769h782v-188h-782v188zM49 257h782v-189h-782v189z" />
    <glyph glyph-name="greater" unicode="&#x3e;" horiz-adv-x="1049" 
d="M112 386l621 246l-621 241v216l861 -365v-188l-861 -366v216z" />
    <glyph glyph-name="question" unicode="?" horiz-adv-x="876" 
d="M147 344v386h244q45 0 83 22t60 60t22 83t-22 83t-60 60t-83 22h-244v181h244q94 0 173.5 -46.5t126.5 -126t47 -173.5t-46.5 -173.5t-126 -126.5t-172.5 -47h-64v-204h-182zM137 -18v189h205v-189h-205z" />
    <glyph glyph-name="at" unicode="@" horiz-adv-x="1854" 
d="M269.5 -193q-181.5 259 -181.5 652q0 240 111 461.5t313.5 359.5t462.5 138q245 0 422 -97t271 -283t94 -448q0 -33 -1 -50q-5 -163 -59.5 -290.5t-148.5 -199.5t-214 -72q-61 0 -119 25t-99 93t-41 186q0 37 2 57l39 474q-50 34 -120 34q-81 0 -142 -50.5t-97.5 -143.5
t-47.5 -219q-4 -60 -4 -82q0 -127 41.5 -177.5t123.5 -50.5q69 0 125 59.5t107 189.5l90 -47q-67 -172 -159 -258t-224 -86q-74 0 -137.5 38.5t-103.5 123.5t-40 216q0 37 3 77q12 146 70 272t158.5 203t234.5 77q117 0 189.5 -37.5t102.5 -73.5l-47 -521q-4 -40 -4 -81
q0 -68 15.5 -104t43.5 -48.5t71 -12.5q69 0 122 48.5t84.5 144t36.5 231.5q1 17 1 49q0 225 -74 381t-217 236.5t-348 80.5q-206 0 -370.5 -114.5t-258 -302.5t-95.5 -399q-3 -355 144 -565.5t518 -210.5q80 0 174.5 19.5t146.5 50.5l34 -126q-67 -40 -168 -63.5t-200 -23.5
q-449 1 -630.5 260z" />
    <glyph glyph-name="A" unicode="A" horiz-adv-x="1330" 
d="M548 1453h231l542 -1453h-262l-112 330h-565l-112 -330h-258zM886 522l-223 649l-219 -649h442z" />
    <glyph glyph-name="B" unicode="B" horiz-adv-x="1287" 
d="M143 1453h471q263 0 400 -99.5t137 -290.5q0 -122 -58 -204.5t-167 -113.5q82 -17 142 -63t92.5 -114t32.5 -150q0 -202 -129.5 -309.5t-375.5 -108.5h-545v1453zM840.5 873q67.5 53 67.5 164q0 114 -70 169t-219 57h-234v-1072h298q127 0 198.5 61t71.5 169t-66.5 170
t-185.5 63h-338v166h264q146 0 213.5 53z" />
    <glyph glyph-name="C" unicode="C" horiz-adv-x="1335" 
d="M389 52.5q-132 73.5 -211.5 227t-79.5 383.5v129q0 134 48 289t177.5 273.5t353.5 119.5q166 0 290.5 -59.5t198 -172t86.5 -269.5h-243q-9 156 -91.5 231t-240.5 75q-162 0 -248.5 -121t-86.5 -354v-142q0 -486 337 -486q155 0 237.5 73.5t92.5 226.5h241
q-6 -113 -61 -225t-181 -191.5t-329 -80.5q-158 0 -290 73.5z" />
    <glyph glyph-name="D" unicode="D" horiz-adv-x="1328" 
d="M143 1453h443q163 0 311.5 -77t242 -230t93.5 -370v-103q0 -195 -82 -348t-228 -239t-329 -86h-451v1453zM783 241.5q91 50.5 148 158.5t57 271v109q0 126 -39 233t-128 176t-232 74h-204v-1072h204q103 0 194 50.5z" />
    <glyph glyph-name="E" unicode="E" horiz-adv-x="1150" 
d="M143 1453h958v-190h-716v-423h615v-186h-615v-463h715v-191h-957v1453z" />
    <glyph glyph-name="F" unicode="F" horiz-adv-x="1136" 
d="M143 1453h946v-190h-704v-443h628v-193h-628v-627h-242v1453z" />
    <glyph glyph-name="G" unicode="G" horiz-adv-x="1396" 
d="M411 56q-137 77 -215.5 223t-80.5 347l-1 173q-3 182 63.5 336t200.5 246.5t326 92.5q252 0 397 -119t171 -345h-236q-21 139 -101 205.5t-223 66.5q-108 0 -187.5 -57.5t-122.5 -165.5t-43 -257v-141q0 -157 45 -267t130 -166.5t205 -56.5q96 0 173.5 25.5t115.5 66.5
v297h-315v173h558v-562q-47 -56 -131 -99.5t-191.5 -68t-225.5 -24.5q-175 0 -312 77z" />
    <glyph glyph-name="H" unicode="H" horiz-adv-x="1436" 
d="M143 1453h242v-613h667v613h240v-1453h-240v648h-667v-648h-242v1453z" />
    <glyph glyph-name="I" unicode="I" horiz-adv-x="588" 
d="M171 1453h244v-1453h-244v1453z" />
    <glyph glyph-name="J" unicode="J" horiz-adv-x="1138" 
d="M271.5 31q-105.5 52 -160.5 152.5t-55 242.5h242q0 -130 56 -192.5t173 -62.5q69 0 120.5 33t80 95.5t28.5 147.5v1006h244v-1002q0 -135 -58.5 -242.5t-166 -168.5t-248.5 -61q-150 0 -255.5 52z" />
    <glyph glyph-name="K" unicode="K" horiz-adv-x="1306" 
d="M1291 0h-290l-473 675l163 184zM143 0v1453h242v-1453h-242zM370 747l599 706h303l-904 -1025z" />
    <glyph glyph-name="L" unicode="L" horiz-adv-x="1090" 
d="M143 1453h243v-1262h657v-191h-900v1453z" />
    <glyph glyph-name="M" unicode="M" horiz-adv-x="1778" 
d="M143 1453h320l425 -1142l423 1142h322v-1453h-244v305l21 852l-441 -1157h-163l-444 1156l23 -846v-310h-242v1453z" />
    <glyph glyph-name="N" unicode="N" horiz-adv-x="1438" 
d="M143 1453h243l668 -1070v1070h241v-1453h-241l-668 1070v-1070h-243v1453z" />
    <glyph glyph-name="O" unicode="O" horiz-adv-x="1393" 
d="M381.5 64q-137.5 85 -213 239t-75.5 353v129q0 201 72 357t208.5 244t322.5 88q180 0 317 -85t212.5 -240t75.5 -358v-122q0 -206 -75.5 -362.5t-212 -242t-315.5 -85.5t-316.5 85zM890 232q80 58 122 169t42 266v120q0 155 -42.5 265.5t-123 168.5t-192.5 58
q-110 0 -190.5 -54t-124 -158.5t-43.5 -253.5v-144q0 -156 43 -267.5t123.5 -169.5t193.5 -58q112 0 192 58z" />
    <glyph glyph-name="P" unicode="P" horiz-adv-x="1294" 
d="M143 1453h533q162 0 281.5 -59t183.5 -165t64 -244q0 -137 -63.5 -238t-183 -155.5t-283.5 -54.5h-290v-537h-242v1453zM885.5 794.5q73.5 65.5 73.5 187.5q0 130 -74.5 205.5t-206.5 75.5h-293v-534h291q136 0 209.5 65.5z" />
    <glyph glyph-name="Q" unicode="Q" horiz-adv-x="1393" 
d="M699 -21q-180 0 -317 85t-212.5 239.5t-75.5 355.5v126q0 207 75.5 363t212 241t316.5 85q179 0 316 -86t212 -241t75 -356v-121q0 -202 -71.5 -354.5t-201.5 -237.5l248 -211l-153 -132l-300 260q-60 -16 -124 -16zM890 232q80 58 122 168t42 264v121q0 156 -42 267
t-122 169t-192 58q-113 0 -193 -57.5t-122 -168t-42 -265.5v-118q0 -157 42.5 -268.5t122.5 -169.5t193 -58q111 0 191 58z" />
    <glyph glyph-name="R" unicode="R" horiz-adv-x="1334" 
d="M141 1453h531q163 0 281 -51t181 -148t63 -232q0 -149 -72.5 -254t-207.5 -155l332 -599v-14h-259l-302 554h-305v-554h-242v1453zM832 776.5q60 31.5 91.5 89.5t31.5 135q0 123 -75 192.5t-211 69.5h-286v-518h307q82 0 142 31.5z" />
    <glyph glyph-name="S" unicode="S" horiz-adv-x="1253" 
d="M369.5 30.5q-132.5 51.5 -213 157t-80.5 261.5h242q0 -140 87 -211t253 -71q81 0 144 26t98 72.5t35 107.5q0 99 -71 157q-46 36 -110 62t-164 58q-85 28 -132.5 45.5t-89.5 40.5q-125 62 -186.5 148.5t-61.5 199.5q0 120 72 208.5t193.5 135t267.5 46.5q149 0 267.5 -56
t185.5 -157t67 -232h-241q0 76 -35.5 134.5t-100.5 90.5t-151 32q-84 0 -148.5 -26.5t-100 -72.5t-35.5 -103q0 -85 77 -142q46 -35 107 -59.5t161 -56.5q100 -33 160 -56t113 -57q199 -124 199 -339q0 -105 -56 -194.5t-173 -145t-291 -55.5q-156 0 -288.5 51.5z" />
    <glyph glyph-name="T" unicode="T" horiz-adv-x="1266" 
d="M509 1263h-465v190h1176v-190h-469v-1263h-242v1263z" />
    <glyph glyph-name="U" unicode="U" horiz-adv-x="1361" 
d="M390.5 39.5q-123.5 60.5 -190.5 174t-67 267.5v972h246v-971q0 -149 79 -230t222 -81t222.5 80.5t79.5 230.5v971h240v-971q0 -155 -64.5 -268.5t-186.5 -174t-291 -60.5q-166 0 -289.5 60.5z" />
    <glyph glyph-name="V" unicode="V" horiz-adv-x="1303" 
d="M12 1453h266l326 -1025l47 -159l46 160l326 1024h271l-509 -1453h-267z" />
    <glyph glyph-name="W" unicode="W" horiz-adv-x="1804" 
d="M36 1453h242l203 -913l36 -163l42 163l236 913h208l239 -913l40 -163l38 163l201 913h243l-338 -1453h-255l-227 862l-46 162l-41 -162l-230 -862h-252z" />
    <glyph glyph-name="X" unicode="X" horiz-adv-x="1273" 
d="M479 734l-443 719h278l322 -549l322 549h280l-442 -719l454 -734h-279l-335 568l-333 -568h-282z" />
    <glyph glyph-name="Y" unicode="Y" horiz-adv-x="1262" 
d="M507 533l-495 920h263l354 -712l355 712h266l-496 -920v-533h-247v533z" />
    <glyph glyph-name="Z" unicode="Z" horiz-adv-x="1238" 
d="M76 132l778 1131h-767v190h1070v-128l-776 -1134h791v-191h-1096v132z" />
    <glyph glyph-name="bracketleft" unicode="[" horiz-adv-x="527" 
d="M134 1688h391v-176h-156v-1672h156v-174h-391v2022z" />
    <glyph glyph-name="backslash" unicode="\" horiz-adv-x="902" 
d="M139 997l174 56l451 -996l-173 -57z" />
    <glyph glyph-name="bracketright" unicode="]" horiz-adv-x="527" 
d="M6 -172h181v1695h-181v165h392v-2022h-392v162z" />
    <glyph glyph-name="asciicircum" unicode="^" horiz-adv-x="890" 
d="M355 1453h176l299 -725h-184l-230 597h56l-235 -597h-181z" />
    <glyph glyph-name="underscore" unicode="_" horiz-adv-x="717" 
d="M0 151h717v-151h-717v151z" />
    <glyph glyph-name="a" unicode="a" horiz-adv-x="1085" 
d="M235 19.5q-81 40.5 -126.5 112.5t-45.5 161q0 167 130 256t369 90h165v99q0 94 -52.5 143.5t-150.5 49.5q-61 0 -108.5 -21.5t-74 -60.5t-26.5 -89l-226 1q0 97 58 174t160 121t229 44q129 0 224 -43.5t146.5 -125t53.5 -193.5v-491q2 -159 41 -234v-13h-238
q-17 44 -28 134q-53 -75 -134 -115t-184 -40q-101 0 -182 40.5zM627.5 191.5q65.5 39.5 99.5 109.5v203h-154q-119 0 -200.5 -48.5t-81.5 -146.5q0 -46 23.5 -82t64 -55.5t91.5 -19.5q92 0 157.5 39.5z" />
    <glyph glyph-name="b" unicode="b" horiz-adv-x="1138" 
d="M473 18.5q-77 39.5 -128 113.5l-11 -132h-211v1533h234v-580q50 72 123 109.5t164 37.5q131 0 224.5 -65.5t143 -189.5t49.5 -297v-18q0 -172 -49.5 -296t-143 -189.5t-222.5 -65.5q-96 0 -173 39.5zM771 261q55 96 55 291q0 180 -60 271.5t-175 91.5q-83 0 -144.5 -41.5
t-89.5 -119.5v-447q29 -68 89 -105t146 -37q124 0 179 96z" />
    <glyph glyph-name="c" unicode="c" horiz-adv-x="1054" 
d="M294 45.5q-109 66.5 -167.5 191t-58.5 295.5v22q0 158 55 281.5t163.5 194t262.5 70.5q130 0 228 -50.5t152.5 -143.5t56.5 -219h-220q-5 107 -64 167.5t-159 60.5q-117 0 -178.5 -90.5t-62.5 -269.5v-31q0 -359 245 -359q97 0 155.5 53t63.5 145h220q-2 -111 -58 -198.5
t-154 -136.5t-223 -49q-148 0 -257 66.5z" />
    <glyph glyph-name="d" unicode="d" horiz-adv-x="1138" 
d="M271.5 46q-93.5 67 -144 194.5t-50.5 303.5t49.5 300.5t143 190t224.5 65.5q89 0 162.5 -39t125.5 -114v586h232v-1533h-211l-9 136q-54 -77 -131.5 -117t-171.5 -40q-126 0 -219.5 67zM689.5 201.5q60.5 36.5 92.5 107.5v446q-65 160 -237 160q-108 0 -168.5 -85.5
t-64.5 -250.5v-51q0 -175 60 -269t173 -94q84 0 144.5 36.5z" />
    <glyph glyph-name="e" unicode="e" horiz-adv-x="1082" 
d="M803 638v20q0 72 -29.5 130.5t-83.5 92.5t-123 34q-71 0 -129 -37t-94.5 -106.5t-43.5 -162.5l4 -90v-46q3 -89 45.5 -160.5t113 -112t154.5 -40.5q90 0 158 31t119 94l103 -122q-63 -86 -168.5 -135t-231.5 -49q-149 0 -269.5 67t-189 189t-68.5 279v34q0 158 60 283
t172.5 197t264.5 72q140 0 243.5 -62t159.5 -177t56 -272v-84h-786v133h563z" />
    <glyph glyph-name="f" unicode="f" horiz-adv-x="705" 
d="M200 912h-169v167h169v111q2 173 97 268.5t267 95.5q73 0 148 -20l-2 -176q-41 11 -96 11q-88 0 -134 -46t-46 -134v-110h239v-167h-239v-912h-234v912z" />
    <glyph glyph-name="g" unicode="g" horiz-adv-x="1155" 
d="M810 925l6 154h215v-1045q0 -99 -43.5 -204t-155 -181.5t-298.5 -76.5q-116 0 -220 45.5t-165 122.5l97 136q55 -65 120.5 -96.5t149.5 -31.5q134 0 206.5 74t72.5 214v753zM681 27q-77 -40 -174 -40q-129 0 -225.5 67.5t-149.5 192t-53 292.5v14q0 168 53 291.5
t150 189.5t227 66q103 0 183.5 -43.5t132.5 -127.5l-20 -184q-28 86 -89 129t-151 43q-120 0 -186 -99t-66 -286q0 -111 29.5 -192.5t85.5 -125.5t134 -44q91 0 153 40.5t89 115.5l4 -183q-50 -76 -127 -116z" />
    <glyph glyph-name="h" unicode="h" horiz-adv-x="1140" 
d="M476.5 1046.5q85.5 53.5 189.5 53.5q352 0 355 -412v-688h-234v687q0 117 -48 172.5t-152 55.5q-89 0 -155 -58t-92 -157l-3 193q54 100 139.5 153.5zM119 0v1533h231v-1533h-231z" />
    <glyph glyph-name="i" unicode="i" horiz-adv-x="511" 
d="M138 1079h235v-1079h-235v1079zM154.5 1290.5q-38.5 34.5 -38.5 89.5q0 54 39 89.5t99 35.5q62 0 101.5 -35.5t39.5 -89.5q0 -55 -39.5 -89.5t-101.5 -34.5q-61 0 -99.5 34.5z" />
    <glyph glyph-name="j" unicode="j" horiz-adv-x="512" 
d="M-127 -419l2 183q58 -14 95 -14q85 0 129 46.5t44 134.5v1148h234v-1149q0 -176 -96 -270.5t-271 -94.5q-72 0 -137 16zM158 1290.5q-38 34.5 -38 89.5q0 54 38.5 89.5t99.5 35.5t100.5 -35.5t39.5 -89.5q0 -55 -39.5 -89.5t-100.5 -34.5q-62 0 -100 34.5z" />
    <glyph glyph-name="k" unicode="k" horiz-adv-x="1063" 
d="M124 1533h234v-891l69 72l338 365h285l-421 -449l446 -630h-268l-334 468l-115 -109v-359h-234v1533z" />
    <glyph glyph-name="l" unicode="l" horiz-adv-x="511" 
d="M138 1533h235v-1533h-235v1533z" />
    <glyph glyph-name="m" unicode="m" horiz-adv-x="1804" 
d="M119 1079h220l7 -173q57 96 140.5 145t186.5 49q248 0 314 -204q56 99 147 151.5t206 52.5q173 0 260.5 -102t87.5 -304v-694h-233v684q0 120 -48 176t-151 55q-66 0 -117 -29t-81 -71t-39 -82l1 -733h-233v696q-1 114 -48.5 166.5t-149.5 52.5q-87 0 -148.5 -57.5
t-86.5 -142.5v-715h-235v1079z" />
    <glyph glyph-name="n" unicode="n" horiz-adv-x="1140" 
d="M119 0v1079h219l14 -279v-800h-233zM478 1046q87 54 193 54q176 0 262 -101.5t88 -307.5v-691h-234v688q0 117 -48 172t-152 55q-88 0 -153 -58t-93 -159l-5 194q55 100 142 154z" />
    <glyph glyph-name="o" unicode="o" horiz-adv-x="1139" 
d="M316 41q-113 62 -179 180t-71 280v52q-4 147 52.5 272t171.5 200t278 75q156 0 269.5 -69.5t173.5 -194t60 -287.5v-22q0 -165 -62.5 -289t-175 -191.5t-260.5 -67.5q-144 0 -257 62zM714 207.5q60 42.5 92.5 122.5t32.5 190v33q0 109 -32 190.5t-93 126.5t-146 45
q-80 0 -139.5 -41t-93 -117.5t-36.5 -179.5v-50q0 -169 71.5 -265.5t202.5 -96.5q81 0 141 42.5z" />
    <glyph glyph-name="p" unicode="p" horiz-adv-x="1138" 
d="M123 1079h221l5 -132q51 75 126 114t169 39q130 0 224 -66t143.5 -190t49.5 -296v-18q0 -166 -50.5 -290.5t-144.5 -192.5t-220 -68q-91 0 -164.5 35.5t-124.5 103.5v-532h-234v1493zM764 255q60 90 62 266v32q0 176 -60 269t-174 93q-87 0 -147.5 -41.5t-87.5 -120.5
v-446q29 -69 89.5 -105.5t147.5 -36.5q110 0 170 90z" />
    <glyph glyph-name="q" unicode="q" horiz-adv-x="1137" 
d="M655.5 15q-74.5 -36 -164.5 -36q-125 0 -218.5 65.5t-144.5 190t-51 297.5v20q0 171 50 294t144 188.5t223 65.5q95 0 172.5 -42t129.5 -122l15 143h203v-1493h-232v533q-52 -68 -126.5 -104zM691 200.5q60 35.5 91 104.5v452q-31 78 -91 118t-146 40q-109 0 -169.5 -86
t-63.5 -252v-47q0 -176 59.5 -270.5t173.5 -94.5q86 0 146 35.5z" />
    <glyph glyph-name="r" unicode="r" horiz-adv-x="742" 
d="M124 1079h221l5 -171q90 192 280 192q51 0 87 -13l-5 -216q-33 10 -91 10q-98 0 -166.5 -52.5t-96.5 -151.5v-677h-234v1079z" />
    <glyph glyph-name="s" unicode="s" horiz-adv-x="1035" 
d="M288 21q-103 42 -164.5 118.5t-61.5 176.5h209q2 -85 68.5 -130t173.5 -45q63 0 111 19.5t74.5 53t26.5 74.5q0 67 -66 110t-193 69q-190 42 -279 118.5t-89 198.5q0 91 52 163t145.5 112.5t215.5 40.5q130 0 230 -41.5t155 -118t55 -176.5h-227q0 52 -26.5 92t-75.5 62
t-113 22q-58 0 -102.5 -19.5t-69 -53t-24.5 -74.5q0 -56 46 -91t109 -54t179 -45q150 -37 227 -110.5t77 -197.5q0 -92 -55.5 -164t-155 -112t-227.5 -40q-122 0 -225 42z" />
    <glyph glyph-name="t" unicode="t" horiz-adv-x="680" 
d="M618 912h-596v167h596v-167zM444 201.5q28 -34.5 100 -34.5q52 0 91 7l3 -172q-69 -23 -160 -23q-152 0 -224 76t-73 234v1069h235v-1040q0 -82 28 -116.5z" />
    <glyph glyph-name="u" unicode="u" horiz-adv-x="1140" 
d="M794 167l-8 113v799h236v-1079h-220zM209.5 82q-90.5 103 -91.5 300v697h234v-695q0 -108 49.5 -163.5t145.5 -55.5q101 0 168 48.5t91 144.5l7 -198q-54 -88 -138.5 -134.5t-197.5 -46.5q-177 0 -267.5 103z" />
    <glyph glyph-name="v" unicode="v" horiz-adv-x="1028" 
d="M16 1079h248l248 -792l249 792h248l-378 -1079h-239z" />
    <glyph glyph-name="w" unicode="w" horiz-adv-x="1507" 
d="M44 1079h226l134 -596l37 -182l224 778h169l223 -768l36 172l136 596h226l-275 -1079h-200l-192 634l-38 139l-38 -139l-191 -634h-202z" />
    <glyph glyph-name="x" unicode="x" horiz-adv-x="1024" 
d="M363 553l-319 526h250l221 -362l226 362h247l-320 -526l335 -553h-247l-242 387l-239 -387h-249z" />
    <glyph glyph-name="y" unicode="y" horiz-adv-x="1029" 
d="M122 -419v172q26 -3 53 -3q77 0 119.5 30.5t71.5 105.5l43 110l-396 1083h250l255 -749l11 39l241 710h251l-456 -1261l-21 -51q-86 -202 -304 -202q-63 0 -118 16z" />
    <glyph glyph-name="z" unicode="z" horiz-adv-x="1024" 
d="M74 134l564 760h-540v185h837v-133l-565 -761h593v-185h-889v134z" />
    <glyph glyph-name="braceleft" unicode="{" horiz-adv-x="663" 
d="M321 -264q-85 115 -85 297v236q0 116 -48 173.5t-145 57.5v166q193 0 193 232v241q0 180 85.5 291.5t257.5 163.5l46 -127q-91 -33 -137.5 -115t-46.5 -211v-239q0 -243 -194 -317q194 -80 194 -318v-243q0 -128 46.5 -209.5t137.5 -113.5l-46 -129q-173 49 -258 164z
" />
    <glyph glyph-name="bar" unicode="|" horiz-adv-x="479" 
d="M175 1453h137v-1724h-137v1724z" />
    <glyph glyph-name="braceright" unicode="}" horiz-adv-x="663" 
d="M189.5 -185.5q46.5 81.5 46.5 209.5v243q0 238 194 318q-194 74 -194 317v239q0 129 -46.5 211t-137.5 115l46 127q172 -52 257.5 -163.5t85.5 -291.5v-241q0 -232 193 -232v-166q-97 0 -145 -57.5t-48 -173.5v-236q0 -182 -85 -297t-258 -164l-46 129q91 32 137.5 113.5
z" />
    <glyph glyph-name="asciitilde" unicode="~" horiz-adv-x="1332" 
d="M791 416q-50 22 -114 76l-53 42q-65 52 -101.5 73t-82.5 21q-71 0 -111.5 -55t-40.5 -147l-171 3q0 115 37.5 201.5t107.5 134t163 47.5q60 0 113 -24t119 -79q28 -22 41 -31q68 -54 106.5 -76t82.5 -22q70 0 111 55t41 147l172 -3q0 -115 -38 -202.5t-108 -135
t-163 -47.5q-61 0 -111 22z" />
    <glyph glyph-name="uni00A0" unicode="&#xa0;" horiz-adv-x="95" 
 />
    <glyph glyph-name="brokenbar" unicode="&#xa6;" horiz-adv-x="478" 
d="M137 1405h207v-758h-207v758zM137 556h207v-776h-207v776z" />
    <glyph glyph-name="copyright" unicode="&#xa9;" horiz-adv-x="1626" 
d="M451.5 77q-162.5 97 -257.5 268t-95 382q0 218 96 388t258 264.5t354 94.5q193 0 355.5 -95.5t258 -266t95.5 -385.5q0 -213 -95.5 -383.5t-258 -267t-355.5 -96.5t-355.5 97zM1114 163q140 83 222 231t82 333q0 186 -82 334t-221.5 231t-307.5 83q-165 0 -304 -80
t-222 -227.5t-83 -340.5q0 -184 81.5 -332t221.5 -231.5t306 -83.5q167 0 307 83zM618.5 336.5q-76.5 48.5 -118 137t-41.5 206.5v99q0 114 42 202t118.5 136.5t176.5 48.5q155 0 237.5 -81.5t82.5 -232.5h-118q0 210 -202 210q-68 0 -117.5 -34.5t-76 -98t-26.5 -148.5
v-105q0 -85 26.5 -148.5t76 -98t117.5 -34.5q103 0 152.5 50t49.5 158h118q0 -151 -84 -233t-236 -82q-101 0 -177.5 48.5z" />
    <glyph glyph-name="guillemotleft" unicode="&#xab;" horiz-adv-x="1168" 
d="M549 385l385 384l96 -96l-290 -288l290 -290l-96 -95zM139 385l384 384l96 -96l-290 -288l290 -290l-96 -95z" />
    <glyph glyph-name="logicalnot" unicode="&#xac;" horiz-adv-x="1114" 
d="M794 656h-671v129h818v-404h-147v275z" />
    <glyph glyph-name="registered" unicode="&#xae;" horiz-adv-x="1628" 
d="M452 77q-162 97 -257.5 268t-95.5 382q0 217 96 387.5t258.5 265t353.5 94.5q192 0 354.5 -95.5t258.5 -266t96 -385.5q0 -213 -95.5 -383.5t-258 -267t-355.5 -96.5t-355 97zM1114 163q140 83 222 231t82 333q0 186 -82 334t-221.5 231t-307.5 83q-165 0 -304 -80
t-222 -227.5t-83 -340.5q0 -184 81.5 -332t221.5 -231.5t306 -83.5q167 0 307 83zM533 1160h264q150 0 230.5 -66.5t80.5 -188.5q0 -60 -30.5 -106.5t-90.5 -76.5q58 -27 85.5 -81t27.5 -138q0 -68 3 -107t12 -61v-17h-119q-12 36 -12 189q0 82 -35 118t-118 36h-183v-343
h-115v842zM902.5 784q43.5 18 68 50t24.5 73q0 80 -42 114.5t-143 34.5h-162v-290h156q55 0 98.5 18z" />
    <glyph glyph-name="degree" unicode="&#xb0;" horiz-adv-x="801" 
d="M267.5 981q-60.5 35 -96.5 95t-36 131q0 72 36.5 133.5t97 97.5t130.5 36t129.5 -36t95 -97.5t35.5 -133.5q0 -71 -35 -131t-94.5 -95t-130.5 -35t-131.5 35zM501 1103.5q40 40.5 40 103.5q0 42 -18.5 76t-51 54t-72.5 20t-73 -20t-52.5 -54.5t-19.5 -75.5
q0 -40 19.5 -73t53 -52t72.5 -19q62 0 102 40.5z" />
    <glyph glyph-name="plusminus" unicode="&#xb1;" horiz-adv-x="1090" 
d="M437 718h-358v193h358v370h207v-370h350v-193h-350v-388h-207v388zM110 187h862v-187h-862v187z" />
    <glyph glyph-name="uni00B5" unicode="&#xb5;" horiz-adv-x="1240" 
d="M145 1079h235v-654q5 -259 221 -259q113 0 177 57.5t85 182.5l6 -246q-50 -91 -125.5 -135t-179.5 -46q-77 0 -133.5 32.5t-79.5 91.5l29 35v-552h-235v1493zM843 1079h233v-1079h-218l-15 225v854z" />
    <glyph glyph-name="guillemotright" unicode="&#xbb;" horiz-adv-x="1168" 
d="M138 95l290 290l-290 288l96 96l385 -384l-385 -385zM549 95l290 290l-290 288l96 96l384 -384l-384 -385z" />
    <glyph glyph-name="multiply" unicode="&#xd7;" horiz-adv-x="1007" 
d="M49 192l224 224l-224 223l134 134l223 -224l223 224l134 -134l-223 -223l223 -224l-134 -133l-223 223l-223 -223z" />
    <glyph glyph-name="divide" unicode="&#xf7;" horiz-adv-x="1161" 
d="M65 779h1024v-173h-1024v173zM480.5 197q-38.5 35 -38.5 87q0 54 38.5 89.5t98.5 35.5q62 0 101 -35t39 -89q0 -53 -39 -88t-101 -35q-60 0 -98.5 35zM481 992q-39 36 -39 88q0 55 38.5 90t98.5 35q62 0 101 -35t39 -89q0 -53 -39.5 -89t-100.5 -36q-59 0 -98 36z" />
    <glyph glyph-name="uni060C" unicode="&#x60c;" horiz-adv-x="475" 
d="M138 188l63 239h63v-239h73v-188h-199v188z" />
    <glyph glyph-name="uni061B" unicode="&#x61b;" horiz-adv-x="481" 
d="M138 178h204v-189h-204v189zM141 690l63 239h63v-239h73v-188h-199v188z" />
    <glyph glyph-name="uni061F" unicode="&#x61f;" horiz-adv-x="877" 
d="M547 548h-64q-93 0 -172.5 47t-126 126.5t-46.5 173.5t47 173.5t126.5 126t173.5 46.5h244v-181h-244q-45 0 -83 -22t-60 -60t-22 -83t22 -83t60 -60t83 -22h244v-386h-182v204zM534 171h205v-189h-205v189z" />
    <glyph glyph-name="uni0621" unicode="&#x621;" horiz-adv-x="812" 
d="M138 95l286 72q-18 17 -35.5 43.5t-24.5 58.5q-5 21 -5 48q0 53 25.5 96t63.5 70t77 36l130 28l21 -105l-130 -26q-29 -6 -55 -35t-26 -71q0 -44 30.5 -72.5t72.5 -28.5q15 0 22 2l156 37v-114l-608 -152v113z" />
    <glyph glyph-name="uni0622" unicode="&#x622;" horiz-adv-x="443" 
d="M138 1275l223 56v-1331h-223v1275zM-107 1635h468v91l245 -91v-181h-713v181z" />
    <glyph glyph-name="uni0623" unicode="&#x623;" horiz-adv-x="426" 
d="M138 1118l221 56l2 -1174h-223v1118zM99 1376l110 28q-24 30 -31 63q-4 24 -4 33q0 37 17.5 67.5t44.5 49.5t55 25l86 18l16 -85l-85 -17q-17 -3 -32 -19.5t-15 -40.5q0 -27 17 -44.5t41 -17.5q5 0 15 2l103 24v-92l-338 -84v90z" />
    <glyph glyph-name="uni0624" unicode="&#x624;" horiz-adv-x="987" 
d="M213 -283l426 283h-158q-95 0 -186.5 56.5t-150 152t-58.5 207.5q0 113 56 209t152 152.5t209 56.5h418v-912l-585 -390zM700 221v393h-197q-53 0 -98 -26.5t-71.5 -71.5t-26.5 -98q0 -54 26.5 -99t71.5 -71.5t98 -26.5h197zM429 1128l110 28q-24 30 -31 63q-4 24 -4 33
q0 37 17.5 67.5t44.5 49.5t55 25l86 18l16 -85l-85 -17q-17 -3 -32 -19.5t-15 -40.5q0 -27 17 -44.5t41 -17.5q5 0 15 2l103 24v-92l-338 -84v90z" />
    <glyph glyph-name="uni0625" unicode="&#x625;" horiz-adv-x="443" 
d="M138 1275l223 56v-1331h-223v1275zM100 -413l110 28q-24 30 -31 63q-4 24 -4 33q0 37 17.5 67.5t44.5 49.5t55 25l86 18l16 -85l-85 -17q-17 -3 -32 -19.5t-15 -40.5q0 -27 17 -44.5t41 -17.5q5 0 15 2l103 24v-92l-338 -84v90z" />
    <glyph glyph-name="uni0626" unicode="&#x626;" horiz-adv-x="1569" 
d="M347.5 -473q-96.5 56 -153 152t-56.5 210v456l223 54v-510q0 -54 26.5 -99t71.5 -71.5t98 -26.5h529q53 0 98 26.5t71.5 71.5t26.5 99v111h-614v417q0 114 56.5 210t152.5 152t209 56h418v-222h-418q-53 0 -98.5 -26t-72 -71t-26.5 -99v-196h615v-332q0 -114 -56.5 -210
t-152.5 -152t-209 -56h-529q-113 0 -209.5 56zM113 686l110 28q-24 30 -31 63q-4 24 -4 33q0 37 17.5 67.5t44.5 49.5t55 25l86 18l16 -85l-85 -17q-17 -3 -32 -19.5t-15 -40.5q0 -27 17 -44.5t41 -17.5q5 0 15 2l103 24v-92l-338 -84v90z" />
    <glyph glyph-name="uni0627" unicode="&#x627;" horiz-adv-x="443" 
d="M138 1275l223 56v-1331h-223v1275z" />
    <glyph glyph-name="uni0628" unicode="&#x628;" horiz-adv-x="1977" 
d="M347.5 56q-96.5 56 -153 152t-56.5 209v337l223 54v-391q0 -53 26.5 -98t71.5 -71.5t98 -26.5h937q53 0 97.5 26.5t71 71.5t26.5 98v337l222 54v-391q0 -113 -56 -209t-152 -152t-209 -56h-937q-113 0 -209.5 56zM920 -205h206v-188h-206v188z" />
    <glyph glyph-name="uni0629" unicode="&#x629;" horiz-adv-x="1038" 
d="M347 56q-96 56 -152.5 152t-56.5 209t56.5 208.5t152.5 152t209 56.5h416v-417q0 -113 -56 -209t-151.5 -152t-208.5 -56t-209 56zM654 247q45 26 71 71t26 99v196h-195q-53 0 -98.5 -26.5t-72 -71.5t-26.5 -98q0 -54 26.5 -99t72 -71t98.5 -26t98 26zM338 1199h464v-181
h-464v181z" />
    <glyph glyph-name="uni062A" unicode="&#x62a;" horiz-adv-x="1977" 
d="M347.5 56q-96.5 56 -153 152t-56.5 209v337l223 54v-391q0 -53 26.5 -98t71.5 -71.5t98 -26.5h937q53 0 97.5 26.5t71 71.5t26.5 98v337l222 54v-391q0 -113 -56 -209t-152 -152t-209 -56h-937q-113 0 -209.5 56zM794 784h464v-181h-464v181z" />
    <glyph glyph-name="uni062B" unicode="&#x62b;" horiz-adv-x="1977" 
d="M347.5 56q-96.5 56 -153 152t-56.5 209v337l223 54v-391q0 -53 26.5 -98t71.5 -71.5t98 -26.5h937q53 0 97.5 26.5t71 71.5t26.5 98v337l222 54v-391q0 -113 -56 -209t-152 -152t-209 -56h-937q-113 0 -209.5 56zM792 783h275v194l189 -58v-316h-464v180z" />
    <glyph glyph-name="uni062C" unicode="&#x62c;" horiz-adv-x="1146" 
d="M347.5 -557q-96.5 56 -153 152t-56.5 210q0 113 56.5 208.5t153 151.5t209.5 56h303v196q0 53 -26.5 98t-71.5 71.5t-98 26.5h-392l54 222h338q113 0 208.5 -56t151.5 -152t56 -210v-417h-523q-53 0 -98 -26t-71.5 -71t-26.5 -98q0 -54 26.5 -99t71.5 -71.5t98 -26.5h234
l-66 -221h-168q-113 0 -209.5 56zM785 -200h206v-188h-206v188z" />
    <glyph glyph-name="uni062D" unicode="&#x62d;" horiz-adv-x="1159" 
d="M347 -557q-96 56 -152.5 152t-56.5 209t56.5 209t152.5 152t209 56h302v196q0 53 -26.5 98t-71 71.5t-97.5 26.5h-392l55 221h337q113 0 208.5 -56t151.5 -151.5t56 -209.5v-417h-523q-53 0 -98 -26.5t-71 -71.5t-26 -98q0 -54 26 -98.5t71 -70.5t98 -26h538l-67 -222
h-471q-113 0 -209 56z" />
    <glyph glyph-name="uni062E" unicode="&#x62e;" horiz-adv-x="1159" 
d="M347 -557q-96 56 -152.5 152t-56.5 209t56.5 209t152.5 152t209 56h302v196q0 53 -26.5 98t-71 71.5t-97.5 26.5h-392l55 221h337q113 0 208.5 -56t151.5 -151.5t56 -209.5v-417h-523q-53 0 -98 -26.5t-71 -71.5t-26 -98q0 -54 26 -98.5t71 -70.5t98 -26h538l-67 -222
h-471q-113 0 -209 56zM449 1228h206v-188h-206v188z" />
    <glyph glyph-name="uni062F" unicode="&#x62f;" horiz-adv-x="834" 
d="M96 221h451v196q0 53 -26 98t-71 71.5t-98 26.5h-214v221h214q114 0 209.5 -56t151 -151.5t55.5 -209.5v-417h-672v221z" />
    <glyph glyph-name="uni0630" unicode="&#x630;" horiz-adv-x="834" 
d="M96 221h451v196q0 53 -26 98t-71 71.5t-98 26.5h-214v221h214q114 0 209.5 -56t151 -151.5t55.5 -209.5v-417h-672v221zM189 1228h206v-188h-206v188z" />
    <glyph glyph-name="uni0631" unicode="&#x631;" horiz-adv-x="479" 
d="M-4 -282l178 120v915l222 56v-1090l-278 -185z" />
    <glyph glyph-name="uni0632" unicode="&#x632;" horiz-adv-x="479" 
d="M-4 -282l178 120v915l222 56v-1090l-278 -185zM190 1203h206v-188h-206v188z" />
    <glyph glyph-name="uni0633" unicode="&#x633;" horiz-adv-x="2336" 
d="M2270 802v-423q0 -102 -51 -189.5t-137.5 -138.5t-189.5 -51q-76 0 -151.5 37t-123.5 89q-46 -53 -119.5 -89.5t-153.5 -36.5h-188v221h188q46 0 84.5 23t61.5 61.5t23 84.5v342h222v-354q0 -42 21.5 -78t57.5 -57.5t78 -21.5q43 0 79 21t57 57.5t21 78.5v369zM1121 -321
q-56 -96 -151.5 -152t-208.5 -56h-204q-113 0 -209.5 56t-153 152t-56.5 210v456l223 54v-510q0 -54 26.5 -99t71.5 -71.5t98 -26.5h204q53 0 97.5 26.5t71 71.5t26.5 99v843h221v-843q0 -114 -56 -210z" />
    <glyph glyph-name="uni0634" unicode="&#x634;" horiz-adv-x="2336" 
d="M2270 802v-423q0 -102 -51 -189.5t-137.5 -138.5t-189.5 -51q-76 0 -151.5 37t-123.5 89q-46 -53 -119.5 -89.5t-153.5 -36.5h-188v221h188q46 0 84.5 23t61.5 61.5t23 84.5v342h222v-354q0 -42 21.5 -78t57.5 -57.5t78 -21.5q43 0 79 21t57 57.5t21 78.5v369zM1121 -321
q-56 -96 -151.5 -152t-208.5 -56h-204q-113 0 -209.5 56t-153 152t-56.5 210v456l223 54v-510q0 -54 26.5 -99t71.5 -71.5t98 -26.5h204q53 0 97.5 26.5t71 71.5t26.5 99v843h221v-843q0 -114 -56 -210zM1393 1157h275v194l189 -58v-316h-464v180z" />
    <glyph glyph-name="uni0635" unicode="&#x635;" horiz-adv-x="2367" 
d="M346 -473q-96 56 -152 152t-56 210v456l223 54v-510q0 -54 26 -99t71 -71.5t98 -26.5h205q53 0 97.5 26.5t70.5 71.5t26 99v893l223 56v-363l335 359h371q113 0 209 -56t152.5 -151.5t56.5 -209.5q0 -113 -55.5 -208.5t-150.5 -152t-209 -56.5h-709v-111q0 -114 -56 -210
t-152 -152t-209 -56h-205q-114 0 -210 56zM1983 247.5q45 26.5 71 71.5t26 98t-26 98t-71 71.5t-99 26.5l-299 1l-368 -393h668q53 0 98 26.5z" />
    <glyph glyph-name="uni0636" unicode="&#x636;" horiz-adv-x="2367" 
d="M346 -473q-96 56 -152 152t-56 210v456l223 54v-510q0 -54 26 -99t71 -71.5t98 -26.5h205q53 0 97.5 26.5t70.5 71.5t26 99v893l223 56v-363l335 359h371q113 0 209 -56t152.5 -151.5t56.5 -209.5q0 -113 -55.5 -208.5t-150.5 -152t-209 -56.5h-709v-111q0 -114 -56 -210
t-152 -152t-209 -56h-205q-114 0 -210 56zM1983 247.5q45 26.5 71 71.5t26 98t-26 98t-71 71.5t-99 26.5l-299 1l-368 -393h668q53 0 98 26.5zM1600 1232h206v-188h-206v188z" />
    <glyph glyph-name="uni0637" unicode="&#x637;" horiz-adv-x="1649" 
d="M138 221h99v1093l221 56v-536h707q114 0 210 -56t152 -151.5t56 -209.5q0 -115 -55.5 -210.5t-151 -151t-210.5 -55.5h-1028v221zM1264 247.5q45 26.5 71 71.5t26 98t-26 98t-71 71.5t-99 26.5h-707v-392h708q53 0 98 26.5z" />
    <glyph glyph-name="uni0638" unicode="&#x638;" horiz-adv-x="1649" 
d="M138 221h99v1093l221 56v-536h707q114 0 210 -56t152 -151.5t56 -209.5q0 -115 -55.5 -210.5t-151 -151t-210.5 -55.5h-1028v221zM1264 247.5q45 26.5 71 71.5t26 98t-26 98t-71 71.5t-99 26.5h-707v-392h708q53 0 98 26.5zM875 1233h206v-188h-206v188z" />
    <glyph glyph-name="uni0639" unicode="&#x639;" horiz-adv-x="1190" 
d="M346 -556.5q-96 56.5 -152 152.5t-56 209q0 92 38 174t106 141.5t153 84.5v213q0 113 56 209t151.5 152t208.5 56l247 -1v-221l-247 1q-53 0 -97.5 -26.5t-71 -71.5t-26.5 -98v-197h469v-221h-569q-53 0 -98.5 -26t-72 -71t-26.5 -98q0 -54 26.5 -99t72 -71t98.5 -26h507
l-60 -222h-447q-114 0 -210 56.5z" />
    <glyph glyph-name="uni063A" unicode="&#x63a;" horiz-adv-x="1190" 
d="M346 -556.5q-96 56.5 -152 152.5t-56 209q0 92 38 174t106 141.5t153 84.5v213q0 113 56 209t151.5 152t208.5 56l247 -1v-221l-247 1q-53 0 -97.5 -26.5t-71 -71.5t-26.5 -98v-197h469v-221h-569q-53 0 -98.5 -26t-72 -71t-26.5 -98q0 -54 26.5 -99t72 -71t98.5 -26h507
l-60 -222h-447q-114 0 -210 56.5zM755 1234h206v-188h-206v188z" />
    <glyph glyph-name="uni0640" unicode="&#x640;" horiz-adv-x="353" 
d="M-39 110l39 111h353l39 -113l-39 -108h-353z" />
    <glyph glyph-name="uni0641" unicode="&#x641;" horiz-adv-x="1977" 
d="M347 56q-96 56 -152.5 152t-56.5 209v337l223 54v-391q0 -53 26.5 -98t71 -71.5t97.5 -26.5h587q-33 41 -51.5 91.5t-18.5 104.5q0 112 56 208t152 152.5t209 56.5h421v-834h-1355q-113 0 -209 56zM1690 221v392h-200q-53 0 -97.5 -26.5t-70.5 -71.5t-26 -98t26 -98
t71 -71.5t98 -26.5h199zM1462 1240h206v-188h-206v188z" />
    <glyph glyph-name="uni0642" unicode="&#x642;" horiz-adv-x="1569" 
d="M347 -473q-96 56 -152.5 152t-56.5 210v456l223 54v-510q0 -54 26 -99t71 -71.5t98 -26.5h530q53 0 98 26.5t71 71.5t26 99v111h-614v417q0 113 56.5 209t153 152t209.5 56h417v-945q0 -114 -56 -210t-152 -152t-209 -56h-530q-113 0 -209 56zM1281 221v392h-195
q-54 0 -99 -26.5t-71.5 -71.5t-26.5 -98v-196h392zM930 1238h464v-181h-464v181z" />
    <glyph glyph-name="uni0643" unicode="&#x643;" horiz-adv-x="1999" 
d="M351 55.5q-94 55.5 -149.5 149.5t-55.5 206v330l218 55v-385q0 -53 26 -97t70 -70t97 -26h923q52 0 96.5 26t70.5 70t26 97v827l218 54v-881q0 -112 -55.5 -206t-149.5 -149.5t-206 -55.5h-923q-112 0 -206 55.5zM882 567h186q24 0 38 10.5t14 32.5t-14 32.5t-38 10.5
h-186v177l207 154l65 -94l-186 -124h86q43 0 80 -21t58.5 -57t21.5 -78q0 -41 -21.5 -77t-58.5 -57.5t-80 -21.5h-172v113z" />
    <glyph glyph-name="uni0644" unicode="&#x644;" horiz-adv-x="1262" 
d="M347.5 -474q-96.5 56 -153 152t-56.5 210v457l223 55v-512q0 -54 26.5 -99t71.5 -71t98 -26h204q54 0 98.5 26t70.5 71t26 99v1387l224 56v-1443q0 -114 -56.5 -210t-152.5 -152t-210 -56h-204q-113 0 -209.5 56z" />
    <glyph glyph-name="uni0645" unicode="&#x645;" horiz-adv-x="1458" 
d="M194.5 627q56.5 96 153 152t209.5 56h418q113 0 208.5 -56t152 -152t56.5 -210q0 -113 -56.5 -209t-152 -152t-208.5 -56q-114 0 -210 56t-152 152t-56 209v196q-53 0 -98 -26.5t-71.5 -71.5t-26.5 -98v-846l-223 -57v903q0 114 56.5 210zM1073 247.5q45 26.5 71.5 71.5
t26.5 98t-26.5 98t-71.5 71.5t-98 26.5h-195v-196q0 -53 26 -98t70.5 -71.5t98.5 -26.5q53 0 98 26.5z" />
    <glyph glyph-name="uni0646" unicode="&#x646;" horiz-adv-x="1246" 
d="M347.5 -473.5q-96.5 56.5 -153 152.5t-56.5 210v456l223 55v-511q0 -54 26.5 -99.5t71.5 -72t98 -26.5h204q54 0 98.5 26.5t70.5 72t26 99.5v865l224 55v-920q0 -114 -56.5 -210t-152.5 -152.5t-210 -56.5h-204q-113 0 -209.5 56.5zM480 828h206v-188h-206v188z" />
    <glyph glyph-name="uni0647" unicode="&#x647;" horiz-adv-x="1038" 
d="M347 56q-96 56 -152.5 152t-56.5 209t56.5 208.5t152.5 152t209 56.5h416v-417q0 -113 -56 -209t-151.5 -152t-208.5 -56t-209 56zM654 247q45 26 71 71t26 99v196h-195q-53 0 -98.5 -26.5t-72 -71.5t-26.5 -98q0 -54 26.5 -99t72 -71t98.5 -26t98 26z" />
    <glyph glyph-name="uni0648" unicode="&#x648;" horiz-adv-x="987" 
d="M213 -283l426 283h-158q-95 0 -186.5 56.5t-150 152t-58.5 207.5q0 113 56 209t152 152.5t209 56.5h418v-912l-585 -390zM700 221v393h-197q-53 0 -98 -26.5t-71.5 -71.5t-26.5 -98q0 -54 26.5 -99t71.5 -71.5t98 -26.5h197z" />
    <glyph glyph-name="uni0649" unicode="&#x649;" horiz-adv-x="1569" 
d="M347.5 -473q-96.5 56 -153 152t-56.5 210v456l223 54v-510q0 -54 26.5 -99t71.5 -71.5t98 -26.5h529q53 0 98 26.5t71.5 71.5t26.5 99v111h-614v417q0 114 56.5 210t152.5 152t209 56h418v-222h-418q-53 0 -98.5 -26t-72 -71t-26.5 -99v-196h615v-332q0 -114 -56.5 -210
t-152.5 -152t-209 -56h-529q-113 0 -209.5 56z" />
    <glyph glyph-name="uni064A" unicode="&#x64a;" horiz-adv-x="1569" 
d="M347.5 -473q-96.5 56 -153 152t-56.5 210v456l223 54v-510q0 -54 26.5 -99t71.5 -71.5t98 -26.5h529q53 0 98 26.5t71.5 71.5t26.5 99v111h-614v417q0 114 56.5 210t152.5 152t209 56h418v-222h-418q-53 0 -98.5 -26t-72 -71t-26.5 -99v-196h615v-332q0 -114 -56.5 -210
t-152.5 -152t-209 -56h-529q-113 0 -209.5 56zM1053 -895h-464v181h464v-181z" />
    <glyph glyph-name="uni064B" unicode="&#x64b;" 
d="M252 1086l378 95v-70l-378 -93v68zM252 1227l378 95v-70l-378 -93v68z" />
    <glyph glyph-name="uni064C" unicode="&#x64c;" 
d="M182 734l143 35q-40 41 -40 97q0 37 18.5 69t50 50.5t69.5 18.5q48 0 86 -31.5t47 -79.5l-24 -80l-65 -77l-285 -73v71zM362 631l143 35q-40 40 -40 98q0 38 18.5 69.5t50 50t69.5 18.5q37 0 68.5 -18.5t50 -50t18.5 -69.5q0 -47 -28 -85t-72 -48l-278 -69v69zM649.5 717
q19.5 20 19.5 47q0 28 -19.5 47.5t-46.5 19.5t-47 -19.5t-20 -47.5q0 -27 20 -47t47 -20t46.5 20zM469.5 818.5q19.5 19.5 19.5 47.5t-19.5 48.5t-46.5 20.5q-29 0 -48.5 -20t-19.5 -49q0 -28 19.5 -47.5t48.5 -19.5q27 0 46.5 19.5z" />
    <glyph glyph-name="uni064D" unicode="&#x64d;" 
d="M252 -408l378 95v-70l-378 -93v68zM252 -267l378 95v-70l-378 -93v68z" />
    <glyph glyph-name="uni064E" unicode="&#x64e;" 
d="M182 587l378 95v-70l-378 -93v68z" />
    <glyph glyph-name="uni064F" unicode="&#x64f;" 
d="M182 631l143 35q-40 40 -40 98q0 38 18.5 69.5t50 50t69.5 18.5q37 0 68.5 -18.5t50 -50t18.5 -69.5q0 -47 -28 -85t-72 -48l-278 -69v69zM469.5 717q19.5 20 19.5 47q0 28 -19.5 47.5t-46.5 19.5t-47 -19.5t-20 -47.5q0 -27 20 -47t47 -20t46.5 20z" />
    <glyph glyph-name="uni0650" unicode="&#x650;" 
d="M182 -479l378 95v-70l-378 -93v68z" />
    <glyph glyph-name="uni0651" unicode="&#x651;" 
d="M246.5 564.5q-31.5 18.5 -49.5 50t-18 68.5v87h70v-87q0 -27 19.5 -46.5t47.5 -19.5q27 0 47 19.5t20 46.5v87h69v-87q0 -27 20 -46.5t48 -19.5t47.5 19.5t19.5 46.5v87h71v-87q0 -37 -18.5 -68.5t-50.5 -50t-69 -18.5q-31 0 -59 14.5t-43 35.5q-18 -22 -44 -36t-58 -14
q-38 0 -69.5 18.5z" />
    <glyph glyph-name="uni0652" unicode="&#x652;" 
d="M163.5 849q-33.5 24 -52 62.5t-18.5 83.5q0 47 21 87.5t55 64t70 23.5q43 1 78.5 -24t56 -67.5t20.5 -91.5q0 -43 -20 -80.5t-55.5 -59.5t-78.5 -22t-76.5 24zM304 933q24 23 24 59q0 39 -25 65.5t-61 26.5q-32 0 -57.5 -25t-25.5 -66q0 -37 23 -60t58 -23q40 0 64 23z
" />
    <glyph glyph-name="uni0653" unicode="&#x653;" 
d="M182 909h468v91l245 -91v-181h-713v181z" />
    <glyph glyph-name="uni0654" unicode="&#x654;" 
d="M187 1024l159 41q-11 10 -22.5 28t-16.5 39q-3 17 -3 31q0 53 34.5 90t77.5 47l78 16l14 -71l-78 -16q-19 -4 -36 -23t-17 -46q0 -29 20 -48t47 -19q4 0 14 2l95 22v-78l-366 -90v75z" />
    <glyph glyph-name="uni0655" unicode="&#x655;" 
d="M187 -384l159 41q-11 10 -22.5 28t-16.5 39q-3 17 -3 31q0 53 34.5 90t77.5 47l78 16l14 -71l-78 -16q-19 -4 -36 -23t-17 -46q0 -29 20 -48t47 -19q4 0 14 2l95 22v-78l-366 -90v75z" />
    <glyph glyph-name="uni0656" unicode="&#x656;" 
d="M33 -182l79 27v-368h-79v341z" />
    <glyph glyph-name="uni0660" unicode="&#x660;" horiz-adv-x="682" 
d="M179 576h323v-323h-323v323z" />
    <glyph glyph-name="uni0661" unicode="&#x661;" horiz-adv-x="498" 
d="M138 1272l221 54v-1326h-221v1272z" />
    <glyph glyph-name="uni0662" unicode="&#x662;" horiz-adv-x="1084" 
d="M138 1272l221 54v-1326h-221v1272zM409 546q-48 34 -50 35l-124 165l14 156l110 26q0 -53 26.5 -98t72 -71.5t98.5 -26.5t98 26.5t71 71.5t26 98v337l222 54v-391q0 -110 -53.5 -206t-148.5 -153t-213 -57q-101 0 -149 34z" />
    <glyph glyph-name="uni0663" unicode="&#x663;" horiz-adv-x="1540" 
d="M138 1272l221 54v-1326h-221v1272zM404 818.5q46 -46.5 132 -46.5q43 0 79 21t57 57t21 78v315l222 3v-318q0 -42 21 -78t57 -57t78 -21q43 0 79.5 21t57.5 57t21 78v331l221 55v-385q0 -102 -51 -189t-138 -138t-190 -51q-71 0 -142.5 34t-124.5 84q-51 -55 -120 -86.5
t-148 -31.5q-92 0 -167 41t-121 121.5t-52 194.5l162 38q0 -81 46 -127.5z" />
    <glyph glyph-name="uni0664" unicode="&#x664;" horiz-adv-x="1234" 
d="M293 56q-95 56 -151 151.5t-56 207.5q0 92 38 173t104.5 139t150.5 83v154q0 113 56 208.5t151.5 151.5t208.5 56h224v-220h-224q-52 0 -96.5 -26.5t-71 -71.5t-26.5 -98v-135h418v-219h-518q-53 0 -97.5 -26t-70.5 -71t-26 -98q0 -52 26 -96.5t70.5 -71t97.5 -26.5h616
l-62 -221h-554q-113 0 -208 56z" />
    <glyph glyph-name="uni0665" unicode="&#x665;" horiz-adv-x="1382" 
d="M315.5 57.5q-97.5 57.5 -151 152.5t-53.5 202v278q0 161 82 295t222.5 224.5t314.5 128.5l541 -465v-453q0 -110 -52 -207t-142 -155t-198 -58h-342q-124 0 -221.5 57.5zM958.5 250.5q41.5 27.5 66 72.5t24.5 97v342l-370 329q-82 -27 -160 -77t-132 -131.5t-54 -192.5
v-274q0 -51 25 -95.5t71.5 -71t107.5 -26.5h330q50 0 91.5 27.5z" />
    <glyph glyph-name="uni0666" unicode="&#x666;" horiz-adv-x="1033" 
d="M894 0h-221v1102h-523l-55 221h799v-1323z" />
    <glyph glyph-name="uni0667" unicode="&#x667;" horiz-adv-x="1112" 
d="M346 56.5q-96 56.5 -152 152t-56 208.5v882l221 55v-937q0 -53 26.5 -98t72 -71.5t98.5 -26.5h196v1133h222v-1354h-418q-114 0 -210 56.5z" />
    <glyph glyph-name="uni0668" unicode="&#x668;" horiz-adv-x="1112" 
d="M766 1297.5q96 -56.5 152 -152t56 -208.5v-882l-221 -55v937q0 53 -26.5 98t-72 71.5t-98.5 26.5h-196v-1133h-222v1354h418q114 0 210 -56.5z" />
    <glyph glyph-name="uni0669" unicode="&#x669;" horiz-adv-x="1085" 
d="M724 518h-195q-114 0 -210 56.5t-152 152t-56 208.5q0 114 56 210t152 152.5t210 56.5h417v-1354h-222v518zM724 740v391h-195q-53 0 -98.5 -26t-72 -71t-26.5 -99q0 -53 26.5 -98t72 -71t98.5 -26h195z" />
    <glyph glyph-name="uni066A" unicode="&#x66a;" horiz-adv-x="899" 
d="M50 57l454 995l173 -56l-454 -996zM447 223h204v-189h-204v189zM72 1013h205v-188h-205v188z" />
    <glyph glyph-name="uni066B" unicode="&#x66b;" horiz-adv-x="677" 
d="M442 814h185l-391 -895h-186z" />
    <glyph glyph-name="uni066C" unicode="&#x66c;" horiz-adv-x="376" 
d="M169 196h173l-170 -433h-136z" />
    <glyph glyph-name="uni066D" unicode="&#x66d;" horiz-adv-x="1230" 
d="M547 314l-221 -222l-96 95l222 222h-314v134h313l-221 223l96 95l221 -223v314h136v-314l221 223l95 -95l-222 -223h314v-134h-314l222 -222l-95 -95l-221 222v-314h-136v314z" />
    <glyph glyph-name="uni066E" unicode="&#x66e;" horiz-adv-x="1977" 
d="M347.5 56q-96.5 56 -153 152t-56.5 209v337l223 54v-391q0 -53 26.5 -98t71.5 -71.5t98 -26.5h937q53 0 97.5 26.5t71 71.5t26.5 98v337l222 54v-391q0 -113 -56 -209t-152 -152t-209 -56h-937q-113 0 -209.5 56z" />
    <glyph glyph-name="uni066F" unicode="&#x66f;" horiz-adv-x="1569" 
d="M347 -473q-96 56 -152.5 152t-56.5 210v456l223 54v-510q0 -54 26 -99t71 -71.5t98 -26.5h530q53 0 98 26.5t71 71.5t26 99v111h-614v417q0 113 56.5 209t153 152t209.5 56h417v-945q0 -114 -56 -210t-152 -152t-209 -56h-530q-113 0 -209 56zM1281 221v392h-195
q-54 0 -99 -26.5t-71.5 -71.5t-26.5 -98v-196h392z" />
    <glyph glyph-name="uni0670" unicode="&#x670;" 
d="M19 1201l79 27v-368h-79v341z" />
    <glyph glyph-name="uni067E" unicode="&#x67e;" horiz-adv-x="1977" 
d="M347.5 56q-96.5 56 -153 152t-56.5 209v337l223 54v-391q0 -53 26.5 -98t71.5 -71.5t98 -26.5h937q53 0 97.5 26.5t71 71.5t26.5 98v337l222 54v-391q0 -113 -56 -209t-152 -152t-209 -56h-937q-113 0 -209.5 56zM1256 -206v-316l-189 -58v194h-274v180h463z" />
    <glyph glyph-name="uni0686" unicode="&#x686;" horiz-adv-x="1224" 
d="M346 -557.5q-96 56.5 -152 152.5t-56 210q0 113 56 208.5t152 151.5t210 56h381v196q0 53 -26.5 98t-71.5 71.5t-98 26.5h-392l56 221h336q113 0 209 -56t152.5 -151.5t56.5 -209.5v-417h-603q-53 0 -98.5 -26t-72 -71t-26.5 -98q0 -54 26.5 -99t72 -71.5t98.5 -26.5h66
l-66 -222q-114 0 -210 56.5zM1049 -174v-316l-189 -59v194h-274v181h463z" />
    <glyph glyph-name="uni0698" unicode="&#x698;" horiz-adv-x="479" 
d="M-4 -282l178 120v915l222 56v-1090l-278 -185zM25 1194h275v194l189 -58v-316h-464v180z" />
    <glyph glyph-name="uni06A1" unicode="&#x6a1;" horiz-adv-x="1977" 
d="M347 56q-96 56 -152.5 152t-56.5 209v337l223 54v-391q0 -53 26.5 -98t71 -71.5t97.5 -26.5h587q-33 41 -51.5 91.5t-18.5 104.5q0 112 56 208t152 152.5t209 56.5h421v-834h-1355q-113 0 -209 56zM1690 221v392h-200q-53 0 -97.5 -26.5t-70.5 -71.5t-26 -98t26 -98
t71 -71.5t98 -26.5h199z" />
    <glyph glyph-name="uni06A4" unicode="&#x6a4;" horiz-adv-x="1977" 
d="M347 56q-96 56 -152.5 152t-56.5 209v337l223 54v-391q0 -53 26.5 -98t71 -71.5t97.5 -26.5h587q-33 41 -51.5 91.5t-18.5 104.5q0 112 56 208t152 152.5t209 56.5h421v-834h-1355q-113 0 -209 56zM1690 221v392h-200q-53 0 -97.5 -26.5t-70.5 -71.5t-26 -98t26 -98
t71 -71.5t98 -26.5h199zM1332 1230h275v194l189 -58v-316h-464v180z" />
    <glyph glyph-name="uni06A9" unicode="&#x6a9;" horiz-adv-x="2321" 
d="M346 56q-96 56 -152 152t-56 209v337l221 54v-391q0 -53 26.5 -98t72 -71.5t98.5 -26.5h1281q53 0 98 26.5t71 71.5t26 98t-26 98t-71 71.5t-98 26.5h-1170v222l796 480l115 -173l-509 -308h768q113 0 209 -56t152.5 -152t56.5 -209t-56.5 -209t-152.5 -152t-209 -56
h-1281q-114 0 -210 56z" />
    <glyph glyph-name="uni06AF" unicode="&#x6af;" horiz-adv-x="2321" 
d="M346 56q-96 56 -152 152t-56 209v337l221 54v-391q0 -53 26.5 -98t72 -71.5t98.5 -26.5h1281q53 0 98 26.5t71 71.5t26 98t-26 98t-71 71.5t-98 26.5h-1170v222l796 480l115 -173l-509 -308h768q113 0 209 -56t152.5 -152t56.5 -209t-56.5 -209t-152.5 -152t-209 -56
h-1281q-114 0 -210 56zM934 1253l414 249l47 -80l-413 -249z" />
    <glyph glyph-name="uni06BA" unicode="&#x6ba;" horiz-adv-x="1246" 
d="M347.5 -473.5q-96.5 56.5 -153 152.5t-56.5 210v456l223 55v-511q0 -54 26.5 -99.5t71.5 -72t98 -26.5h204q54 0 98.5 26.5t70.5 72t26 99.5v865l224 55v-920q0 -114 -56.5 -210t-152.5 -152.5t-210 -56.5h-204q-113 0 -209.5 56.5z" />
    <glyph glyph-name="uni06C1" unicode="&#x6c1;" horiz-adv-x="1038" 
d="M347 56q-96 56 -152.5 152t-56.5 209t56.5 208.5t152.5 152t209 56.5h416v-417q0 -113 -56 -209t-151.5 -152t-208.5 -56t-209 56zM654 247q45 26 71 71t26 99v196h-195q-53 0 -98.5 -26.5t-72 -71.5t-26.5 -98q0 -54 26.5 -99t72 -71t98.5 -26t98 26z" />
    <glyph glyph-name="uni06C2" unicode="&#x6c2;" horiz-adv-x="1038" 
d="M347 56q-96 56 -152.5 152t-56.5 209t56.5 208.5t152.5 152t209 56.5h416v-417q0 -113 -56 -209t-151.5 -152t-208.5 -56t-209 56zM654 247q45 26 71 71t26 99v196h-195q-53 0 -98.5 -26.5t-72 -71.5t-26.5 -98q0 -54 26.5 -99t72 -71t98.5 -26t98 26zM409 1103l110 28
q-24 30 -31 63q-4 24 -4 33q0 37 17.5 67.5t44.5 49.5t55 25l86 18l16 -85l-85 -17q-17 -3 -32 -19.5t-15 -40.5q0 -27 17 -44.5t41 -17.5q5 0 15 2l103 24v-92l-338 -84v90z" />
    <glyph glyph-name="uni06C3" unicode="&#x6c3;" horiz-adv-x="1038" 
d="M347 56q-96 56 -152.5 152t-56.5 209t56.5 208.5t152.5 152t209 56.5h416v-417q0 -113 -56 -209t-151.5 -152t-208.5 -56t-209 56zM654 247q45 26 71 71t26 99v196h-195q-53 0 -98.5 -26.5t-72 -71.5t-26.5 -98q0 -54 26.5 -99t72 -71t98.5 -26t98 26zM338 1199h464v-181
h-464v181z" />
    <glyph glyph-name="uni06C7" unicode="&#x6c7;" horiz-adv-x="987" 
d="M213 -283l426 283h-158q-95 0 -186.5 56.5t-150 152t-58.5 207.5q0 113 56 209t152 152.5t209 56.5h418v-912l-585 -390zM700 221v393h-197q-53 0 -98 -26.5t-71.5 -71.5t-26.5 -98q0 -54 26.5 -99t71.5 -71.5t98 -26.5h197zM389 1099l143 35q-40 40 -40 98
q0 38 18.5 69.5t50 50t69.5 18.5q37 0 68.5 -18.5t50 -50t18.5 -69.5q0 -47 -28 -85t-72 -48l-278 -69v69zM676.5 1185q19.5 20 19.5 47q0 28 -19.5 47.5t-46.5 19.5t-47 -19.5t-20 -47.5q0 -27 20 -47t47 -20t46.5 20z" />
    <glyph glyph-name="uni06CC" unicode="&#x6cc;" horiz-adv-x="1569" 
d="M347.5 -473q-96.5 56 -153 152t-56.5 210v456l223 54v-510q0 -54 26.5 -99t71.5 -71.5t98 -26.5h529q53 0 98 26.5t71.5 71.5t26.5 99v111h-614v417q0 114 56.5 210t152.5 152t209 56h418v-222h-418q-53 0 -98.5 -26t-72 -71t-26.5 -99v-196h615v-332q0 -114 -56.5 -210
t-152.5 -152t-209 -56h-529q-113 0 -209.5 56z" />
    <glyph glyph-name="uni06D4" unicode="&#x6d4;" horiz-adv-x="481" 
d="M138 189h205v-189h-205v189z" />
    <glyph glyph-name="uni06D5" unicode="&#x6d5;" horiz-adv-x="1038" 
d="M347 56q-96 56 -152.5 152t-56.5 209t56.5 208.5t152.5 152t209 56.5h416v-417q0 -113 -56 -209t-151.5 -152t-208.5 -56t-209 56zM654 247q45 26 71 71t26 99v196h-195q-53 0 -98.5 -26.5t-72 -71.5t-26.5 -98q0 -54 26.5 -99t72 -71t98.5 -26t98 26z" />
    <glyph glyph-name="uni06F0" unicode="&#x6f0;" horiz-adv-x="1019" 
d="M321 93.5q-87 51.5 -138 139t-51 190.5q0 101 50.5 187.5t136.5 137t188 50.5t189.5 -51t139.5 -137.5t52 -188.5t-50.5 -189t-137.5 -138.5t-190 -51.5q-102 0 -189 51.5zM601 260.5q42 24.5 66.5 67t24.5 92.5q0 49 -25 91t-67 66.5t-91 24.5q-50 0 -91.5 -24.5
t-66 -66t-24.5 -91.5q0 -49 24.5 -91.5t66.5 -67.5t92 -25q49 0 91 24.5z" />
    <glyph glyph-name="uni06F1" unicode="&#x6f1;" horiz-adv-x="498" 
d="M138 1272l221 54v-1326h-221v1272z" />
    <glyph glyph-name="uni06F2" unicode="&#x6f2;" horiz-adv-x="1084" 
d="M138 1272l221 54v-1326h-221v1272zM409 546q-48 34 -50 35l-124 165l14 156l110 26q0 -53 26.5 -98t72 -71.5t98.5 -26.5t98 26.5t71 71.5t26 98v337l222 54v-391q0 -110 -53.5 -206t-148.5 -153t-213 -57q-101 0 -149 34z" />
    <glyph glyph-name="uni06F3" unicode="&#x6f3;" horiz-adv-x="1540" 
d="M138 1272l221 54v-1326h-221v1272zM404 818.5q46 -46.5 132 -46.5q43 0 79 21t57 57t21 78v315l222 3v-318q0 -42 21 -78t57 -57t78 -21q43 0 79.5 21t57.5 57t21 78v331l221 55v-385q0 -102 -51 -189t-138 -138t-190 -51q-71 0 -142.5 34t-124.5 84q-51 -55 -120 -86.5
t-148 -31.5q-92 0 -167 41t-121 121.5t-52 194.5l162 38q0 -81 46 -127.5z" />
    <glyph glyph-name="uni06F4" unicode="&#x6f4;" horiz-adv-x="1376" 
d="M132 1272l221 54v-1326h-221v1272zM382.5 564q-77.5 46 -121 136t-47.5 218l139 17q0 -54 24 -98.5t66 -70.5t95 -26h55q-1 3 -21 32t-36.5 71t-16.5 92q0 114 56.5 210t153 152.5t210.5 56.5h316l3 -223h-319q-54 0 -99 -26t-71.5 -71t-26.5 -99q0 -53 26.5 -98
t71.5 -71t99 -26h315v-222h-690q-104 0 -181.5 46z" />
    <glyph glyph-name="uni06F5" unicode="&#x6f5;" horiz-adv-x="1545" 
d="M316.5 51.5q-93.5 51.5 -149.5 146.5t-56 219v317q0 112 56.5 209.5t152.5 155t209 57.5h21l181 271l703 -545v-499q0 -107 -54 -197t-145.5 -140.5t-198.5 -45.5q-65 3 -131.5 36.5t-117.5 81.5q-49 -54 -120 -86t-149 -32q-108 0 -201.5 51.5zM599.5 245.5
q36.5 21.5 57.5 58t21 78.5v132l221 -1v-132q0 -42 21.5 -78t57.5 -57.5t79 -21.5t78.5 21.5t56.5 58t21 78.5v400l-431 344l-128 -191h-122q-53 0 -100 -27.5t-75.5 -74t-28.5 -100.5v-313q0 -54 24 -98.5t67.5 -71t100.5 -26.5q43 0 79.5 21.5z" />
    <glyph glyph-name="uni06F6" unicode="&#x6f6;" horiz-adv-x="1210" 
d="M608 517q-35 -8 -75 -8q-43 0 -85 12q-89 25 -159.5 84t-110.5 141t-40 174q0 58 16 113l91 332l229 -5l-105 -385q-7 -24 -7 -52q0 -65 40 -118t105 -70q24 -7 50 -7q66 0 119.5 40t71.5 104l111 411l213 -59l-357 -1224h-224l164 534q-12 -9 -47 -17z" />
    <glyph glyph-name="uni06F7" unicode="&#x6f7;" horiz-adv-x="1112" 
d="M346 51.5q-96 56.5 -152 152t-56 208.5v882l221 55v-937q0 -53 26.5 -98t72 -71.5t98.5 -26.5h196v1133h222v-1354h-418q-114 0 -210 56.5z" />
    <glyph glyph-name="uni06F8" unicode="&#x6f8;" horiz-adv-x="1112" 
d="M766 1297.5q96 -56.5 152 -152t56 -208.5v-882l-221 -55v937q0 53 -26.5 98t-72 71.5t-98.5 26.5h-196v-1133h-222v1354h418q114 0 210 -56.5z" />
    <glyph glyph-name="uni06F9" unicode="&#x6f9;" horiz-adv-x="1085" 
d="M724 518h-195q-114 0 -210 56.5t-152 152t-56 208.5q0 114 56 210t152 152.5t210 56.5h417v-1354h-222v518zM724 740v391h-195q-53 0 -98.5 -26t-72 -71t-26.5 -99q0 -53 26.5 -98t72 -71t98.5 -26h195z" />
    <glyph glyph-name="uni2009" unicode="&#x2009;" horiz-adv-x="199" 
 />
    <glyph glyph-name="uni200A" unicode="&#x200a;" horiz-adv-x="117" 
 />
    <glyph glyph-name="uni200B" unicode="&#x200b;" 
 />
    <glyph glyph-name="uni200C" unicode="&#x200c;" 
 />
    <glyph glyph-name="uni200D" unicode="&#x200d;" 
 />
    <glyph glyph-name="uni200E" unicode="&#x200e;" 
 />
    <glyph glyph-name="uni200F" unicode="&#x200f;" 
 />
    <glyph glyph-name="quoteleft" unicode="&#x2018;" horiz-adv-x="474" 
d="M185 988l73 95l39 -70l-80 -95l39 70l22 -64h-93v64z" />
    <glyph glyph-name="quoteright" unicode="&#x2019;" horiz-adv-x="474" 
d="M289 1026l-73 -95l-39 70l80 95l-39 -70l-22 64h93v-64z" />
    <glyph glyph-name="quotedblleft" unicode="&#x201c;" horiz-adv-x="775" 
d="M185 998l73 95l39 -70l-80 -95l39 70l22 -64h-93v64zM486 998l73 95l39 -70l-80 -95l39 70l22 -64h-93v64z" />
    <glyph glyph-name="quotedblright" unicode="&#x201d;" horiz-adv-x="775" 
d="M289 984l-73 -95l-39 70l80 95l-39 -70l-22 64h93v-64zM591 984l-73 -95l-39 70l80 95l-39 -70l-22 64h93v-64z" />
    <glyph glyph-name="quotedblbase" unicode="&#x201e;" horiz-adv-x="775" 
d="M289 2l-73 -95l-39 70l80 95l-39 -70l-22 64h93v-64zM591 2l-73 -95l-39 70l80 95l-39 -70l-22 64h93v-64z" />
    <glyph glyph-name="bullet" unicode="&#x2022;" horiz-adv-x="635" 
d="M136 352h381v-352h-381v352z" />
    <glyph glyph-name="ellipsis" unicode="&#x2026;" horiz-adv-x="1420" 
d="M138 189h205v-189h-205v189zM606 189h205v-189h-205v189zM1076 189h205v-189h-205v189z" />
    <glyph glyph-name="minute" unicode="&#x2032;" horiz-adv-x="354" 
d="M111 1533h173v-164l-26 -352h-151z" />
    <glyph glyph-name="second" unicode="&#x2033;" horiz-adv-x="707" 
d="M143 1533h173v-164l-26 -352h-151zM472 1533h173v-164l-26 -352h-151z" />
    <glyph glyph-name="guilsinglleft" unicode="&#x2039;" horiz-adv-x="757" 
d="M138 385l384 384l96 -96l-288 -288l288 -290l-96 -95z" />
    <glyph glyph-name="guilsinglright" unicode="&#x203a;" horiz-adv-x="757" 
d="M138 95l290 290l-290 288l96 96l384 -384l-384 -385z" />
    <glyph glyph-name="trademark" unicode="&#x2122;" horiz-adv-x="1276" 
d="M601 1453h139l132 -394l138 394h132v-538h-113v372l-122 -372h-70l-121 378v-378h-115v538zM263 1358h-144v95h409v-95h-138v-442h-127v442z" />
    <glyph glyph-name="partialdiff" unicode="&#x2202;" horiz-adv-x="1170" 
d="M315.5 53.5q-113.5 74.5 -169.5 194.5t-56 254v25q0 125 51 240.5t158.5 190t267.5 74.5q203 0 329 -153q-13 153 -61 261t-126 164t-179 56q-79 0 -138.5 -20.5t-108.5 -60.5l-49 157q140 102 315 102q171 0 296 -91.5t192.5 -268.5t67.5 -427v-104q0 -203 -64 -354
t-180 -232.5t-269 -81.5q-163 0 -276.5 74.5zM742 214q63 50 96.5 144t33.5 225v91q-34 73 -105 123.5t-172 50.5q-80 0 -141.5 -39.5t-95 -114.5t-33.5 -177v-32q0 -71 24 -144t84 -125t159 -52q87 0 150 50z" />
    <glyph glyph-name="product" unicode="&#x220f;" horiz-adv-x="1356" 
d="M170 1453h1026v-1724h-237v1546h-555v-1546h-234v1724z" />
    <glyph glyph-name="summation" unicode="&#x2211;" horiz-adv-x="1266" 
d="M52 -158l565 755l-565 744v112h1140v-185h-813l485 -655v-34l-486 -664h844v-186h-1170v113z" />
    <glyph glyph-name="minus" unicode="&#x2212;" horiz-adv-x="1058" 
d="M138 672h782v-189h-782v189z" />
    <glyph glyph-name="uni2215" unicode="&#x2215;" horiz-adv-x="1226" 
d="M253 -90l532 1659l192 -58l-535 -1660z" />
    <glyph glyph-name="radical" unicode="&#x221a;" horiz-adv-x="1074" 
d="M254 545h-197v185h323l158 -509l324 1232h176l-390 -1453h-209z" />
    <glyph glyph-name="infinity" unicode="&#x221e;" horiz-adv-x="2184" 
d="M340 56q-114 77 -172 203.5t-58 273.5q1 134 51.5 264t162.5 216.5t286 86.5q151 0 274.5 -92t205.5 -266q83 174 206 266t274 92q159 0 271.5 -77t169.5 -207t57 -287q1 -126 -51 -252.5t-164.5 -212t-283.5 -85.5q-151 0 -273.5 92.5t-205.5 268.5
q-86 -178 -207 -269.5t-270 -91.5q-159 0 -273 77zM771.5 225q69.5 55 120 140.5t78.5 176.5q-28 92 -79 175.5t-120 137t-148 53.5q-84 0 -149 -46t-101.5 -132t-36.5 -202q0 -101 35 -182.5t100 -128.5t153 -47q78 0 147.5 55zM1705.5 215q64.5 45 100 127.5t35.5 191.5
q0 114 -36 199t-100 130t-147 45q-80 0 -149.5 -53t-120.5 -137t-79 -176q29 -93 80.5 -178t120.5 -139.5t147 -54.5q84 0 148.5 45z" />
    <glyph glyph-name="integral" unicode="&#x222b;" horiz-adv-x="586" 
d="M-122 -419l15 183q37 -14 91 -14q81 0 122.5 49.5t41.5 146.5v1245q0 175 97 269.5t277 94.5q72 0 154 -21l-19 -176q-54 13 -109 13q-79 0 -122 -49t-43 -138v-1232q0 -188 -94 -287.5t-269 -99.5q-77 0 -142 16z" />
    <glyph glyph-name="approxequal" unicode="&#x2248;" horiz-adv-x="1178" 
d="M218 974.5q65 31.5 131 31.5q73 0 125.5 -18.5t122.5 -54.5q66 -35 115.5 -52.5t115.5 -17.5q126 0 223 134l4 -181q-50 -62 -102.5 -92t-117.5 -30q-60 0 -110.5 18t-118.5 53q-74 38 -129.5 56.5t-122.5 16.5q-67 0 -134 -36t-113 -98l-5 182q51 57 116 88.5zM335 598
q65 1 122.5 -18t136.5 -57q75 -35 122 -51.5t99 -16.5q134 0 234 134l2 -182q-102 -120 -226 -120q-63 0 -117 18.5t-128 55.5q-76 37 -127 54t-110 15q-66 0 -129 -34.5t-112 -99.5l-2 182q102 120 235 120z" />
    <glyph glyph-name="notequal" unicode="&#x2260;" horiz-adv-x="1175" 
d="M252 149l100 188h-217v185h313l131 242h-444v185h540l122 227l99 -50l-97 -177h226v-185h-322l-131 -242h453v-185h-549l-126 -234z" />
    <glyph glyph-name="lessequal" unicode="&#x2264;" horiz-adv-x="932" 
d="M61 99h782v-189h-782v189zM71 600v181l760 319v-162l-605 -249l605 -244v-163z" />
    <glyph glyph-name="greaterequal" unicode="&#x2265;" horiz-adv-x="935" 
d="M97 100h782v-189h-782v189zM109 447l601 247l-601 246v163l757 -319v-182l-757 -318v163z" />
    <glyph glyph-name="uniFD3E" unicode="&#xfd3e;" horiz-adv-x="843" 
d="M353 -164.5q-109 141.5 -177.5 330t-68.5 410.5q0 330 138.5 576t346.5 407l115 -137q-104 -91 -191 -200.5t-149 -273t-62 -372.5q0 -298 117.5 -500t284.5 -347l-115 -138q-130 103 -239 244.5z" />
    <glyph glyph-name="uniFD3F" unicode="&#xfd3f;" horiz-adv-x="843" 
d="M420.5 76q117.5 202 117.5 500q0 209 -62 372.5t-149 273t-191 200.5l115 137q208 -161 346.5 -407t138.5 -576q0 -222 -68.5 -410.5t-177.5 -330t-239 -244.5l-115 138q167 145 284.5 347z" />
    <glyph glyph-name="uniFEFF" unicode="&#xfeff;" 
 />
    <glyph glyph-name="uni0627.fina.ss02" horiz-adv-x="546" 
d="M138 1269l223 63v-1111h185l40 -112l-40 -109h-408v1269z" />
    <glyph glyph-name="uni0627.fina.ss03" horiz-adv-x="546" 
d="M138 1121l223 64v-964h185l39 -111l-39 -110h-408v1121z" />
    <glyph glyph-name="uni066E.medi.long" horiz-adv-x="762" 
d="M-39 110l39 111h149q54 0 99 26.5t71 71.5t26 98v337l220 54v-391q0 -53 26.5 -98t72 -71.5t98.5 -26.5l39 -111l-39 -110q-91 0 -171.5 39t-135.5 106q-55 -67 -135 -106t-171 -39h-149z" />
    <glyph glyph-name="uni066E.init.long" horiz-adv-x="640" 
d="M-39 110l39 111h157q53 0 98 26.5t71.5 71.5t26.5 98v337l221 54v-391q0 -113 -56 -209t-152 -152t-209 -56h-157z" />
    <glyph glyph-name="uni0628.medi.long" horiz-adv-x="762" 
d="M-39 110l39 111h149q54 0 99 26.5t71 71.5t26 98v337l220 54v-391q0 -53 26.5 -98t72 -71.5t98.5 -26.5l39 -111l-39 -110q-91 0 -171.5 39t-135.5 106q-55 -67 -135 -106t-171 -39h-149zM125 -205h206v-188h-206v188z" />
    <glyph glyph-name="uni0628.init.long" horiz-adv-x="640" 
d="M-39 110l39 111h157q53 0 98 26.5t71.5 71.5t26.5 98v337l221 54v-391q0 -113 -56 -209t-152 -152t-209 -56h-157zM150 -205h206v-188h-206v188z" />
    <glyph glyph-name="uni067E.medi.long" horiz-adv-x="762" 
d="M-39 110l39 111h149q54 0 99 26.5t71 71.5t26 98v337l220 54v-391q0 -53 26.5 -98t72 -71.5t98.5 -26.5l39 -111l-39 -110q-91 0 -171.5 39t-135.5 106q-55 -67 -135 -106t-171 -39h-149zM484 -207v-316l-189 -58v194h-274v180h463z" />
    <glyph glyph-name="uni067E.init.long" horiz-adv-x="640" 
d="M-39 110l39 111h157q53 0 98 26.5t71.5 71.5t26.5 98v337l221 54v-391q0 -113 -56 -209t-152 -152t-209 -56h-157zM485 -207v-316l-189 -58v194h-274v180h463z" />
    <glyph glyph-name="uni062A.medi.long" horiz-adv-x="762" 
d="M-39 110l39 111h149q54 0 99 26.5t71 71.5t26 98v337l220 54v-391q0 -53 26.5 -98t72 -71.5t98.5 -26.5l39 -111l-39 -110q-91 0 -171.5 39t-135.5 106q-55 -67 -135 -106t-171 -39h-149zM106 1199h464v-181h-464v181z" />
    <glyph glyph-name="uni062A.init.long" horiz-adv-x="640" 
d="M-39 110l39 111h157q53 0 98 26.5t71.5 71.5t26.5 98v337l221 54v-391q0 -113 -56 -209t-152 -152t-209 -56h-157zM154 1199h464v-181h-464v181z" />
    <glyph glyph-name="uni062B.medi.long" horiz-adv-x="762" 
d="M-39 110l39 111h149q54 0 99 26.5t71 71.5t26 98v337l220 54v-391q0 -53 26.5 -98t72 -71.5t98.5 -26.5l39 -111l-39 -110q-91 0 -171.5 39t-135.5 106q-55 -67 -135 -106t-171 -39h-149zM104 1196h275v194l189 -58v-316h-464v180z" />
    <glyph glyph-name="uni062B.init.long" horiz-adv-x="640" 
d="M-39 110l39 111h157q53 0 98 26.5t71.5 71.5t26.5 98v337l221 54v-391q0 -113 -56 -209t-152 -152t-209 -56h-157zM152 1196h275v194l189 -58v-316h-464v180z" />
    <glyph glyph-name="uni062F.fina.ss03" horiz-adv-x="965" 
d="M106 221h245q53 0 98 26.5t71.5 71.5t26.5 98q0 54 -26.5 99t-71.5 71t-98 26h-213v222h213q114 0 209.5 -56t151.5 -152t56 -210q0 -53 26.5 -98t72 -71.5t98.5 -26.5l39 -116l-39 -105q-91 0 -171.5 39t-136.5 106q-54 -67 -134.5 -106t-171.5 -39h-245v221z" />
    <glyph glyph-name="uni0630.fina.ss03" horiz-adv-x="965" 
d="M106 221h245q53 0 98 26.5t71.5 71.5t26.5 98q0 54 -26.5 99t-71.5 71t-98 26h-213v222h213q114 0 209.5 -56t151.5 -152t56 -210q0 -53 26.5 -98t72 -71.5t98.5 -26.5l39 -116l-39 -105q-91 0 -171.5 39t-136.5 106q-54 -67 -134.5 -106t-171.5 -39h-245v221zM244 1207
h206v-188h-206v188z" />
    <glyph glyph-name="uni0633.fina.long" horiz-adv-x="2625" 
d="M2293.5 39q-81.5 39 -134.5 106l-59 220l83 106l87 -54q0 -53 26.5 -98t72 -71.5t98.5 -26.5h158l39 -111l-39 -110h-158q-92 0 -173.5 39zM2270 802v-423q0 -102 -51 -189.5t-137.5 -138.5t-189.5 -51q-76 0 -151.5 37t-123.5 89q-46 -53 -119.5 -89.5t-153.5 -36.5
h-188v221h188q46 0 84.5 23t61.5 61.5t23 84.5v342h222v-354q0 -42 21.5 -78t57.5 -57.5t78 -21.5q43 0 79 21t57 57.5t21 78.5v369zM1121 -321q-56 -96 -151.5 -152t-208.5 -56h-204q-113 0 -209.5 56t-153 152t-56.5 210v456l223 54v-510q0 -54 26.5 -99t71.5 -71.5
t98 -26.5h204q53 0 97.5 26.5t71 71.5t26.5 99v843h221v-843q0 -114 -56 -210z" />
    <glyph glyph-name="uni0633.medi.long" horiz-adv-x="1842" 
d="M-39 110l39 111h158q53 0 98.5 26.5t72 71.5t26.5 98v315h220v-354q0 -42 21 -78t57 -57.5t78 -21.5q43 0 79.5 21t57.5 57.5t21 78.5v354h222v-354q0 -42 21 -78t57 -57.5t78 -21.5q43 0 79.5 21t57.5 57.5t21 78.5v369l221 55v-423q0 -102 -51 -189.5t-138 -138.5
t-190 -51q-71 0 -143 34t-123 84q-51 -55 -121 -86.5t-149 -31.5q-75 0 -151.5 39t-123.5 92q-57 -61 -134 -96t-164 -35h-158zM1669 39q-81 39 -135 106l-59 220l84 106l87 -54q0 -53 26 -98t71 -71.5t99 -26.5l39 -111l-39 -110q-92 0 -173 39z" />
    <glyph glyph-name="uni0633.init.long" horiz-adv-x="1712" 
d="M-39 110l39 111h158q53 0 98.5 26.5t72 71.5t26.5 98v315h220v-354q0 -42 21 -78t57 -57.5t78 -21.5q43 0 79.5 21t57.5 57.5t21 78.5v354h222v-354q0 -42 21 -78t57 -57.5t78 -21.5q43 0 79.5 21t57.5 57.5t21 78.5v369l221 55v-423q0 -102 -51 -189.5t-138 -138.5
t-190 -51q-71 0 -143 34t-123 84q-51 -55 -121 -86.5t-149 -31.5q-75 0 -151.5 39t-123.5 92q-57 -61 -134 -96t-164 -35h-158z" />
    <glyph glyph-name="uni0634.fina.long" horiz-adv-x="2625" 
d="M2293.5 39q-81.5 39 -134.5 106l-59 220l83 106l87 -54q0 -53 26.5 -98t72 -71.5t98.5 -26.5h158l39 -111l-39 -110h-158q-92 0 -173.5 39zM2270 802v-423q0 -102 -51 -189.5t-137.5 -138.5t-189.5 -51q-76 0 -151.5 37t-123.5 89q-46 -53 -119.5 -89.5t-153.5 -36.5
h-188v221h188q46 0 84.5 23t61.5 61.5t23 84.5v342h222v-354q0 -42 21.5 -78t57.5 -57.5t78 -21.5q43 0 79 21t57 57.5t21 78.5v369zM1121 -321q-56 -96 -151.5 -152t-208.5 -56h-204q-113 0 -209.5 56t-153 152t-56.5 210v456l223 54v-510q0 -54 26.5 -99t71.5 -71.5
t98 -26.5h204q53 0 97.5 26.5t71 71.5t26.5 99v843h221v-843q0 -114 -56 -210zM1396 1157h275v194l189 -58v-316h-464v180z" />
    <glyph glyph-name="uni0634.medi.long" horiz-adv-x="1842" 
d="M-39 110l39 111h158q53 0 98.5 26.5t72 71.5t26.5 98v315h220v-354q0 -42 21 -78t57 -57.5t78 -21.5q43 0 79.5 21t57.5 57.5t21 78.5v354h222v-354q0 -42 21 -78t57 -57.5t78 -21.5q43 0 79.5 21t57.5 57.5t21 78.5v369l221 55v-423q0 -102 -51 -189.5t-138 -138.5
t-190 -51q-71 0 -143 34t-123 84q-51 -55 -121 -86.5t-149 -31.5q-75 0 -151.5 39t-123.5 92q-57 -61 -134 -96t-164 -35h-158zM1669 39q-81 39 -135 106l-59 220l84 106l87 -54q0 -53 26 -98t71 -71.5t99 -26.5l39 -111l-39 -110q-92 0 -173 39zM770 1156h275v194l189 -58
v-316h-464v180z" />
    <glyph glyph-name="uni0634.init.long" horiz-adv-x="1712" 
d="M-39 110l39 111h158q53 0 98.5 26.5t72 71.5t26.5 98v315h220v-354q0 -42 21 -78t57 -57.5t78 -21.5q43 0 79.5 21t57.5 57.5t21 78.5v354h222v-354q0 -42 21 -78t57 -57.5t78 -21.5q43 0 79.5 21t57.5 57.5t21 78.5v369l221 55v-423q0 -102 -51 -189.5t-138 -138.5
t-190 -51q-71 0 -143 34t-123 84q-51 -55 -121 -86.5t-149 -31.5q-75 0 -151.5 39t-123.5 92q-57 -61 -134 -96t-164 -35h-158zM767 1156h275v194l189 -58v-316h-464v180z" />
    <glyph glyph-name="uni0646.medi.long" horiz-adv-x="762" 
d="M-39 110l39 111h149q54 0 99 26.5t71 71.5t26 98v337l220 54v-391q0 -53 26.5 -98t72 -71.5t98.5 -26.5l39 -111l-39 -110q-91 0 -171.5 39t-135.5 106q-55 -67 -135 -106t-171 -39h-149zM331 1207h206v-188h-206v188z" />
    <glyph glyph-name="uni0646.init.long" horiz-adv-x="640" 
d="M-39 110l39 111h157q53 0 98 26.5t71.5 71.5t26.5 98v337l221 54v-391q0 -113 -56 -209t-152 -152t-209 -56h-157zM347 1205h206v-188h-206v188z" />
    <glyph glyph-name="uni0647.medi.ss03" horiz-adv-x="1040" 
d="M310.5 -472.5q-94.5 56.5 -150 152.5t-55.5 209l-1 111h-104l-39 111l39 110h103l2 196q1 114 56 210t149.5 152t207.5 56h418v-614h104l39 -110l-39 -111h-104v-111q0 -114 -56 -210t-152 -152t-210 -56q-113 0 -207.5 56.5zM617 -281.5q45 26.5 71.5 71.5t26.5 99v111
h-392v-111q0 -54 26 -99t71 -71.5t98 -26.5q54 0 99 26.5zM715 221v392h-197q-53 0 -98 -26t-71 -71t-26 -99v-196h392z" />
    <glyph glyph-name="uni06C0.fina" horiz-adv-x="1170" 
d="M347 56q-96 56 -152.5 152t-56.5 209t56.5 208.5t152.5 152t209 56.5h416v-417q0 -113 -56 -209t-151.5 -152t-208.5 -56t-209 56zM654 247q45 26 71 71t26 99v196h-195q-53 0 -98.5 -26.5t-72 -71.5t-26.5 -98q0 -54 26.5 -99t72 -71t98.5 -26t98 26zM998 39
q-80 39 -136 107l-58 124l49 130l120 18q0 -54 26.5 -99t72 -71.5t98.5 -26.5l39 -111l-39 -110q-92 0 -172 39zM406 1116l110 28q-24 30 -31 63q-4 24 -4 33q0 37 17.5 67.5t44.5 49.5t55 25l86 18l16 -85l-85 -17q-17 -3 -32 -19.5t-15 -40.5q0 -27 17 -44.5t41 -17.5
q5 0 15 2l103 24v-92l-338 -84v90z" />
    <glyph glyph-name="uni06BE.medi" horiz-adv-x="1587" 
d="M-39 110l39 111h173q-33 39 -51.5 90t-18.5 106t18.5 105t51.5 91h-72v221h969q114 0 210 -56t152 -152t56 -209t-56 -209t-152 -152t-210 -56h-1070zM618 247q45 26 71.5 71t26.5 99q0 53 -26.5 98t-71.5 71.5t-98 26.5t-98 -26.5t-71 -71.5t-26 -98q0 -54 26 -99
t71 -71t98 -26t98 26zM1169 247q45 26 71.5 71t26.5 99q0 53 -26.5 98t-71.5 71.5t-99 26.5h-201q33 -41 51 -91t18 -105t-18.5 -106t-50.5 -90h201q54 0 99 26zM1268 221h319l39 -111l-39 -110h-688z" />
    <glyph glyph-name="uni06BE.init" horiz-adv-x="1554" 
d="M-39 110l39 111h173q-33 39 -51.5 90t-18.5 106t18.5 105t51.5 91h-72v221h969q114 0 210 -56t152 -152t56 -209t-56 -209t-152 -152t-210 -56h-1070zM618 247q45 26 71.5 71t26.5 99q0 53 -26.5 98t-71.5 71.5t-98 26.5t-98 -26.5t-71 -71.5t-26 -98q0 -54 26 -99
t71 -71t98 -26t98 26zM1169 247q45 26 71.5 71t26.5 99q0 53 -26.5 98t-71.5 71.5t-99 26.5h-201q33 -41 51 -91t18 -105t-18.5 -106t-50.5 -90h201q54 0 99 26z" />
    <glyph glyph-name="uni064A.medi.long" horiz-adv-x="762" 
d="M-39 110l39 111h149q54 0 99 26.5t71 71.5t26 98v337l220 54v-391q0 -53 26.5 -98t72 -71.5t98.5 -26.5l39 -111l-39 -110q-91 0 -171.5 39t-135.5 106q-55 -67 -135 -106t-171 -39h-149zM538 -386h-464v181h464v-181z" />
    <glyph glyph-name="uni064A.init.long" horiz-adv-x="640" 
d="M-39 110l39 111h157q53 0 98 26.5t71.5 71.5t26.5 98v337l221 54v-391q0 -113 -56 -209t-152 -152t-209 -56h-157zM464 -386h-464v181h464v-181z" />
    <glyph glyph-name="uni0626.medi.long" horiz-adv-x="762" 
d="M-39 110l39 111h149q54 0 99 26.5t71 71.5t26 98v337l220 54v-391q0 -53 26.5 -98t72 -71.5t98.5 -26.5l39 -111l-39 -110q-91 0 -171.5 39t-135.5 106q-55 -67 -135 -106t-171 -39h-149zM218 1045l110 28q-24 30 -31 63q-4 24 -4 33q0 37 17.5 67.5t44.5 49.5t55 25
l86 18l16 -85l-85 -17q-17 -3 -32 -19.5t-15 -40.5q0 -27 17 -44.5t41 -17.5q5 0 15 2l103 24v-92l-338 -84v90z" />
    <glyph glyph-name="uni0626.init.long" horiz-adv-x="640" 
d="M-39 110l39 111h157q53 0 98 26.5t71.5 71.5t26.5 98v337l221 54v-391q0 -113 -56 -209t-152 -152t-209 -56h-157zM237 1046l110 28q-24 30 -31 63q-4 24 -4 33q0 37 17.5 67.5t44.5 49.5t55 25l86 18l16 -85l-85 -17q-17 -3 -32 -19.5t-15 -40.5q0 -27 17 -44.5
t41 -17.5q5 0 15 2l103 24v-92l-338 -84v90z" />
    <glyph glyph-name="uni06CC.ss03" horiz-adv-x="1453" 
d="M326.5 50.5q-86.5 50.5 -137.5 137t-51 188.5t51 187.5t137.5 136t187.5 50.5h542l-49 -157l-20 -64h-473q-41 0 -76.5 -20.5t-56 -56t-20.5 -76.5q0 -42 20.5 -77.5t56 -56.5t76.5 -21h873v-221h-873q-101 0 -187.5 50.5z" />
    <glyph glyph-name="uni06CC.fina.ss03" horiz-adv-x="1333" 
d="M326.5 -478.5q-86.5 50.5 -137.5 137t-51 188.5q0 101 51 187t137.5 136.5t187.5 50.5h819l39 -113l-39 -108h-819q-41 0 -76.5 -20.5t-56 -55.5t-20.5 -77t20.5 -77.5t56 -56t76.5 -20.5h700l-69 -222h-631q-101 0 -187.5 50.5z" />
    <glyph glyph-name="uni06CC.medi.long" horiz-adv-x="762" 
d="M-39 110l39 111h149q54 0 99 26.5t71 71.5t26 98v337l220 54v-391q0 -53 26.5 -98t72 -71.5t98.5 -26.5l39 -111l-39 -110q-91 0 -171.5 39t-135.5 106q-55 -67 -135 -106t-171 -39h-149zM538 -386h-464v181h464v-181z" />
    <glyph glyph-name="uni06CC.init.long" horiz-adv-x="640" 
d="M-39 110l39 111h157q53 0 98 26.5t71.5 71.5t26.5 98v337l221 54v-391q0 -113 -56 -209t-152 -152t-209 -56h-157zM464 -386h-464v181h464v-181z" />
    <glyph glyph-name="uni06D2.fina" horiz-adv-x="1333" 
d="M326.5 -478.5q-86.5 50.5 -137.5 137t-51 188.5q0 101 51 187t137.5 136.5t187.5 50.5h819l39 -113l-39 -108h-819q-41 0 -76.5 -20.5t-56 -55.5t-20.5 -77t20.5 -77.5t56 -56t76.5 -20.5h700l-69 -222h-631q-101 0 -187.5 50.5z" />
    <glyph glyph-name="uni06D3.fina" horiz-adv-x="1333" 
d="M326.5 -478.5q-86.5 50.5 -137.5 137t-51 188.5q0 101 51 187t137.5 136.5t187.5 50.5h819l39 -113l-39 -108h-819q-41 0 -76.5 -20.5t-56 -55.5t-20.5 -77t20.5 -77.5t56 -56t76.5 -20.5h700l-69 -222h-631q-101 0 -187.5 50.5zM264 427l110 28q-24 30 -31 63
q-4 24 -4 33q0 37 17.5 67.5t44.5 49.5t55 25l86 18l16 -85l-85 -17q-17 -3 -32 -19.5t-15 -40.5q0 -27 17 -44.5t41 -17.5q5 0 15 2l103 24v-92l-338 -84v90z" />
    <glyph glyph-name="uni06440627.fina" horiz-adv-x="1271" 
d="M138 221h103v1048l222 63v-1111h196q53 0 98 26.5t71.5 71.5t26.5 98v865l221 56v-921q0 -113 -56 -208.5t-152 -152t-209 -56.5h-521v221zM1099 39q-80 39 -135 107l-63 131l55 132l120 8q0 -53 26 -98t71 -71.5t98 -26.5l39 -111l-39 -110q-92 0 -172 39z" />
    <glyph glyph-name="uni06440623" horiz-adv-x="1136" 
d="M132 221h103v1048l222 63v-1111h196q53 0 98 26.5t71.5 71.5t26.5 98v865l221 56v-921q0 -113 -56 -208.5t-152 -152t-209 -56.5h-521v221zM190 1481l110 28q-24 30 -31 63q-4 24 -4 33q0 37 17.5 67.5t44.5 49.5t55 25l86 18l16 -85l-85 -17q-17 -3 -32 -19.5t-15 -40.5
q0 -27 17 -44.5t41 -17.5q5 0 15 2l103 24v-92l-338 -84v90z" />
    <glyph glyph-name="uni06440623.fina" horiz-adv-x="1271" 
d="M138 221h103v1048l222 63v-1111h196q53 0 98 26.5t71.5 71.5t26.5 98v865l221 56v-921q0 -113 -56 -208.5t-152 -152t-209 -56.5h-521v221zM1099 39q-80 39 -135 107l-63 131l55 132l120 8q0 -53 26 -98t71 -71.5t98 -26.5l39 -111l-39 -110q-92 0 -172 39zM198 1477
l110 28q-24 30 -31 63q-4 24 -4 33q0 37 17.5 67.5t44.5 49.5t55 25l86 18l16 -85l-85 -17q-17 -3 -32 -19.5t-15 -40.5q0 -27 17 -44.5t41 -17.5q5 0 15 2l103 24v-92l-338 -84v90z" />
    <glyph glyph-name="uni06440625" horiz-adv-x="1158" 
d="M138 221h103v1048l222 63v-1111h196q53 0 98 26.5t71.5 71.5t26.5 98v865l221 56v-921q0 -113 -56 -208.5t-152 -152t-209 -56.5h-521v221zM179 -381l110 28q-24 30 -31 63q-4 24 -4 33q0 37 17.5 67.5t44.5 49.5t55 25l86 18l16 -85l-85 -17q-17 -3 -32 -19.5t-15 -40.5
q0 -27 17 -44.5t41 -17.5q5 0 15 2l103 24v-92l-338 -84v90z" />
    <glyph glyph-name="uni06440625.fina" horiz-adv-x="1271" 
d="M138 221h103v1048l222 63v-1111h196q53 0 98 26.5t71.5 71.5t26.5 98v865l221 56v-921q0 -113 -56 -208.5t-152 -152t-209 -56.5h-521v221zM1099 39q-80 39 -135 107l-63 131l55 132l120 8q0 -53 26 -98t71 -71.5t98 -26.5l39 -111l-39 -110q-92 0 -172 39zM165 -371
l110 28q-24 30 -31 63q-4 24 -4 33q0 37 17.5 67.5t44.5 49.5t55 25l86 18l16 -85l-85 -17q-17 -3 -32 -19.5t-15 -40.5q0 -27 17 -44.5t41 -17.5q5 0 15 2l103 24v-92l-338 -84v90z" />
    <glyph glyph-name="uni06440622" horiz-adv-x="1150" 
d="M146 221h103v1048l222 63v-1111h196q53 0 98 26.5t71.5 71.5t26.5 98v865l221 56v-921q0 -113 -56 -208.5t-152 -152t-209 -56.5h-521v221zM129 1558h299v60l158 -60v-113h-457v113z" />
    <glyph glyph-name="uni06440622.fina" horiz-adv-x="1271" 
d="M138 221h103v1048l222 63v-1111h196q53 0 98 26.5t71.5 71.5t26.5 98v865l221 56v-921q0 -113 -56 -208.5t-152 -152t-209 -56.5h-521v221zM1099 39q-80 39 -135 107l-63 131l55 132l120 8q0 -53 26 -98t71 -71.5t98 -26.5l39 -111l-39 -110q-92 0 -172 39zM125 1576h299
v60l158 -60v-113h-457v113z" />
    <glyph glyph-name="uni066E0631.fina" horiz-adv-x="1126" 
d="M0 -274l178 119v489q0 111 55 206t149.5 152t205.5 59h343v-530h195l40 -111l-40 -110h-418v529h-112q-53 0 -98 -26t-71.5 -71t-26.5 -98v-608l-277 -185z" />
    <glyph glyph-name="uni066E0649.fina" horiz-adv-x="2026" 
d="M347.5 -473q-96.5 56 -153 151.5t-56.5 208.5v458l223 54v-512q0 -53 26.5 -97.5t71.5 -71t98 -26.5h428q53 0 97.5 26.5t71 71t26.5 97.5v113h-511v334q0 113 56 209t152 152t209 56h744v-334q0 -53 26 -98t71 -71.5t99 -26.5l39 -111l-39 -110q-114 0 -210 56.5
t-152 152t-56 208.5v113l-522 -1q-53 0 -98 -26t-71.5 -71t-26.5 -98v-112h512v-335q0 -114 -56 -209.5t-152 -151t-209 -55.5h-428q-113 0 -209.5 56z" />
    <glyph glyph-name="uni06280631.fina" horiz-adv-x="1126" 
d="M0 -274l178 119v489q0 111 55 206t149.5 152t205.5 59h343v-530h195l40 -111l-40 -110h-418v529h-112q-53 0 -98 -26t-71.5 -71t-26.5 -98v-608l-277 -185zM761 -209h206v-188h-206v188z" />
    <glyph glyph-name="uni06280632.fina" horiz-adv-x="1126" 
d="M0 -274l178 119v489q0 111 55 206t149.5 152t205.5 59h343v-530h195l40 -111l-40 -110h-418v529h-112q-53 0 -98 -26t-71.5 -71t-26.5 -98v-608l-277 -185zM761 -197h206v-188h-206v188zM137 1095h206v-188h-206v188z" />
    <glyph glyph-name="uni06280698.fina" horiz-adv-x="1126" 
d="M0 -274l178 119v489q0 111 55 206t149.5 152t205.5 59h343v-530h195l40 -111l-40 -110h-418v529h-112q-53 0 -98 -26t-71.5 -71t-26.5 -98v-608l-277 -185zM761 -209h206v-188h-206v188zM57 1085h275v194l189 -58v-316h-464v180z" />
    <glyph glyph-name="uni06280649.fina" horiz-adv-x="2026" 
d="M347.5 -473q-96.5 56 -153 151.5t-56.5 208.5v458l223 54v-512q0 -53 26.5 -97.5t71.5 -71t98 -26.5h428q53 0 97.5 26.5t71 71t26.5 97.5v113h-511v334q0 113 56 209t152 152t209 56h744v-334q0 -53 26 -98t71 -71.5t99 -26.5l39 -111l-39 -110q-114 0 -210 56.5
t-152 152t-56 208.5v113l-522 -1q-53 0 -98 -26t-71.5 -71t-26.5 -98v-112h512v-335q0 -114 -56 -209.5t-152 -151t-209 -55.5h-428q-113 0 -209.5 56zM1604 -205h206v-188h-206v188z" />
    <glyph glyph-name="uni0628064A.fina" horiz-adv-x="2026" 
d="M347.5 -473q-96.5 56 -153 151.5t-56.5 208.5v458l223 54v-512q0 -53 26.5 -97.5t71.5 -71t98 -26.5h428q53 0 97.5 26.5t71 71t26.5 97.5v113h-511v334q0 113 56 209t152 152t209 56h744v-334q0 -53 26 -98t71 -71.5t99 -26.5l39 -111l-39 -110q-114 0 -210 56.5
t-152 152t-56 208.5v113l-522 -1q-53 0 -98 -26t-71.5 -71t-26.5 -98v-112h512v-335q0 -114 -56 -209.5t-152 -151t-209 -55.5h-428q-113 0 -209.5 56zM1604 -205h206v-188h-206v188zM1002 -894h-464v181h464v-181z" />
    <glyph glyph-name="uni06280626.fina" horiz-adv-x="2026" 
d="M347.5 -473q-96.5 56 -153 151.5t-56.5 208.5v458l223 54v-512q0 -53 26.5 -97.5t71.5 -71t98 -26.5h428q53 0 97.5 26.5t71 71t26.5 97.5v113h-511v334q0 113 56 209t152 152t209 56h744v-334q0 -53 26 -98t71 -71.5t99 -26.5l39 -111l-39 -110q-114 0 -210 56.5
t-152 152t-56 208.5v113l-522 -1q-53 0 -98 -26t-71.5 -71t-26.5 -98v-112h512v-335q0 -114 -56 -209.5t-152 -151t-209 -55.5h-428q-113 0 -209.5 56zM1604 -205h206v-188h-206v188zM144 654l110 28q-24 30 -31 63q-4 24 -4 33q0 37 17.5 67.5t44.5 49.5t55 25l86 18
l16 -85l-85 -17q-17 -3 -32 -19.5t-15 -40.5q0 -27 17 -44.5t41 -17.5q5 0 15 2l103 24v-92l-338 -84v90z" />
    <glyph glyph-name="uni062806CC.fina" horiz-adv-x="2026" 
d="M347.5 -473q-96.5 56 -153 151.5t-56.5 208.5v458l223 54v-512q0 -53 26.5 -97.5t71.5 -71t98 -26.5h428q53 0 97.5 26.5t71 71t26.5 97.5v113h-511v334q0 113 56 209t152 152t209 56h744v-334q0 -53 26 -98t71 -71.5t99 -26.5l39 -111l-39 -110q-114 0 -210 56.5
t-152 152t-56 208.5v113l-522 -1q-53 0 -98 -26t-71.5 -71t-26.5 -98v-112h512v-335q0 -114 -56 -209.5t-152 -151t-209 -55.5h-428q-113 0 -209.5 56zM1604 -205h206v-188h-206v188z" />
    <glyph glyph-name="uni067E0631.fina" horiz-adv-x="1126" 
d="M0 -274l178 119v489q0 111 55 206t149.5 152t205.5 59h343v-530h195l40 -111l-40 -110h-418v529h-112q-53 0 -98 -26t-71.5 -71t-26.5 -98v-608l-277 -185zM995 -209v-316l-189 -58v194h-274v180h463z" />
    <glyph glyph-name="uni067E0632.fina" horiz-adv-x="1126" 
d="M0 -274l178 119v489q0 111 55 206t149.5 152t205.5 59h343v-530h195l40 -111l-40 -110h-418v529h-112q-53 0 -98 -26t-71.5 -71t-26.5 -98v-608l-277 -185zM995 -208v-316l-189 -58v194h-274v180h463zM137 1095h206v-188h-206v188z" />
    <glyph glyph-name="uni067E0698.fina" horiz-adv-x="1126" 
d="M0 -274l178 119v489q0 111 55 206t149.5 152t205.5 59h343v-530h195l40 -111l-40 -110h-418v529h-112q-53 0 -98 -26t-71.5 -71t-26.5 -98v-608l-277 -185zM995 -208v-316l-189 -58v194h-274v180h463zM57 1085h275v194l189 -58v-316h-464v180z" />
    <glyph glyph-name="uni067E0649.fina" horiz-adv-x="2026" 
d="M347.5 -473q-96.5 56 -153 151.5t-56.5 208.5v458l223 54v-512q0 -53 26.5 -97.5t71.5 -71t98 -26.5h428q53 0 97.5 26.5t71 71t26.5 97.5v113h-511v334q0 113 56 209t152 152t209 56h744v-334q0 -53 26 -98t71 -71.5t99 -26.5l39 -111l-39 -110q-114 0 -210 56.5
t-152 152t-56 208.5v113l-522 -1q-53 0 -98 -26t-71.5 -71t-26.5 -98v-112h512v-335q0 -114 -56 -209.5t-152 -151t-209 -55.5h-428q-113 0 -209.5 56zM1960 -205v-316l-189 -58v194h-274v180h463z" />
    <glyph glyph-name="uni067E064A.fina" horiz-adv-x="2026" 
d="M347.5 -473q-96.5 56 -153 151.5t-56.5 208.5v458l223 54v-512q0 -53 26.5 -97.5t71.5 -71t98 -26.5h428q53 0 97.5 26.5t71 71t26.5 97.5v113h-511v334q0 113 56 209t152 152t209 56h744v-334q0 -53 26 -98t71 -71.5t99 -26.5l39 -111l-39 -110q-114 0 -210 56.5
t-152 152t-56 208.5v113l-522 -1q-53 0 -98 -26t-71.5 -71t-26.5 -98v-112h512v-335q0 -114 -56 -209.5t-152 -151t-209 -55.5h-428q-113 0 -209.5 56zM1960 -205v-316l-189 -58v194h-274v180h463zM1002 -894h-464v181h464v-181z" />
    <glyph glyph-name="uni067E0626.fina" horiz-adv-x="2026" 
d="M347.5 -473q-96.5 56 -153 151.5t-56.5 208.5v458l223 54v-512q0 -53 26.5 -97.5t71.5 -71t98 -26.5h428q53 0 97.5 26.5t71 71t26.5 97.5v113h-511v334q0 113 56 209t152 152t209 56h744v-334q0 -53 26 -98t71 -71.5t99 -26.5l39 -111l-39 -110q-114 0 -210 56.5
t-152 152t-56 208.5v113l-522 -1q-53 0 -98 -26t-71.5 -71t-26.5 -98v-112h512v-335q0 -114 -56 -209.5t-152 -151t-209 -55.5h-428q-113 0 -209.5 56zM1960 -205v-316l-189 -58v194h-274v180h463zM144 654l110 28q-24 30 -31 63q-4 24 -4 33q0 37 17.5 67.5t44.5 49.5
t55 25l86 18l16 -85l-85 -17q-17 -3 -32 -19.5t-15 -40.5q0 -27 17 -44.5t41 -17.5q5 0 15 2l103 24v-92l-338 -84v90z" />
    <glyph glyph-name="uni067E06CC.fina" horiz-adv-x="2026" 
d="M347.5 -473q-96.5 56 -153 151.5t-56.5 208.5v458l223 54v-512q0 -53 26.5 -97.5t71.5 -71t98 -26.5h428q53 0 97.5 26.5t71 71t26.5 97.5v113h-511v334q0 113 56 209t152 152t209 56h744v-334q0 -53 26 -98t71 -71.5t99 -26.5l39 -111l-39 -110q-114 0 -210 56.5
t-152 152t-56 208.5v113l-522 -1q-53 0 -98 -26t-71.5 -71t-26.5 -98v-112h512v-335q0 -114 -56 -209.5t-152 -151t-209 -55.5h-428q-113 0 -209.5 56zM1960 -205v-316l-189 -58v194h-274v180h463z" />
    <glyph glyph-name="uni062A0631.fina" horiz-adv-x="1126" 
d="M0 -274l178 119v489q0 111 55 206t149.5 152t205.5 59h343v-530h195l40 -111l-40 -110h-418v529h-112q-53 0 -98 -26t-71.5 -71t-26.5 -98v-608l-277 -185zM557 1219h464v-181h-464v181z" />
    <glyph glyph-name="uni062A0632.fina" horiz-adv-x="1126" 
d="M0 -274l178 119v489q0 111 55 206t149.5 152t205.5 59h343v-530h195l40 -111l-40 -110h-418v529h-112q-53 0 -98 -26t-71.5 -71t-26.5 -98v-608l-277 -185zM571 1253h464v-181h-464v181zM137 1095h206v-188h-206v188z" />
    <glyph glyph-name="uni062A0698.fina" horiz-adv-x="1126" 
d="M0 -274l178 119v489q0 111 55 206t149.5 152t205.5 59h343v-530h195l40 -111l-40 -110h-418v529h-112q-53 0 -98 -26t-71.5 -71t-26.5 -98v-608l-277 -185zM592 1286h464v-181h-464v181zM-19 1074h275v194l189 -58v-316h-464v180z" />
    <glyph glyph-name="uni062A0649.fina" horiz-adv-x="2026" 
d="M347.5 -473q-96.5 56 -153 151.5t-56.5 208.5v458l223 54v-512q0 -53 26.5 -97.5t71.5 -71t98 -26.5h428q53 0 97.5 26.5t71 71t26.5 97.5v113h-511v334q0 113 56 209t152 152t209 56h744v-334q0 -53 26 -98t71 -71.5t99 -26.5l39 -111l-39 -110q-114 0 -210 56.5
t-152 152t-56 208.5v113l-522 -1q-53 0 -98 -26t-71.5 -71t-26.5 -98v-112h512v-335q0 -114 -56 -209.5t-152 -151t-209 -55.5h-428q-113 0 -209.5 56zM1384 1195h464v-181h-464v181z" />
    <glyph glyph-name="uni062A064A.fina" horiz-adv-x="2026" 
d="M347.5 -473q-96.5 56 -153 151.5t-56.5 208.5v458l223 54v-512q0 -53 26.5 -97.5t71.5 -71t98 -26.5h428q53 0 97.5 26.5t71 71t26.5 97.5v113h-511v334q0 113 56 209t152 152t209 56h744v-334q0 -53 26 -98t71 -71.5t99 -26.5l39 -111l-39 -110q-114 0 -210 56.5
t-152 152t-56 208.5v113l-522 -1q-53 0 -98 -26t-71.5 -71t-26.5 -98v-112h512v-335q0 -114 -56 -209.5t-152 -151t-209 -55.5h-428q-113 0 -209.5 56zM1384 1195h464v-181h-464v181zM1002 -894h-464v181h464v-181z" />
    <glyph glyph-name="uni062A0626.fina" horiz-adv-x="2026" 
d="M347.5 -473q-96.5 56 -153 151.5t-56.5 208.5v458l223 54v-512q0 -53 26.5 -97.5t71.5 -71t98 -26.5h428q53 0 97.5 26.5t71 71t26.5 97.5v113h-511v334q0 113 56 209t152 152t209 56h744v-334q0 -53 26 -98t71 -71.5t99 -26.5l39 -111l-39 -110q-114 0 -210 56.5
t-152 152t-56 208.5v113l-522 -1q-53 0 -98 -26t-71.5 -71t-26.5 -98v-112h512v-335q0 -114 -56 -209.5t-152 -151t-209 -55.5h-428q-113 0 -209.5 56zM1384 1195h464v-181h-464v181zM144 654l110 28q-24 30 -31 63q-4 24 -4 33q0 37 17.5 67.5t44.5 49.5t55 25l86 18
l16 -85l-85 -17q-17 -3 -32 -19.5t-15 -40.5q0 -27 17 -44.5t41 -17.5q5 0 15 2l103 24v-92l-338 -84v90z" />
    <glyph glyph-name="uni062A06CC.fina" horiz-adv-x="2026" 
d="M347.5 -473q-96.5 56 -153 151.5t-56.5 208.5v458l223 54v-512q0 -53 26.5 -97.5t71.5 -71t98 -26.5h428q53 0 97.5 26.5t71 71t26.5 97.5v113h-511v334q0 113 56 209t152 152t209 56h744v-334q0 -53 26 -98t71 -71.5t99 -26.5l39 -111l-39 -110q-114 0 -210 56.5
t-152 152t-56 208.5v113l-522 -1q-53 0 -98 -26t-71.5 -71t-26.5 -98v-112h512v-335q0 -114 -56 -209.5t-152 -151t-209 -55.5h-428q-113 0 -209.5 56zM1384 1151h464v-181h-464v181z" />
    <glyph glyph-name="uni062B0631.fina" horiz-adv-x="1126" 
d="M0 -274l178 119v489q0 111 55 206t149.5 152t205.5 59h343v-530h195l40 -111l-40 -110h-418v529h-112q-53 0 -98 -26t-71.5 -71t-26.5 -98v-608l-277 -185zM540 1203h275v194l189 -58v-316h-464v180z" />
    <glyph glyph-name="uni062B0632.fina" horiz-adv-x="1126" 
d="M0 -274l178 119v489q0 111 55 206t149.5 152t205.5 59h343v-530h195l40 -111l-40 -110h-418v529h-112q-53 0 -98 -26t-71.5 -71t-26.5 -98v-608l-277 -185zM540 1203h275v194l189 -58v-316h-464v180zM116 1095h206v-188h-206v188z" />
    <glyph glyph-name="uni062B0698.fina" horiz-adv-x="1126" 
d="M0 -274l178 119v489q0 111 55 206t149.5 152t205.5 59h343v-530h195l40 -111l-40 -110h-418v529h-112q-53 0 -98 -26t-71.5 -71t-26.5 -98v-608l-277 -185zM579 1225h275v194l189 -58v-316h-464v180zM3 1074h275v194l189 -58v-316h-464v180z" />
    <glyph glyph-name="uni062B0649.fina" horiz-adv-x="2026" 
d="M347.5 -473q-96.5 56 -153 151.5t-56.5 208.5v458l223 54v-512q0 -53 26.5 -97.5t71.5 -71t98 -26.5h428q53 0 97.5 26.5t71 71t26.5 97.5v113h-511v334q0 113 56 209t152 152t209 56h744v-334q0 -53 26 -98t71 -71.5t99 -26.5l39 -111l-39 -110q-114 0 -210 56.5
t-152 152t-56 208.5v113l-522 -1q-53 0 -98 -26t-71.5 -71t-26.5 -98v-112h512v-335q0 -114 -56 -209.5t-152 -151t-209 -55.5h-428q-113 0 -209.5 56zM1383 1193h275v194l189 -58v-316h-464v180z" />
    <glyph glyph-name="uni062B064A.fina" horiz-adv-x="2026" 
d="M347.5 -473q-96.5 56 -153 151.5t-56.5 208.5v458l223 54v-512q0 -53 26.5 -97.5t71.5 -71t98 -26.5h428q53 0 97.5 26.5t71 71t26.5 97.5v113h-511v334q0 113 56 209t152 152t209 56h744v-334q0 -53 26 -98t71 -71.5t99 -26.5l39 -111l-39 -110q-114 0 -210 56.5
t-152 152t-56 208.5v113l-522 -1q-53 0 -98 -26t-71.5 -71t-26.5 -98v-112h512v-335q0 -114 -56 -209.5t-152 -151t-209 -55.5h-428q-113 0 -209.5 56zM1383 1193h275v194l189 -58v-316h-464v180zM1002 -894h-464v181h464v-181z" />
    <glyph glyph-name="uni062B0626.fina" horiz-adv-x="2026" 
d="M347.5 -473q-96.5 56 -153 151.5t-56.5 208.5v458l223 54v-512q0 -53 26.5 -97.5t71.5 -71t98 -26.5h428q53 0 97.5 26.5t71 71t26.5 97.5v113h-511v334q0 113 56 209t152 152t209 56h744v-334q0 -53 26 -98t71 -71.5t99 -26.5l39 -111l-39 -110q-114 0 -210 56.5
t-152 152t-56 208.5v113l-522 -1q-53 0 -98 -26t-71.5 -71t-26.5 -98v-112h512v-335q0 -114 -56 -209.5t-152 -151t-209 -55.5h-428q-113 0 -209.5 56zM1383 1193h275v194l189 -58v-316h-464v180zM144 654l110 28q-24 30 -31 63q-4 24 -4 33q0 37 17.5 67.5t44.5 49.5t55 25
l86 18l16 -85l-85 -17q-17 -3 -32 -19.5t-15 -40.5q0 -27 17 -44.5t41 -17.5q5 0 15 2l103 24v-92l-338 -84v90z" />
    <glyph glyph-name="uni062B06CC.fina" horiz-adv-x="2026" 
d="M347.5 -473q-96.5 56 -153 151.5t-56.5 208.5v458l223 54v-512q0 -53 26.5 -97.5t71.5 -71t98 -26.5h428q53 0 97.5 26.5t71 71t26.5 97.5v113h-511v334q0 113 56 209t152 152t209 56h744v-334q0 -53 26 -98t71 -71.5t99 -26.5l39 -111l-39 -110q-114 0 -210 56.5
t-152 152t-56 208.5v113l-522 -1q-53 0 -98 -26t-71.5 -71t-26.5 -98v-112h512v-335q0 -114 -56 -209.5t-152 -151t-209 -55.5h-428q-113 0 -209.5 56zM1383 1193h275v194l189 -58v-316h-464v180z" />
    <glyph glyph-name="uni06330631" horiz-adv-x="2103" 
d="M27 -274l178 119v489q0 111 55 206t149.5 152t205.5 59h343v-530h165l39 -111l-39 -110h-388v529h-112q-53 0 -98 -26t-71.5 -71t-26.5 -98v-608l-277 -185zM1104 112l19 109q43 0 79 21t57 57.5t21 78.5v334h222v-334q0 -42 21 -78t57 -57.5t78 -21.5q43 0 79.5 21
t57.5 57.5t21 78.5v369l221 55v-423q0 -103 -50.5 -190t-137.5 -138t-191 -51q-71 0 -143 34t-123 84q-51 -55 -120.5 -86.5t-148.5 -31.5z" />
    <glyph glyph-name="uni06330631.fina" horiz-adv-x="2191" 
d="M27 -274l178 119v489q0 111 55 206t149.5 152t205.5 59h343v-530h165l39 -111l-39 -110h-388v529h-112q-53 0 -98 -26t-71.5 -71t-26.5 -98v-608l-277 -185zM1104 112l19 109q43 0 79 21t57 57.5t21 78.5v334h222v-334q0 -42 21 -78t57 -57.5t78 -21.5q43 0 79.5 21
t57.5 57.5t21 78.5v334h221v-334q0 -42 21.5 -78t57.5 -57.5t78 -21.5l34 -105l-34 -116q-71 0 -143 34t-124 84q-50 -55 -120 -86.5t-149 -31.5q-83 0 -153 32.5t-113 85.5q-51 -55 -120.5 -86.5t-148.5 -31.5z" />
    <glyph glyph-name="uni06330632" horiz-adv-x="2103" 
d="M27 -274l178 119v489q0 111 55 206t149.5 152t205.5 59h343v-530h165l39 -111l-39 -110h-388v529h-112q-53 0 -98 -26t-71.5 -71t-26.5 -98v-608l-277 -185zM1104 112l19 109q43 0 79 21t57 57.5t21 78.5v334h222v-334q0 -42 21 -78t57 -57.5t78 -21.5q43 0 79.5 21
t57.5 57.5t21 78.5v369l221 55v-423q0 -103 -50.5 -190t-137.5 -138t-191 -51q-71 0 -143 34t-123 84q-51 -55 -120.5 -86.5t-148.5 -31.5zM138 1110h206v-188h-206v188z" />
    <glyph glyph-name="uni06330632.fina" horiz-adv-x="2191" 
d="M27 -274l178 119v489q0 111 55 206t149.5 152t205.5 59h343v-530h165l39 -111l-39 -110h-388v529h-112q-53 0 -98 -26t-71.5 -71t-26.5 -98v-608l-277 -185zM1104 112l19 109q43 0 79 21t57 57.5t21 78.5v334h222v-334q0 -42 21 -78t57 -57.5t78 -21.5q43 0 79.5 21
t57.5 57.5t21 78.5v334h221v-334q0 -42 21.5 -78t57.5 -57.5t78 -21.5l34 -105l-34 -116q-71 0 -143 34t-124 84q-50 -55 -120 -86.5t-149 -31.5q-83 0 -153 32.5t-113 85.5q-51 -55 -120.5 -86.5t-148.5 -31.5zM138 1110h206v-188h-206v188z" />
    <glyph glyph-name="uni06330698" horiz-adv-x="2103" 
d="M27 -274l178 119v489q0 111 55 206t149.5 152t205.5 59h343v-530h165l39 -111l-39 -110h-388v529h-112q-53 0 -98 -26t-71.5 -71t-26.5 -98v-608l-277 -185zM1104 112l19 109q43 0 79 21t57 57.5t21 78.5v334h222v-334q0 -42 21 -78t57 -57.5t78 -21.5q43 0 79.5 21
t57.5 57.5t21 78.5v369l221 55v-423q0 -103 -50.5 -190t-137.5 -138t-191 -51q-71 0 -143 34t-123 84q-51 -55 -120.5 -86.5t-148.5 -31.5zM19 1102h275v194l189 -58v-316h-464v180z" />
    <glyph glyph-name="uni06330698.fina" horiz-adv-x="2191" 
d="M27 -274l178 119v489q0 111 55 206t149.5 152t205.5 59h343v-530h165l39 -111l-39 -110h-388v529h-112q-53 0 -98 -26t-71.5 -71t-26.5 -98v-608l-277 -185zM1104 112l19 109q43 0 79 21t57 57.5t21 78.5v334h222v-334q0 -42 21 -78t57 -57.5t78 -21.5q43 0 79.5 21
t57.5 57.5t21 78.5v334h221v-334q0 -42 21.5 -78t57.5 -57.5t78 -21.5l34 -105l-34 -116q-71 0 -143 34t-124 84q-50 -55 -120 -86.5t-149 -31.5q-83 0 -153 32.5t-113 85.5q-51 -55 -120.5 -86.5t-148.5 -31.5zM19 1102h275v194l189 -58v-316h-464v180z" />
    <glyph glyph-name="uni063306CC" horiz-adv-x="2957" 
d="M347.5 -473q-96.5 56 -153 151.5t-56.5 208.5v458l223 54v-512q0 -53 26.5 -97.5t71.5 -71t98 -26.5h428q53 0 97.5 26.5t71 71t26.5 97.5v113h-511v334q0 114 56 209.5t152 151.5t209 56h726v-530h165l39 -111l-39 -110h-388l2 530l-505 -1q-53 0 -98 -26.5t-71.5 -71
t-26.5 -97.5v-112h512v-335q0 -114 -56 -209.5t-152 -151t-209 -55.5h-428q-113 0 -209.5 56zM1958 112l19 109q43 0 79.5 21t57.5 57.5t21 78.5v334h221v-334q0 -42 21 -78t57 -57.5t78 -21.5q43 0 79.5 21t57.5 57.5t21 78.5v369l221 55v-423q0 -103 -50.5 -190
t-137.5 -138t-191 -51q-71 0 -143 34t-123 84q-51 -55 -120.5 -86.5t-148.5 -31.5z" />
    <glyph glyph-name="uni063306CC.fina" horiz-adv-x="3045" 
d="M1958 112l19 109q43 0 79.5 21t57.5 57.5t21 78.5v354h221v-354q0 -42 21 -78t57 -57.5t78 -21.5q43 0 79.5 21t57.5 57.5t21 78.5v354h221v-354q0 -42 21.5 -78t57.5 -57.5t78 -21.5l34 -105l-34 -116q-71 0 -143 34t-124 84q-50 -55 -120 -86.5t-149 -31.5
q-83 0 -153 32.5t-113 85.5q-51 -55 -120.5 -86.5t-148.5 -31.5zM347.5 -473q-96.5 56 -153 151.5t-56.5 208.5v458l223 54v-512q0 -53 26.5 -97.5t71.5 -71t98 -26.5h428q53 0 97.5 26.5t71 71t26.5 97.5v113h-511v334q0 114 56 209.5t152 151.5t209 56h726v-530h165
l39 -111l-39 -110h-388l2 530l-505 -1q-53 0 -98 -26.5t-71.5 -71t-26.5 -97.5v-112h512v-335q0 -114 -56 -209.5t-152 -151t-209 -55.5h-428q-113 0 -209.5 56z" />
    <glyph glyph-name="uni06340631" horiz-adv-x="2103" 
d="M27 -274l178 119v489q0 111 55 206t149.5 152t205.5 59h343v-530h165l39 -111l-39 -110h-388v529h-112q-53 0 -98 -26t-71.5 -71t-26.5 -98v-608l-277 -185zM1104 112l19 109q43 0 79 21t57 57.5t21 78.5v334h222v-334q0 -42 21 -78t57 -57.5t78 -21.5q43 0 79.5 21
t57.5 57.5t21 78.5v369l221 55v-423q0 -103 -50.5 -190t-137.5 -138t-191 -51q-71 0 -143 34t-123 84q-51 -55 -120.5 -86.5t-148.5 -31.5zM1153 1180h275v194l189 -58v-316h-464v180z" />
    <glyph glyph-name="uni06340631.fina.001" horiz-adv-x="2191" 
d="M27 -274l178 119v489q0 111 55 206t149.5 152t205.5 59h343v-530h165l39 -111l-39 -110h-388v529h-112q-53 0 -98 -26t-71.5 -71t-26.5 -98v-608l-277 -185zM1104 112l19 109q43 0 79 21t57 57.5t21 78.5v334h222v-334q0 -42 21 -78t57 -57.5t78 -21.5q43 0 79.5 21
t57.5 57.5t21 78.5v334h221v-334q0 -42 21.5 -78t57.5 -57.5t78 -21.5l34 -105l-34 -116q-71 0 -143 34t-124 84q-50 -55 -120 -86.5t-149 -31.5q-83 0 -153 32.5t-113 85.5q-51 -55 -120.5 -86.5t-148.5 -31.5zM1151 1180h275v194l189 -58v-316h-464v180z" />
    <glyph glyph-name="uni063406CC" horiz-adv-x="2957" 
d="M347.5 -473q-96.5 56 -153 151.5t-56.5 208.5v458l223 54v-512q0 -53 26.5 -97.5t71.5 -71t98 -26.5h428q53 0 97.5 26.5t71 71t26.5 97.5v113h-511v334q0 114 56 209.5t152 151.5t209 56h726v-530h165l39 -111l-39 -110h-388l2 530l-505 -1q-53 0 -98 -26.5t-71.5 -71
t-26.5 -97.5v-112h512v-335q0 -114 -56 -209.5t-152 -151t-209 -55.5h-428q-113 0 -209.5 56zM1958 112l19 109q43 0 79.5 21t57.5 57.5t21 78.5v334h221v-334q0 -42 21 -78t57 -57.5t78 -21.5q43 0 79.5 21t57.5 57.5t21 78.5v369l221 55v-423q0 -103 -50.5 -190
t-137.5 -138t-191 -51q-71 0 -143 34t-123 84q-51 -55 -120.5 -86.5t-148.5 -31.5zM1993 1180h275v194l189 -58v-316h-464v180z" />
    <glyph glyph-name="uni063406CC.fina" horiz-adv-x="3045" 
d="M1958 112l19 109q43 0 79.5 21t57.5 57.5t21 78.5v354h221v-354q0 -42 21 -78t57 -57.5t78 -21.5q43 0 79.5 21t57.5 57.5t21 78.5v354h221v-354q0 -42 21.5 -78t57.5 -57.5t78 -21.5l34 -105l-34 -116q-71 0 -143 34t-124 84q-50 -55 -120 -86.5t-149 -31.5
q-83 0 -153 32.5t-113 85.5q-51 -55 -120.5 -86.5t-148.5 -31.5zM347.5 -473q-96.5 56 -153 151.5t-56.5 208.5v458l223 54v-512q0 -53 26.5 -97.5t71.5 -71t98 -26.5h428q53 0 97.5 26.5t71 71t26.5 97.5v113h-511v334q0 114 56 209.5t152 151.5t209 56h726v-530h165
l39 -111l-39 -110h-388l2 530l-505 -1q-53 0 -98 -26.5t-71.5 -71t-26.5 -97.5v-112h512v-335q0 -114 -56 -209.5t-152 -151t-209 -55.5h-428q-113 0 -209.5 56zM2008 1180h275v194l189 -58v-316h-464v180z" />
    <glyph glyph-name="uni06350631" horiz-adv-x="2122" 
d="M0 -276l180 121v489q0 113 56 208.5t151.5 151.5t209.5 56h334v-277l336 361h372q113 0 208.5 -56t152 -152t56.5 -209t-55.5 -209t-150.5 -152t-209 -56h-931v529h-113q-53 0 -98 -26.5t-71.5 -71t-26.5 -97.5v-608l-278 -187zM1737 247.5q45 26.5 71.5 71.5t26.5 98
t-26.5 98t-71.5 71.5t-98 26.5l-301 1l-368 -393h669q53 0 98 26.5z" />
    <glyph glyph-name="uni06350631.fina" horiz-adv-x="2150" 
d="M0 -276l180 121v489q0 113 56 208.5t151.5 151.5t209.5 56h334v-277l336 361h372q113 0 208.5 -56t152 -152t56.5 -209t-55.5 -209t-150.5 -152t-209 -56h-931v529h-113q-53 0 -98 -26.5t-71.5 -71t-26.5 -97.5v-608l-278 -187zM1737 247.5q45 26.5 71.5 71.5t26.5 98
t-26.5 98t-71.5 71.5t-98 26.5l-301 1l-368 -393h669q53 0 98 26.5zM1849 221h301l38 -109l-38 -112h-548z" />
    <glyph glyph-name="uni06350632" horiz-adv-x="2122" 
d="M0 -276l180 121v489q0 113 56 208.5t151.5 151.5t209.5 56h334v-277l336 361h372q113 0 208.5 -56t152 -152t56.5 -209t-55.5 -209t-150.5 -152t-209 -56h-931v529h-113q-53 0 -98 -26.5t-71.5 -71t-26.5 -97.5v-608l-278 -187zM1737 247.5q45 26.5 71.5 71.5t26.5 98
t-26.5 98t-71.5 71.5t-98 26.5l-301 1l-368 -393h669q53 0 98 26.5zM138 1110h206v-188h-206v188z" />
    <glyph glyph-name="uni06350632.fina" horiz-adv-x="2150" 
d="M0 -276l180 121v489q0 113 56 208.5t151.5 151.5t209.5 56h334v-277l336 361h372q113 0 208.5 -56t152 -152t56.5 -209t-55.5 -209t-150.5 -152t-209 -56h-931v529h-113q-53 0 -98 -26.5t-71.5 -71t-26.5 -97.5v-608l-278 -187zM1737 247.5q45 26.5 71.5 71.5t26.5 98
t-26.5 98t-71.5 71.5t-98 26.5l-301 1l-368 -393h669q53 0 98 26.5zM1849 221h301l38 -109l-38 -112h-548zM138 1110h206v-188h-206v188z" />
    <glyph glyph-name="uni06350698" horiz-adv-x="2122" 
d="M0 -276l180 121v489q0 113 56 208.5t151.5 151.5t209.5 56h334v-277l336 361h372q113 0 208.5 -56t152 -152t56.5 -209t-55.5 -209t-150.5 -152t-209 -56h-931v529h-113q-53 0 -98 -26.5t-71.5 -71t-26.5 -97.5v-608l-278 -187zM1737 247.5q45 26.5 71.5 71.5t26.5 98
t-26.5 98t-71.5 71.5t-98 26.5l-301 1l-368 -393h669q53 0 98 26.5zM18 1102h275v194l189 -58v-316h-464v180z" />
    <glyph glyph-name="uni06350698.fina" horiz-adv-x="2150" 
d="M0 -276l180 121v489q0 113 56 208.5t151.5 151.5t209.5 56h334v-277l336 361h372q113 0 208.5 -56t152 -152t56.5 -209t-55.5 -209t-150.5 -152t-209 -56h-931v529h-113q-53 0 -98 -26.5t-71.5 -71t-26.5 -97.5v-608l-278 -187zM1737 247.5q45 26.5 71.5 71.5t26.5 98
t-26.5 98t-71.5 71.5t-98 26.5l-301 1l-368 -393h669q53 0 98 26.5zM1849 221h301l38 -109l-38 -112h-548zM17 1102h275v194l189 -58v-316h-464v180z" />
    <glyph glyph-name="uni063506CC" horiz-adv-x="3033" 
d="M345 -473q-95 56 -151 151.5t-56 208.5v456l220 54v-510q0 -53 26.5 -98.5t71 -72t96.5 -26.5h428q53 0 98.5 26.5t72 72t26.5 98.5v113h-511v331q0 113 56.5 208.5t152 151.5t208.5 56h762l-220 -218l-542 -2q-54 0 -99.5 -26t-72 -71t-26.5 -99v-111h512v-333
q0 -113 -56 -208.5t-152 -151.5t-209 -56h-428q-112 0 -207 56zM1625 529l220 218v-275l336 360h370q113 0 208.5 -56t151.5 -151.5t56 -208.5t-55.5 -208.5t-150.5 -151.5t-208 -56h-928v529zM2650 246q45 26 71.5 71t26.5 99q0 53 -26.5 98t-71.5 71.5t-99 26.5h-299
l-369 -392h668q54 0 99 26z" />
    <glyph glyph-name="uni063506CC.fina" horiz-adv-x="3081" 
d="M345 -473q-95 56 -151 151.5t-56 208.5v456l220 54v-510q0 -53 26.5 -98.5t71 -72t96.5 -26.5h428q53 0 98.5 26.5t72 72t26.5 98.5v113h-511v331q0 113 56.5 208.5t152 151.5t208.5 56h762l-220 -218l-542 -2q-54 0 -99.5 -26t-72 -71t-26.5 -99v-111h512v-333
q0 -113 -56 -208.5t-152 -151.5t-209 -56h-428q-112 0 -207 56zM1625 529l220 218v-275l336 360h370q113 0 208.5 -56t151.5 -151.5t56 -208.5t-55.5 -208.5t-150.5 -151.5t-208 -56h-928v529zM2650 246q45 26 71.5 71t26.5 99q0 53 -26.5 98t-71.5 71.5t-99 26.5h-299
l-369 -392h668q54 0 99 26zM2785 221h300l39 -109l-39 -112h-547z" />
    <glyph glyph-name="uni06360631" horiz-adv-x="2122" 
d="M0 -276l180 121v489q0 113 56 208.5t151.5 151.5t209.5 56h334v-277l336 361h372q113 0 208.5 -56t152 -152t56.5 -209t-55.5 -209t-150.5 -152t-209 -56h-931v529h-113q-53 0 -98 -26.5t-71.5 -71t-26.5 -97.5v-608l-278 -187zM1737 247.5q45 26.5 71.5 71.5t26.5 98
t-26.5 98t-71.5 71.5t-98 26.5l-301 1l-368 -393h669q53 0 98 26.5zM1318 1239h206v-188h-206v188z" />
    <glyph glyph-name="uni06360631.fina" horiz-adv-x="2150" 
d="M0 -276l180 121v489q0 113 56 208.5t151.5 151.5t209.5 56h334v-277l336 361h372q113 0 208.5 -56t152 -152t56.5 -209t-55.5 -209t-150.5 -152t-209 -56h-931v529h-113q-53 0 -98 -26.5t-71.5 -71t-26.5 -97.5v-608l-278 -187zM1737 247.5q45 26.5 71.5 71.5t26.5 98
t-26.5 98t-71.5 71.5t-98 26.5l-301 1l-368 -393h669q53 0 98 26.5zM1849 221h301l38 -109l-38 -112h-548zM1318 1239h206v-188h-206v188z" />
    <glyph glyph-name="uni06360632" horiz-adv-x="2122" 
d="M0 -276l180 121v489q0 113 56 208.5t151.5 151.5t209.5 56h334v-277l336 361h372q113 0 208.5 -56t152 -152t56.5 -209t-55.5 -209t-150.5 -152t-209 -56h-931v529h-113q-53 0 -98 -26.5t-71.5 -71t-26.5 -97.5v-608l-278 -187zM1737 247.5q45 26.5 71.5 71.5t26.5 98
t-26.5 98t-71.5 71.5t-98 26.5l-301 1l-368 -393h669q53 0 98 26.5zM1318 1239h206v-188h-206v188zM138 1110h206v-188h-206v188z" />
    <glyph glyph-name="uni06360632.fina" horiz-adv-x="2150" 
d="M0 -276l180 121v489q0 113 56 208.5t151.5 151.5t209.5 56h334v-277l336 361h372q113 0 208.5 -56t152 -152t56.5 -209t-55.5 -209t-150.5 -152t-209 -56h-931v529h-113q-53 0 -98 -26.5t-71.5 -71t-26.5 -97.5v-608l-278 -187zM1737 247.5q45 26.5 71.5 71.5t26.5 98
t-26.5 98t-71.5 71.5t-98 26.5l-301 1l-368 -393h669q53 0 98 26.5zM1849 221h301l38 -109l-38 -112h-548zM1318 1239h206v-188h-206v188zM138 1110h206v-188h-206v188z" />
    <glyph glyph-name="uni06360698" horiz-adv-x="2122" 
d="M0 -276l180 121v489q0 113 56 208.5t151.5 151.5t209.5 56h334v-277l336 361h372q113 0 208.5 -56t152 -152t56.5 -209t-55.5 -209t-150.5 -152t-209 -56h-931v529h-113q-53 0 -98 -26.5t-71.5 -71t-26.5 -97.5v-608l-278 -187zM1737 247.5q45 26.5 71.5 71.5t26.5 98
t-26.5 98t-71.5 71.5t-98 26.5l-301 1l-368 -393h669q53 0 98 26.5zM1318 1239h206v-188h-206v188zM18 1102h275v194l189 -58v-316h-464v180z" />
    <glyph glyph-name="uni06360698.fina" horiz-adv-x="2150" 
d="M0 -276l180 121v489q0 113 56 208.5t151.5 151.5t209.5 56h334v-277l336 361h372q113 0 208.5 -56t152 -152t56.5 -209t-55.5 -209t-150.5 -152t-209 -56h-931v529h-113q-53 0 -98 -26.5t-71.5 -71t-26.5 -97.5v-608l-278 -187zM1737 247.5q45 26.5 71.5 71.5t26.5 98
t-26.5 98t-71.5 71.5t-98 26.5l-301 1l-368 -393h669q53 0 98 26.5zM1849 221h301l38 -109l-38 -112h-548zM1318 1239h206v-188h-206v188zM18 1102h275v194l189 -58v-316h-464v180z" />
    <glyph glyph-name="uni063606CC" horiz-adv-x="3033" 
d="M345 -473q-95 56 -151 151.5t-56 208.5v456l220 54v-510q0 -53 26.5 -98.5t71 -72t96.5 -26.5h428q53 0 98.5 26.5t72 72t26.5 98.5v113h-511v331q0 113 56.5 208.5t152 151.5t208.5 56h762l-220 -218l-542 -2q-54 0 -99.5 -26t-72 -71t-26.5 -99v-111h512v-333
q0 -113 -56 -208.5t-152 -151.5t-209 -56h-428q-112 0 -207 56zM1625 529l220 218v-275l336 360h370q113 0 208.5 -56t151.5 -151.5t56 -208.5t-55.5 -208.5t-150.5 -151.5t-208 -56h-928v529zM2650 246q45 26 71.5 71t26.5 99q0 53 -26.5 98t-71.5 71.5t-99 26.5h-299
l-369 -392h668q54 0 99 26zM2294 1239h206v-188h-206v188z" />
    <glyph glyph-name="uni063606CC.fina" horiz-adv-x="3081" 
d="M345 -473q-95 56 -151 151.5t-56 208.5v456l220 54v-510q0 -53 26.5 -98.5t71 -72t96.5 -26.5h428q53 0 98.5 26.5t72 72t26.5 98.5v113h-511v331q0 113 56.5 208.5t152 151.5t208.5 56h762l-220 -218l-542 -2q-54 0 -99.5 -26t-72 -71t-26.5 -99v-111h512v-333
q0 -113 -56 -208.5t-152 -151.5t-209 -56h-428q-112 0 -207 56zM1625 529l220 218v-275l336 360h370q113 0 208.5 -56t151.5 -151.5t56 -208.5t-55.5 -208.5t-150.5 -151.5t-208 -56h-928v529zM2650 246q45 26 71.5 71t26.5 99q0 53 -26.5 98t-71.5 71.5t-99 26.5h-299
l-369 -392h668q54 0 99 26zM2785 221h300l39 -109l-39 -112h-547zM2294 1239h206v-188h-206v188z" />
    <glyph glyph-name="uni064406440647" horiz-adv-x="2107" 
d="M334 62.5q-95 61.5 -145.5 158t-50.5 197.5q0 123 60.5 217.5t157 146.5t199.5 52h417v-456q0 -40 19 -76t54.5 -58.5t82.5 -22.5q46 0 82 22.5t55.5 59t19.5 75.5v455l221 1v-456q0 -39 20 -75.5t56 -59t82 -22.5q48 0 83.5 23.5t54 59.5t18.5 74v798l222 56v-853
q0 -108 -52.5 -194.5t-139.5 -135.5t-186 -49q-79 0 -157.5 41t-127.5 96l37 4q-46 -60 -121 -100.5t-167 -40.5q-83 0 -157.5 38t-118.5 94q-55 -60 -129 -95.5t-168 -35.5q-126 0 -221 61.5zM654 247.5q45 26.5 70.5 71.5t25.5 99v195h-195q-49 0 -94.5 -24.5t-73.5 -69
t-28 -101.5q0 -51 25.5 -96.5t70 -73t100.5 -27.5q54 0 99 26.5zM1211.5 1003q-31.5 20 -48.5 51.5t-17 65.5v87h70v-87q0 -26 18.5 -47t48.5 -21q28 0 47.5 20.5t19.5 47.5v87h70v-87q0 -26 19 -47t49 -21q29 0 47.5 20.5t18.5 47.5v87h71v-87q0 -37 -18.5 -68.5t-50 -50
t-68.5 -18.5q-33 0 -61 16t-42 34q-14 -20 -41 -35t-61 -15q-40 0 -71.5 20z" />
    <glyph glyph-name="uni06460631.fina" horiz-adv-x="1126" 
d="M0 -274l178 119v489q0 111 55 206t149.5 152t205.5 59h343v-530h195l40 -111l-40 -110h-418v529h-112q-53 0 -98 -26t-71.5 -71t-26.5 -98v-608l-277 -185zM729 1227h206v-188h-206v188z" />
    <glyph glyph-name="uni06460632.fina" horiz-adv-x="1126" 
d="M0 -274l178 119v489q0 111 55 206t149.5 152t205.5 59h343v-530h195l40 -111l-40 -110h-418v529h-112q-53 0 -98 -26t-71.5 -71t-26.5 -98v-608l-277 -185zM736 1238h206v-188h-206v188zM151 1095h206v-188h-206v188z" />
    <glyph glyph-name="uni06460698.fina" horiz-adv-x="1126" 
d="M0 -274l178 119v489q0 111 55 206t149.5 152t205.5 59h343v-530h195l40 -111l-40 -110h-418v529h-112q-53 0 -98 -26t-71.5 -71t-26.5 -98v-608l-277 -185zM736 1260h206v-188h-206v188zM22 1085h275v194l189 -58v-316h-464v180z" />
    <glyph glyph-name="uni06460649.fina" horiz-adv-x="2026" 
d="M347.5 -473q-96.5 56 -153 151.5t-56.5 208.5v458l223 54v-512q0 -53 26.5 -97.5t71.5 -71t98 -26.5h428q53 0 97.5 26.5t71 71t26.5 97.5v113h-511v334q0 113 56 209t152 152t209 56h744v-334q0 -53 26 -98t71 -71.5t99 -26.5l39 -111l-39 -110q-114 0 -210 56.5
t-152 152t-56 208.5v113l-522 -1q-53 0 -98 -26t-71.5 -71t-26.5 -98v-112h512v-335q0 -114 -56 -209.5t-152 -151t-209 -55.5h-428q-113 0 -209.5 56zM1566 1202h206v-188h-206v188z" />
    <glyph glyph-name="uni0646064A.fina" horiz-adv-x="2026" 
d="M347.5 -473q-96.5 56 -153 151.5t-56.5 208.5v458l223 54v-512q0 -53 26.5 -97.5t71.5 -71t98 -26.5h428q53 0 97.5 26.5t71 71t26.5 97.5v113h-511v334q0 113 56 209t152 152t209 56h744v-334q0 -53 26 -98t71 -71.5t99 -26.5l39 -111l-39 -110q-114 0 -210 56.5
t-152 152t-56 208.5v113l-522 -1q-53 0 -98 -26t-71.5 -71t-26.5 -98v-112h512v-335q0 -114 -56 -209.5t-152 -151t-209 -55.5h-428q-113 0 -209.5 56zM1566 1202h206v-188h-206v188zM1002 -894h-464v181h464v-181z" />
    <glyph glyph-name="uni06460626.fina" horiz-adv-x="2026" 
d="M347.5 -473q-96.5 56 -153 151.5t-56.5 208.5v458l223 54v-512q0 -53 26.5 -97.5t71.5 -71t98 -26.5h428q53 0 97.5 26.5t71 71t26.5 97.5v113h-511v334q0 113 56 209t152 152t209 56h744v-334q0 -53 26 -98t71 -71.5t99 -26.5l39 -111l-39 -110q-114 0 -210 56.5
t-152 152t-56 208.5v113l-522 -1q-53 0 -98 -26t-71.5 -71t-26.5 -98v-112h512v-335q0 -114 -56 -209.5t-152 -151t-209 -55.5h-428q-113 0 -209.5 56zM1566 1202h206v-188h-206v188zM144 654l110 28q-24 30 -31 63q-4 24 -4 33q0 37 17.5 67.5t44.5 49.5t55 25l86 18
l16 -85l-85 -17q-17 -3 -32 -19.5t-15 -40.5q0 -27 17 -44.5t41 -17.5q5 0 15 2l103 24v-92l-338 -84v90z" />
    <glyph glyph-name="uni064606CC.fina" horiz-adv-x="2026" 
d="M347.5 -473q-96.5 56 -153 151.5t-56.5 208.5v458l223 54v-512q0 -53 26.5 -97.5t71.5 -71t98 -26.5h428q53 0 97.5 26.5t71 71t26.5 97.5v113h-511v334q0 113 56 209t152 152t209 56h744v-334q0 -53 26 -98t71 -71.5t99 -26.5l39 -111l-39 -110q-114 0 -210 56.5
t-152 152t-56 208.5v113l-522 -1q-53 0 -98 -26t-71.5 -71t-26.5 -98v-112h512v-335q0 -114 -56 -209.5t-152 -151t-209 -55.5h-428q-113 0 -209.5 56zM1566 1202h206v-188h-206v188z" />
    <glyph glyph-name="uni064A0631.fina" horiz-adv-x="1126" 
d="M0 -274l178 119v489q0 111 55 206t149.5 152t205.5 59h343v-530h195l40 -111l-40 -110h-418v529h-112q-53 0 -98 -26t-71.5 -71t-26.5 -98v-608l-277 -185zM994 -378h-464v181h464v-181z" />
    <glyph glyph-name="uni064A0632.fina" horiz-adv-x="1126" 
d="M0 -274l178 119v489q0 111 55 206t149.5 152t205.5 59h343v-530h195l40 -111l-40 -110h-418v529h-112q-53 0 -98 -26t-71.5 -71t-26.5 -98v-608l-277 -185zM137 1095h206v-188h-206v188zM994 -378h-464v181h464v-181z" />
    <glyph glyph-name="uni064A0649.fina" horiz-adv-x="2026" 
d="M347.5 -473q-96.5 56 -153 151.5t-56.5 208.5v458l223 54v-512q0 -53 26.5 -97.5t71.5 -71t98 -26.5h428q53 0 97.5 26.5t71 71t26.5 97.5v113h-511v334q0 113 56 209t152 152t209 56h744v-334q0 -53 26 -98t71 -71.5t99 -26.5l39 -111l-39 -110q-114 0 -210 56.5
t-152 152t-56 208.5v113l-522 -1q-53 0 -98 -26t-71.5 -71t-26.5 -98v-112h512v-335q0 -114 -56 -209.5t-152 -151t-209 -55.5h-428q-113 0 -209.5 56zM1959 -385h-464v181h464v-181z" />
    <glyph glyph-name="uni064A064A.fina" horiz-adv-x="2026" 
d="M347.5 -473q-96.5 56 -153 151.5t-56.5 208.5v458l223 54v-512q0 -53 26.5 -97.5t71.5 -71t98 -26.5h428q53 0 97.5 26.5t71 71t26.5 97.5v113h-511v334q0 113 56 209t152 152t209 56h744v-334q0 -53 26 -98t71 -71.5t99 -26.5l39 -111l-39 -110q-114 0 -210 56.5
t-152 152t-56 208.5v113l-522 -1q-53 0 -98 -26t-71.5 -71t-26.5 -98v-112h512v-335q0 -114 -56 -209.5t-152 -151t-209 -55.5h-428q-113 0 -209.5 56zM1959 -385h-464v181h464v-181zM1002 -894h-464v181h464v-181z" />
    <glyph glyph-name="uni064A0698.fina" horiz-adv-x="1126" 
d="M0 -274l178 119v489q0 111 55 206t149.5 152t205.5 59h343v-530h195l40 -111l-40 -110h-418v529h-112q-53 0 -98 -26t-71.5 -71t-26.5 -98v-608l-277 -185zM1001 -378h-464v181h464v-181zM15 1085h275v194l189 -58v-316h-464v180z" />
    <glyph glyph-name="uni064A0626.fina" horiz-adv-x="2026" 
d="M347.5 -473q-96.5 56 -153 151.5t-56.5 208.5v458l223 54v-512q0 -53 26.5 -97.5t71.5 -71t98 -26.5h428q53 0 97.5 26.5t71 71t26.5 97.5v113h-511v334q0 113 56 209t152 152t209 56h744v-334q0 -53 26 -98t71 -71.5t99 -26.5l39 -111l-39 -110q-114 0 -210 56.5
t-152 152t-56 208.5v113l-522 -1q-53 0 -98 -26t-71.5 -71t-26.5 -98v-112h512v-335q0 -114 -56 -209.5t-152 -151t-209 -55.5h-428q-113 0 -209.5 56zM1938 -385h-464v181h464v-181zM144 654l110 28q-24 30 -31 63q-4 24 -4 33q0 37 17.5 67.5t44.5 49.5t55 25l86 18
l16 -85l-85 -17q-17 -3 -32 -19.5t-15 -40.5q0 -27 17 -44.5t41 -17.5q5 0 15 2l103 24v-92l-338 -84v90z" />
    <glyph glyph-name="uni064A06CC.fina" horiz-adv-x="2026" 
d="M347.5 -473q-96.5 56 -153 151.5t-56.5 208.5v458l223 54v-512q0 -53 26.5 -97.5t71.5 -71t98 -26.5h428q53 0 97.5 26.5t71 71t26.5 97.5v113h-511v334q0 113 56 209t152 152t209 56h744v-334q0 -53 26 -98t71 -71.5t99 -26.5l39 -111l-39 -110q-114 0 -210 56.5
t-152 152t-56 208.5v113l-522 -1q-53 0 -98 -26t-71.5 -71t-26.5 -98v-112h512v-335q0 -114 -56 -209.5t-152 -151t-209 -55.5h-428q-113 0 -209.5 56zM1959 -385h-464v181h464v-181z" />
    <glyph glyph-name="uni06260631.fina" horiz-adv-x="1126" 
d="M0 -274l178 119v489q0 111 55 206t149.5 152t205.5 59h343v-530h195l40 -111l-40 -110h-418v529h-112q-53 0 -98 -26t-71.5 -71t-26.5 -98v-608l-277 -185zM675 1137l110 28q-24 30 -31 63q-4 24 -4 33q0 37 17.5 67.5t44.5 49.5t55 25l86 18l16 -85l-85 -17
q-17 -3 -32 -19.5t-15 -40.5q0 -27 17 -44.5t41 -17.5q5 0 15 2l103 24v-92l-338 -84v90z" />
    <glyph glyph-name="uni06260632.fina" horiz-adv-x="1126" 
d="M0 -274l178 119v489q0 111 55 206t149.5 152t205.5 59h343v-530h195l40 -111l-40 -110h-418v529h-112q-53 0 -98 -26t-71.5 -71t-26.5 -98v-608l-277 -185zM675 1137l110 28q-24 30 -31 63q-4 24 -4 33q0 37 17.5 67.5t44.5 49.5t55 25l86 18l16 -85l-85 -17
q-17 -3 -32 -19.5t-15 -40.5q0 -27 17 -44.5t41 -17.5q5 0 15 2l103 24v-92l-338 -84v90zM144 1095h206v-188h-206v188z" />
    <glyph glyph-name="uni06260698.fina" horiz-adv-x="1126" 
d="M0 -274l178 119v489q0 111 55 206t149.5 152t205.5 59h343v-530h195l40 -111l-40 -110h-418v529h-112q-53 0 -98 -26t-71.5 -71t-26.5 -98v-608l-277 -185zM682 1170l110 28q-24 30 -31 63q-4 24 -4 33q0 37 17.5 67.5t44.5 49.5t55 25l86 18l16 -85l-85 -17
q-17 -3 -32 -19.5t-15 -40.5q0 -27 17 -44.5t41 -17.5q5 0 15 2l103 24v-92l-338 -84v90zM22 1085h275v194l189 -58v-316h-464v180z" />
    <glyph glyph-name="uni06260649.fina" horiz-adv-x="2026" 
d="M347.5 -473q-96.5 56 -153 151.5t-56.5 208.5v458l223 54v-512q0 -53 26.5 -97.5t71.5 -71t98 -26.5h428q53 0 97.5 26.5t71 71t26.5 97.5v113h-511v334q0 113 56 209t152 152t209 56h744v-334q0 -53 26 -98t71 -71.5t99 -26.5l39 -111l-39 -110q-114 0 -210 56.5
t-152 152t-56 208.5v113l-522 -1q-53 0 -98 -26t-71.5 -71t-26.5 -98v-112h512v-335q0 -114 -56 -209.5t-152 -151t-209 -55.5h-428q-113 0 -209.5 56zM1467 1068l110 28q-24 30 -31 63q-4 24 -4 33q0 37 17.5 67.5t44.5 49.5t55 25l86 18l16 -85l-85 -17q-17 -3 -32 -19.5
t-15 -40.5q0 -27 17 -44.5t41 -17.5q5 0 15 2l103 24v-92l-338 -84v90z" />
    <glyph glyph-name="uni0626064A.fina" horiz-adv-x="2026" 
d="M347.5 -473q-96.5 56 -153 151.5t-56.5 208.5v458l223 54v-512q0 -53 26.5 -97.5t71.5 -71t98 -26.5h428q53 0 97.5 26.5t71 71t26.5 97.5v113h-511v334q0 113 56 209t152 152t209 56h744v-334q0 -53 26 -98t71 -71.5t99 -26.5l39 -111l-39 -110q-114 0 -210 56.5
t-152 152t-56 208.5v113l-522 -1q-53 0 -98 -26t-71.5 -71t-26.5 -98v-112h512v-335q0 -114 -56 -209.5t-152 -151t-209 -55.5h-428q-113 0 -209.5 56zM1467 1068l110 28q-24 30 -31 63q-4 24 -4 33q0 37 17.5 67.5t44.5 49.5t55 25l86 18l16 -85l-85 -17q-17 -3 -32 -19.5
t-15 -40.5q0 -27 17 -44.5t41 -17.5q5 0 15 2l103 24v-92l-338 -84v90zM1002 -894h-464v181h464v-181z" />
    <glyph glyph-name="uni06260626.fina" horiz-adv-x="2026" 
d="M347.5 -473q-96.5 56 -153 151.5t-56.5 208.5v458l223 54v-512q0 -53 26.5 -97.5t71.5 -71t98 -26.5h428q53 0 97.5 26.5t71 71t26.5 97.5v113h-511v334q0 113 56 209t152 152t209 56h744v-334q0 -53 26 -98t71 -71.5t99 -26.5l39 -111l-39 -110q-114 0 -210 56.5
t-152 152t-56 208.5v113l-522 -1q-53 0 -98 -26t-71.5 -71t-26.5 -98v-112h512v-335q0 -114 -56 -209.5t-152 -151t-209 -55.5h-428q-113 0 -209.5 56zM1467 1068l110 28q-24 30 -31 63q-4 24 -4 33q0 37 17.5 67.5t44.5 49.5t55 25l86 18l16 -85l-85 -17q-17 -3 -32 -19.5
t-15 -40.5q0 -27 17 -44.5t41 -17.5q5 0 15 2l103 24v-92l-338 -84v90zM141 679l110 28q-24 30 -31 63q-4 24 -4 33q0 37 17.5 67.5t44.5 49.5t55 25l86 18l16 -85l-85 -17q-17 -3 -32 -19.5t-15 -40.5q0 -27 17 -44.5t41 -17.5q5 0 15 2l103 24v-92l-338 -84v90z" />
    <glyph glyph-name="uni062606CC.fina" horiz-adv-x="2026" 
d="M347.5 -473q-96.5 56 -153 151.5t-56.5 208.5v458l223 54v-512q0 -53 26.5 -97.5t71.5 -71t98 -26.5h428q53 0 97.5 26.5t71 71t26.5 97.5v113h-511v334q0 113 56 209t152 152t209 56h744v-334q0 -53 26 -98t71 -71.5t99 -26.5l39 -111l-39 -110q-114 0 -210 56.5
t-152 152t-56 208.5v113l-522 -1q-53 0 -98 -26t-71.5 -71t-26.5 -98v-112h512v-335q0 -114 -56 -209.5t-152 -151t-209 -55.5h-428q-113 0 -209.5 56zM1467 1068l110 28q-24 30 -31 63q-4 24 -4 33q0 37 17.5 67.5t44.5 49.5t55 25l86 18l16 -85l-85 -17q-17 -3 -32 -19.5
t-15 -40.5q0 -27 17 -44.5t41 -17.5q5 0 15 2l103 24v-92l-338 -84v90z" />
    <glyph glyph-name="uni06CC0631.fina" horiz-adv-x="1126" 
d="M0 -274l178 119v489q0 111 55 206t149.5 152t205.5 59h343v-530h195l40 -111l-40 -110h-418v529h-112q-53 0 -98 -26t-71.5 -71t-26.5 -98v-608l-277 -185zM994 -378h-464v181h464v-181z" />
    <glyph glyph-name="uni06CC0632.fina" horiz-adv-x="1126" 
d="M0 -274l178 119v489q0 111 55 206t149.5 152t205.5 59h343v-530h195l40 -111l-40 -110h-418v529h-112q-53 0 -98 -26t-71.5 -71t-26.5 -98v-608l-277 -185zM137 1095h206v-188h-206v188zM994 -378h-464v181h464v-181z" />
    <glyph glyph-name="uni06CC0698.fina" horiz-adv-x="1126" 
d="M0 -274l178 119v489q0 111 55 206t149.5 152t205.5 59h343v-530h195l40 -111l-40 -110h-418v529h-112q-53 0 -98 -26t-71.5 -71t-26.5 -98v-608l-277 -185zM1001 -378h-464v181h464v-181zM15 1085h275v194l189 -58v-316h-464v180z" />
    <glyph glyph-name="uni06CC0649.fina" horiz-adv-x="2026" 
d="M347.5 -473q-96.5 56 -153 151.5t-56.5 208.5v458l223 54v-512q0 -53 26.5 -97.5t71.5 -71t98 -26.5h428q53 0 97.5 26.5t71 71t26.5 97.5v113h-511v334q0 113 56 209t152 152t209 56h744v-334q0 -53 26 -98t71 -71.5t99 -26.5l39 -111l-39 -110q-114 0 -210 56.5
t-152 152t-56 208.5v113l-522 -1q-53 0 -98 -26t-71.5 -71t-26.5 -98v-112h512v-335q0 -114 -56 -209.5t-152 -151t-209 -55.5h-428q-113 0 -209.5 56zM1959 -385h-464v181h464v-181z" />
    <glyph glyph-name="uni06CC064A.fina" horiz-adv-x="2026" 
d="M347.5 -473q-96.5 56 -153 151.5t-56.5 208.5v458l223 54v-512q0 -53 26.5 -97.5t71.5 -71t98 -26.5h428q53 0 97.5 26.5t71 71t26.5 97.5v113h-511v334q0 113 56 209t152 152t209 56h744v-334q0 -53 26 -98t71 -71.5t99 -26.5l39 -111l-39 -110q-114 0 -210 56.5
t-152 152t-56 208.5v113l-522 -1q-53 0 -98 -26t-71.5 -71t-26.5 -98v-112h512v-335q0 -114 -56 -209.5t-152 -151t-209 -55.5h-428q-113 0 -209.5 56zM1959 -385h-464v181h464v-181zM1002 -894h-464v181h464v-181z" />
    <glyph glyph-name="uni06CC0626.fina" horiz-adv-x="2026" 
d="M347.5 -473q-96.5 56 -153 151.5t-56.5 208.5v458l223 54v-512q0 -53 26.5 -97.5t71.5 -71t98 -26.5h428q53 0 97.5 26.5t71 71t26.5 97.5v113h-511v334q0 113 56 209t152 152t209 56h744v-334q0 -53 26 -98t71 -71.5t99 -26.5l39 -111l-39 -110q-114 0 -210 56.5
t-152 152t-56 208.5v113l-522 -1q-53 0 -98 -26t-71.5 -71t-26.5 -98v-112h512v-335q0 -114 -56 -209.5t-152 -151t-209 -55.5h-428q-113 0 -209.5 56zM1938 -385h-464v181h464v-181zM144 654l110 28q-24 30 -31 63q-4 24 -4 33q0 37 17.5 67.5t44.5 49.5t55 25l86 18
l16 -85l-85 -17q-17 -3 -32 -19.5t-15 -40.5q0 -27 17 -44.5t41 -17.5q5 0 15 2l103 24v-92l-338 -84v90z" />
    <glyph glyph-name="uni06CC06CC.fina" horiz-adv-x="2026" 
d="M347.5 -473q-96.5 56 -153 151.5t-56.5 208.5v458l223 54v-512q0 -53 26.5 -97.5t71.5 -71t98 -26.5h428q53 0 97.5 26.5t71 71t26.5 97.5v113h-511v334q0 113 56 209t152 152t209 56h744v-334q0 -53 26 -98t71 -71.5t99 -26.5l39 -111l-39 -110q-114 0 -210 56.5
t-152 152t-56 208.5v113l-522 -1q-53 0 -98 -26t-71.5 -71t-26.5 -98v-112h512v-335q0 -114 -56 -209.5t-152 -151t-209 -55.5h-428q-113 0 -209.5 56zM1959 -385h-464v181h464v-181z" />
    <glyph glyph-name="uniFDF2" horiz-adv-x="2551" 
d="M2245 1275l223 56v-1331h-223v1275zM334 62.5q-95 61.5 -145.5 158t-50.5 197.5q0 123 60.5 217.5t157 146.5t199.5 52h417v-456q0 -40 19 -76t54.5 -58.5t82.5 -22.5q46 0 82 22.5t55.5 59t19.5 75.5v455l221 1v-456q0 -39 20 -75.5t56 -59t82 -22.5q48 0 83.5 23.5
t54 59.5t18.5 74v798l222 56v-853q0 -108 -52.5 -194.5t-139.5 -135.5t-186 -49q-79 0 -157.5 41t-127.5 96l37 4q-46 -60 -121 -100.5t-167 -40.5q-83 0 -157.5 38t-118.5 94q-55 -60 -129 -95.5t-168 -35.5q-126 0 -221 61.5zM654 247.5q45 26.5 70.5 71.5t25.5 99v195
h-195q-49 0 -94.5 -24.5t-73.5 -69t-28 -101.5q0 -51 25.5 -96.5t70 -73t100.5 -27.5q54 0 99 26.5zM1211.5 1003q-31.5 20 -48.5 51.5t-17 65.5v87h70v-87q0 -26 18.5 -47t48.5 -21q28 0 47.5 20.5t19.5 47.5v87h70v-87q0 -26 19 -47t49 -21q29 0 47.5 20.5t18.5 47.5v87
h71v-87q0 -37 -18.5 -68.5t-50 -50t-68.5 -18.5q-33 0 -61 16t-42 34q-14 -20 -41 -35t-61 -15q-40 0 -71.5 20z" />
    <glyph glyph-name="uni0664.ss02" horiz-adv-x="1522" 
d="M151 1272l221 54v-1326h-221v1272zM401.5 564q-77.5 46 -121 136t-47.5 218l139 17q0 -54 24 -98.5t66 -70.5t95 -26h55q-1 3 -21 32t-36.5 71t-16.5 92q0 114 56.5 210t153 152.5t210.5 56.5h316l3 -223h-319q-54 0 -99 -26t-71.5 -71t-26.5 -99q0 -53 26.5 -98
t71.5 -71t99 -26h315v-222h-690q-104 0 -181.5 46z" />
    <glyph glyph-name="uni0665.ss02" horiz-adv-x="1522" 
d="M214.5 51.5q-93.5 51.5 -149.5 146.5t-56 219v317q0 112 56.5 209.5t152.5 155t209 57.5h21l181 271l703 -545v-499q0 -107 -54 -197t-145.5 -140.5t-198.5 -45.5q-65 3 -131.5 36.5t-117.5 81.5q-49 -54 -120 -86t-149 -32q-108 0 -201.5 51.5zM497.5 245.5
q36.5 21.5 57.5 58t21 78.5v132l221 -1v-132q0 -42 21.5 -78t57.5 -57.5t79 -21.5t78.5 21.5t56.5 58t21 78.5v400l-431 344l-128 -191h-122q-53 0 -100 -27.5t-75.5 -74t-28.5 -100.5v-313q0 -54 24 -98.5t67.5 -71t100.5 -26.5q43 0 79.5 21.5z" />
    <glyph glyph-name="uni0666.ss02" horiz-adv-x="1522" 
d="M763 517q-35 -8 -75 -8q-43 0 -85 12q-89 25 -159.5 84t-110.5 141t-40 174q0 58 16 113l91 332l229 -5l-105 -385q-7 -24 -7 -52q0 -65 40 -118t105 -70q24 -7 50 -7q66 0 119.5 40t71.5 104l111 411l213 -59l-357 -1224h-224l164 534q-12 -9 -47 -17z" />
    <glyph glyph-name="uni06F0.ss02" horiz-adv-x="1522" 
d="M523 93.5q-87 51.5 -138 139t-51 190.5q0 101 50.5 187.5t136.5 137t188 50.5t189.5 -51t139.5 -137.5t52 -188.5t-50.5 -189t-137.5 -138.5t-190 -51.5q-102 0 -189 51.5zM803 260.5q42 24.5 66.5 67t24.5 92.5q0 49 -25 91t-67 66.5t-91 24.5q-50 0 -91.5 -24.5
t-66 -66t-24.5 -91.5q0 -49 24.5 -91.5t66.5 -67.5t92 -25q49 0 91 24.5z" />
    <glyph glyph-name="uni06F1.ss02" horiz-adv-x="1522" 
d="M650 1272l221 54v-1326h-221v1272z" />
    <glyph glyph-name="uni06F2.ss02" horiz-adv-x="1522" 
d="M344 1272l221 54v-1326h-221v1272zM615 546q-48 34 -50 35l-124 165l14 156l110 26q0 -53 26.5 -98t72 -71.5t98.5 -26.5t98 26.5t71 71.5t26 98v337l222 54v-391q0 -110 -53.5 -206t-148.5 -153t-213 -57q-101 0 -149 34z" />
    <glyph glyph-name="uni06F3.ss02" horiz-adv-x="1522" 
d="M103 1272l221 54v-1326h-221v1272zM369 818.5q46 -46.5 132 -46.5q43 0 79 21t57 57t21 78v315l222 3v-318q0 -42 21 -78t57 -57t78 -21q43 0 79.5 21t57.5 57t21 78v331l221 55v-385q0 -102 -51 -189t-138 -138t-190 -51q-71 0 -142.5 34t-124.5 84q-51 -55 -120 -86.5
t-148 -31.5q-92 0 -167 41t-121 121.5t-52 194.5l162 38q0 -81 46 -127.5z" />
    <glyph glyph-name="uni06F4.ss02" horiz-adv-x="1522" 
d="M236 1272l221 54v-1326h-221v1272zM486.5 564q-77.5 46 -121 136t-47.5 218l139 17q0 -54 24 -98.5t66 -70.5t95 -26h55q-1 3 -21 32t-36.5 71t-16.5 92q0 114 56.5 210t153 152.5t210.5 56.5h316l3 -223h-319q-54 0 -99 -26t-71.5 -71t-26.5 -99q0 -53 26.5 -98
t71.5 -71t99 -26h315v-222h-690q-104 0 -181.5 46z" />
    <glyph glyph-name="uni06F5.ss02" horiz-adv-x="1522" 
d="M214.5 51.5q-93.5 51.5 -149.5 146.5t-56 219v317q0 112 56.5 209.5t152.5 155t209 57.5h21l181 271l703 -545v-499q0 -107 -54 -197t-145.5 -140.5t-198.5 -45.5q-65 3 -131.5 36.5t-117.5 81.5q-49 -54 -120 -86t-149 -32q-108 0 -201.5 51.5zM497.5 245.5
q36.5 21.5 57.5 58t21 78.5v132l221 -1v-132q0 -42 21.5 -78t57.5 -57.5t79 -21.5t78.5 21.5t56.5 58t21 78.5v400l-431 344l-128 -191h-122q-53 0 -100 -27.5t-75.5 -74t-28.5 -100.5v-313q0 -54 24 -98.5t67.5 -71t100.5 -26.5q43 0 79.5 21.5z" />
    <glyph glyph-name="uni06F6.ss02" horiz-adv-x="1522" 
d="M763 517q-35 -8 -75 -8q-43 0 -85 12q-89 25 -159.5 84t-110.5 141t-40 174q0 58 16 113l91 332l229 -5l-105 -385q-7 -24 -7 -52q0 -65 40 -118t105 -70q24 -7 50 -7q66 0 119.5 40t71.5 104l111 411l213 -59l-357 -1224h-224l164 534q-12 -9 -47 -17z" />
    <glyph glyph-name="uni06F7.ss02" horiz-adv-x="1522" 
d="M551 56.5q-96 56.5 -152 152t-56 208.5v882l221 55v-937q0 -53 26.5 -98t72 -71.5t98.5 -26.5h196v1133h222v-1354h-418q-114 0 -210 56.5z" />
    <glyph glyph-name="uni06F8.ss02" horiz-adv-x="1522" 
d="M972 1297.5q96 -56.5 152 -152t56 -208.5v-882l-221 -55v937q0 53 -26.5 98t-72 71.5t-98.5 26.5h-196v-1133h-222v1354h418q114 0 210 -56.5z" />
    <glyph glyph-name="uni06F9.ss02" horiz-adv-x="1522" 
d="M928 518h-195q-114 0 -210 56.5t-152 152t-56 208.5q0 114 56 210t152 152.5t210 56.5h417v-1354h-222v518zM928 740v391h-195q-53 0 -98.5 -26t-72 -71t-26.5 -99q0 -53 26.5 -98t72 -71t98.5 -26h195z" />
    <glyph glyph-name="zero.ss01" horiz-adv-x="1019" 
d="M321 93.5q-87 51.5 -138 139t-51 190.5q0 101 50.5 187.5t136.5 137t188 50.5t189.5 -51t139.5 -137.5t52 -188.5t-50.5 -189t-137.5 -138.5t-190 -51.5q-102 0 -189 51.5zM601 260.5q42 24.5 66.5 67t24.5 92.5q0 49 -25 91t-67 66.5t-91 24.5q-50 0 -91.5 -24.5
t-66 -66t-24.5 -91.5q0 -49 24.5 -91.5t66.5 -67.5t92 -25q49 0 91 24.5z" />
    <glyph glyph-name="one.ss01" horiz-adv-x="498" 
d="M138 1272l221 54v-1326h-221v1272z" />
    <glyph glyph-name="two.ss01" horiz-adv-x="1084" 
d="M138 1272l221 54v-1326h-221v1272zM409 546q-48 34 -50 35l-124 165l14 156l110 26q0 -53 26.5 -98t72 -71.5t98.5 -26.5t98 26.5t71 71.5t26 98v337l222 54v-391q0 -110 -53.5 -206t-148.5 -153t-213 -57q-101 0 -149 34z" />
    <glyph glyph-name="three.ss01" horiz-adv-x="1540" 
d="M138 1272l221 54v-1326h-221v1272zM404 818.5q46 -46.5 132 -46.5q43 0 79 21t57 57t21 78v315l222 3v-318q0 -42 21 -78t57 -57t78 -21q43 0 79.5 21t57.5 57t21 78v331l221 55v-385q0 -102 -51 -189t-138 -138t-190 -51q-71 0 -142.5 34t-124.5 84q-51 -55 -120 -86.5
t-148 -31.5q-92 0 -167 41t-121 121.5t-52 194.5l162 38q0 -81 46 -127.5z" />
    <glyph glyph-name="four.ss01" horiz-adv-x="1376" 
d="M132 1272l221 54v-1326h-221v1272zM382.5 564q-77.5 46 -121 136t-47.5 218l139 17q0 -54 24 -98.5t66 -70.5t95 -26h55q-1 3 -21 32t-36.5 71t-16.5 92q0 114 56.5 210t153 152.5t210.5 56.5h316l3 -223h-319q-54 0 -99 -26t-71.5 -71t-26.5 -99q0 -53 26.5 -98
t71.5 -71t99 -26h315v-222h-690q-104 0 -181.5 46z" />
    <glyph glyph-name="five.ss01" horiz-adv-x="1545" 
d="M316.5 51.5q-93.5 51.5 -149.5 146.5t-56 219v317q0 112 56.5 209.5t152.5 155t209 57.5h21l181 271l703 -545v-499q0 -107 -54 -197t-145.5 -140.5t-198.5 -45.5q-65 3 -131.5 36.5t-117.5 81.5q-49 -54 -120 -86t-149 -32q-108 0 -201.5 51.5zM599.5 245.5
q36.5 21.5 57.5 58t21 78.5v132l221 -1v-132q0 -42 21.5 -78t57.5 -57.5t79 -21.5t78.5 21.5t56.5 58t21 78.5v400l-431 344l-128 -191h-122q-53 0 -100 -27.5t-75.5 -74t-28.5 -100.5v-313q0 -54 24 -98.5t67.5 -71t100.5 -26.5q43 0 79.5 21.5z" />
    <glyph glyph-name="six.ss01" horiz-adv-x="1210" 
d="M608 517q-35 -8 -75 -8q-43 0 -85 12q-89 25 -159.5 84t-110.5 141t-40 174q0 58 16 113l91 332l229 -5l-105 -385q-7 -24 -7 -52q0 -65 40 -118t105 -70q24 -7 50 -7q66 0 119.5 40t71.5 104l111 411l213 -59l-357 -1224h-224l164 534q-12 -9 -47 -17z" />
    <glyph glyph-name="seven.ss01" horiz-adv-x="1112" 
d="M346 56.5q-96 56.5 -152 152t-56 208.5v882l221 55v-937q0 -53 26.5 -98t72 -71.5t98.5 -26.5h196v1133h222v-1354h-418q-114 0 -210 56.5z" />
    <glyph glyph-name="eight.ss01" horiz-adv-x="1112" 
d="M766 1297.5q96 -56.5 152 -152t56 -208.5v-882l-221 -55v937q0 53 -26.5 98t-72 71.5t-98.5 26.5h-196v-1133h-222v1354h418q114 0 210 -56.5z" />
    <glyph glyph-name="nine.ss01" horiz-adv-x="1085" 
d="M724 518h-195q-114 0 -210 56.5t-152 152t-56 208.5q0 114 56 210t152 152.5t210 56.5h417v-1354h-222v518zM724 740v391h-195q-53 0 -98.5 -26t-72 -71t-26.5 -99q0 -53 26.5 -98t72 -71t98.5 -26h195z" />
    <glyph glyph-name="zero.ss02" horiz-adv-x="1522" 
d="M523 93.5q-87 51.5 -138 139t-51 190.5q0 101 50.5 187.5t136.5 137t188 50.5t189.5 -51t139.5 -137.5t52 -188.5t-50.5 -189t-137.5 -138.5t-190 -51.5q-102 0 -189 51.5zM803 260.5q42 24.5 66.5 67t24.5 92.5q0 49 -25 91t-67 66.5t-91 24.5q-50 0 -91.5 -24.5
t-66 -66t-24.5 -91.5q0 -49 24.5 -91.5t66.5 -67.5t92 -25q49 0 91 24.5z" />
    <glyph glyph-name="one.ss02" horiz-adv-x="1522" 
d="M650 1272l221 54v-1326h-221v1272z" />
    <glyph glyph-name="two.ss02" horiz-adv-x="1522" 
d="M344 1272l221 54v-1326h-221v1272zM615 546q-48 34 -50 35l-124 165l14 156l110 26q0 -53 26.5 -98t72 -71.5t98.5 -26.5t98 26.5t71 71.5t26 98v337l222 54v-391q0 -110 -53.5 -206t-148.5 -153t-213 -57q-101 0 -149 34z" />
    <glyph glyph-name="three.ss02" horiz-adv-x="1522" 
d="M103 1272l221 54v-1326h-221v1272zM369 818.5q46 -46.5 132 -46.5q43 0 79 21t57 57t21 78v315l222 3v-318q0 -42 21 -78t57 -57t78 -21q43 0 79.5 21t57.5 57t21 78v331l221 55v-385q0 -102 -51 -189t-138 -138t-190 -51q-71 0 -142.5 34t-124.5 84q-51 -55 -120 -86.5
t-148 -31.5q-92 0 -167 41t-121 121.5t-52 194.5l162 38q0 -81 46 -127.5z" />
    <glyph glyph-name="four.ss02" horiz-adv-x="1522" 
d="M236 1272l221 54v-1326h-221v1272zM486.5 564q-77.5 46 -121 136t-47.5 218l139 17q0 -54 24 -98.5t66 -70.5t95 -26h55q-1 3 -21 32t-36.5 71t-16.5 92q0 114 56.5 210t153 152.5t210.5 56.5h316l3 -223h-319q-54 0 -99 -26t-71.5 -71t-26.5 -99q0 -53 26.5 -98
t71.5 -71t99 -26h315v-222h-690q-104 0 -181.5 46z" />
    <glyph glyph-name="five.ss02" horiz-adv-x="1522" 
d="M214.5 51.5q-93.5 51.5 -149.5 146.5t-56 219v317q0 112 56.5 209.5t152.5 155t209 57.5h21l181 271l703 -545v-499q0 -107 -54 -197t-145.5 -140.5t-198.5 -45.5q-65 3 -131.5 36.5t-117.5 81.5q-49 -54 -120 -86t-149 -32q-108 0 -201.5 51.5zM497.5 245.5
q36.5 21.5 57.5 58t21 78.5v132l221 -1v-132q0 -42 21.5 -78t57.5 -57.5t79 -21.5t78.5 21.5t56.5 58t21 78.5v400l-431 344l-128 -191h-122q-53 0 -100 -27.5t-75.5 -74t-28.5 -100.5v-313q0 -54 24 -98.5t67.5 -71t100.5 -26.5q43 0 79.5 21.5z" />
    <glyph glyph-name="six.ss02" horiz-adv-x="1522" 
d="M763 517q-35 -8 -75 -8q-43 0 -85 12q-89 25 -159.5 84t-110.5 141t-40 174q0 58 16 113l91 332l229 -5l-105 -385q-7 -24 -7 -52q0 -65 40 -118t105 -70q24 -7 50 -7q66 0 119.5 40t71.5 104l111 411l213 -59l-357 -1224h-224l164 534q-12 -9 -47 -17z" />
    <glyph glyph-name="seven.ss02" horiz-adv-x="1522" 
d="M551 56.5q-96 56.5 -152 152t-56 208.5v882l221 55v-937q0 -53 26.5 -98t72 -71.5t98.5 -26.5h196v1133h222v-1354h-418q-114 0 -210 56.5z" />
    <glyph glyph-name="eight.ss02" horiz-adv-x="1522" 
d="M972 1297.5q96 -56.5 152 -152t56 -208.5v-882l-221 -55v937q0 53 -26.5 98t-72 71.5t-98.5 26.5h-196v-1133h-222v1354h418q114 0 210 -56.5z" />
    <glyph glyph-name="nine.ss02" horiz-adv-x="1522" 
d="M928 518h-195q-114 0 -210 56.5t-152 152t-56 208.5q0 114 56 210t152 152.5t210 56.5h417v-1354h-222v518zM928 740v391h-195q-53 0 -98.5 -26t-72 -71t-26.5 -99q0 -53 26.5 -98t72 -71t98.5 -26h195z" />
    <glyph glyph-name="period.001" horiz-adv-x="481" 
d="M138 1251h205v-189h-205v189z" />
    <glyph glyph-name="hyphen.001" horiz-adv-x="769" 
d="M112 392h544v-197h-544v197z" />
    <glyph glyph-name="hyphen.002" horiz-adv-x="857" 
d="M130 418h597v-215h-597v215z" />
    <glyph glyph-name="underscore.001" horiz-adv-x="709" 
d="M0 181h709v-181h-709v181z" />
    <glyph glyph-name="underscore.002" horiz-adv-x="786" 
d="M0 194h786v-194h-786v194z" />
    <glyph glyph-name="uniFBB2" 
d="M229 958h206v-188h-206v188z" />
    <glyph glyph-name="dotbelow-ar" 
d="M229 -262h206v-188h-206v188z" />
    <glyph glyph-name="dotcenter-ar" 
d="M201 513h206v-188h-206v188z" />
    <glyph glyph-name="twodotshorizontalabove-ar" 
d="M187 982h464v-181h-464v181z" />
    <glyph glyph-name="twodotshorizontalbelow-ar" 
d="M638 -391h-464v181h464v-181z" />
    <glyph glyph-name="threedotsdownbelow-ar" 
d="M574 -27v-316l-189 -58v194h-274v180h463z" />
    <glyph glyph-name="threedotsdowncenter-ar" 
d="M559 554v-316l-189 -59v194h-274v181h463z" />
    <glyph glyph-name="threedotsupabove-ar" 
d="M178 840h275v194l189 -58v-316h-464v180z" />
    <glyph glyph-name="gafsarkashabove-ar" 
d="M220 968l414 249l47 -80l-413 -249z" />
    <glyph glyph-name="uni0654.001" 
d="M222 1040l110 28q-24 30 -31 63q-4 24 -4 33q0 37 17.5 67.5t44.5 49.5t55 25l86 18l16 -85l-85 -17q-17 -3 -32 -19.5t-15 -40.5q0 -27 17 -44.5t41 -17.5q5 0 15 2l103 24v-92l-338 -84v90z" />
    <glyph glyph-name="uni0655.001" 
d="M222 -368l110 28q-24 30 -31 63q-4 24 -4 33q0 37 17.5 67.5t44.5 49.5t55 25l86 18l16 -85l-85 -17q-17 -3 -32 -19.5t-15 -40.5q0 -27 17 -44.5t41 -17.5q5 0 15 2l103 24v-92l-338 -84v90z" />
    <glyph glyph-name="uni0654064F" 
d="M187 1024l159 41q-11 10 -22.5 28t-16.5 39q-3 17 -3 31q0 53 34.5 90t77.5 47l78 16l14 -71l-78 -16q-19 -4 -36 -23t-17 -46q0 -29 20 -48t47 -19q4 0 14 2l95 22v-78l-366 -90v75zM182 1448l143 35q-40 40 -40 98q0 38 18.5 69.5t50 50t69.5 18.5q37 0 68.5 -18.5
t50 -50t18.5 -69.5q0 -47 -28 -85t-72 -48l-278 -69v69zM469.5 1534q19.5 20 19.5 47q0 28 -19.5 47.5t-46.5 19.5t-47 -19.5t-20 -47.5q0 -27 20 -47t47 -20t46.5 20z" />
    <glyph glyph-name="uni0654064C" 
d="M187 1024l159 41q-11 10 -22.5 28t-16.5 39q-3 17 -3 31q0 53 34.5 90t77.5 47l78 16l14 -71l-78 -16q-19 -4 -36 -23t-17 -46q0 -29 20 -48t47 -19q4 0 14 2l95 22v-78l-366 -90v75zM95 1551l143 35q-40 41 -40 97q0 37 18.5 69t50 50.5t69.5 18.5q48 0 86 -31.5
t47 -79.5l-24 -80l-65 -77l-285 -73v71zM275 1448l143 35q-40 40 -40 98q0 38 18.5 69.5t50 50t69.5 18.5q37 0 68.5 -18.5t50 -50t18.5 -69.5q0 -47 -28 -85t-72 -48l-278 -69v69zM562.5 1534q19.5 20 19.5 47q0 28 -19.5 47.5t-46.5 19.5t-47 -19.5t-20 -47.5
q0 -27 20 -47t47 -20t46.5 20zM382.5 1635.5q19.5 19.5 19.5 47.5t-19.5 48.5t-46.5 20.5q-29 0 -48.5 -20t-19.5 -49q0 -28 19.5 -47.5t48.5 -19.5q27 0 46.5 19.5z" />
    <glyph glyph-name="uni0654064E" 
d="M187 1024l159 41q-11 10 -22.5 28t-16.5 39q-3 17 -3 31q0 53 34.5 90t77.5 47l78 16l14 -71l-78 -16q-19 -4 -36 -23t-17 -46q0 -29 20 -48t47 -19q4 0 14 2l95 22v-78l-366 -90v75zM182 1473l378 95v-70l-378 -93v68z" />
    <glyph glyph-name="uni0654064B" 
d="M187 1024l159 41q-11 10 -22.5 28t-16.5 39q-3 17 -3 31q0 53 34.5 90t77.5 47l78 16l14 -71l-78 -16q-19 -4 -36 -23t-17 -46q0 -29 20 -48t47 -19q4 0 14 2l95 22v-78l-366 -90v75zM182 1450l378 95v-70l-378 -93v68zM182 1591l378 95v-70l-378 -93v68z" />
    <glyph glyph-name="uni06540652" 
d="M98 984l159 41q-11 10 -22.5 28t-16.5 39q-3 17 -3 31q0 53 34.5 90t77.5 47l78 16l14 -71l-78 -16q-19 -4 -36 -23t-17 -46q0 -29 20 -48t47 -19q4 0 14 2l95 22v-78l-366 -90v75zM201.5 1363q-33.5 24 -52 62.5t-18.5 83.5q0 47 21 87.5t55 64t70 23.5q43 1 78.5 -24
t56 -67.5t20.5 -91.5q0 -43 -20 -80.5t-55.5 -59.5t-78.5 -22t-76.5 24zM342 1447q24 23 24 59q0 39 -25 65.5t-61 26.5q-32 0 -57.5 -25t-25.5 -66q0 -37 23 -60t58 -23q40 0 64 23z" />
    <glyph glyph-name="uni06550650" 
d="M186 -109l159 41q-11 10 -22.5 28t-16.5 39q-3 17 -3 31q0 53 34.5 90t77.5 47l78 16l14 -71l-78 -16q-19 -4 -36 -23t-17 -46q0 -29 20 -48t47 -19q4 0 14 2l95 22v-78l-366 -90v75zM182 -379l378 95v-70l-378 -93v68z" />
    <glyph glyph-name="uni0655064D" 
d="M187 -384l159 41q-11 10 -22.5 28t-16.5 39q-3 17 -3 31q0 53 34.5 90t77.5 47l78 16l14 -71l-78 -16q-19 -4 -36 -23t-17 -46q0 -29 20 -48t47 -19q4 0 14 2l95 22v-78l-366 -90v75zM182 -795l378 95v-70l-378 -93v68zM182 -654l378 95v-70l-378 -93v68z" />
    <glyph glyph-name="uni0651064B" 
d="M274.5 826.5q-31.5 18.5 -49.5 50t-18 68.5v87h70v-87q0 -27 19.5 -46.5t47.5 -19.5q27 0 47 19.5t20 46.5v87h69v-87q0 -27 20 -46.5t48 -19.5t47.5 19.5t19.5 46.5v87h71v-87q0 -37 -18.5 -68.5t-50.5 -50t-69 -18.5q-31 0 -59 14.5t-43 35.5q-18 -22 -44 -36t-58 -14
q-38 0 -69.5 18.5zM258 1215l378 95v-70l-378 -93v68zM258 1356l378 95v-70l-378 -93v68z" />
    <glyph glyph-name="uni0651064C" 
d="M267.5 837.5q-31.5 18.5 -49.5 50t-18 68.5v87h70v-87q0 -27 19.5 -46.5t47.5 -19.5q27 0 47 19.5t20 46.5v87h69v-87q0 -27 20 -46.5t48 -19.5t47.5 19.5t19.5 46.5v87h71v-87q0 -37 -18.5 -68.5t-50.5 -50t-69 -18.5q-31 0 -59 14.5t-43 35.5q-18 -22 -44 -36t-58 -14
q-38 0 -69.5 18.5zM160 1353l143 35q-40 41 -40 97q0 37 18.5 69t50 50.5t69.5 18.5q48 0 86 -31.5t47 -79.5l-24 -80l-65 -77l-285 -73v71zM340 1250l143 35q-40 40 -40 98q0 38 18.5 69.5t50 50t69.5 18.5q37 0 68.5 -18.5t50 -50t18.5 -69.5q0 -47 -28 -85t-72 -48
l-278 -69v69zM627.5 1336q19.5 20 19.5 47q0 28 -19.5 47.5t-46.5 19.5t-47 -19.5t-20 -47.5q0 -27 20 -47t47 -20t46.5 20zM447.5 1437.5q19.5 19.5 19.5 47.5t-19.5 48.5t-46.5 20.5q-29 0 -48.5 -20t-19.5 -49q0 -28 19.5 -47.5t48.5 -19.5q27 0 46.5 19.5z" />
    <glyph glyph-name="uni0651064D" 
d="M267.5 1176.5q-31.5 18.5 -49.5 50t-18 68.5v87h70v-87q0 -27 19.5 -46.5t47.5 -19.5q27 0 47 19.5t20 46.5v87h69v-87q0 -27 20 -46.5t48 -19.5t47.5 19.5t19.5 46.5v87h71v-87q0 -37 -18.5 -68.5t-50.5 -50t-69 -18.5q-31 0 -59 14.5t-43 35.5q-18 -22 -44 -36t-58 -14
q-38 0 -69.5 18.5zM250 829l378 95v-70l-378 -93v68zM250 970l378 95v-70l-378 -93v68z" />
    <glyph glyph-name="uni0651064E" 
d="M253.5 850.5q-31.5 18.5 -49.5 50t-18 68.5v87h70v-87q0 -27 19.5 -46.5t47.5 -19.5q27 0 47 19.5t20 46.5v87h69v-87q0 -27 20 -46.5t48 -19.5t47.5 19.5t19.5 46.5v87h71v-87q0 -37 -18.5 -68.5t-50.5 -50t-69 -18.5q-31 0 -59 14.5t-43 35.5q-18 -22 -44 -36t-58 -14
q-38 0 -69.5 18.5zM236 1290l378 95v-70l-378 -93v68z" />
    <glyph glyph-name="uni0651064F" 
d="M229.5 847.5q-31.5 18.5 -49.5 50t-18 68.5v87h70v-87q0 -27 19.5 -46.5t47.5 -19.5q27 0 47 19.5t20 46.5v87h69v-87q0 -27 20 -46.5t48 -19.5t47.5 19.5t19.5 46.5v87h71v-87q0 -37 -18.5 -68.5t-50.5 -50t-69 -18.5q-31 0 -59 14.5t-43 35.5q-18 -22 -44 -36t-58 -14
q-38 0 -69.5 18.5zM212 1257l143 35q-40 40 -40 98q0 38 18.5 69.5t50 50t69.5 18.5q37 0 68.5 -18.5t50 -50t18.5 -69.5q0 -47 -28 -85t-72 -48l-278 -69v69zM499.5 1343q19.5 20 19.5 47q0 28 -19.5 47.5t-46.5 19.5t-47 -19.5t-20 -47.5q0 -27 20 -47t47 -20t46.5 20z
" />
    <glyph glyph-name="uni06510650" 
d="M213 1077l378 95v-70l-378 -93v68zM231.5 1281.5q-31.5 18.5 -49.5 50t-18 68.5v87h70v-87q0 -27 19.5 -46.5t47.5 -19.5q27 0 47 19.5t20 46.5v87h69v-87q0 -27 20 -46.5t48 -19.5t47.5 19.5t19.5 46.5v87h71v-87q0 -37 -18.5 -68.5t-50.5 -50t-69 -18.5q-31 0 -59 14.5
t-43 35.5q-18 -22 -44 -36t-58 -14q-38 0 -69.5 18.5z" />
    <glyph glyph-name="uni06510670" 
d="M249.5 538.5q-31.5 18.5 -49.5 50t-18 68.5v87h70v-87q0 -27 19.5 -46.5t47.5 -19.5q27 0 47 19.5t20 46.5v87h69v-87q0 -27 20 -46.5t48 -19.5t47.5 19.5t19.5 46.5v87h71v-87q0 -37 -18.5 -68.5t-50.5 -50t-69 -18.5q-31 0 -59 14.5t-43 35.5q-18 -22 -44 -36t-58 -14
q-38 0 -69.5 18.5zM385 1126l79 22v-299h-79v277z" />
    <glyph glyph-name="uni0653.001" 
d="M332 1172h299v60l158 -60v-113h-457v113z" />
    <glyph glyph-name="sareya-ar" horiz-adv-x="407" 
d="M87 899h162q41 0 70.5 29.5t29.5 71.5v60h-252v142q0 47 22.5 86.5t61.5 62t86 22.5h153v-71h-153q-41 0 -70.5 -29.5t-29.5 -70.5v-70h253v-132q0 -48 -22.5 -87t-62 -61.5t-86.5 -22.5h-162v70z" />
    </font>
</defs>
</svg>
