<svg width="99" height="358" viewBox="0 0 99 358" fill="none" xmlns="http://www.w3.org/2000/svg">
<g filter="url(#filter0_d_1_1328)">
<path fill-rule="evenodd" clip-rule="evenodd" d="M49.2119 25.7525C43.573 28.4613 39.3325 31.6653 35.9781 35.2412C34.198 37.1505 32.6831 39.1554 31.3868 41.3153C28.811 45.6201 27.2111 50.476 26.0356 55.8275C24.4672 62.9979 23.6994 71.0371 22.8772 79.9034C22.739 81.1956 22.6203 82.4826 22.5198 83.7596C23.1682 86.1797 23.8077 88.6438 24.4552 91.1578C24.5008 91.3279 24.4038 91.5101 24.2253 91.5632C24.0663 91.611 23.8694 91.5179 23.8226 91.343C23.2954 89.8227 22.7686 88.3232 22.2749 86.8305C20.9925 103.893 21.1662 120.383 22.169 136.683C22.2102 135.651 22.2501 134.614 22.3377 133.58C22.6923 129.344 23.3771 125.077 24.3099 120.822C25.6273 114.912 27.4639 109.034 29.5781 103.259C31.1024 99.1321 32.7682 95.0659 34.5857 91.0997C36.8573 86.1263 39.3038 81.3197 41.8452 76.7116C41.2568 76.0515 40.7456 75.3291 40.3434 74.567C39.2674 72.5532 39.0087 70.3048 39.9263 68.2673C40.6529 66.7027 41.5548 65.6173 42.6502 64.7874C43.3009 64.3004 43.9985 63.9104 44.7616 63.5705C45.2652 63.2533 45.8272 62.9986 46.4815 62.7972C46.8178 62.6914 47.1411 62.6152 47.4454 62.565C47.779 62.4495 48.091 62.3503 48.4143 62.2741C49.0331 62.1343 49.6638 62.1164 50.1549 62.2192C54.0293 62.9362 56.1683 66.5455 56.2685 70.1072C56.3145 71.4647 56.0368 72.7996 55.473 73.961C54.5995 77.8931 51.4116 80.9244 46.854 79.932C46.0426 79.7224 45.1574 79.3345 44.332 78.8005C42.1842 83.5167 40.0719 88.3848 38.1179 93.3772C35.7907 99.329 33.6455 105.435 31.8831 111.59C30.2856 117.096 28.9914 122.646 28.0296 128.154C27.374 131.908 26.8155 135.635 26.5617 139.334C26.4814 140.22 26.4047 141.1 26.3438 141.981C27.1371 140.023 27.991 138.117 28.9529 136.245C30.0477 134.15 31.267 132.13 32.5652 130.152C35.1203 126.217 37.9641 122.466 41.0732 118.966C43.1523 116.617 45.3604 114.4 47.5713 112.272C49.7324 110.229 51.9597 108.356 54.2722 106.606C56.5797 104.858 58.9711 103.227 61.4513 101.657C62.0726 101.235 62.697 100.844 63.3353 100.485C63.9931 100.121 64.6599 99.7916 65.3359 99.4959C65.6436 99.3613 66.0959 98.9693 66.3563 98.8526C66.8434 98.6492 67.1153 98.8472 67.4781 99.3073C67.9545 99.2578 67.4218 99.3692 67.9038 99.438C68.0811 99.4582 67.9796 99.449 68.088 99.5814C68.3547 99.838 68.1781 100.365 68.0912 100.857C67.848 102.146 66.8511 103.965 66.5415 104.715L61.2269 116.467C58.2554 122.93 55.3173 129.342 51.5784 135.235C50.3098 137.226 48.9179 139.146 47.4728 141.022C46.0226 142.88 44.5327 144.706 42.802 146.43C38.6703 150.662 32.9521 153.445 28.2638 157.232C27.6797 157.696 27.155 158.206 26.5952 158.664C26.4605 158.783 26.298 158.915 26.139 159.041C26.4797 169.137 27.3847 179.26 27.7158 189.223C29.4956 202.241 31.4403 215.408 33.3234 228.909C36.1741 249.364 35.8073 269.921 32.7839 290.127C34.9641 284.074 37.0647 278.074 39.0379 272.337C42.8091 261.764 46.3727 251.038 49.3872 240.167C50.1861 237.24 50.9361 234.304 51.6834 231.359C53.2729 225.084 54.0336 218.651 55.6209 212.387C52.4216 210.458 51.8735 206.313 53.2096 202.747C54.757 198.686 58.5299 195.759 62.5258 197.745C65.878 199.331 66.9366 203.282 66.0957 206.617C65.8652 207.564 65.4919 208.445 64.9886 209.211C64.4251 210.393 63.4846 211.431 62.3425 212.164C61.134 212.941 59.7017 213.33 58.2857 213.236C57.5201 220.389 56.3276 227.485 54.7753 234.52C51.8376 247.855 47.6595 260.933 43.3621 273.819C41.9902 277.718 40.6854 281.771 39.2985 285.866L39.6038 285.373C41.0674 283.002 42.5261 280.631 44.0192 278.273C45.128 276.502 46.2637 274.734 47.4328 272.994C48.2354 271.81 49.0419 270.641 49.8598 269.494C50.3739 268.789 50.8955 268.092 51.3941 267.406C52.3657 266.115 53.3169 264.844 54.3198 263.591C55.1815 262.511 56.0448 261.457 56.9328 260.417C58.7545 258.293 60.6637 256.224 62.6375 254.221C64.9939 251.819 67.469 249.51 70.0868 247.345C73.0174 244.909 76.0976 242.662 79.3742 240.7C79.6485 240.538 79.9228 240.376 80.1971 240.214C80.3422 240.134 80.4679 240.058 80.6178 239.976C81.1075 239.705 81.5998 239.442 82.0872 239.182C83.1116 238.631 84.1593 238.09 85.198 237.593C85.8033 237.306 86.3944 237.043 87.0089 236.79C87.5106 236.583 88.0199 236.384 88.533 236.199C88.7513 236.12 89.0001 236.038 89.2259 235.967C89.3788 235.915 89.5378 235.868 89.6956 235.815C89.9868 235.716 90.2767 235.612 90.5887 235.513C91.016 235.378 91.4446 235.247 91.881 235.146C92.2507 235.068 92.6242 235.004 93.0087 235.078C93.1409 235.105 93.2466 235.15 93.3637 235.217C93.4214 235.238 93.4487 235.262 93.4834 235.295C93.486 235.304 93.4886 235.314 93.5106 235.319C93.5119 235.324 93.5132 235.328 93.5145 235.333C93.5158 235.338 93.5158 235.338 93.5401 235.332C93.5414 235.336 93.567 235.335 93.5878 235.334C93.6685 235.344 93.7456 235.36 93.782 235.418C93.8501 235.478 93.848 235.567 93.8688 235.645C93.9013 235.766 93.9326 235.883 93.9868 235.988C94.0064 236.061 94.0246 236.129 94.0428 236.197C94.0559 236.245 94.0896 236.294 94.1026 236.342C94.0949 236.391 94.1066 236.435 94.0928 236.48C94.0776 236.521 94.0867 236.555 94.0777 236.599C94.0274 236.878 93.9318 237.143 93.8275 237.395C93.6455 237.824 93.4169 238.234 93.1614 238.641C92.8538 239.146 92.5251 239.63 92.1903 240.11C92.0664 240.289 91.9424 240.468 91.7978 240.647C91.7467 240.729 91.6881 240.802 91.637 240.883C88.4708 245.706 85.2741 250.531 82.1065 255.349C82.0528 255.42 82.0185 255.487 81.9648 255.558C81.8817 255.695 81.7937 255.833 81.7106 255.97C81.4858 256.317 81.2866 256.662 81.0618 257.009C80.3518 258.189 79.6507 259.382 78.9446 260.576C75.0644 267.204 71.4221 273.983 67.188 280.398C66.4149 281.595 65.5906 282.795 64.7585 283.966C63.5954 285.554 62.4254 287.097 61.1756 288.614C58.683 291.693 55.9585 294.626 52.9205 297.206C52.4837 297.578 52.0431 297.936 51.6025 298.294C51.4001 298.452 51.1978 298.61 50.9941 298.764C48.9902 300.285 46.8163 301.56 44.5657 302.705C43.836 303.073 43.1037 303.43 42.3639 303.78C41.9328 303.978 41.5211 304.172 41.0852 304.372C40.4131 304.682 39.7579 305.056 39.108 305.449C38.2094 306.002 37.2969 306.601 36.3674 307.136C35.3136 307.752 34.216 308.301 33.0185 308.575C32.6758 308.657 32.3508 308.707 32.0157 308.74C31.9195 308.75 31.8268 308.754 31.7293 308.759C31.6768 308.758 31.6097 308.76 31.5303 308.755C31.4814 308.748 31.4298 308.73 31.3708 308.704C31.3127 308.663 31.2715 308.606 31.2147 308.569C31.1541 308.518 31.0912 308.477 31.0127 308.456C30.8853 308.428 30.7813 308.409 30.6785 308.395C30.5819 308.384 30.4831 308.385 30.383 308.38C30.3353 308.378 30.2828 308.376 30.2096 308.375C30.1888 308.375 30.1862 308.365 30.1606 308.367C30.1606 308.367 30.1376 308.378 30.1389 308.383C30.1195 308.389 30.0965 308.4 30.0722 308.406C30.0055 308.43 29.9361 308.443 29.8885 308.44L29.8642 308.447C29.558 309.034 29.2311 309.621 28.8993 310.21C25.9655 322.471 22.129 334.53 17.4337 346.32C9.66997 365.843 -0.331819 384.575 -11.9827 402.051C-12.2876 402.643 -12.635 403.174 -13.0058 403.695C-13.1002 403.887 -13.2306 404.042 -13.396 404.144C-21.3571 415.855 -30.0529 426.982 -39.2856 437.388C-37.9098 436.692 -36.5388 435.996 -35.1348 435.307L-34.8532 434.998C-33.9062 433.983 -32.801 433.015 -31.8092 431.974C-31.4124 431.55 -31.0208 431.106 -30.7051 430.652L-27.2432 425.63C-24.8923 422.761 -22.4763 419.764 -19.9841 416.878C-18.3145 414.925 -16.5808 413.018 -14.7862 411.24C-12.9775 409.438 -11.0868 407.864 -9.11755 406.388C-6.21324 404.203 -3.15114 402.258 -0.0548634 400.168C1.64192 399.036 3.24593 397.83 4.94271 396.699C5.68359 396.198 6.46014 395.714 7.25776 395.25L15.2634 391.266C16.1942 390.736 17.1054 390.132 17.9845 389.506C19.3554 388.519 20.7276 387.458 22.0985 386.471C24.4192 384.849 26.7789 383.373 28.9773 381.665C29.9111 380.951 30.7885 380.221 31.6168 379.405C32.6756 378.361 33.7071 377.293 34.8314 376.299C35.5974 375.62 36.3786 374.978 37.2257 374.407L39.7942 372.719C40.0594 372.523 40.5698 371.959 40.7188 371.893C41.1175 371.729 41.3902 371.833 41.5952 371.976C41.7496 372.086 42.0577 372.342 41.9171 372.906C41.6706 374.065 41.2662 375.2 40.8592 376.325C39.9345 378.88 38.7501 381.379 37.6771 383.828C36.4118 386.746 34.9832 389.597 33.3424 392.318C30.9031 396.394 27.9713 400.205 24.8353 403.78C20.452 408.725 15.5246 413.176 10.229 417.069C17.942 413.82 25.5811 410.393 33.0611 406.644C43.1865 401.571 53.0647 396.023 62.6538 389.688C60.5677 385.81 60.5688 381.09 64.6258 378.29C66.0864 377.19 68.601 376.292 70.9964 376.135C72.8383 376.011 74.611 376.349 75.8882 377.189C78.371 378.815 79.5965 382.028 79.6134 385.279C79.6049 385.792 79.5683 386.297 79.5083 386.792C79.5989 388.044 79.4148 389.359 78.9723 390.623C78.5233 391.863 77.9301 393.09 77.1114 394.038C76.3463 394.915 75.3258 395.48 74.0717 395.796C72.9575 396.011 71.8232 395.976 70.7275 395.697C70.4254 395.658 70.1389 395.599 69.8546 395.53C67.7112 394.995 65.6355 393.624 64.0962 391.786C51.9706 401.134 38.8374 408.627 25.4492 415.538C15.8092 420.516 5.93886 425.083 -4.19382 429.215C-10.8758 431.938 -17.6794 434.401 -24.5063 436.856C-29.9656 438.777 -34.9633 441.876 -40.3812 443.932C-41.8668 444.492 -43.3484 445.066 -44.8994 445.283C-45.5118 445.369 -46.0644 445.387 -46.6295 445.377C-46.7626 445.522 -46.9163 445.668 -47.0506 445.808C-60.7632 460.06 -74.6128 473.063 -90.3496 483.493C-100.828 490.437 -112.118 496.16 -124.564 500.677C-125.001 500.851 -125.527 500.638 -125.695 500.188C-125.862 499.738 -125.658 499.236 -125.191 499.053C-113.217 493.98 -102.516 487.597 -92.4662 480.415C-89.9085 478.589 -87.3574 476.738 -84.8977 474.819C-72.6815 465.342 -61.4644 454.43 -50.4498 442.588C-38.799 430.185 -27.9731 416.628 -18.2653 402.183L-17.0944 396.27C-16.6214 394.206 -16.575 392.105 -16.6583 389.986C-16.8133 386.569 -17.3729 383.12 -17.7124 379.774C-17.7546 379.15 -17.7787 378.515 -17.8258 377.893C-18.7124 371.396 -19.6493 364.886 -20.4459 358.376C-21.3572 350.776 -21.9588 343.166 -21.9205 335.572C-21.5927 320.604 -19.7622 305.509 -19.3962 290.489C-19.239 284.525 -19.4376 278.594 -19.8352 272.658C-19.8919 271.903 -19.9229 271.145 -19.9783 270.395C-20.3293 270.348 -20.6661 270.277 -21.0311 270.198C-22.6166 269.82 -24.1069 269.079 -25.249 267.927C-27.1576 265.974 -28.0125 263.25 -27.7262 260.684C-27.4377 258.029 -25.9771 255.549 -23.3751 254.258C-22.7506 253.945 -21.0241 253.565 -19.249 253.465C-18.0266 252.642 -16.7085 252.935 -15.4916 253.822C-14.8253 254.035 -14.264 254.322 -13.879 254.651C-12.0772 256.204 -10.6877 259.66 -10.7072 262.853C-10.7162 265.366 -11.6484 267.621 -13.3984 269.001C-13.9863 269.451 -14.6186 269.735 -15.2886 269.878C-15.6595 270.029 -16.0443 270.148 -16.4591 270.233C-16.6207 270.271 -16.7837 270.304 -16.925 270.321C-16.8425 270.726 -16.7565 271.125 -16.6983 271.537C-16.0311 275.29 -15.7462 279.094 -15.5271 282.905C-15.05 291.606 -15.2871 300.362 -15.6461 309.13C-15.0145 307.211 -14.2953 305.346 -13.4656 303.525C-12.3999 301.224 -11.1361 299.021 -9.72097 296.74C-9.31863 296.065 -8.4519 293.76 -7.17948 292.502C-6.33077 291.665 -5.49487 291.228 -4.73511 291.342C-4.64016 291.327 -4.31119 291.369 -4.07095 291.721C-3.8255 292.093 -3.35177 293.122 -3.28547 293.292L-0.491637 298.976C0.546786 301.219 1.41842 303.558 2.1336 305.955C3.21023 309.526 3.97751 313.206 4.60565 316.814C6.09356 325.826 6.64314 334.992 6.18253 344.1C5.84936 350.845 5.01545 357.569 3.51674 364.163C4.98435 361.088 6.41854 357.985 7.77428 354.861C8.71973 348.748 9.20838 342.466 11.094 336.674C12.3374 333.112 13.7831 329.605 15.4509 326.168C17.5243 321.816 19.8791 317.58 22.0748 313.315C28.0747 289.561 30.4844 265.082 28.3257 240.639C24.0757 238.423 19.4848 236.685 15.1435 234.478C13.0302 233.414 11.0027 232.223 9.09908 230.853C7.52402 229.718 6.01796 228.548 4.5656 227.307C1.17003 224.373 -1.89147 221.131 -4.77457 217.758C-8.43589 213.462 -11.8182 208.926 -15.067 204.265C-17.2015 201.217 -19.2345 198.1 -21.3538 195.012C-23.4939 191.846 -25.6659 188.735 -27.7995 185.593C-29.2471 183.476 -30.6704 181.352 -32.0143 179.155C-32.654 178.128 -34.0875 176.335 -34.8284 174.659C-35.3259 173.521 -35.5072 172.398 -35.3397 171.467C-35.1793 170.706 -34.7556 170.285 -34.3145 170.026C-33.9119 169.798 -33.4075 169.679 -32.7929 169.795C-32.2749 169.901 -31.3411 170.568 -30.7689 170.779L-28.4815 171.677C-25.9375 172.813 -23.4236 174.186 -20.9673 175.695C-18.5453 177.191 -16.2052 178.83 -13.9959 180.525C-8.80033 184.617 -4.03377 189.033 0.465088 193.713C2.72182 196.051 4.90147 198.451 7.04913 200.907C6.77234 200.34 6.49911 199.768 6.22718 199.2C0.651549 187.314 -3.9329 175.297 -7.71267 163.018C-10.1472 155.118 -12.2904 147.119 -14.1516 138.987C-15.9459 131.202 -17.5672 123.324 -18.9218 115.276C-19.1428 115.267 -19.3677 115.244 -19.6196 115.218C-23.7289 114.616 -25.9529 110.592 -25.7867 106.761C-25.7226 105.639 -25.4734 104.567 -25.0403 103.618C-24.1482 100.863 -21.8042 98.9591 -17.8664 99.7374C-14.5701 100.396 -12.5936 103.127 -12.0562 106.123C-11.6741 107.005 -11.4818 107.917 -11.494 108.785C-11.5199 110.225 -12.0763 111.608 -13.3301 112.663C-13.9309 113.511 -14.7172 114.212 -15.6931 114.671C-15.0902 116.921 -14.558 119.179 -13.959 121.415C-12.6304 126.548 -11.2697 131.627 -9.89474 136.68C-8.96156 140.066 -8.0553 143.448 -7.12604 146.819C-4.7703 155.261 -2.26366 163.605 0.562753 171.879C3.82655 181.416 7.58473 190.815 11.7769 200.26C13.5433 204.209 15.2715 208.209 17.209 212.174C17.769 213.253 18.3675 214.301 18.9802 215.325C19.3155 215.74 19.6472 216.162 19.9533 216.585C21.3847 218.467 22.7316 220.403 24.0387 222.365C24.8404 223.453 25.6691 224.543 26.4553 225.65C22.1645 196.263 17.5448 168.37 15.6367 139.964C14.567 124.037 14.3526 107.959 15.4466 91.3789C15.2112 91.2389 14.9793 91.0927 14.7643 90.9316C14.4036 90.674 14.0775 90.3707 13.7515 90.0675C11.2975 87.8291 9.29794 84.818 7.33809 82.4993C5.88108 80.6189 4.45226 78.7464 3.00958 76.9194C0.761317 74.0687 -1.5173 71.299 -3.36397 68.2364C-5.39837 64.8231 -6.9969 61.1316 -8.00745 56.9908C-8.34653 55.5504 -8.62669 54.0578 -8.85827 52.5521C-9.08983 51.0464 -9.25076 49.5322 -9.38054 48.0565L-9.51581 42.2646L-9.31846 39.2689L-8.92223 37.2877C-8.25776 35.219 -7.37682 34.7746 -6.66837 34.5223C-6.28743 34.389 -6.06033 34.3229 -5.59137 34.3431C-5.4692 34.352 -5.37512 34.431 -5.23765 34.4775C-4.3694 34.8022 -3.33327 35.6756 -2.20611 36.5194C-0.960038 37.6126 0.154219 38.7776 1.21703 40.0033C2.71768 41.794 4.05936 43.7105 5.51898 45.6007L7.78902 48.5133C9.21307 50.4651 10.531 52.5652 11.722 54.7357C11.9263 55.1289 12.1257 55.5233 12.3556 55.9149C12.1712 55.3237 12.0379 54.7291 11.8985 54.1311C11.1596 50.9071 10.6994 47.6345 10.4424 44.3232C9.844 36.9 10.085 29.2468 11.8203 21.2608C12.021 20.28 12.2742 19.3007 12.5702 18.3255C11.9529 17.8294 11.3563 17.2549 10.8451 16.6106C9.07198 14.3669 8.11308 11.4103 8.51855 8.74429C8.65644 7.80107 8.86521 6.50032 9.38146 5.41407C9.59445 4.94552 9.84833 4.51289 10.158 4.13306C10.6531 3.23996 11.347 2.19464 12.1048 1.46555C12.8616 0.752327 13.7248 0.338747 14.6016 0.228824C18.1574 -0.223948 21.3953 1.75225 23.2899 4.54671C24.9827 6.58798 25.7621 9.32188 25.5734 11.8829C25.4629 13.298 25.0491 14.6693 24.3145 15.8349C24.004 16.3087 23.6574 16.7453 23.2723 17.135C22.3186 18.8437 20.7774 20.0119 18.6881 20.2227C17.5643 20.3051 16.4538 20.1651 15.4122 19.8348C15.4055 20.1596 15.3696 20.4921 15.3372 20.8185C14.7266 27.8312 14.574 34.3566 15.0464 40.7457C15.3352 44.5642 15.874 48.3053 16.3254 52.0698C16.6172 54.6167 16.6637 57.1616 17.0583 59.7226C17.3377 61.679 17.6904 63.6366 18.0942 65.5909C18.6531 61.6703 19.2887 57.9583 20.1572 54.4547C21.6531 48.4912 23.7305 43.1429 26.8172 38.4511C28.4324 36.0235 30.2587 33.7425 32.5199 31.7042C36.3819 28.1954 41.27 25.3283 47.5223 23.101C46.6901 20.7145 46.929 17.7963 47.733 15.6069C48.743 12.8258 52.2264 11.6164 54.7425 13.2704C54.8045 13.3267 54.8907 13.3765 54.9527 13.4328C55.8161 13.5452 56.6354 13.784 57.3476 14.2651C64.3281 18.8375 56.8652 32.0196 49.4338 25.9586C49.3692 25.8926 49.2791 25.8282 49.2119 25.7525ZM38.7895 375.598C37.4376 377.648 36.0992 379.767 34.5068 381.735C31.6151 385.328 28.3295 388.713 25.3308 391.887C19.8981 397.639 14.0492 403.024 7.85963 408.032C1.68815 413.029 -4.82891 417.65 -11.5351 421.838L-25.4761 430.417C-26.5992 431.125 -27.8363 431.795 -29.0349 432.512C-29.5826 432.742 -30.1533 432.983 -30.6971 433.228C-30.6538 433.195 -30.6395 433.171 -30.6204 433.145C-30.1582 432.693 -29.6989 432.21 -29.2974 431.707L-25.7522 426.918C-23.2981 424.162 -20.7816 421.269 -18.1822 418.51C-16.4519 416.687 -14.6791 414.925 -12.8724 413.29C-11.068 411.666 -9.19748 410.269 -7.27536 408.967C-4.30472 406.953 -1.19575 405.182 1.95 403.277L9.20774 398.795C11.0333 397.775 12.9369 396.968 14.7846 396.03C15.6413 395.592 16.4707 395.13 17.2835 394.626C18.287 393.998 19.2698 393.292 20.2372 392.548C21.5912 391.498 22.8988 390.372 24.2272 389.323C26.1487 387.766 28.1102 386.34 29.9494 384.748C31.2158 383.643 32.4371 382.467 33.5245 381.16C34.4454 380.048 35.3599 378.913 36.3464 377.851C36.9659 377.17 37.643 376.509 38.3592 375.916L38.7895 375.598ZM38.0847 378.896C37.3857 380.292 36.6313 381.655 35.9488 383.015C34.5443 385.782 32.9608 388.425 31.2655 391.02C28.768 394.898 25.9896 398.622 22.9151 402.076C17.7572 407.843 11.8509 412.936 5.46341 417.205C3.28746 418.726 0.73623 420.498 -1.9676 422.051L-2.34333 422.203C-8.3125 424.574 -14.2891 426.935 -20.3112 429.205L-10.6838 423.188C-3.95337 418.916 2.56621 414.226 8.76544 409.138C14.9611 404.056 20.8316 398.577 26.2642 392.746C29.2561 389.528 32.5647 386.131 35.4293 382.457C36.3395 381.286 37.2448 380.116 38.0847 378.896ZM-5.88686 295.13C-5.9094 295.24 -5.90411 295.338 -5.90367 295.436C-6.51839 301.695 -6.74607 308.037 -6.74753 314.408C-6.74427 324.975 -6.06657 335.59 -5.45753 345.969C-4.88823 355.363 -4.66418 365.491 -6.23925 375.163C-6.84369 378.914 -7.68087 382.612 -8.93471 386.135C-9.43979 386.797 -9.97438 387.445 -10.5142 388.074C-10.6397 388.228 -10.8512 388.352 -10.8941 388.562C-11.0537 389.229 -10.8264 388.814 -10.6493 389.475C-10.7901 389.591 -10.8087 389.794 -10.7003 389.926C-10.6694 389.944 -10.6399 389.957 -10.6347 389.976C-10.7291 390.168 -10.8222 390.365 -10.9166 390.557C-11.1167 387.731 -11.458 384.999 -11.6691 382.753C-11.8948 380.725 -12.0403 378.822 -12.5134 376.959C-12.5633 376.675 -12.6375 376.398 -12.7361 376.128C-12.8183 375.374 -12.92 374.625 -13.0191 373.886L-13.1604 372.736C-13.4397 370.139 -13.7458 367.539 -14.0519 364.939C-15.027 356.304 -15.808 347.383 -15.6342 338.565C-15.5802 334.665 -15.2293 330.785 -14.7957 326.96C-14.3343 323.123 -13.7429 319.324 -12.7618 315.618C-12.0318 312.511 -11.193 309.635 -10.2502 306.778C-9.34035 303.915 -8.36537 301.08 -7.05023 298.155C-6.82333 297.641 -6.43337 296.375 -5.88686 295.13ZM-4.96404 293.112C-4.91173 292.957 -4.87626 292.817 -4.83296 292.707L-4.34621 293.785L-1.8909 299.585C-0.979872 301.799 -0.262537 304.107 0.31388 306.453C1.16914 309.995 1.7244 313.622 2.16746 317.18C3.34147 326.033 3.5972 334.995 2.88776 343.894C2.32361 350.983 1.11026 358.001 -0.625941 364.914C-1.0656 366.636 -1.50525 368.358 -2.0013 370.064C-2.92183 373.451 -3.9884 376.935 -5.45286 380.197C-5.57407 380.464 -5.67713 380.721 -5.80581 380.979C-5.37051 379.144 -5.01366 377.288 -4.71582 375.406C-3.19403 365.613 -3.42471 355.383 -3.99219 345.878C-4.52913 337.246 -5.07989 328.445 -5.29006 319.653C-5.46091 311.745 -5.33132 303.851 -4.70545 296.079C-4.65109 295.465 -4.49659 294.856 -4.56406 294.254C-4.57287 293.95 -4.6804 293.723 -4.75723 293.436C-4.74865 293.294 -4.83144 293.159 -4.96404 293.112ZM18.2908 326.756C16.4532 332.65 14.4072 338.484 12.1745 344.244C11.8778 344.964 11.6042 345.673 11.3319 346.387C11.944 343.384 12.6618 340.426 13.7373 337.617C14.6746 335.012 15.7948 332.467 16.893 329.917C17.3402 328.865 17.8131 327.811 18.2908 326.756ZM27.5336 233.309C27.6962 234.557 27.8344 235.812 27.975 237.056C24.3821 235.018 20.5809 233.214 16.9928 231.097C15.1608 229.994 13.3556 228.816 11.7012 227.463C10.2736 226.314 8.94733 225.097 7.62106 223.879C4.45563 220.988 1.51945 217.941 -1.22183 214.727C-4.78387 210.531 -8.05001 206.078 -11.2997 201.589C-13.47 198.582 -15.6916 195.578 -17.8901 192.563C-20.1519 189.487 -22.4649 186.492 -24.6803 183.413C-25.1092 182.804 -25.5428 182.197 -25.973 181.583C-22.8336 184.669 -19.6317 187.696 -16.5308 190.813C-7.17336 200.155 2.00896 209.679 11.4253 218.969C15.9366 223.443 21.1121 227.363 25.8258 231.678C26.4045 232.206 26.9691 232.757 27.5336 233.309ZM25.8589 229.878C21.4344 225.844 16.6625 222.128 12.4621 217.92C5.07693 210.477 -2.26479 203.001 -9.51559 195.418C-12.1037 192.679 -14.7112 189.946 -17.2633 187.166C-20.3292 183.81 -23.2374 180.324 -26.2912 176.954C-25.1728 177.571 -24.0465 178.218 -22.9623 178.901C-20.673 180.35 -18.4437 181.925 -16.3758 183.558C-11.2744 187.493 -6.61756 191.772 -2.18987 196.283C2.26992 200.818 6.497 205.591 10.6757 210.534C12.5605 212.748 14.4377 215.011 16.3165 217.299C17.0228 218.302 17.7739 219.278 18.5418 220.239C19.6836 221.662 20.8361 223.067 22.0164 224.459C22.8234 225.566 23.6148 226.693 24.3988 227.811C24.9009 228.499 25.3762 229.184 25.8589 229.878ZM-19.8646 106.023C-19.9763 106.053 -20.0891 106.099 -20.1661 106.161C-20.1432 106.072 -20.0921 105.99 -19.992 105.916C-19.9257 105.873 -19.8983 105.975 -19.8646 106.023ZM-19.6241 105.735C-19.5907 105.762 -19.5842 105.786 -19.5777 105.811C-19.5725 105.83 -19.5929 105.851 -19.6159 105.862C-19.6826 105.886 -19.6496 105.814 -19.6241 105.735ZM90.8975 237.113C88.2335 238.639 85.6442 240.249 83.1571 241.989C78.6348 245.133 74.3862 248.657 70.3709 252.41C63.6825 258.666 57.7341 265.681 52.6576 273.385C48.8797 279.132 45.277 285.066 41.3651 290.76C39.6806 293.201 37.9487 295.582 36.157 297.896C35.2261 299.067 34.3476 300.24 33.4089 301.382C34.1749 299.692 34.8664 297.997 35.5514 296.277C41.5847 288.217 46.6564 279.29 52.828 271.397C54.7791 268.843 56.9113 266.246 59.105 263.606C62.2362 259.819 65.5511 255.998 69.0981 252.48C73.0946 248.482 77.3336 244.825 81.8131 241.969C83.428 240.901 85.0185 239.839 86.6955 238.905C87.8005 238.286 88.9149 237.722 90.0797 237.248C90.1694 237.214 90.497 237.173 90.8975 237.113ZM90.2631 238.574C90.0726 238.855 89.9028 239.134 89.7061 239.411C89.5857 239.584 89.4605 239.758 89.3366 239.937C89.2292 240.081 89.1231 240.229 89.0169 240.377C88.6449 240.893 88.268 241.411 87.8959 241.927C86.67 243.631 85.4697 245.333 84.3019 247.078C83.2962 248.592 82.319 250.135 81.3445 251.688C80.5284 253.016 79.7137 254.349 78.9284 255.695C77.9427 257.381 76.9864 259.08 76.0535 260.788C72.7849 266.706 69.6628 272.704 66.0517 278.432C65.1322 279.918 64.1611 281.387 63.1566 282.828C61.8337 284.713 60.4489 286.543 58.9404 288.28C56.6673 290.916 54.1489 293.335 51.4076 295.486C50.762 295.993 50.1186 296.488 49.4357 296.952C48.4452 297.629 47.417 298.243 46.3502 298.81C44.4129 299.861 42.4043 300.743 40.3595 301.567C38.4237 302.351 36.5006 303.085 34.5623 303.86L34.4071 303.922C35.6387 302.415 36.7468 300.816 37.909 299.244C40.2754 296.063 42.4836 292.758 44.6567 289.399C47.881 284.405 50.9549 279.316 54.1554 274.349C59.0595 266.701 64.8656 259.718 71.3846 253.471C75.3046 249.713 79.5251 246.259 83.8686 243.012C86.0056 241.423 88.1724 239.869 90.3857 238.39L90.2631 238.574ZM16.1184 82.7092C15.9333 84.837 15.7495 86.9695 15.6069 89.0807C15.1452 88.6211 14.699 88.1417 14.2706 87.6315C12.4464 85.4692 10.8943 82.9423 9.36875 80.9031C7.87322 79.0538 6.34827 77.2696 4.95158 75.4199C2.81422 72.6332 0.960279 69.7184 -0.726885 66.7069C-2.51151 63.4871 -4.02931 60.0969 -4.91409 56.2505C-5.27998 54.885 -5.58826 53.4624 -5.87449 52.0443C-6.13287 50.6135 -6.3705 49.1823 -6.52839 47.7767L-6.94663 42.2116L-6.9996 40.7309C-6.9411 40.8715 -6.87644 41.0157 -6.83607 41.1663C-6.24004 42.5743 -5.70683 44.02 -5.01586 45.413C-3.03407 49.5436 -0.486677 53.4913 1.54056 57.4221C5.26668 64.4082 8.78132 71.5187 13.1561 78.107C14.1457 79.6231 15.066 81.2307 16.1184 82.7092ZM16.8539 75.7933C16.7182 76.939 16.5899 78.0932 16.4656 79.2619C16.4574 79.4256 16.4297 79.5945 16.402 79.7633C15.9884 79.1137 15.5699 78.4655 15.1501 77.8123C13.7757 75.6962 12.4487 73.5621 11.1589 71.392C8.33042 66.5509 5.68298 61.5883 2.97139 56.6585C0.474546 52.1608 -2.75437 47.6717 -4.97096 42.8593C-5.35563 42.0457 -5.74646 41.2285 -6.02198 40.3753C-6.3974 39.1685 -6.60369 37.9321 -6.77111 36.6853C-6.73303 36.5553 -6.69234 36.435 -6.64288 36.328C-6.59317 36.1636 -6.59276 35.9708 -6.47188 35.9749C-6.32278 35.987 -6.46308 36.2798 -6.30574 36.42C-5.7694 36.9637 -5.1163 37.8461 -4.40255 38.7798C-3.6455 39.6031 -2.94998 40.4688 -2.28006 41.3362C-0.615367 43.4475 0.852078 45.6585 2.42098 47.8787L4.66031 50.8517C6.04008 52.6383 7.28813 54.5747 8.45913 56.5735C9.61104 58.5982 10.6784 60.6769 11.6236 62.7465C12.4886 64.6919 13.2742 66.6324 14.0608 68.5572C14.8361 70.5369 15.6 72.4938 16.3471 74.4655C16.5168 74.9044 16.6829 75.3495 16.8539 75.7933ZM63.7567 104.06C62.3492 107.01 60.8308 109.896 59.4836 112.877C59.1381 113.667 58.8186 114.477 58.4978 115.281C55.876 121.786 53.3713 128.28 49.8904 134.203C48.73 136.17 47.47 138.096 46.0235 139.89C44.613 141.643 42.9975 143.253 41.2649 144.795C37.4115 148.161 32.4013 150.3 27.9457 153.052C30.9758 146.886 34.016 140.659 37.6265 134.754C42.1388 127.394 47.2408 120.407 52.7698 113.926C53.9545 112.535 55.3063 111.204 56.6966 109.92C58.9491 107.869 61.3832 105.951 63.7567 104.06ZM29.6922 143.922C30.5791 141.945 31.524 140.009 32.5218 138.096C33.572 136.106 34.6531 134.134 35.819 132.207C38.174 128.342 40.8406 124.648 43.6489 121.114C45.5455 118.726 47.5014 116.384 49.5141 114.157C51.4346 112.033 53.4652 110.067 55.5743 108.2C57.7258 106.316 59.9342 104.547 62.2518 102.817C62.8272 102.418 63.4091 102.043 64.0244 101.696C64.5769 101.387 65.1311 101.103 65.7222 100.84C65.6992 100.852 65.7018 100.861 65.7044 100.871C65.5939 100.906 65.4812 100.952 65.376 101.006C62.8974 102.311 60.8395 104.466 58.6004 106.295C56.0593 108.377 53.6518 110.569 51.5996 112.921C45.9229 119.396 40.7827 126.435 36.039 133.747C33.8646 137.101 31.7223 140.477 29.6922 143.922ZM60.1265 202.164C59.9388 202.105 59.755 202.061 59.5764 202.036C59.6687 202.011 59.7624 201.991 59.8564 201.992L59.9076 201.989C59.9708 202.05 60.0571 202.1 60.1265 202.164ZM15.3876 10.8986C15.398 10.9375 15.4265 10.9663 15.4123 10.9909C15.4188 11.0152 15.3741 11.0428 15.356 11.0529C15.265 11.0825 15.2892 10.9979 15.3876 10.8986ZM54.9527 13.4328C56.2611 14.3895 57.2061 16.0113 57.6389 17.7235C57.3396 17.0537 56.9674 16.4034 56.5143 15.8009L55.0228 17.6016C53.9834 16.1717 52.1311 15.168 50.2754 15.6288C49.1998 15.891 48.6903 17.4494 48.4584 18.3917C48.38 18.7409 48.3299 19.0981 48.3504 19.4467C48.3475 19.7079 48.3883 19.9574 48.411 20.217C48.5733 21.0172 48.9317 21.791 49.4468 22.4499L49.3545 22.4746C49.312 22.4912 49.244 22.5094 49.1967 22.5273L49.0438 22.5787C48.747 21.8405 48.5322 21.0387 48.411 20.217C48.364 19.9639 48.3462 19.7031 48.3504 19.4467C48.2122 17.3952 48.6916 15.3552 49.9077 14.1596C51.1226 12.959 53.3846 13.2176 54.9037 13.4251C54.9293 13.4234 54.9501 13.4231 54.9527 13.4328ZM57.6389 17.7235C58.4327 19.5004 58.6233 21.4754 57.7737 23.4167C56.9354 25.3809 53.1228 26.5275 51.2197 25.3343C51.0754 25.2427 50.9223 25.1379 50.7935 25.0266C50.8819 24.9873 50.9703 24.9479 51.0588 24.9086C51.3898 24.7835 51.6446 24.5485 51.8056 24.2554C52.1849 24.3881 52.5551 24.4868 52.9512 24.5266C57.3847 24.9584 58.5374 21.1547 57.6389 17.7235ZM55.0228 17.6016C56.2314 19.2934 56.3103 21.59 53.8621 22.8137C50.6819 24.4158 50.3954 18.9925 52.2884 17.4072C52.7481 17.0236 53.2954 18.0748 53.7091 18.5109C53.7828 18.6109 53.863 18.7353 53.9701 18.8628L55.0228 17.6016ZM53.9701 18.8628C54.8158 20.0946 55.7078 22.7046 53.2628 22.2295C52.773 22.1316 52.0925 21.866 51.633 21.687L53.9701 18.8628Z" fill="#28221E"/>
</g>
<defs>
<filter id="filter0_d_1_1328" x="-129.753" y="0.164185" width="227.855" height="508.573" filterUnits="userSpaceOnUse" color-interpolation-filters="sRGB">
<feFlood flood-opacity="0" result="BackgroundImageFix"/>
<feColorMatrix in="SourceAlpha" type="matrix" values="0 0 0 0 0 0 0 0 0 0 0 0 0 0 0 0 0 0 127 0" result="hardAlpha"/>
<feOffset dy="4"/>
<feGaussianBlur stdDeviation="2"/>
<feComposite in2="hardAlpha" operator="out"/>
<feColorMatrix type="matrix" values="0 0 0 0 0 0 0 0 0 0 0 0 0 0 0 0 0 0 0.25 0"/>
<feBlend mode="normal" in2="BackgroundImageFix" result="effect1_dropShadow_1_1328"/>
<feBlend mode="normal" in="SourceGraphic" in2="effect1_dropShadow_1_1328" result="shape"/>
</filter>
</defs>
</svg>
