<?xml version="1.0" standalone="no"?>
<!DOCTYPE svg PUBLIC "-//W3C//DTD SVG 1.1//EN" "http://www.w3.org/Graphics/SVG/1.1/DTD/svg11.dtd" >
<svg xmlns="http://www.w3.org/2000/svg" xmlns:xlink="http://www.w3.org/1999/xlink" version="1.1">
<metadata>
Created by FontForge 20201107 at Fri Aug  2 21:54:23 2024
 By 
Copyright (c) 2023 by www.fontiran.com (Kamyab Jafari). All rights reserved.

</metadata>
<defs>
<font id="ShoorVAR-Thin" horiz-adv-x="0" vert-adv-y="1000" >
  <font-face 
    font-family="ShoorVAR Thin"
    font-weight="100"
    font-stretch="semi-condensed"
    units-per-em="1000"
    panose-1="0 0 0 0 0 0 0 0 0 0"
    ascent="800"
    descent="-200"
    x-height="400"
    cap-height="540"
    bbox="-135.818 -586.015 2094 1095"
    underline-thickness="173"
    underline-position="-185"
    unicode-range="U+0020-FDFC"
  />
<missing-glyph horiz-adv-x="585" vert-adv-y="1170" 
d="M480 -380h-371v1170h371v-1170zM195 -8v-132h195v132h-195zM351 -102h-117v55h117v-55zM273 194v-65h39v27h39v-55h-117v93h-39v-132h195v132h-117zM351 337v-77h-156v-40h195v117h-39zM195 407v-38h78v-43h-78v-39h117v82h78v38h-195zM273 479h-39v42h39v-42zM195 561
v-122h195v40h-78v82h-117zM197 712v-39h76v-43h-78v-39h195v39h-78v43h78v39h-193zM195 -167v-39h82l-82 -55v-38h195v38h-120l82 55h38v39h-195z" />
    <glyph glyph-name="hehHamzaabove-ar" unicode="&#x647;&#x654;" horiz-adv-x="393" vert-adv-y="1170" 
d="M126 15q-31 15 -47.5 42.5t-16.5 63.5q0 42 18 79.5t49 60t68 22.5t67.5 -22.5t48.5 -60t18 -79.5q0 -36 -16.5 -63.5t-47 -42.5t-70.5 -15t-71 15zM278.5 49.5q30.5 24.5 30.5 70.5q0 33 -15 65t-41 52.5t-56 20.5q-31 0 -57 -20.5t-41 -52.5t-15 -65q0 -46 31 -70.5
t82 -24.5t81.5 24.5zM56.5 378q-25.5 12 -39 32.5t-13.5 46.5q0 28 12.5 49t32.5 32t43 11q24 0 39 -8q4 -3 2 -7l-3 -9q-2 -5 -7 -3q-14 7 -31 7q-27 0 -48.5 -17.5t-21.5 -53.5q0 -31 25 -51.5t69 -20.5h247q4 0 4 -5v-11q0 -4 -4 -4h-246q-35 0 -60.5 12z" />
    <glyph glyph-name="rial_rial.rlig" unicode="&#xfdfc;&#xfdfc;" horiz-adv-x="771" vert-adv-y="1170" 
d="M69 -83q-3 -2 -3 3l4 6q0 2 1 3t2 0q22 -5 39 -5q52 0 83 28t40 77l3 -5h-66q-43 0 -64.5 20t-21.5 51q0 25 11 47.5t30 36.5t41 14q27 0 46.5 -17t29.5 -46t10 -62q0 -13 -3 -30v1h345q51 0 72 18.5t21 53.5q0 32 -18 75q-1 1 0 4l7 3q1 1 2 0t1 -2q8 -19 13.5 -40
t5.5 -40q0 -42 -24 -64.5t-80 -22.5h-347q-10 -53 -45 -83.5t-92 -30.5q-24 0 -43 7zM240 67q0 37 -15 73.5t-57 36.5q-32 0 -50.5 -25.5t-18.5 -56.5q0 -56 72 -56h32.5t33.5 -1h10l-10 -9q3 15 3 38zM120 252q-29 15 -43.5 41t-14.5 60q0 18 4.5 38.5t13.5 39.5q0 1 1.5 2
t2.5 0l6 -3q1 -1 1 -1.5v-1.5q-9 -20 -13.5 -37.5t-4.5 -34.5q0 -46 30.5 -75t87.5 -29q60 0 89 30.5t29 80.5q0 25 -6 51t-15 46q-2 2 1 3l8 4q1 1 1.5 0.5l1.5 -1.5q12 -26 17.5 -51.5t5.5 -48.5q0 -35 -13 -64t-42.5 -46.5t-77.5 -17.5q-41 0 -70 15zM176.5 365
q-0.5 0 -0.5 1v29l0.5 0.5l0.5 0.5h32q1 0 1 -0.5t1 -0.5v-29q0 -2 -2 -2h-32q0 1 -0.5 1zM320 151v13q0 1 1 1h265q1 0 1 -1v-13q0 -2 -1 -2h-265q-1 0 -1 2zM574.5 250.5q-21.5 16.5 -26.5 44.5q-16 -33 -42.5 -45.5t-53.5 -12.5q-35 0 -62.5 24.5t-27.5 75.5v169
q0 1 0.5 1.5t1.5 0.5h8q3 0 3 -2v-166q0 -48 23.5 -68.5t53.5 -20.5q36 0 58.5 19t41.5 63q9 20 12 25q28 44 66 44q21 0 39.5 -13.5t29 -36t10.5 -46.5q0 -32 -21.5 -52t-57.5 -20q-34 0 -55.5 16.5zM678.5 263q18.5 15 18.5 43q0 30 -20 55.5t-47 25.5q-28 0 -48.5 -25.5
t-20.5 -55.5q0 -28 19 -43t50 -15q30 0 48.5 15z" />
    <glyph glyph-name="alefMadda-ar.fina" unicode="&#x622;" horiz-adv-x="212" vert-adv-y="1170" arabic-form="final" 
d="M141 17q-34 17 -56.5 54.5t-22.5 96.5v298q0 2 1 3t3 1h14q2 0 3 -1t1 -3v-292q0 -79 39.5 -114t88.5 -35q6 0 10.5 -4t4.5 -9t-4.5 -8.5t-10.5 -3.5q-37 0 -71 17zM85 556l-30 14q-32 15 -52 13.5t-35 -34.5q-1 -2 -2.5 -3t-3.5 0l-14 8q-1 1 -1.5 2.5t0.5 3.5
q11 27 27.5 38.5t36.5 11.5q24 0 54 -14l30 -14q33 -15 53 -13.5t35 34.5q1 2 2.5 3t3.5 0l13 -8q2 -1 2.5 -3t-0.5 -3q-11 -27 -27.5 -38.5t-37.5 -11.5q-22 0 -54 14z" />
    <glyph glyph-name="alefHamzaabove-ar.fina" unicode="&#x623;" horiz-adv-x="212" vert-adv-y="1170" arabic-form="final" 
d="M141 17q-34 17 -56.5 54.5t-22.5 96.5v298q0 2 1 3t3 1h14q2 0 3 -1t1 -3v-292q0 -79 39.5 -114t88.5 -35q6 0 10.5 -4t4.5 -9t-4.5 -8.5t-10.5 -3.5q-37 0 -71 17zM-14 522l-4 11q-1 2 0.5 3.5t3.5 2.5l119 44l1 -16q-7 -1 -19 -1q-44 -1 -67 22t-23 56q-1 34 19.5 55
t54.5 22q14 0 32 -5q2 0 3.5 -1.5t0.5 -3.5l-1 -12q-1 -5 -5 -3q-27 3 -30 3q-26 0 -41.5 -16.5t-15.5 -38.5q0 -26 22 -41t52 -15q15 0 30 3t32 9l7 3q6 2 7 -3l4 -11q1 -1 -0.5 -3t-3.5 -3l-171 -64q-5 -2 -7 3z" />
    <glyph glyph-name="wawHamzaabove-ar.fina" unicode="&#x624;" horiz-adv-x="428" vert-adv-y="1170" arabic-form="final" 
d="M64 -182q-2 -1 -3.5 1.5t-0.5 4.5l5 12q1 2 2.5 3.5t3.5 0.5q35 -8 66 -8q84 0 136 44t69 123q-35 1 -105 1q-48 0 -80.5 15.5t-48 42t-15.5 61.5q0 42 18 79t50 60t71 23q46 0 77.5 -28.5t47.5 -75.5t16 -103q0 -79 -26.5 -138.5t-80 -93t-130.5 -33.5q-43 0 -72 9z
M350 71q0 63 -24.5 124t-93.5 61q-37 0 -63.5 -20.5t-40 -52.5t-13.5 -65q0 -46 30.5 -69.5t90.5 -23.5q42 0 62 -0.5t61 -0.5l-13 -12q4 25 4 59zM363 25h65q6 0 10.5 -4t4.5 -9t-4.5 -8.5t-10.5 -3.5h-70zM145 334l-4 11q-1 2 0.5 3.5t3.5 2.5l119 44l1 -16q-7 -1 -19 -1
q-44 -1 -67 22t-23 56q-1 34 19.5 55t54.5 22q14 0 32 -5q2 0 3.5 -1.5t0.5 -3.5l-1 -12q-1 -5 -5 -3q-27 3 -30 3q-26 0 -41.5 -16.5t-15.5 -38.5q0 -26 22 -41t52 -15q15 0 30 3t32 9l7 3q6 2 7 -3l4 -11q1 -1 -0.5 -3t-3.5 -3l-171 -64q-5 -2 -7 3z" />
    <glyph glyph-name="alefHamzabelow-ar.fina" unicode="&#x625;" horiz-adv-x="212" vert-adv-y="1170" arabic-form="final" 
d="M141 17q-34 17 -56.5 54.5t-22.5 96.5v356q0 4 4 4h13q5 0 5 -4v-350q0 -79 39.5 -114t88.5 -35q6 0 10.5 -4t4.5 -9t-4.5 -8.5t-10.5 -3.5q-37 0 -71 17zM1 -250l-4 11q-1 2 0.5 3.5t3.5 2.5l119 44l1 -16q-7 -1 -19 -1q-44 -1 -67 22t-23 56q-1 34 19.5 55t54.5 22
q14 0 32 -5q2 0 3.5 -1.5t0.5 -3.5l-1 -12q-1 -5 -5 -3q-27 3 -30 3q-26 0 -41.5 -16.5t-15.5 -38.5q0 -26 22 -41t52 -15q15 0 30 3t32 9l7 3q6 2 7 -3l4 -11q1 -1 -0.5 -3t-3.5 -3l-171 -64q-5 -2 -7 3z" />
    <glyph glyph-name="yehHamzaabove-ar.init" unicode="&#x626;" horiz-adv-x="247" vert-adv-y="1170" arabic-form="initial" 
d="M-11.5 3.5q-3.5 3.5 -3.5 8.5q0 6 3.5 9.5t11.5 3.5q7 0 10 -1q85 0 119.5 31t34.5 91q0 26 -6 53.5t-17 56.5l-6 15q-1 3 1 5l11 6q1 1 3 0t3 -3q14 -33 23 -67.5t9 -65.5q0 -71 -41 -109t-136 -37h-8q-8 0 -11.5 3.5zM42 337l-4 11q-1 2 0.5 3.5t3.5 2.5l119 44l1 -16
q-7 -1 -19 -1q-44 -1 -67 22t-23 56q-1 34 19.5 55t54.5 22q14 0 32 -5q2 0 3.5 -1.5t0.5 -3.5l-1 -12q-1 -5 -5 -3q-27 3 -30 3q-26 0 -41.5 -16.5t-15.5 -38.5q0 -26 22 -41t52 -15q15 0 30 3t32 9l7 3q6 2 7 -3l4 -11q1 -1 -0.5 -3t-3.5 -3l-171 -64q-5 -2 -7 3z" />
    <glyph glyph-name="yehHamzaabove-ar.medi" unicode="&#x626;" horiz-adv-x="319" vert-adv-y="1170" arabic-form="medial" 
d="M-10.5 3.5q-4.5 3.5 -4.5 8.5t4.5 9t10.5 4q49 0 82.5 15t49.5 47q17 32 17 73v55q0 2 1 3t3 1h13q2 0 3 -1t1 -3v-55q0 -43 16 -73q17 -32 50.5 -47t82.5 -15q6 0 10.5 -4t4.5 -9t-4.5 -8.5t-10.5 -3.5q-62 0 -102 22t-58 66q-18 -44 -57.5 -66t-101.5 -22
q-6 0 -10.5 3.5zM71 272l-4 11q-1 2 0.5 3.5t3.5 2.5l119 44l1 -16q-7 -1 -19 -1q-44 -1 -67 22t-23 56q-1 34 19.5 55t54.5 22q14 0 32 -5q2 0 3.5 -1.5t0.5 -3.5l-1 -12q-1 -5 -5 -3q-27 3 -30 3q-26 0 -41.5 -16.5t-15.5 -38.5q0 -26 22 -41t52 -15q15 0 30 3t32 9l7 3
q6 2 7 -3l4 -11q1 -1 -0.5 -3t-3.5 -3l-171 -64q-5 -2 -7 3z" />
    <glyph glyph-name="yehHamzaabove-ar.fina" unicode="&#x626;" horiz-adv-x="499" vert-adv-y="1170" arabic-form="final" 
d="M160.5 -201q-49.5 22 -74 61t-24.5 89q0 29 9.5 62.5t27.5 68.5q3 5 7 2l7 -4q4 -1 2 -6q-33 -68 -33 -121q0 -68 52 -108.5t152 -40.5q55 0 103.5 13t77 35.5t28.5 49.5q0 34 -29 55.5t-65.5 32t-99.5 24.5q-3 1 -4.5 2.5t-0.5 3.5l6 22q0 3 5 5q44 -10 90 -15t102 -5
q5 0 10 -4t5 -9q0 -4 -5 -8t-10 -4h-74l-12 13q104 -38 104 -110q0 -35 -30.5 -64t-84 -45.5t-120.5 -16.5q-72 0 -121.5 22zM24 136l-4 11q-1 2 0.5 3.5t3.5 2.5l119 44l1 -16q-7 -1 -19 -1q-44 -1 -67 22t-23 56q-1 34 19.5 55t54.5 22q14 0 32 -5q2 0 3.5 -1.5t0.5 -3.5
l-1 -12q-1 -5 -5 -3q-27 3 -30 3q-26 0 -41.5 -16.5t-15.5 -38.5q0 -26 22 -41t52 -15q15 0 30 3t32 9l7 3q6 2 7 -3l4 -11q1 -1 -0.5 -3t-3.5 -3l-171 -64q-5 -2 -7 3z" />
    <glyph glyph-name="alef-ar.fina" unicode="&#x627;" horiz-adv-x="212" vert-adv-y="1170" arabic-form="final" 
d="M141 17q-34 17 -56.5 54.5t-22.5 96.5v356q0 4 4 4h13q5 0 5 -4v-350q0 -79 39.5 -114t88.5 -35q6 0 10.5 -4t4.5 -9t-4.5 -8.5t-10.5 -3.5q-37 0 -71 17z" />
    <glyph glyph-name="beh-ar.init" unicode="&#x628;" horiz-adv-x="247" vert-adv-y="1170" arabic-form="initial" 
d="M-11.5 3.5q-3.5 3.5 -3.5 8.5q0 6 3.5 9.5t11.5 3.5q7 0 10 -1q85 0 119.5 31t34.5 91q0 26 -6 53.5t-17 56.5l-6 15q-1 3 1 5l11 6q1 1 3 0t3 -3q14 -33 23 -67.5t9 -65.5q0 -71 -41 -109t-136 -37h-8q-8 0 -11.5 3.5zM49.5 -154.5q-0.5 1.5 0.5 3.5l21 38q1 3 5 2
l39 -21q1 -1 1.5 -2.5t-0.5 -2.5l-20 -39q-1 -2 -3 -2t-5 1l-36 21q-2 0 -2.5 1.5z" />
    <glyph glyph-name="beh-ar.medi" unicode="&#x628;" horiz-adv-x="319" vert-adv-y="1170" arabic-form="medial" 
d="M-10.5 3.5q-4.5 3.5 -4.5 8.5t4.5 9t10.5 4q49 0 82.5 15t49.5 47q17 32 17 73v55q0 2 1 3t3 1h13q2 0 3 -1t1 -3v-55q0 -43 16 -73q17 -32 50.5 -47t82.5 -15q6 0 10.5 -4t4.5 -9t-4.5 -8.5t-10.5 -3.5q-62 0 -102 22t-58 66q-18 -44 -57.5 -66t-101.5 -22
q-6 0 -10.5 3.5zM123.5 -154.5q-0.5 1.5 0.5 3.5l21 38q1 3 5 2l39 -21q1 -1 1.5 -2.5t-0.5 -2.5l-20 -39q-1 -2 -3 -2t-5 1l-36 21q-2 0 -2.5 1.5z" />
    <glyph glyph-name="beh-ar.fina" unicode="&#x628;" horiz-adv-x="724" vert-adv-y="1170" arabic-form="final" 
d="M169 5.5q-51 16.5 -79 54t-28 97.5q0 17 4 41t13 46q1 2 2.5 3t3.5 0l11 -4q3 -1 3 -6q-8 -19 -12 -40.5t-4 -37.5q0 -77 51.5 -111t157.5 -34q108 0 174.5 35t83.5 111q4 19 4 55q0 2 1 3t3 1h14q2 0 3 -1t1 -3v-55q0 -69 38.5 -102t109.5 -33q6 0 10.5 -4t4.5 -9
t-4.5 -8.5t-10.5 -3.5q-72 0 -113 28.5t-55 87.5l12 34q-14 -60 -54.5 -96t-97 -50.5t-124.5 -14.5q-72 0 -123 16.5zM256.5 -165.5q-0.5 1.5 0.5 3.5l21 38q1 3 5 2l39 -21q1 -1 1.5 -2.5t-0.5 -2.5l-20 -39q-1 -2 -3 -2t-5 1l-36 21q-2 0 -2.5 1.5z" />
    <glyph glyph-name="tehMarbuta-ar.fina" unicode="&#x629;" horiz-adv-x="468" vert-adv-y="1170" arabic-form="final" 
d="M380.5 16.5q-34.5 16.5 -55.5 46.5q-59 -31 -136 -31q-35 0 -64 11t-46 33t-17 55q0 46 32 87.5t85.5 66.5t113.5 25v44q0 2 1 3t3 1h12q2 0 3 -1t1 -3v-173q0 -71 38.5 -113.5t116.5 -42.5q6 0 10.5 -4t4.5 -9t-4.5 -8.5t-10.5 -3.5q-53 0 -87.5 16.5zM312 85
q-15 32 -19 79v14v107q-61 0 -109 -23.5t-74 -59.5t-26 -72q0 -34 29 -54t78 -20q71 0 121 29zM297 471q0 2 1 4l18 31q1 1 2.5 1t2.5 -1l32 -18q2 0 3 -2t-1 -4l-17 -31q-1 -3 -2.5 -3t-3.5 1l-1 1l-32 18q-2 1 -2 3zM179 471q0 2 1 4l18 31q1 1 2 1t3 -1l32 -18q2 0 3 -2
t-1 -4l-17 -31q-2 -3 -6 -2h-0.5h-0.5l-32 19q-2 1 -2 3z" />
    <glyph glyph-name="teh-ar.init" unicode="&#x62a;" horiz-adv-x="247" vert-adv-y="1170" arabic-form="initial" 
d="M-11.5 3.5q-3.5 3.5 -3.5 8.5q0 6 3.5 9.5t11.5 3.5q7 0 10 -1q85 0 119.5 31t34.5 91q0 26 -6 53.5t-17 56.5l-6 15q-1 3 1 5l11 6q1 1 3 0t3 -3q14 -33 23 -67.5t9 -65.5q0 -71 -41 -109t-136 -37h-8q-8 0 -11.5 3.5zM158 398q0 2 1 4l18 31q1 1 2.5 1t2.5 -1l32 -18
q2 0 3 -2t-1 -4l-17 -31q-1 -3 -2.5 -3t-3.5 1l-1 1l-32 18q-2 1 -2 3zM40 398q0 2 1 4l18 31q1 1 2 1t3 -1l32 -18q2 0 3 -2t-1 -4l-17 -31q-2 -3 -6 -2h-0.5h-0.5l-32 19q-2 1 -2 3z" />
    <glyph glyph-name="teh-ar.medi" unicode="&#x62a;" horiz-adv-x="319" vert-adv-y="1170" arabic-form="medial" 
d="M-10.5 3.5q-4.5 3.5 -4.5 8.5t4.5 9t10.5 4q49 0 82.5 15t49.5 47q17 32 17 73v55q0 2 1 3t3 1h13q2 0 3 -1t1 -3v-55q0 -43 16 -73q17 -32 50.5 -47t82.5 -15q6 0 10.5 -4t4.5 -9t-4.5 -8.5t-10.5 -3.5q-62 0 -102 22t-58 66q-18 -44 -57.5 -66t-101.5 -22
q-6 0 -10.5 3.5zM187 333q0 2 1 4l18 31q1 1 2.5 1t2.5 -1l32 -18q2 0 3 -2t-1 -4l-17 -31q-1 -3 -2.5 -3t-3.5 1l-1 1l-32 18q-2 1 -2 3zM69 333q0 2 1 4l18 31q1 1 2 1t3 -1l32 -18q2 0 3 -2t-1 -4l-17 -31q-2 -3 -6 -2h-0.5h-0.5l-32 19q-2 1 -2 3z" />
    <glyph glyph-name="teh-ar.fina" unicode="&#x62a;" horiz-adv-x="724" vert-adv-y="1170" arabic-form="final" 
d="M169 5.5q-51 16.5 -79 54t-28 97.5q0 17 4 41t13 46q1 2 2.5 3t3.5 0l11 -4q3 -1 3 -6q-8 -19 -12 -40.5t-4 -37.5q0 -77 51.5 -111t157.5 -34q108 0 174.5 35t83.5 111q4 19 4 55q0 2 1 3t3 1h14q2 0 3 -1t1 -3v-55q0 -69 38.5 -102t109.5 -33q6 0 10.5 -4t4.5 -9
t-4.5 -8.5t-10.5 -3.5q-72 0 -113 28.5t-55 87.5l12 34q-14 -60 -54.5 -96t-97 -50.5t-124.5 -14.5q-72 0 -123 16.5zM340 312q0 2 1 4l18 31q1 1 2.5 1t2.5 -1l32 -18q2 0 3 -2t-1 -4l-17 -31q-1 -3 -2.5 -3t-3.5 1l-1 1l-32 18q-2 1 -2 3zM222 312q0 2 1 4l18 31q1 1 2 1
t3 -1l32 -18q2 0 3 -2t-1 -4l-17 -31q-2 -3 -6 -2h-0.5h-0.5l-32 19q-2 1 -2 3z" />
    <glyph glyph-name="theh-ar.init" unicode="&#x62b;" horiz-adv-x="247" vert-adv-y="1170" arabic-form="initial" 
d="M-11.5 3.5q-3.5 3.5 -3.5 8.5q0 6 3.5 9.5t11.5 3.5q7 0 10 -1q85 0 119.5 31t34.5 91q0 26 -6 53.5t-17 56.5l-6 15q-1 3 1 5l11 6q1 1 3 0t3 -3q14 -33 23 -67.5t9 -65.5q0 -71 -41 -109t-136 -37h-8q-8 0 -11.5 3.5zM99 413.5q1 -1.5 -1 -3.5l-17 -31q-1 -3 -3 -3
t-4 1l-32 19q-2 1 -2 3t1 3l18 31q1 2 2.5 2t2.5 -1l32 -18q2 -1 3 -2.5zM152.5 501.5q0.5 -2.5 -0.5 -4.5l-17 -31q-1 -3 -3 -3t-5 1l-32 19q-2 1 -2 3t1 4l19 31q0 1 1.5 1t3.5 -1l32 -16q2 -1 2.5 -3.5zM217 413q0 -2 -1 -3l-17 -31q-1 -3 -2.5 -3t-4.5 1l-32 19
q-2 1 -2 3t1 3l18 31q1 2 2.5 2t3.5 -1l32 -18q2 -1 2 -3z" />
    <glyph glyph-name="theh-ar.medi" unicode="&#x62b;" horiz-adv-x="319" vert-adv-y="1170" arabic-form="medial" 
d="M-10.5 3.5q-4.5 3.5 -4.5 8.5t4.5 9t10.5 4q49 0 82.5 15t49.5 47q17 32 17 73v55q0 2 1 3t3 1h13q2 0 3 -1t1 -3v-55q0 -43 16 -73q17 -32 50.5 -47t82.5 -15q6 0 10.5 -4t4.5 -9t-4.5 -8.5t-10.5 -3.5q-62 0 -102 22t-58 66q-18 -44 -57.5 -66t-101.5 -22
q-6 0 -10.5 3.5zM128 348.5q1 -1.5 -1 -3.5l-17 -31q-1 -3 -3 -3t-4 1l-32 19q-2 1 -2 3t1 3l18 31q1 2 2.5 2t2.5 -1l32 -18q2 -1 3 -2.5zM181.5 436.5q0.5 -2.5 -0.5 -4.5l-17 -31q-1 -3 -3 -3t-5 1l-32 19q-2 1 -2 3t1 4l19 31q0 1 1.5 1t3.5 -1l32 -16q2 -1 2.5 -3.5z
M246 348q0 -2 -1 -3l-17 -31q-1 -3 -2.5 -3t-4.5 1l-32 19q-2 1 -2 3t1 3l18 31q1 2 2.5 2t3.5 -1l32 -18q2 -1 2 -3z" />
    <glyph glyph-name="theh-ar.fina" unicode="&#x62b;" horiz-adv-x="724" vert-adv-y="1170" arabic-form="final" 
d="M169 5.5q-51 16.5 -79 54t-28 97.5q0 17 4 41t13 46q1 2 2.5 3t3.5 0l11 -4q3 -1 3 -6q-8 -19 -12 -40.5t-4 -37.5q0 -77 51.5 -111t157.5 -34q108 0 174.5 35t83.5 111q4 19 4 55q0 2 1 3t3 1h14q2 0 3 -1t1 -3v-55q0 -69 38.5 -102t109.5 -33q6 0 10.5 -4t4.5 -9
t-4.5 -8.5t-10.5 -3.5q-72 0 -113 28.5t-55 87.5l12 34q-14 -60 -54.5 -96t-97 -50.5t-124.5 -14.5q-72 0 -123 16.5zM281 327.5q1 -1.5 -1 -3.5l-17 -31q-1 -3 -3 -3t-4 1l-32 19q-2 1 -2 3t1 3l18 31q1 2 2.5 2t2.5 -1l32 -18q2 -1 3 -2.5zM334.5 415.5
q0.5 -2.5 -0.5 -4.5l-17 -31q-1 -3 -3 -3t-5 1l-32 19q-2 1 -2 3t1 4l19 31q0 1 1.5 1t3.5 -1l32 -16q2 -1 2.5 -3.5zM399 327q0 -2 -1 -3l-17 -31q-1 -3 -2.5 -3t-4.5 1l-32 19q-2 1 -2 3t1 3l18 31q1 2 2.5 2t3.5 -1l32 -18q2 -1 2 -3z" />
    <glyph glyph-name="jeem-ar.init" unicode="&#x62c;" horiz-adv-x="483" vert-adv-y="1170" arabic-form="initial" 
d="M-10.5 3.5q-4.5 3.5 -4.5 8.5t4.5 9t10.5 4q54 0 116 25q25 11 49.5 23t48.5 25q42 22 71 36q22 10 46.5 20t47.5 16q-13 7 -25 15l-7 5l-87 56l-13 8q-28 18 -48.5 27.5t-44.5 9.5q-32 1 -53.5 -19.5t-27.5 -51.5q-2 -18 1 -31q1 -2 -0.5 -3.5t-3.5 -2.5l-10 -2
q-3 -1 -5 4q-4 17 -1 37q3 26 17 47.5t36.5 34t48.5 12.5q27 0 53 -12.5t61 -35.5l40 -27q30 -17 52 -33q17 -11 30 -18.5t26 -10.5q3 -1 3 -6l-1 -17q0 -4 -4 -4q-5 -1 -45 -11q-40 -11 -76.5 -28t-87.5 -43q-71 -36 -114.5 -53t-91.5 -17h-1q-6 0 -10.5 3.5zM224.5 -121.5
q-0.5 1.5 0.5 3.5l21 38q1 3 5 2l39 -21q1 -1 1.5 -2.5t-0.5 -2.5l-20 -39q-1 -2 -3 -2t-5 1l-36 21q-2 0 -2.5 1.5z" />
    <glyph glyph-name="jeem-ar.medi" unicode="&#x62c;" horiz-adv-x="516" vert-adv-y="1170" arabic-form="medial" 
d="M-10.5 3.5q-4.5 3.5 -4.5 8.5t4.5 9t10.5 4q54 0 116 25q25 11 49.5 23t48.5 25q42 22 71 36q22 10 46.5 20t47.5 16q-13 7 -25 15l-7 5l-87 56l-13 8q-28 18 -48.5 27.5t-44.5 9.5q-32 1 -53.5 -19.5t-27.5 -51.5q-2 -18 1 -31q1 -2 -0.5 -3.5t-3.5 -2.5l-10 -2
q-3 -1 -5 4q-4 17 -1 37q3 26 17 47.5t36.5 34t48.5 12.5q27 0 53 -12.5t61 -35.5l40 -27q30 -17 52 -33q17 -11 30 -18.5t26 -10.5q3 -1 3 -6l-1 -17q0 -4 -4 -4q-5 -1 -45 -11q-40 -11 -76.5 -28t-87.5 -43q-71 -36 -114.5 -53t-91.5 -17h-1q-6 0 -10.5 3.5zM435.5 15
q-35.5 15 -57 45.5t-25.5 75.5l18 7q4 -40 22.5 -66t49.5 -39t73 -13q6 0 10.5 -4t4.5 -9t-4.5 -8.5t-10.5 -3.5q-45 0 -80.5 15zM224.5 -122.5q-0.5 1.5 0.5 3.5l21 38q1 3 5 2l39 -21q1 -1 1.5 -2.5t-0.5 -2.5l-20 -39q-1 -2 -3 -2t-5 1l-36 21q-2 0 -2.5 1.5z" />
    <glyph glyph-name="jeem-ar.fina" unicode="&#x62c;" horiz-adv-x="562" vert-adv-y="1170" arabic-form="final" 
d="M168.5 -186q-48.5 18 -77 53t-29.5 85q-1 81 55 133t135.5 79t178.5 45q-30 12 -77 38l-74 40q-24 14 -50 23.5t-48 10.5q-34 0 -55 -20t-27 -51q-3 -20 0 -40q0 -4 -4 -5l-13 -1q-4 -1 -6 3q-3 25 2 51q4 25 19 45t37.5 30.5t50.5 10.5q25 0 48.5 -8.5t53.5 -25.5
l58 -31l34 -18q36 -19 50 -24t30 -8q3 0 4 -4v-1v-32q0 -2 -1 -3t-3 -2q-13 -2 -27 -4q-3 0 -7 -1q-142 -26 -242 -77t-100 -153q0 -64 54 -97.5t138 -33.5q51 0 96.5 9.5t85.5 28.5q2 0 3.5 -0.5t2.5 -2.5l6 -11q1 -2 0.5 -4t-2.5 -2q-47 -22 -93 -32.5t-98 -10.5
q-60 0 -108.5 18zM471 19.5q-38 19.5 -57 59t-16 97.5l22 5q-4 -52 11.5 -87t48.5 -52t82 -17q6 0 10.5 -4t4.5 -9t-4.5 -8.5t-10.5 -3.5q-53 0 -91 19.5zM235.5 -26.5q-0.5 1.5 0.5 3.5l21 38q1 3 5 2l40 -21q3 -1 1 -5l-21 -39q-1 -2 -3 -2t-5 1l-36 21q-2 0 -2.5 1.5z
" />
    <glyph glyph-name="hah-ar.init" unicode="&#x62d;" horiz-adv-x="483" vert-adv-y="1170" arabic-form="initial" 
d="M-10.5 3.5q-4.5 3.5 -4.5 8.5t4.5 9t10.5 4q54 0 116 25q25 11 49.5 23t48.5 25q42 22 71 36q22 10 46.5 20t47.5 16q-13 7 -25 15l-7 5l-87 56l-13 8q-28 18 -48.5 27.5t-44.5 9.5q-32 1 -53.5 -19.5t-27.5 -51.5q-2 -18 1 -31q1 -2 -0.5 -3.5t-3.5 -2.5l-10 -2
q-3 -1 -5 4q-4 17 -1 37q3 26 17 47.5t36.5 34t48.5 12.5q27 0 53 -12.5t61 -35.5l40 -27q30 -17 52 -33q17 -11 30 -18.5t26 -10.5q3 -1 3 -6l-1 -17q0 -4 -4 -4q-5 -1 -45 -11q-40 -11 -76.5 -28t-87.5 -43q-71 -36 -114.5 -53t-91.5 -17h-1q-6 0 -10.5 3.5z" />
    <glyph glyph-name="hah-ar.medi" unicode="&#x62d;" horiz-adv-x="516" vert-adv-y="1170" arabic-form="medial" 
d="M-10.5 3.5q-4.5 3.5 -4.5 8.5t4.5 9t10.5 4q54 0 116 25q25 11 49.5 23t48.5 25q42 22 71 36q22 10 46.5 20t47.5 16q-13 7 -25 15l-7 5l-87 56l-13 8q-28 18 -48.5 27.5t-44.5 9.5q-32 1 -53.5 -19.5t-27.5 -51.5q-2 -18 1 -31q1 -2 -0.5 -3.5t-3.5 -2.5l-10 -2
q-3 -1 -5 4q-4 17 -1 37q3 26 17 47.5t36.5 34t48.5 12.5q27 0 53 -12.5t61 -35.5l40 -27q30 -17 52 -33q17 -11 30 -18.5t26 -10.5q3 -1 3 -6l-1 -17q0 -4 -4 -4q-5 -1 -45 -11q-40 -11 -76.5 -28t-87.5 -43q-71 -36 -114.5 -53t-91.5 -17h-1q-6 0 -10.5 3.5zM435.5 15
q-35.5 15 -57 45.5t-25.5 75.5l18 7q4 -40 22.5 -66t49.5 -39t73 -13q6 0 10.5 -4t4.5 -9t-4.5 -8.5t-10.5 -3.5q-45 0 -80.5 15z" />
    <glyph glyph-name="hah-ar.fina" unicode="&#x62d;" horiz-adv-x="562" vert-adv-y="1170" arabic-form="final" 
d="M168.5 -186q-48.5 18 -77 53t-29.5 85q-1 81 55 133t135.5 79t178.5 45q-30 12 -77 38l-74 40q-24 14 -50 23.5t-48 10.5q-34 0 -55 -20t-27 -51q-3 -20 0 -40q0 -4 -4 -5l-13 -1q-4 -1 -6 3q-3 25 2 51q4 25 19 45t37.5 30.5t50.5 10.5q25 0 48.5 -8.5t53.5 -25.5
l58 -31l34 -18q36 -19 50 -24t30 -8q3 0 4 -4v-1v-32q0 -2 -1 -3t-3 -2q-13 -2 -27 -4q-3 0 -7 -1q-142 -26 -242 -77t-100 -153q0 -64 54 -97.5t138 -33.5q51 0 96.5 9.5t85.5 28.5q2 0 3.5 -0.5t2.5 -2.5l6 -11q1 -2 0.5 -4t-2.5 -2q-47 -22 -93 -32.5t-98 -10.5
q-60 0 -108.5 18zM471 19.5q-38 19.5 -57 59t-16 97.5l22 5q-4 -52 11.5 -87t48.5 -52t82 -17q6 0 10.5 -4t4.5 -9t-4.5 -8.5t-10.5 -3.5q-53 0 -91 19.5z" />
    <glyph glyph-name="khah-ar.init" unicode="&#x62e;" horiz-adv-x="483" vert-adv-y="1170" arabic-form="initial" 
d="M-10.5 3.5q-4.5 3.5 -4.5 8.5t4.5 9t10.5 4q54 0 116 25q25 11 49.5 23t48.5 25q42 22 71 36q22 10 46.5 20t47.5 16q-13 7 -25 15l-7 5l-87 56l-13 8q-28 18 -48.5 27.5t-44.5 9.5q-32 1 -53.5 -19.5t-27.5 -51.5q-2 -18 1 -31q1 -2 -0.5 -3.5t-3.5 -2.5l-10 -2
q-3 -1 -5 4q-4 17 -1 37q3 26 17 47.5t36.5 34t48.5 12.5q27 0 53 -12.5t61 -35.5l40 -27q30 -17 52 -33q17 -11 30 -18.5t26 -10.5q3 -1 3 -6l-1 -17q0 -4 -4 -4q-5 -1 -45 -11q-40 -11 -76.5 -28t-87.5 -43q-71 -36 -114.5 -53t-91.5 -17h-1q-6 0 -10.5 3.5zM119.5 431.5
q-0.5 1.5 0.5 3.5l21 38q1 3 5 2l39 -21q1 -1 1.5 -2.5t-0.5 -2.5l-20 -39q-1 -2 -3 -2t-5 1l-36 21q-2 0 -2.5 1.5z" />
    <glyph glyph-name="khah-ar.medi" unicode="&#x62e;" horiz-adv-x="516" vert-adv-y="1170" arabic-form="medial" 
d="M-10.5 3.5q-4.5 3.5 -4.5 8.5t4.5 9t10.5 4q54 0 116 25q25 11 49.5 23t48.5 25q42 22 71 36q22 10 46.5 20t47.5 16q-13 7 -25 15l-7 5l-87 56l-13 8q-28 18 -48.5 27.5t-44.5 9.5q-32 1 -53.5 -19.5t-27.5 -51.5q-2 -18 1 -31q1 -2 -0.5 -3.5t-3.5 -2.5l-10 -2
q-3 -1 -5 4q-4 17 -1 37q3 26 17 47.5t36.5 34t48.5 12.5q27 0 53 -12.5t61 -35.5l40 -27q30 -17 52 -33q17 -11 30 -18.5t26 -10.5q3 -1 3 -6l-1 -17q0 -4 -4 -4q-5 -1 -45 -11q-40 -11 -76.5 -28t-87.5 -43q-71 -36 -114.5 -53t-91.5 -17h-1q-6 0 -10.5 3.5zM435.5 15
q-35.5 15 -57 45.5t-25.5 75.5l18 7q4 -40 22.5 -66t49.5 -39t73 -13q6 0 10.5 -4t4.5 -9t-4.5 -8.5t-10.5 -3.5q-45 0 -80.5 15zM119.5 431.5q-0.5 1.5 0.5 3.5l21 38q1 3 5 2l39 -21q1 -1 1.5 -2.5t-0.5 -2.5l-20 -39q-1 -2 -3 -2t-5 1l-36 21q-2 0 -2.5 1.5z" />
    <glyph glyph-name="khah-ar.fina" unicode="&#x62e;" horiz-adv-x="562" vert-adv-y="1170" arabic-form="final" 
d="M168.5 -186q-48.5 18 -77 53t-29.5 85q-1 81 55 133t135.5 79t178.5 45q-30 12 -77 38l-74 40q-24 14 -50 23.5t-48 10.5q-34 0 -55 -20t-27 -51q-3 -20 0 -40q0 -4 -4 -5l-13 -1q-4 -1 -6 3q-3 25 2 51q4 25 19 45t37.5 30.5t50.5 10.5q25 0 48.5 -8.5t53.5 -25.5
l58 -31l34 -18q36 -19 50 -24t30 -8q3 0 4 -4v-1v-32q0 -2 -1 -3t-3 -2q-13 -2 -27 -4q-3 0 -7 -1q-142 -26 -242 -77t-100 -153q0 -64 54 -97.5t138 -33.5q51 0 96.5 9.5t85.5 28.5q2 0 3.5 -0.5t2.5 -2.5l6 -11q1 -2 0.5 -4t-2.5 -2q-47 -22 -93 -32.5t-98 -10.5
q-60 0 -108.5 18zM471 19.5q-38 19.5 -57 59t-16 97.5l22 5q-4 -52 11.5 -87t48.5 -52t82 -17q6 0 10.5 -4t4.5 -9t-4.5 -8.5t-10.5 -3.5q-53 0 -91 19.5zM149.5 459.5q-0.5 1.5 0.5 3.5l21 38q1 3 5 2l39 -21q1 -1 1.5 -2.5t-0.5 -2.5l-20 -39q-1 -2 -3 -2t-5 1l-36 21
q-2 0 -2.5 1.5z" />
    <glyph glyph-name="dal-ar.fina" unicode="&#x62f;" horiz-adv-x="502" vert-adv-y="1170" arabic-form="final" 
d="M67 0q-4 2 -4 5l2 15q0 2 1 3t3 1q27 -3 53 -3q84 0 136 26.5t52 83.5q0 40 -5 64q-13 66 -26 131q-1 4 3 6l12 4q3 1 4.5 0t2.5 -3q6 -28 12 -57q8 -38 11 -57q20 -97 58.5 -145.5t119.5 -48.5q6 0 10.5 -4t4.5 -9t-4.5 -8.5t-10.5 -3.5q-66 0 -107.5 29t-62.5 83
q-10 -52 -61.5 -83t-145.5 -31q-16 0 -58 2z" />
    <glyph glyph-name="thal-ar.fina" unicode="&#x630;" horiz-adv-x="502" vert-adv-y="1170" arabic-form="final" 
d="M67 0q-4 2 -4 5l2 15q0 2 1 3t3 1q27 -3 53 -3q84 0 136 26.5t52 83.5q0 40 -5 64q-13 66 -26 131q-1 4 3 6l12 4q3 1 4.5 0t2.5 -3q6 -28 12 -57q8 -38 11 -57q20 -97 58.5 -145.5t119.5 -48.5q6 0 10.5 -4t4.5 -9t-4.5 -8.5t-10.5 -3.5q-66 0 -107.5 29t-62.5 83
q-10 -52 -61.5 -83t-145.5 -31q-16 0 -58 2zM241.5 446.5q-0.5 1.5 0.5 3.5l21 38q1 3 5 2l39 -21q1 -1 1.5 -2.5t-0.5 -2.5l-20 -39q-1 -2 -3 -2t-5 1l-36 21q-2 0 -2.5 1.5z" />
    <glyph glyph-name="reh-ar.fina" unicode="&#x631;" horiz-adv-x="302" vert-adv-y="1170" arabic-form="final" 
d="M-47 -190q-4 0 -4 4v17q0 2 1 3t3 1q21 -1 40 0q71 7 111 52t42 121q1 49 -6.5 88t-22.5 99q-1 3 0 5t3 3l12 2q2 1 3 0l2 -2q13 -48 15 -59q12 -53 51 -86t99 -33q6 0 10.5 -4t4.5 -9t-4.5 -8.5t-10.5 -3.5q-50 0 -91.5 23t-57.5 59l10 1q4 -32 4 -73q-1 -49 -19 -92.5
t-55.5 -72.5t-94.5 -34q-28 -2 -45 -1z" />
    <glyph glyph-name="zain-ar.fina" unicode="&#x632;" horiz-adv-x="302" vert-adv-y="1170" arabic-form="final" 
d="M-47 -190q-4 0 -4 4v17q0 2 1 3t3 1q21 -1 40 0q71 7 111 52t42 121q1 49 -6.5 88t-22.5 99q-1 3 0 5t3 3l12 2q2 1 3 0l2 -2q13 -48 15 -59q12 -53 51 -86t99 -33q6 0 10.5 -4t4.5 -9t-4.5 -8.5t-10.5 -3.5q-50 0 -91.5 23t-57.5 59l10 1q4 -32 4 -73q-1 -49 -19 -92.5
t-55.5 -72.5t-94.5 -34q-28 -2 -45 -1zM72.5 326.5q-0.5 1.5 0.5 3.5l21 38q1 3 5 2l39 -21q1 -1 1.5 -2.5t-0.5 -2.5l-20 -39q-1 -2 -3 -2t-5 1l-36 21q-2 0 -2.5 1.5z" />
    <glyph glyph-name="seen-ar.init" unicode="&#x633;" horiz-adv-x="632" vert-adv-y="1170" arabic-form="initial" 
d="M-10.5 3.5q-4.5 3.5 -4.5 8.5t4.5 9t10.5 4q46 0 77 22t42 70q5 21 5 62q0 4 4 4h15q4 0 4 -4q0 -32 7 -62q11 -48 40 -70t69 -22q48 0 75.5 25t38.5 67q5 18 7 39q0 4 4 4h13q5 0 6 -4q1 -20 6 -37q4 -21 9.5 -36.5t13.5 -26.5q10 -15 24 -23t33 -8q32 0 44 21t12 55
q0 39 -15 97q-4 18 -17 57q-1 4 4 6l11 4q2 1 3.5 0.5t2.5 -2.5q16 -46 24 -86.5t8 -72.5q0 -50 -19.5 -77t-57.5 -27q-34 0 -61 24.5t-37 64.5q-19 -47 -53 -68t-79 -21q-43 0 -77.5 22t-49.5 67q-18 -45 -53.5 -67t-82.5 -22q-6 0 -10.5 3.5z" />
    <glyph glyph-name="seen-ar.medi" unicode="&#x633;" horiz-adv-x="742" vert-adv-y="1170" arabic-form="medial" 
d="M-10.5 3.5q-4.5 3.5 -4.5 8.5t4.5 9t10.5 4q41 0 70 17t43 54q13 42 11 83q0 4 4 4h15q4 0 4 -4q2 -51 13 -83q13 -38 39.5 -54.5t63.5 -16.5q41 0 68 19t40 52q10 27 13 60q0 4 4 4h13q6 0 6 -4q6 -43 11 -60q9 -26 17 -39q11 -16 25 -24t34 -8q27 0 41 19t14 58
q0 19 -4 43t-12 55q-6 24 -11 40q-1 2 -0.5 3.5t2.5 2.5l13 4q2 1 3.5 0.5t2.5 -2.5q19 -62 36 -104q26 -57 64.5 -88t98.5 -31q6 0 10.5 -4t4.5 -9t-4.5 -8.5t-10.5 -3.5q-52 0 -97 27.5t-71 79.5q-2 -52 -22.5 -79.5t-60.5 -27.5q-33 0 -59 24.5t-37 64.5q-19 -47 -53 -68
t-79 -21q-43 0 -77.5 22t-49.5 67q-18 -45 -53.5 -67t-82.5 -22q-6 0 -10.5 3.5z" />
    <glyph glyph-name="seen-ar.fina" unicode="&#x633;" horiz-adv-x="1044" vert-adv-y="1170" arabic-form="final" 
d="M148.5 -173q-45.5 27 -66.5 70t-20 92q1 39 8.5 73.5t23.5 68.5q0 1 1.5 1.5t2.5 -0.5l11 -4q2 -2 2 -5q-14 -33 -21.5 -66t-7.5 -65q0 -71 45.5 -119.5t134.5 -48.5q93 0 134.5 48.5t41.5 127.5q0 37 -6.5 73.5t-29.5 111.5q-1 2 0.5 3.5t3.5 1.5l12 4q2 1 3.5 0t1.5 -2
q6 -20 11 -41l14 -48q12 -40 44.5 -59t71.5 -19q37 0 62.5 15t39.5 42q17 29 20 74q0 4 4 4h13q5 0 5 -4l3 -21q7 -50 26 -78q21 -32 58 -32q28 0 41.5 19t13.5 58q0 21 -6 52.5t-14 62.5q-3 12 -7 23q0 2 0.5 3.5t2.5 2.5l12 4q4 1 6 -2q13 -44 25 -76t26 -58
q26 -43 61 -66t88 -23q6 0 10.5 -4t4.5 -9t-4.5 -8.5t-10.5 -3.5q-53 0 -97.5 27.5t-70.5 79.5q-2 -52 -22.5 -79.5t-60.5 -27.5q-33 0 -59 24.5t-37 64.5q-19 -47 -53.5 -68t-79.5 -21q-39 0 -73 17t-52 53l19 -3q11 -68 -1.5 -128t-59.5 -99.5t-135 -39.5q-68 0 -113.5 27
z" />
    <glyph glyph-name="sheen-ar.init" unicode="&#x634;" horiz-adv-x="632" vert-adv-y="1170" arabic-form="initial" 
d="M-10.5 3.5q-4.5 3.5 -4.5 8.5t4.5 9t10.5 4q46 0 77 22t42 70q5 21 5 62q0 4 4 4h15q4 0 4 -4q0 -32 7 -62q11 -48 40 -70t69 -22q48 0 75.5 25t38.5 67q5 18 7 39q0 4 4 4h13q5 0 6 -4q1 -20 6 -37q4 -21 9.5 -36.5t13.5 -26.5q10 -15 24 -23t33 -8q32 0 44 21t12 55
q0 39 -15 97q-4 18 -17 57q-1 4 4 6l11 4q2 1 3.5 0.5t2.5 -2.5q16 -46 24 -86.5t8 -72.5q0 -50 -19.5 -77t-57.5 -27q-34 0 -61 24.5t-37 64.5q-19 -47 -53 -68t-79 -21q-43 0 -77.5 22t-49.5 67q-18 -45 -53.5 -67t-82.5 -22q-6 0 -10.5 3.5zM355 323.5q1 -1.5 -1 -3.5
l-17 -31q-1 -3 -3 -3t-4 1l-32 19q-2 1 -2 3t1 3l18 31q1 2 2.5 2t2.5 -1l32 -18q2 -1 3 -2.5zM408.5 411.5q0.5 -2.5 -0.5 -4.5l-17 -31q-1 -3 -3 -3t-5 1l-32 19q-2 1 -2 3t1 4l19 31q0 1 1.5 1t3.5 -1l32 -16q2 -1 2.5 -3.5zM473 323q0 -2 -1 -3l-17 -31q-1 -3 -2.5 -3
t-4.5 1l-32 19q-2 1 -2 3t1 3l18 31q1 2 2.5 2t3.5 -1l32 -18q2 -1 2 -3z" />
    <glyph glyph-name="sheen-ar.medi" unicode="&#x634;" horiz-adv-x="742" vert-adv-y="1170" arabic-form="medial" 
d="M-10.5 3.5q-4.5 3.5 -4.5 8.5t4.5 9t10.5 4q41 0 70 17t43 54q13 42 11 83q0 4 4 4h15q4 0 4 -4q2 -51 13 -83q13 -38 39.5 -54.5t63.5 -16.5q41 0 68 19t40 52q10 27 13 60q0 4 4 4h13q6 0 6 -4q6 -43 11 -60q9 -26 17 -39q11 -16 25 -24t34 -8q27 0 41 19t14 58
q0 19 -4 43t-12 55q-6 24 -11 40q-1 2 -0.5 3.5t2.5 2.5l13 4q2 1 3.5 0.5t2.5 -2.5q19 -62 36 -104q26 -57 64.5 -88t98.5 -31q6 0 10.5 -4t4.5 -9t-4.5 -8.5t-10.5 -3.5q-52 0 -97 27.5t-71 79.5q-2 -52 -22.5 -79.5t-60.5 -27.5q-33 0 -59 24.5t-37 64.5q-19 -47 -53 -68
t-79 -21q-43 0 -77.5 22t-49.5 67q-18 -45 -53.5 -67t-82.5 -22q-6 0 -10.5 3.5zM355 324.5q1 -1.5 -1 -3.5l-17 -31q-1 -3 -3 -3t-4 1l-32 19q-2 1 -2 3t1 3l18 31q1 2 2.5 2t2.5 -1l32 -18q2 -1 3 -2.5zM408.5 412.5q0.5 -2.5 -0.5 -4.5l-17 -31q-1 -3 -3 -3t-5 1l-32 19
q-2 1 -2 3t1 4l19 31q0 1 1.5 1t3.5 -1l32 -16q2 -1 2.5 -3.5zM473 324q0 -2 -1 -3l-17 -31q-1 -3 -2.5 -3t-4.5 1l-32 19q-2 1 -2 3t1 3l18 31q1 2 2.5 2t3.5 -1l32 -18q2 -1 2 -3z" />
    <glyph glyph-name="sheen-ar.fina" unicode="&#x634;" horiz-adv-x="1044" vert-adv-y="1170" arabic-form="final" 
d="M148.5 -173q-45.5 27 -66.5 70t-20 92q1 39 8.5 73.5t23.5 68.5q0 1 1.5 1.5t2.5 -0.5l11 -4q2 -2 2 -5q-14 -33 -21.5 -66t-7.5 -65q0 -71 45.5 -119.5t134.5 -48.5q93 0 134.5 48.5t41.5 127.5q0 37 -6.5 73.5t-29.5 111.5q-1 2 0.5 3.5t3.5 1.5l12 4q2 1 3.5 0t1.5 -2
q6 -20 11 -41l14 -48q12 -40 44.5 -59t71.5 -19q37 0 62.5 15t39.5 42q17 29 20 74q0 4 4 4h13q5 0 5 -4l3 -21q7 -50 26 -78q21 -32 58 -32q28 0 41.5 19t13.5 58q0 21 -6 52.5t-14 62.5q-3 12 -7 23q0 2 0.5 3.5t2.5 2.5l12 4q4 1 6 -2q13 -44 25 -76t26 -58
q26 -43 61 -66t88 -23q6 0 10.5 -4t4.5 -9t-4.5 -8.5t-10.5 -3.5q-53 0 -97.5 27.5t-70.5 79.5q-2 -52 -22.5 -79.5t-60.5 -27.5q-33 0 -59 24.5t-37 64.5q-19 -47 -53.5 -68t-79.5 -21q-39 0 -73 17t-52 53l19 -3q11 -68 -1.5 -128t-59.5 -99.5t-135 -39.5q-68 0 -113.5 27
zM657 323.5q1 -1.5 -1 -3.5l-17 -31q-1 -3 -3 -3t-4 1l-32 19q-2 1 -2 3t1 3l18 31q1 2 2.5 2t2.5 -1l32 -18q2 -1 3 -2.5zM710.5 411.5q0.5 -2.5 -0.5 -4.5l-17 -31q-1 -3 -3 -3t-5 1l-32 19q-2 1 -2 3t1 4l19 31q0 1 1.5 1t3.5 -1l32 -16q2 -1 2.5 -3.5zM775 323
q0 -2 -1 -3l-17 -31q-1 -3 -2.5 -3t-4.5 1l-32 19q-2 1 -2 3t1 3l18 31q1 2 2.5 2t3.5 -1l32 -18q2 -1 2 -3z" />
    <glyph glyph-name="sad-ar.init" unicode="&#x635;" horiz-adv-x="734" vert-adv-y="1170" arabic-form="initial" 
d="M-11.5 3.5q-3.5 3.5 -3.5 8.5q0 6 3.5 9.5t11.5 3.5q48 0 86.5 19t77.5 64l2 2q3 3 6 4.5t6 1.5t6 -1.5t6 -3.5q2 -2 3 -4q37 -42 113.5 -66t146.5 -24q84 0 140.5 32t56.5 100q0 54 -33 92.5t-85 39.5q-63 1 -120 -65.5t-108 -186.5l-18 12q33 80 71.5 139t82.5 92.5
t92 33.5q41 0 73 -22t49.5 -58.5t17.5 -76.5q0 -51 -28.5 -86.5t-77.5 -53t-112 -17.5q-80 0 -158 27t-119 71q-45 -52 -84.5 -70.5t-92.5 -19.5q-8 0 -11.5 3.5z" />
    <glyph glyph-name="sad-ar.medi" unicode="&#x635;" horiz-adv-x="832" vert-adv-y="1170" arabic-form="medial" 
d="M-11.5 3.5q-3.5 3.5 -3.5 8.5q0 6 3.5 9.5t11.5 3.5q48 0 86.5 19t77.5 64l2 2q3 3 6 4.5t6 1.5t6 -1.5t6 -3.5q2 -2 3 -4q37 -42 113.5 -66t146.5 -24q84 0 140.5 32t56.5 100q0 54 -33 92.5t-85 39.5q-63 1 -120 -65.5t-108 -186.5l-18 12q33 80 71.5 139t82.5 92.5
t92 33.5q41 0 73 -22t49.5 -58.5t17.5 -76.5q0 -51 -28.5 -86.5t-77.5 -53t-112 -17.5q-80 0 -158 27t-119 71q-45 -52 -84.5 -70.5t-92.5 -19.5q-8 0 -11.5 3.5zM718 35.5q-46 35.5 -61 104.5l13 42q10 -78 51.5 -117.5t110.5 -39.5q8 0 11.5 -3.5t3.5 -9.5q0 -5 -3.5 -8.5
t-11.5 -3.5q-68 0 -114 35.5z" />
    <glyph glyph-name="sad-ar.fina" unicode="&#x635;" horiz-adv-x="1055" vert-adv-y="1170" arabic-form="final" 
d="M148.5 -173q-45.5 27 -66.5 70t-20 92q1 39 8.5 73.5t23.5 68.5q0 1 1.5 1.5t2.5 -0.5l11 -4q2 -2 2 -5q-14 -33 -21.5 -66t-7.5 -65q0 -71 45.5 -119.5t134.5 -48.5q93 0 134.5 48.5t41.5 128.5q0 38 -11.5 90t-23.5 92q-1 1 0 3t3 3l13 2q2 1 3.5 0t2.5 -3
q10 -41 26 -71q36 -55 97.5 -77.5t127.5 -22.5q85 0 141.5 32t56.5 100q0 54 -33.5 92.5t-85.5 39.5q-63 1 -120 -66t-108 -186l-18 12q33 80 71.5 139t82.5 92.5t92 33.5q41 0 73 -22t49.5 -58.5t17.5 -76.5q0 -51 -28.5 -86.5t-77.5 -53t-112 -17.5q-74 1 -141 26t-102 81
l15 -6q13 -49 13 -94q0 -56 -20 -100.5t-64.5 -71.5t-115.5 -27q-68 0 -113.5 27zM941 35.5q-46 35.5 -61 104.5l13 42q10 -78 51.5 -117.5t110.5 -39.5q8 0 11.5 -3.5t3.5 -9.5q0 -5 -3.5 -8.5t-11.5 -3.5q-68 0 -114 35.5z" />
    <glyph glyph-name="dad-ar.init" unicode="&#x636;" horiz-adv-x="734" vert-adv-y="1170" arabic-form="initial" 
d="M-11.5 3.5q-3.5 3.5 -3.5 8.5q0 6 3.5 9.5t11.5 3.5q48 0 86.5 19t77.5 64l2 2q3 3 6 4.5t6 1.5t6 -1.5t6 -3.5q2 -2 3 -4q37 -42 113.5 -66t146.5 -24q84 0 140.5 32t56.5 100q0 54 -33 92.5t-85 39.5q-63 1 -120 -65.5t-108 -186.5l-18 12q33 80 71.5 139t82.5 92.5
t92 33.5q41 0 73 -22t49.5 -58.5t17.5 -76.5q0 -51 -28.5 -86.5t-77.5 -53t-112 -17.5q-80 0 -158 27t-119 71q-45 -52 -84.5 -70.5t-92.5 -19.5q-8 0 -11.5 3.5zM495.5 421.5q-0.5 1.5 0.5 3.5l21 38q1 3 5 2l39 -21q1 -1 1.5 -2.5t-0.5 -2.5l-20 -39q-1 -2 -3 -2t-5 1
l-36 21q-2 0 -2.5 1.5z" />
    <glyph glyph-name="dad-ar.medi" unicode="&#x636;" horiz-adv-x="832" vert-adv-y="1170" arabic-form="medial" 
d="M-11.5 3.5q-3.5 3.5 -3.5 8.5q0 6 3.5 9.5t11.5 3.5q48 0 86.5 19t77.5 64l2 2q3 3 6 4.5t6 1.5t6 -1.5t6 -3.5q2 -2 3 -4q37 -42 113.5 -66t146.5 -24q84 0 140.5 32t56.5 100q0 54 -33 92.5t-85 39.5q-63 1 -120 -65.5t-108 -186.5l-18 12q33 80 71.5 139t82.5 92.5
t92 33.5q41 0 73 -22t49.5 -58.5t17.5 -76.5q0 -51 -28.5 -86.5t-77.5 -53t-112 -17.5q-80 0 -158 27t-119 71q-45 -52 -84.5 -70.5t-92.5 -19.5q-8 0 -11.5 3.5zM718 35.5q-46 35.5 -61 104.5l13 42q10 -78 51.5 -117.5t110.5 -39.5q8 0 11.5 -3.5t3.5 -9.5q0 -5 -3.5 -8.5
t-11.5 -3.5q-68 0 -114 35.5zM495.5 421.5q-0.5 1.5 0.5 3.5l21 38q1 3 5 2l39 -21q1 -1 1.5 -2.5t-0.5 -2.5l-20 -39q-1 -2 -3 -2t-5 1l-36 21q-2 0 -2.5 1.5z" />
    <glyph glyph-name="dad-ar.fina" unicode="&#x636;" horiz-adv-x="1055" vert-adv-y="1170" arabic-form="final" 
d="M148.5 -173q-45.5 27 -66.5 70t-20 92q1 39 8.5 73.5t23.5 68.5q0 1 1.5 1.5t2.5 -0.5l11 -4q2 -2 2 -5q-14 -33 -21.5 -66t-7.5 -65q0 -71 45.5 -119.5t134.5 -48.5q93 0 134.5 48.5t41.5 128.5q0 38 -11.5 90t-23.5 92q-1 1 0 3t3 3l13 2q2 1 3.5 0t2.5 -3
q10 -41 26 -71q36 -55 97.5 -77.5t127.5 -22.5q85 0 141.5 32t56.5 100q0 54 -33.5 92.5t-85.5 39.5q-63 1 -120 -66t-108 -186l-18 12q33 80 71.5 139t82.5 92.5t92 33.5q41 0 73 -22t49.5 -58.5t17.5 -76.5q0 -51 -28.5 -86.5t-77.5 -53t-112 -17.5q-74 1 -141 26t-102 81
l15 -6q13 -49 13 -94q0 -56 -20 -100.5t-64.5 -71.5t-115.5 -27q-68 0 -113.5 27zM941 35.5q-46 35.5 -61 104.5l13 42q10 -78 51.5 -117.5t110.5 -39.5q8 0 11.5 -3.5t3.5 -9.5q0 -5 -3.5 -8.5t-11.5 -3.5q-68 0 -114 35.5zM718.5 421.5q-0.5 1.5 0.5 3.5l21 38q1 3 5 2
l39 -21q1 -1 1.5 -2.5t-0.5 -2.5l-20 -39q-1 -2 -3 -2t-5 1l-36 21q-2 0 -2.5 1.5z" />
    <glyph glyph-name="tah-ar.init" unicode="&#x637;" horiz-adv-x="523" vert-adv-y="1170" arabic-form="initial" 
d="M-10.5 3.5q-4.5 3.5 -4.5 8.5t4.5 9t10.5 4h71q20 47 27.5 70.5t7.5 54.5v374q0 2 1 3t3 1h14q2 0 3 -1t1 -3v-288q0 -32 -2.5 -56.5t-7.5 -47.5q45 83 95 128.5t107 45.5q41 0 73 -22.5t49.5 -58t17.5 -71.5q0 -61 -38.5 -95.5t-93 -46.5t-111.5 -12h-217
q-6 0 -10.5 3.5zM370 51.5q69 26.5 69 102.5q0 29 -14.5 58.5t-41.5 49t-63 19.5q-63 1 -120.5 -67t-106.5 -189h123q85 0 154 26.5z" />
    <glyph glyph-name="tah-ar.medi" unicode="&#x637;" horiz-adv-x="621" vert-adv-y="1170" arabic-form="medial" 
d="M-10.5 3.5q-4.5 3.5 -4.5 8.5t4.5 9t10.5 4h71q20 47 27.5 70.5t7.5 54.5v374q0 2 1 3t3 1h14q2 0 3 -1t1 -3v-288q0 -32 -2.5 -56.5t-7.5 -47.5q45 83 95 128.5t107 45.5q41 0 73 -22.5t49.5 -58t17.5 -71.5q0 -61 -38.5 -95.5t-93 -46.5t-111.5 -12h-217
q-6 0 -10.5 3.5zM370 51.5q69 26.5 69 102.5q0 29 -14.5 58.5t-41.5 49t-63 19.5q-63 1 -120.5 -67t-106.5 -189h123q85 0 154 26.5zM507 35.5q-46 35.5 -61 104.5l12 42q10 -78 51.5 -117.5t111.5 -39.5q5 0 10 -4t5 -9q0 -4 -5 -8t-10 -4q-68 0 -114 35.5z" />
    <glyph glyph-name="tah-ar.fina" unicode="&#x637;" horiz-adv-x="696" vert-adv-y="1170" arabic-form="final" 
d="M63 1q-1 1 -1 2v17q0 2 1 3.5t3 1.5h80q20 45 28 69t8 56v374q0 2 1 3t3 1h13q2 0 3 -1t1 -3v-288q0 -31 -2.5 -55.5t-6.5 -48.5q44 83 94 128.5t108 45.5q41 0 73 -22.5t49.5 -58t17.5 -71.5q0 -61 -39 -95.5t-93 -46.5t-112 -12h-227q-1 0 -2 1zM445.5 51.5
q68.5 26.5 68.5 102.5q0 29 -14.5 58.5t-41.5 49t-62 19.5q-63 1 -120.5 -67t-107.5 -189h123q86 0 154.5 26.5zM582 35.5q-46 35.5 -61 104.5l13 42q10 -78 51.5 -117.5t110.5 -39.5q6 0 10.5 -4t4.5 -9t-4.5 -8.5t-10.5 -3.5q-68 0 -114 35.5z" />
    <glyph glyph-name="zah-ar.init" unicode="&#x638;" horiz-adv-x="523" vert-adv-y="1170" arabic-form="initial" 
d="M-10.5 3.5q-4.5 3.5 -4.5 8.5t4.5 9t10.5 4h71q20 47 27.5 70.5t7.5 54.5v374q0 2 1 3t3 1h14q2 0 3 -1t1 -3v-288q0 -32 -2.5 -56.5t-7.5 -47.5q45 83 95 128.5t107 45.5q41 0 73 -22.5t49.5 -58t17.5 -71.5q0 -61 -38.5 -95.5t-93 -46.5t-111.5 -12h-217
q-6 0 -10.5 3.5zM370 51.5q69 26.5 69 102.5q0 29 -14.5 58.5t-41.5 49t-63 19.5q-63 1 -120.5 -67t-106.5 -189h123q85 0 154 26.5zM281.5 421.5q-0.5 1.5 0.5 3.5l21 38q1 3 5 2l39 -21q1 -1 1.5 -2.5t-0.5 -2.5l-20 -39q-1 -2 -3 -2t-5 1l-36 21q-2 0 -2.5 1.5z" />
    <glyph glyph-name="zah-ar.medi" unicode="&#x638;" horiz-adv-x="621" vert-adv-y="1170" arabic-form="medial" 
d="M-10.5 3.5q-4.5 3.5 -4.5 8.5t4.5 9t10.5 4h71q20 47 27.5 70.5t7.5 54.5v374q0 2 1 3t3 1h14q2 0 3 -1t1 -3v-288q0 -32 -2.5 -56.5t-7.5 -47.5q45 83 95 128.5t107 45.5q41 0 73 -22.5t49.5 -58t17.5 -71.5q0 -61 -38.5 -95.5t-93 -46.5t-111.5 -12h-217
q-6 0 -10.5 3.5zM370 51.5q69 26.5 69 102.5q0 29 -14.5 58.5t-41.5 49t-63 19.5q-63 1 -120.5 -67t-106.5 -189h123q85 0 154 26.5zM507 35.5q-46 35.5 -61 104.5l12 42q10 -78 51.5 -117.5t111.5 -39.5q5 0 10 -4t5 -9q0 -4 -5 -8t-10 -4q-68 0 -114 35.5zM281.5 421.5
q-0.5 1.5 0.5 3.5l21 38q1 3 5 2l39 -21q1 -1 1.5 -2.5t-0.5 -2.5l-20 -39q-1 -2 -3 -2t-5 1l-36 21q-2 0 -2.5 1.5z" />
    <glyph glyph-name="zah-ar.fina" unicode="&#x638;" horiz-adv-x="696" vert-adv-y="1170" arabic-form="final" 
d="M63 1q-1 1 -1 2v17q0 2 1 3.5t3 1.5h80q20 45 28 69t8 56v374q0 2 1 3t3 1h13q2 0 3 -1t1 -3v-288q0 -31 -2.5 -55.5t-6.5 -48.5q44 83 94 128.5t108 45.5q41 0 73 -22.5t49.5 -58t17.5 -71.5q0 -61 -39 -95.5t-93 -46.5t-112 -12h-227q-1 0 -2 1zM445.5 51.5
q68.5 26.5 68.5 102.5q0 29 -14.5 58.5t-41.5 49t-62 19.5q-63 1 -120.5 -67t-107.5 -189h123q86 0 154.5 26.5zM582 35.5q-46 35.5 -61 104.5l13 42q10 -78 51.5 -117.5t110.5 -39.5q6 0 10.5 -4t4.5 -9t-4.5 -8.5t-10.5 -3.5q-68 0 -114 35.5zM366.5 419.5
q-0.5 1.5 0.5 3.5l21 38q1 3 5 2l39 -21q1 -1 1.5 -2.5t-0.5 -2.5l-20 -39q-1 -2 -3 -2t-5 1l-36 21q-2 0 -2.5 1.5z" />
    <glyph glyph-name="ain-ar.init" unicode="&#x639;" horiz-adv-x="453" vert-adv-y="1170" arabic-form="initial" 
d="M-10.5 3.5q-4.5 3.5 -4.5 8.5t4.5 9t10.5 4q49 0 88.5 9t148.5 40l13 -11q-75 -9 -125.5 25.5t-50.5 104.5q0 36 17 67.5t46.5 51t64.5 19.5q14 0 28 -2t30 -8q2 -1 3.5 -2.5t0.5 -3.5l-4 -15q0 -6 -5 -4q-15 4 -26.5 6.5t-25.5 2.5q-50 0 -79 -33.5t-29 -77.5
q0 -51 36 -78.5t90 -27.5q26 0 51 5t53 14l16 6q18 5 39 12q2 1 3.5 0.5t2.5 -2.5l5 -14q0 -2 -1 -3.5t-3 -2.5l-15 -6l-94 -31q-127 -42 -176.5 -54t-101.5 -12q-6 0 -10.5 3.5z" />
    <glyph glyph-name="ain-ar.medi" unicode="&#x639;" horiz-adv-x="393" vert-adv-y="1170" arabic-form="medial" 
d="M-10.5 3.5q-4.5 3.5 -4.5 8.5t4.5 9t10.5 4q100 0 179 33q-44 32 -77 75.5t-60 100.5q-2 5 -1 8l9 32q1 2 3 4q35 19 75.5 30.5t79.5 11.5q38 0 69.5 -11.5t50 -34.5t18.5 -58q0 -42 -31 -84t-86 -75q73 -32 164 -32q6 0 10.5 -4t4.5 -9t-4.5 -8.5t-10.5 -3.5
q-53 0 -102.5 11.5t-88.5 32.5q-43 -21 -94 -32.5t-108 -11.5q-6 0 -10.5 3.5zM292 139.5q33 38.5 33 76.5t-33.5 58t-84.5 20q-38 0 -77 -11t-71 -31q25 -61 61.5 -106t83.5 -74q55 29 88 67.5z" />
    <glyph glyph-name="ain-ar.fina" unicode="&#x639;" horiz-adv-x="431" vert-adv-y="1170" arabic-form="final" 
d="M152 -209.5q-44 17.5 -70 52.5t-26 83q0 54 35 98t98 72q-38 34 -68.5 79t-52.5 99q-1 1 0 4l9 33q2 3 3 4q33 20 74 31t80 11t70.5 -11.5t50 -35t18.5 -58.5q0 -44 -37 -88t-98 -77q28 -23 83 -42.5t110 -19.5q6 0 10.5 -4t4.5 -9t-4.5 -8.5t-10.5 -3.5q-60 0 -121 23.5
t-103 55.5q-61 -28 -95.5 -66t-34.5 -90q0 -61 49.5 -93t123.5 -32q89 0 173 39q2 1 3.5 0t1.5 -3l6 -13q0 -2 -0.5 -3.5t-2.5 -2.5q-93 -42 -181 -42q-54 0 -98 17.5zM313 172.5q38 40.5 38 79.5q0 37 -33.5 57.5t-84.5 20.5q-39 0 -78 -11t-71 -32q23 -56 56 -102.5
t75 -81.5q60 29 98 69.5z" />
    <glyph glyph-name="ghain-ar.init" unicode="&#x63a;" horiz-adv-x="453" vert-adv-y="1170" arabic-form="initial" 
d="M-10.5 3.5q-4.5 3.5 -4.5 8.5t4.5 9t10.5 4q49 0 88.5 9t148.5 40l13 -11q-75 -9 -125.5 25.5t-50.5 104.5q0 36 17 67.5t46.5 51t64.5 19.5q14 0 28 -2t30 -8q2 -1 3.5 -2.5t0.5 -3.5l-4 -15q0 -6 -5 -4q-15 4 -26.5 6.5t-25.5 2.5q-50 0 -79 -33.5t-29 -77.5
q0 -51 36 -78.5t90 -27.5q26 0 51 5t53 14l16 6q18 5 39 12q2 1 3.5 0.5t2.5 -2.5l5 -14q0 -2 -1 -3.5t-3 -2.5l-15 -6l-94 -31q-127 -42 -176.5 -54t-101.5 -12q-6 0 -10.5 3.5zM166.5 446.5q-0.5 1.5 0.5 3.5l21 38q1 3 5 2l39 -21q1 -1 1.5 -2.5t-0.5 -2.5l-20 -39
q-1 -2 -3 -2t-5 1l-36 21q-2 0 -2.5 1.5z" />
    <glyph glyph-name="ghain-ar.medi" unicode="&#x63a;" horiz-adv-x="393" vert-adv-y="1170" arabic-form="medial" 
d="M-10.5 3.5q-4.5 3.5 -4.5 8.5t4.5 9t10.5 4q100 0 179 33q-44 32 -77 75.5t-60 100.5q-2 5 -1 8l9 32q1 2 3 4q35 19 75.5 30.5t79.5 11.5q38 0 69.5 -11.5t50 -34.5t18.5 -58q0 -42 -31 -84t-86 -75q73 -32 164 -32q6 0 10.5 -4t4.5 -9t-4.5 -8.5t-10.5 -3.5
q-53 0 -102.5 11.5t-88.5 32.5q-43 -21 -94 -32.5t-108 -11.5q-6 0 -10.5 3.5zM292 139.5q33 38.5 33 76.5t-33.5 58t-84.5 20q-38 0 -77 -11t-71 -31q25 -61 61.5 -106t83.5 -74q55 29 88 67.5zM160.5 435.5q-0.5 1.5 0.5 3.5l21 38q1 3 5 2l39 -21q1 -1 1.5 -2.5
t-0.5 -2.5l-20 -39q-1 -2 -3 -2t-5 1l-36 21q-2 0 -2.5 1.5z" />
    <glyph glyph-name="ghain-ar.fina" unicode="&#x63a;" horiz-adv-x="431" vert-adv-y="1170" arabic-form="final" 
d="M152 -209.5q-44 17.5 -70 52.5t-26 83q0 54 35 98t98 72q-38 34 -68.5 79t-52.5 99q-1 1 0 4l9 33q2 3 3 4q33 20 74 31t80 11t70.5 -11.5t50 -35t18.5 -58.5q0 -44 -37 -88t-98 -77q28 -23 83 -42.5t110 -19.5q6 0 10.5 -4t4.5 -9t-4.5 -8.5t-10.5 -3.5q-60 0 -121 23.5
t-103 55.5q-61 -28 -95.5 -66t-34.5 -90q0 -61 49.5 -93t123.5 -32q89 0 173 39q2 1 3.5 0t1.5 -3l6 -13q0 -2 -0.5 -3.5t-2.5 -2.5q-93 -42 -181 -42q-54 0 -98 17.5zM313 172.5q38 40.5 38 79.5q0 37 -33.5 57.5t-84.5 20.5q-39 0 -78 -11t-71 -32q23 -56 56 -102.5
t75 -81.5q60 29 98 69.5zM187.5 472.5q-0.5 1.5 0.5 3.5l21 38q1 3 5 2l39 -21q1 -1 1.5 -2.5t-0.5 -2.5l-20 -39q-1 -2 -3 -2t-5 1l-36 21q-2 0 -2.5 1.5z" />
    <glyph glyph-name="feh-ar.init" unicode="&#x641;" horiz-adv-x="360" vert-adv-y="1170" arabic-form="initial" 
d="M-10.5 3.5q-4.5 3.5 -4.5 8.5t4.5 9t10.5 4h74q106 0 158 42t49 118q-18 -32 -49.5 -48.5t-76.5 -15.5q-41 0 -69 14.5t-42 40t-14 59.5q0 39 16.5 74.5t46 57.5t64.5 22q52 0 85 -36t47 -85.5t14 -91.5q0 -87 -58.5 -131.5t-170.5 -44.5h-74q-6 0 -10.5 3.5z
M237.5 168.5q29.5 24.5 29.5 65.5q0 32 -13 62t-38 49.5t-57 19.5q-50 0 -79 -38.5t-29 -92.5q0 -44 27.5 -67t76.5 -23q53 0 82.5 24.5zM109.5 504.5q-0.5 1.5 0.5 3.5l21 38q1 3 5 2l39 -21q1 -1 1.5 -2.5t-0.5 -2.5l-20 -39q-1 -2 -3 -2t-5 1l-36 21q-2 0 -2.5 1.5z" />
    <glyph glyph-name="feh-ar.medi" unicode="&#x641;" horiz-adv-x="424" vert-adv-y="1170" arabic-form="medial" 
d="M-10.5 3.5q-4.5 3.5 -4.5 8.5t4.5 9t10.5 4h32q69 0 121 7q-43 18 -59.5 52t-16.5 68q0 38 18 74t49 58.5t68 22.5t67.5 -22.5t48.5 -58.5t18 -74q0 -35 -16.5 -68.5t-59.5 -51.5q53 -7 122 -7h32q5 0 10 -4t5 -9q0 -4 -5 -8t-10 -4h-12q-56 0 -109 6.5t-91 18.5
q-38 -12 -91 -18.5t-110 -6.5h-11q-6 0 -10.5 3.5zM291 75.5q33 26.5 33 76.5q0 33 -15 63t-40.5 48.5t-56.5 18.5t-57 -18.5t-41 -49t-15 -62.5q0 -51 33.5 -77t79.5 -26t79 26.5zM166.5 422.5q-0.5 1.5 0.5 3.5l21 38q1 3 5 2l39 -21q1 -1 1.5 -2.5t-0.5 -2.5l-20 -39
q-1 -2 -3 -2t-5 1l-36 21q-2 0 -2.5 1.5z" />
    <glyph glyph-name="feh-ar.fina" unicode="&#x641;" horiz-adv-x="764" vert-adv-y="1170" arabic-form="final" 
d="M631.5 75.5q33.5 26.5 33.5 76.5q0 32 -15 62.5t-41 49t-57 18.5t-57 -18.5t-41 -49t-15 -62.5q0 -50 33.5 -76.5t79.5 -26.5t79.5 26.5zM392.5 18.5q54.5 4.5 100.5 13.5q-43 18 -59 51.5t-16 68.5q0 38 18 74t48.5 58.5t67.5 22.5t67.5 -22.5t48.5 -58.5t18 -74
q0 -35 -16.5 -68.5t-59.5 -51.5q53 -7 122 -7h32q6 0 10.5 -4t4.5 -9t-4.5 -8.5t-10.5 -3.5h-12q-55 0 -108.5 7t-92.5 18q-53 -19 -123 -27.5t-127 -8.5q-113 0 -176 39.5t-63 127.5q0 18 4 42t13 46q1 2 2.5 3t3.5 0l11 -4q3 -1 3 -6q-8 -19 -12 -40.5t-4 -37.5
q0 -77 53.5 -111t164.5 -34q37 0 91.5 4.5zM515.5 422.5q-0.5 1.5 0.5 3.5l21 38q1 3 5 2l39 -21q1 -1 1.5 -2.5t-0.5 -2.5l-20 -39q-1 -2 -3 -2t-5 1l-36 21q-2 0 -2.5 1.5z" />
    <glyph glyph-name="qaf-ar.init" unicode="&#x642;" horiz-adv-x="360" vert-adv-y="1170" arabic-form="initial" 
d="M-10.5 3.5q-4.5 3.5 -4.5 8.5t4.5 9t10.5 4h74q106 0 158 42t49 118q-18 -32 -49.5 -48.5t-76.5 -15.5q-41 0 -69 14.5t-42 40t-14 59.5q0 39 16.5 74.5t46 57.5t64.5 22q52 0 85 -36t47 -85.5t14 -91.5q0 -87 -58.5 -131.5t-170.5 -44.5h-74q-6 0 -10.5 3.5z
M237.5 168.5q29.5 24.5 29.5 65.5q0 32 -13 62t-38 49.5t-57 19.5q-50 0 -79 -38.5t-29 -92.5q0 -44 27.5 -67t76.5 -23q53 0 82.5 24.5zM175 503q0 2 1 4l18 31q1 1 2.5 1t2.5 -1l32 -18q2 0 3 -2t-1 -4l-17 -31q-1 -3 -2.5 -3t-3.5 1l-1 1l-32 18q-2 1 -2 3zM57 503
q0 2 1 4l18 31q1 1 2 1t3 -1l32 -18q2 0 3 -2t-1 -4l-17 -31q-2 -3 -6 -2h-0.5h-0.5l-32 19q-2 1 -2 3z" />
    <glyph glyph-name="qaf-ar.medi" unicode="&#x642;" horiz-adv-x="424" vert-adv-y="1170" arabic-form="medial" 
d="M-10.5 3.5q-4.5 3.5 -4.5 8.5t4.5 9t10.5 4h32q69 0 121 7q-43 18 -59.5 52t-16.5 68q0 38 18 74t49 58.5t68 22.5t67.5 -22.5t48.5 -58.5t18 -74q0 -35 -16.5 -68.5t-59.5 -51.5q53 -7 122 -7h32q5 0 10 -4t5 -9q0 -4 -5 -8t-10 -4h-12q-56 0 -109 6.5t-91 18.5
q-38 -12 -91 -18.5t-110 -6.5h-11q-6 0 -10.5 3.5zM291 75.5q33 26.5 33 76.5q0 33 -15 63t-40.5 48.5t-56.5 18.5t-57 -18.5t-41 -49t-15 -62.5q0 -51 33.5 -77t79.5 -26t79 26.5zM232 421q0 2 1 4l18 31q1 1 2.5 1t2.5 -1l32 -18q2 0 3 -2t-1 -4l-17 -31q-1 -3 -2.5 -3
t-3.5 1l-1 1l-32 18q-2 1 -2 3zM114 421q0 2 1 4l18 31q1 1 2 1t3 -1l32 -18q2 0 3 -2t-1 -4l-17 -31q-2 -3 -6 -2h-0.5h-0.5l-32 19q-2 1 -2 3z" />
    <glyph glyph-name="qaf-ar.fina" unicode="&#x642;" horiz-adv-x="569" vert-adv-y="1170" arabic-form="final" 
d="M160.5 -173.5q-52.5 26.5 -77 72t-24.5 103.5q0 31 7.5 63.5t22.5 64.5q1 2 3 3t3 0l10 -5q3 -2 2 -5q-27 -61 -27 -120q0 -81 50.5 -129.5t163.5 -48.5q98 0 152 43t60 131q-33 1 -66 1h-68q-72 0 -107 33.5t-35 89.5q0 41 17.5 77.5t48.5 58.5t69 22q54 0 89 -34.5
t52 -88t20 -114.5q6 -119 -52.5 -181.5t-179.5 -62.5q-81 0 -133.5 26.5zM505 39q0 41 -11.5 90.5t-42.5 88t-85 38.5q-36 0 -62 -20t-39 -51.5t-13 -64.5q0 -48 30 -71.5t89 -23.5q48 0 71 -0.5t70 -0.5l-7 -9v24zM516 25h64q6 0 10.5 -4t4.5 -9t-4.5 -8.5t-10.5 -3.5h-64
v25zM383 395q0 2 1 4l18 31q1 1 2.5 1t2.5 -1l32 -18q2 0 3 -2t-1 -4l-17 -31q-1 -3 -2.5 -3t-3.5 1l-1 1l-32 18q-2 1 -2 3zM265 395q0 2 1 4l18 31q1 1 2 1t3 -1l32 -18q2 0 3 -2t-1 -4l-17 -31q-2 -3 -6 -2h-0.5h-0.5l-32 19q-2 1 -2 3z" />
    <glyph glyph-name="kaf-ar.init" unicode="&#x643;" horiz-adv-x="242" vert-adv-y="1170" arabic-form="initial" 
d="M-10.5 3.5q-4.5 3.5 -4.5 8.5t4.5 9t10.5 4h13q76 0 117.5 31t41.5 82q0 49 -31 96.5t-96 91.5q-20 14 -43 27t-49 26q-4 1 -4 5v31q0 2 3 5l281 110q2 1 4 0.5t2 -2.5l5 -13q1 -2 0.5 -3.5t-2.5 -2.5l-276 -107q129 -68 178 -134.5t49 -129.5q0 -42 -21.5 -73t-62.5 -48
t-97 -17h-12q-6 0 -10.5 3.5z" />
    <glyph glyph-name="kaf-ar.medi" unicode="&#x643;" horiz-adv-x="439" vert-adv-y="1170" arabic-form="medial" 
d="M-10.5 3.5q-4.5 3.5 -4.5 8.5t4.5 9t10.5 4h26q72 0 118 33t46 84q0 33 -13 57.5t-45 62.5q-58 68 -144 121q-3 2 -3 5v25q0 3 4 5l280 110q2 1 4 0.5t2 -2.5l5 -13q1 -2 0.5 -3.5t-2.5 -2.5l-275 -107q71 -47 142 -120q19 -20 38 -45t39 -54q15 -19 22 -28.5l21 -28.5
l24 -28q23 -23 46.5 -39t49.5 -24t54 -8q5 0 10 -4t5 -9q0 -4 -5 -8t-10 -4q-55 0 -101 26.5t-92 86.5q-11 14 -22 31l-12 18q4 -46 -17.5 -82.5t-65.5 -58t-104 -21.5h-25q-6 0 -10.5 3.5z" />
    <glyph glyph-name="kaf-ar.fina" unicode="&#x643;" horiz-adv-x="723" vert-adv-y="1170" arabic-form="final" 
d="M63 1q-1 1 -1 3v16q0 2 1 3.5t3 1.5h361q67 0 104 32.5t37 98.5v368q0 2 1 3t3 1h14q2 0 3 -1t1 -3v-367q0 -66 36 -99t97 -33q6 0 10.5 -4t4.5 -9t-4.5 -8.5t-10.5 -3.5q-51 0 -88.5 22t-55.5 66q-18 -44 -57 -66t-95 -22h-361q-2 0 -3 1zM236 189v15q0 5 5 5h93
q32 0 49 16.5t16 37.5t-17.5 36t-46.5 14q-28 1 -57 1q-4 0 -6 4l-9 17q-2 3 1 7l63 77q4 4 6 1l10 -9q2 -4 1 -6l-59 -73l-6 6h55q42 0 65 -22.5t24 -52.5q1 -31 -22 -55t-66 -24h-94q-5 0 -5 5z" />
    <glyph glyph-name="lam-ar.init" unicode="&#x644;" horiz-adv-x="233" vert-adv-y="1170" arabic-form="initial" 
d="M-10.5 3.5q-4.5 3.5 -4.5 8.5t4.5 9t10.5 4q69 0 109 33t40 99v367q0 2 1.5 3t3.5 1h13q2 0 3 -1t1 -3v-361q0 -79 -46.5 -121t-124.5 -42q-6 0 -10.5 3.5z" />
    <glyph glyph-name="lam-ar.medi" unicode="&#x644;" horiz-adv-x="320" vert-adv-y="1170" arabic-form="medial" 
d="M-10.5 3.5q-4.5 3.5 -4.5 8.5t4.5 9t10.5 4q72 0 110 33t39 103v363q0 2 1.5 3t3.5 1h13q2 0 3 -1t1 -3v-363q1 -70 39 -103t110 -33q6 0 10.5 -4t4.5 -9t-4.5 -8.5t-10.5 -3.5q-62 0 -102 22t-58 66q-18 -44 -58 -66t-102 -22q-6 0 -10.5 3.5z" />
    <glyph glyph-name="lam-ar.fina" unicode="&#x644;" horiz-adv-x="574" vert-adv-y="1170" arabic-form="final" 
d="M145 -176.5q-41 23.5 -62 64.5t-21 94q0 35 9 71t27 72l2 2t3 0l12 -6l2 -2t0 -3q-33 -69 -33 -132q0 -72 41 -115.5t119 -43.5q92 0 134 52.5t42 131.5v515q0 2 1 3t3 1h13q2 0 3 -1t1 -3v-366q0 -66 36 -99.5t97 -33.5q6 0 10.5 -4t4.5 -9t-4.5 -8.5t-10.5 -3.5
q-52 0 -89.5 22t-55.5 66l12 -4v-74q0 -57 -19.5 -104t-63.5 -76.5t-113 -29.5q-59 0 -100 23.5z" />
    <glyph glyph-name="meem-ar.init" unicode="&#x645;" horiz-adv-x="493" vert-adv-y="1170" arabic-form="initial" 
d="M222.5 11.5q-31.5 16.5 -47 46.5t-13.5 68l1 -23q-27 -58 -72 -80.5t-91 -22.5q-8 0 -11.5 3.5t-3.5 8.5q0 6 3.5 9.5t11.5 3.5q61 0 98 31.5t69 105.5q12 28 21 42q20 33 47 53.5t64 20.5q36 0 66 -23t48 -60.5t18 -79.5q0 -35 -16.5 -62.5t-47 -42.5t-71.5 -15
q-42 0 -73.5 16.5zM378.5 44.5q30.5 24.5 30.5 70.5q0 33 -15 65t-40.5 52.5t-54.5 20.5q-32 0 -58.5 -20.5t-41.5 -52.5t-15 -65q0 -46 31 -70.5t82 -24.5t81.5 24.5z" />
    <glyph glyph-name="meem-ar.medi" unicode="&#x645;" horiz-adv-x="593" vert-adv-y="1170" arabic-form="medial" 
d="M204 23q-36 28 -43 76q-29 -55 -72.5 -77t-88.5 -22q-6 0 -10.5 3.5t-4.5 8.5t4.5 9t10.5 4q61 0 98 31.5t69 105.5q11 25 21 42q20 33 47 53.5t64 20.5q36 0 62 -20.5t45 -53.5q8 -14 20 -42q32 -74 69 -105.5t98 -31.5q6 0 10.5 -4t4.5 -9t-4.5 -8.5t-10.5 -3.5
q-45 0 -89.5 22t-71.5 77q-7 -48 -43.5 -76t-92.5 -28t-92 28zM378.5 44.5q30.5 24.5 30.5 70.5q0 33 -14 65t-39 52.5t-57 20.5t-58.5 -20.5t-41.5 -52.5t-15 -65q0 -46 31 -70.5t82 -24.5t81.5 24.5z" />
    <glyph glyph-name="meem-ar.fina" unicode="&#x645;" horiz-adv-x="628" vert-adv-y="1170" arabic-form="final" 
d="M260.5 10q-30.5 15 -47 42.5t-16.5 62.5q0 42 18 79.5t49.5 60.5t69.5 23q36 0 61.5 -20t45.5 -54q8 -14 20 -42q32 -74 69 -105.5t98 -31.5q8 0 11.5 -3.5t3.5 -9.5q0 -5 -3.5 -8.5t-11.5 -3.5q-46 0 -91.5 23t-71.5 81l2 23q2 -39 -14 -69t-47.5 -46.5t-74.5 -16.5
q-40 0 -70.5 15zM63 -218q-1 1 -1 3v186q0 85 43 128.5t109 43.5v-25q-37 0 -66.5 -15.5t-46.5 -47t-17 -79.5v-191q0 -2 -1.5 -3t-3.5 -1h-13q-2 0 -3 1zM413.5 44.5q30.5 24.5 30.5 70.5q0 33 -14 65t-39 52.5t-57 20.5t-58.5 -20.5t-41.5 -52.5t-15 -65q0 -46 31 -70.5
t82 -24.5t81.5 24.5z" />
    <glyph glyph-name="noon-ar.init" unicode="&#x646;" horiz-adv-x="247" vert-adv-y="1170" arabic-form="initial" 
d="M-11.5 3.5q-3.5 3.5 -3.5 8.5q0 6 3.5 9.5t11.5 3.5q7 0 10 -1q85 0 119.5 31t34.5 91q0 26 -6 53.5t-17 56.5l-6 15q-1 3 1 5l11 6q1 1 3 0t3 -3q14 -33 23 -67.5t9 -65.5q0 -71 -41 -109t-136 -37h-8q-8 0 -11.5 3.5zM92.5 399.5q-0.5 1.5 0.5 3.5l21 38q1 3 5 2
l39 -21q1 -1 1.5 -2.5t-0.5 -2.5l-20 -39q-1 -2 -3 -2t-5 1l-36 21q-2 0 -2.5 1.5z" />
    <glyph glyph-name="noon-ar.medi" unicode="&#x646;" horiz-adv-x="319" vert-adv-y="1170" arabic-form="medial" 
d="M-10.5 3.5q-4.5 3.5 -4.5 8.5t4.5 9t10.5 4q49 0 82.5 15t49.5 47q17 32 17 73v55q0 2 1 3t3 1h13q2 0 3 -1t1 -3v-55q0 -43 16 -73q17 -32 50.5 -47t82.5 -15q6 0 10.5 -4t4.5 -9t-4.5 -8.5t-10.5 -3.5q-62 0 -102 22t-58 66q-18 -44 -57.5 -66t-101.5 -22
q-6 0 -10.5 3.5zM121.5 334.5q-0.5 1.5 0.5 3.5l21 38q1 3 5 2l39 -21q1 -1 1.5 -2.5t-0.5 -2.5l-20 -39q-1 -2 -3 -2t-5 1l-36 21q-2 0 -2.5 1.5z" />
    <glyph glyph-name="noon-ar.fina" unicode="&#x646;" horiz-adv-x="643" vert-adv-y="1170" arabic-form="final" 
d="M159.5 -174.5q-48.5 25.5 -73 70t-24.5 99.5q0 31 7.5 65.5t22.5 66.5q1 2 2.5 3t3.5 0l10 -5q1 -1 2 -2.5t0 -2.5q-14 -32 -21 -62.5t-7 -58.5q0 -78 50.5 -126.5t146.5 -48.5q97 0 147.5 50.5t50.5 128.5q0 54 -14 116q-6 32 -13 60q-1 1 0 2.5t3 1.5l15 3q2 0 3 -1
t2 -3q3 -12 5 -25q6 -29 8 -33q17 -51 56 -75t101 -24q6 0 10.5 -4t4.5 -9t-4.5 -8.5t-10.5 -3.5q-61 0 -100.5 20.5t-60.5 59.5l9 -6q15 -67 -0.5 -130t-68.5 -103.5t-146 -40.5q-68 0 -116.5 25.5zM234.5 235.5q-0.5 1.5 0.5 3.5l21 38q1 3 5 2l39 -21q1 -1 1.5 -2.5
t-0.5 -2.5l-20 -39q-1 -2 -3 -2t-5 1l-36 21q-2 0 -2.5 1.5z" />
    <glyph glyph-name="heh-ar.init" unicode="&#x647;" horiz-adv-x="551" vert-adv-y="1140" arabic-form="initial" 
d="M257.5 -12.5q-51.5 10.5 -96.5 30.5q-39 -9 -78 -13.5t-83 -4.5q-6 0 -10.5 3.5t-4.5 8.5t4.5 9t10.5 4h2q61 0 117 9q-41 18 -56.5 51t-15.5 67q0 39 18 75t49 58.5t68 22.5q13 0 28.5 -3.5t27.5 -7.5l-18 12l5 12q0 6 5 4q66 -18 125.5 -56t96.5 -88t37 -100
q0 -47 -32 -75.5t-101 -28.5q-47 0 -98.5 10.5zM263.5 77.5q31.5 28.5 31.5 74.5q0 32 -15 62.5t-41 49.5t-57 19t-57.5 -19t-41.5 -50t-15 -64q0 -44 31.5 -72.5t82.5 -28.5q50 0 81.5 28.5zM435.5 19.5q31.5 17.5 31.5 58.5q0 39 -29.5 81.5t-79.5 78t-108 55.5
q31 -24 49 -62t18 -78q1 -40 -20.5 -77.5t-78.5 -52.5q42 -12 74 -16.5t65 -4.5q47 0 78.5 17.5z" />
    <glyph glyph-name="heh-ar.medi" unicode="&#x647;" horiz-adv-x="457" vert-adv-y="1170" arabic-form="medial" 
d="M161 -175.5q-44 27.5 -72 73t-32 102.5h-57q-6 0 -10.5 3.5t-4.5 8.5t4.5 9t10.5 4h57q-1 65 15.5 127t48.5 102t74 40q31 0 53.5 -19t34 -49.5t11.5 -64.5q0 -84 -54.5 -122t-162.5 -40q6 -76 58.5 -125.5t128.5 -59.5q8 65 29.5 111.5t61.5 73t102 26.5q6 0 10.5 -4
t4.5 -9t-4.5 -8.5t-10.5 -3.5q-83 0 -120 -46t-49 -136q-2 -16 -10 -23.5t-23 -5.5q-50 8 -94 35.5zM224 54.5q49 28.5 49 105.5q0 44 -23 76.5t-55 32.5q-54 0 -85 -72t-33 -173q98 2 147 30.5z" />
    <glyph glyph-name="heh-ar.fina" unicode="&#x647;" horiz-adv-x="468" vert-adv-y="1170" arabic-form="final" 
d="M380.5 16.5q-34.5 16.5 -55.5 46.5q-59 -31 -136 -31q-35 0 -64 11t-46 33t-17 55q0 46 32 87.5t85.5 66.5t113.5 25v44q0 2 1 3t3 1h12q2 0 3 -1t1 -3v-173q0 -71 38.5 -113.5t116.5 -42.5q6 0 10.5 -4t4.5 -9t-4.5 -8.5t-10.5 -3.5q-53 0 -87.5 16.5zM312 85
q-15 32 -19 79v14v107q-61 0 -109 -23.5t-74 -59.5t-26 -72q0 -34 29 -54t78 -20q71 0 121 29z" />
    <glyph glyph-name="waw-ar.fina" unicode="&#x648;" horiz-adv-x="428" vert-adv-y="1170" arabic-form="final" 
d="M64 -182q-2 -1 -3.5 1.5t-0.5 4.5l5 12q1 2 2.5 3.5t3.5 0.5q35 -8 66 -8q84 0 136 44t69 123q-35 1 -105 1q-48 0 -80.5 15.5t-48 42t-15.5 61.5q0 42 18 79t50 60t71 23q46 0 77.5 -28.5t47.5 -75.5t16 -103q0 -79 -26.5 -138.5t-80 -93t-130.5 -33.5q-43 0 -72 9z
M350 71q0 63 -24.5 124t-93.5 61q-37 0 -63.5 -20.5t-40 -52.5t-13.5 -65q0 -46 30.5 -69.5t90.5 -23.5q42 0 62 -0.5t61 -0.5l-13 -12q4 25 4 59zM363 25h65q6 0 10.5 -4t4.5 -9t-4.5 -8.5t-10.5 -3.5h-70z" />
    <glyph glyph-name="alefMaksura-ar.init" unicode="&#x649;" horiz-adv-x="247" vert-adv-y="1170" 
d="M-11.5 3.5q-3.5 3.5 -3.5 8.5q0 6 3.5 9.5t11.5 3.5q7 0 10 -1q85 0 119.5 31t34.5 91q0 26 -6 53.5t-17 56.5l-6 15q-1 3 1 5l11 6q1 1 3 0t3 -3q14 -33 23 -67.5t9 -65.5q0 -71 -41 -109t-136 -37h-8q-8 0 -11.5 3.5z" />
    <glyph glyph-name="alefMaksura-ar.medi" unicode="&#x649;" horiz-adv-x="319" vert-adv-y="1170" 
d="M-10.5 3.5q-4.5 3.5 -4.5 8.5t4.5 9t10.5 4q49 0 82.5 15t49.5 47q17 32 17 73v55q0 2 1 3t3 1h13q2 0 3 -1t1 -3v-55q0 -43 16 -73q17 -32 50.5 -47t82.5 -15q6 0 10.5 -4t4.5 -9t-4.5 -8.5t-10.5 -3.5q-62 0 -102 22t-58 66q-18 -44 -57.5 -66t-101.5 -22
q-6 0 -10.5 3.5z" />
    <glyph glyph-name="alefMaksura-ar.fina" unicode="&#x649;" horiz-adv-x="499" vert-adv-y="1170" arabic-form="final" 
d="M160.5 -201q-49.5 22 -74 61t-24.5 89q0 29 9.5 62.5t27.5 68.5q3 5 7 2l7 -4q4 -1 2 -6q-33 -68 -33 -121q0 -68 52 -108.5t152 -40.5q55 0 103.5 13t77 35.5t28.5 49.5q0 34 -29 55.5t-65.5 32t-99.5 24.5q-3 1 -4.5 2.5t-0.5 3.5l6 22q0 3 5 5q44 -10 90 -15t102 -5
q5 0 10 -4t5 -9q0 -4 -5 -8t-10 -4h-74l-12 13q104 -38 104 -110q0 -35 -30.5 -64t-84 -45.5t-120.5 -16.5q-72 0 -121.5 22z" />
    <glyph glyph-name="yeh-ar.init" unicode="&#x64a;" horiz-adv-x="247" vert-adv-y="1170" arabic-form="initial" 
d="M-11.5 3.5q-3.5 3.5 -3.5 8.5q0 6 3.5 9.5t11.5 3.5q7 0 10 -1q85 0 119.5 31t34.5 91q0 26 -6 53.5t-17 56.5l-6 15q-1 3 1 5l11 6q1 1 3 0t3 -3q14 -33 23 -67.5t9 -65.5q0 -71 -41 -109t-136 -37h-8q-8 0 -11.5 3.5zM114 -146q0 2 1 4l18 31q1 1 2.5 1t2.5 -1l32 -18
q2 0 3 -2t-1 -4l-17 -31q-1 -3 -2.5 -3t-3.5 1l-1 1l-32 18q-2 1 -2 3zM-4 -146q0 2 1 4l18 31q1 1 2 1t3 -1l32 -18q2 0 3 -2t-1 -4l-17 -31q-2 -3 -6 -2h-0.5h-0.5l-32 19q-2 1 -2 3z" />
    <glyph glyph-name="yeh-ar.medi" unicode="&#x64a;" horiz-adv-x="319" vert-adv-y="1170" arabic-form="medial" 
d="M-10.5 3.5q-4.5 3.5 -4.5 8.5t4.5 9t10.5 4q49 0 82.5 15t49.5 47q17 32 17 73v55q0 2 1 3t3 1h13q2 0 3 -1t1 -3v-55q0 -43 16 -73q17 -32 50.5 -47t82.5 -15q6 0 10.5 -4t4.5 -9t-4.5 -8.5t-10.5 -3.5q-62 0 -102 22t-58 66q-18 -44 -57.5 -66t-101.5 -22
q-6 0 -10.5 3.5zM188 -146q0 2 1 4l18 31q1 1 2.5 1t2.5 -1l32 -18q2 0 3 -2t-1 -4l-17 -31q-1 -3 -2.5 -3t-3.5 1l-1 1l-32 18q-2 1 -2 3zM70 -146q0 2 1 4l18 31q1 1 2 1t3 -1l32 -18q2 0 3 -2t-1 -4l-17 -31q-2 -3 -6 -2h-0.5h-0.5l-32 19q-2 1 -2 3z" />
    <glyph glyph-name="yeh-ar.fina" unicode="&#x64a;" horiz-adv-x="499" vert-adv-y="1170" arabic-form="final" 
d="M160.5 -201q-49.5 22 -74 61t-24.5 89q0 29 9.5 62.5t27.5 68.5q3 5 7 2l7 -4q4 -1 2 -6q-33 -68 -33 -121q0 -68 52 -108.5t152 -40.5q55 0 103.5 13t77 35.5t28.5 49.5q0 34 -29 55.5t-65.5 32t-99.5 24.5q-3 1 -4.5 2.5t-0.5 3.5l6 22q0 3 5 5q44 -10 90 -15t102 -5
q5 0 10 -4t5 -9q0 -4 -5 -8t-10 -4h-74l-12 13q104 -38 104 -110q0 -35 -30.5 -64t-84 -45.5t-120.5 -16.5q-72 0 -121.5 22zM311 -369q0 2 1 4l18 31q1 1 2.5 1t2.5 -1l32 -18q2 0 3 -2t-1 -4l-17 -31q-1 -3 -2.5 -3t-3.5 1l-1 1l-32 18q-2 1 -2 3zM193 -369q0 2 1 4l18 31
q1 1 2 1t3 -1l32 -18q2 0 3 -2t-1 -4l-17 -31q-2 -3 -6 -2h-0.5h-0.5l-32 19q-2 1 -2 3z" />
    <glyph glyph-name="behDotless-ar.init" unicode="&#x66e;" horiz-adv-x="247" vert-adv-y="1170" 
d="M-11.5 3.5q-3.5 3.5 -3.5 8.5q0 6 3.5 9.5t11.5 3.5q7 0 10 -1q85 0 119.5 31t34.5 91q0 26 -6 53.5t-17 56.5l-6 15q-1 3 1 5l11 6q1 1 3 0t3 -3q14 -33 23 -67.5t9 -65.5q0 -71 -41 -109t-136 -37h-8q-8 0 -11.5 3.5z" />
    <glyph glyph-name="behDotless-ar.medi" unicode="&#x66e;" horiz-adv-x="319" vert-adv-y="1170" 
d="M-10.5 3.5q-4.5 3.5 -4.5 8.5t4.5 9t10.5 4q49 0 82.5 15t49.5 47q17 32 17 73v55q0 2 1 3t3 1h13q2 0 3 -1t1 -3v-55q0 -43 16 -73q17 -32 50.5 -47t82.5 -15q6 0 10.5 -4t4.5 -9t-4.5 -8.5t-10.5 -3.5q-62 0 -102 22t-58 66q-18 -44 -57.5 -66t-101.5 -22
q-6 0 -10.5 3.5z" />
    <glyph glyph-name="behDotless-ar.fina" unicode="&#x66e;" horiz-adv-x="724" vert-adv-y="1170" 
d="M169 5.5q-51 16.5 -79 54t-28 97.5q0 17 4 41t13 46q1 2 2.5 3t3.5 0l11 -4q3 -1 3 -6q-8 -19 -12 -40.5t-4 -37.5q0 -77 51.5 -111t157.5 -34q108 0 174.5 35t83.5 111q4 19 4 55q0 2 1 3t3 1h14q2 0 3 -1t1 -3v-55q0 -69 38.5 -102t109.5 -33q6 0 10.5 -4t4.5 -9
t-4.5 -8.5t-10.5 -3.5q-72 0 -113 28.5t-55 87.5l12 34q-14 -60 -54.5 -96t-97 -50.5t-124.5 -14.5q-72 0 -123 16.5z" />
    <glyph glyph-name="qafDotless-ar.fina" unicode="&#x66f;" horiz-adv-x="569" vert-adv-y="1170" 
d="M160.5 -173.5q-52.5 26.5 -77 72t-24.5 103.5q0 31 7.5 63.5t22.5 64.5q1 2 3 3t3 0l10 -5q3 -2 2 -5q-27 -61 -27 -120q0 -81 50.5 -129.5t163.5 -48.5q98 0 152 43t60 131q-33 1 -66 1h-68q-72 0 -107 33.5t-35 89.5q0 41 17.5 77.5t48.5 58.5t69 22q54 0 89 -34.5
t52 -88t20 -114.5q6 -119 -52.5 -181.5t-179.5 -62.5q-81 0 -133.5 26.5zM505 39q0 41 -11.5 90.5t-42.5 88t-85 38.5q-36 0 -62 -20t-39 -51.5t-13 -64.5q0 -48 30 -71.5t89 -23.5q48 0 71 -0.5t70 -0.5l-7 -9v24zM516 25h64q6 0 10.5 -4t4.5 -9t-4.5 -8.5t-10.5 -3.5h-64
v25z" />
    <glyph glyph-name="alefWasla-ar.fina" unicode="&#x671;" horiz-adv-x="212" vert-adv-y="1170" arabic-form="final" 
d="M141 17q-34 17 -56.5 54.5t-22.5 96.5v298q0 2 1 3t3 1h14q2 0 3 -1t1 -3v-292q0 -79 39.5 -114t88.5 -35q6 0 10.5 -4t4.5 -9t-4.5 -8.5t-10.5 -3.5q-37 0 -71 17zM-96 533l-3 13q0 2 1 3.5t3 1.5q27 1 46.5 12.5t33.5 29.5l2 2q2 2 4.5 3t4.5 1q3 0 5 -1t4 -3
q2 -1 3 -3q17 -19 52.5 -30t67.5 -11q39 0 64.5 15t25.5 46q0 22 -15 39t-37 17q-25 0 -47.5 -21.5t-40.5 -59.5q-3 -6 -8 -3l-8 5q-5 3 -3 8q19 40 47 66t60 26q31 0 50.5 -23.5t19.5 -53.5q0 -41 -29.5 -61.5t-78.5 -20.5q-37 0 -74 11.5t-58 31.5q-14 -18 -37 -30
t-51 -13q-2 0 -4 3z" />
    <glyph glyph-name="tteh-ar.init" unicode="&#x679;" horiz-adv-x="247" vert-adv-y="1170" arabic-form="initial" 
d="M-11.5 3.5q-3.5 3.5 -3.5 8.5q0 6 3.5 9.5t11.5 3.5q7 0 10 -1q85 0 119.5 31t34.5 91q0 26 -6 53.5t-17 56.5l-6 15q-1 3 1 5l11 6q1 1 3 0t3 -3q14 -33 23 -67.5t9 -65.5q0 -71 -41 -109t-136 -37h-8q-8 0 -11.5 3.5zM30 361q-1 1 -1 2v14q0 4 5 4h33v198q0 4 5 4h11
q5 0 5 -4v-90q0 -25 -5 -39q17 33 40 51t51 18q32 0 52 -23.5t20 -54.5q0 -40 -30.5 -60.5t-79.5 -20.5h-104q-1 0 -2 1zM200 396q25 15 25 45q0 23 -14 40t-37 17q-31 0 -58 -32.5t-33 -84.5h53q39 0 64 15z" />
    <glyph glyph-name="tteh-ar.medi" unicode="&#x679;" horiz-adv-x="319" vert-adv-y="1170" arabic-form="medial" 
d="M-10.5 3.5q-4.5 3.5 -4.5 8.5t4.5 9t10.5 4q49 0 82.5 15t49.5 47q17 32 17 73v55q0 2 1 3t3 1h13q2 0 3 -1t1 -3v-55q0 -43 16 -73q17 -32 50.5 -47t82.5 -15q6 0 10.5 -4t4.5 -9t-4.5 -8.5t-10.5 -3.5q-62 0 -102 22t-58 66q-18 -44 -57.5 -66t-101.5 -22
q-6 0 -10.5 3.5zM59 296q-1 1 -1 2v14q0 4 5 4h33v198q0 4 5 4h11q5 0 5 -4v-90q0 -25 -5 -39q17 33 40 51t51 18q32 0 52 -23.5t20 -54.5q0 -40 -30.5 -60.5t-79.5 -20.5h-104q-1 0 -2 1zM229 331q25 15 25 45q0 23 -14 40t-37 17q-31 0 -58 -32.5t-33 -84.5h53q39 0 64 15
z" />
    <glyph glyph-name="tteh-ar.fina" unicode="&#x679;" horiz-adv-x="724" vert-adv-y="1170" arabic-form="final" 
d="M169 5.5q-51 16.5 -79 54t-28 97.5q0 17 4 41t13 46q1 2 2.5 3t3.5 0l11 -4q3 -1 3 -6q-8 -19 -12 -40.5t-4 -37.5q0 -77 51.5 -111t157.5 -34q108 0 174.5 35t83.5 111q4 19 4 55q0 2 1 3t3 1h14q2 0 3 -1t1 -3v-55q0 -69 38.5 -102t109.5 -33q6 0 10.5 -4t4.5 -9
t-4.5 -8.5t-10.5 -3.5q-72 0 -113 28.5t-55 87.5l12 34q-14 -60 -54.5 -96t-97 -50.5t-124.5 -14.5q-72 0 -123 16.5zM212 276q-1 1 -1 2v14q0 4 5 4h33v198q0 4 5 4h11q5 0 5 -4v-90q0 -25 -5 -39q17 33 40 51t51 18q32 0 52 -23.5t20 -54.5q0 -40 -30.5 -60.5t-79.5 -20.5
h-104q-1 0 -2 1zM382 311q25 15 25 45q0 23 -14 40t-37 17q-31 0 -58 -32.5t-33 -84.5h53q39 0 64 15z" />
    <glyph glyph-name="tehRing-ar.init" unicode="&#x67c;" horiz-adv-x="247" vert-adv-y="1170" 
d="M-11.5 3.5q-3.5 3.5 -3.5 8.5q0 6 3.5 9.5t11.5 3.5q7 0 10 -1q85 0 119.5 31t34.5 91q0 26 -6 53.5t-17 56.5l-6 15q-1 3 1 5l11 6q1 1 3 0t3 -3q14 -33 23 -67.5t9 -65.5q0 -71 -41 -109t-136 -37h-8q-8 0 -11.5 3.5zM158 398q0 2 1 4l18 31q1 1 2.5 1t2.5 -1l32 -18
q2 0 3 -2t-1 -4l-17 -31q-1 -3 -2.5 -3t-3.5 1l-1 1l-32 18q-2 1 -2 3zM40 398q0 2 1 4l18 31q1 1 2 1t3 -1l32 -18q2 0 3 -2t-1 -4l-17 -31q-2 -3 -6 -2h-0.5h-0.5l-32 19q-2 1 -2 3zM91 -103q-17 10 -27 27t-10 38q0 31 21.5 52t53.5 21q20 0 37 -9.5t27 -26.5t10 -37
q0 -21 -10 -38t-27 -27t-37 -10q-21 0 -38 10zM158 -88.5q13 7.5 20.5 21t7.5 29.5t-7.5 28.5t-20.5 20t-29 7.5t-29.5 -7.5t-21 -20t-7.5 -28.5t7.5 -29.5t21 -21t29.5 -7.5t29 7.5z" />
    <glyph glyph-name="tehRing-ar.medi" unicode="&#x67c;" horiz-adv-x="319" vert-adv-y="1170" 
d="M-10.5 3.5q-4.5 3.5 -4.5 8.5t4.5 9t10.5 4q49 0 82.5 15t49.5 47q17 32 17 73v55q0 2 1 3t3 1h13q2 0 3 -1t1 -3v-55q0 -43 16 -73q17 -32 50.5 -47t82.5 -15q6 0 10.5 -4t4.5 -9t-4.5 -8.5t-10.5 -3.5q-62 0 -102 22t-58 66q-18 -44 -57.5 -66t-101.5 -22
q-6 0 -10.5 3.5zM187 333q0 2 1 4l18 31q1 1 2.5 1t2.5 -1l32 -18q2 0 3 -2t-1 -4l-17 -31q-1 -3 -2.5 -3t-3.5 1l-1 1l-32 18q-2 1 -2 3zM69 333q0 2 1 4l18 31q1 1 2 1t3 -1l32 -18q2 0 3 -2t-1 -4l-17 -31q-2 -3 -6 -2h-0.5h-0.5l-32 19q-2 1 -2 3zM92.0771 -67.1768
q-13.7256 8.07324 -21.7988 21.7988t-8.07324 30.6807q0 25.0283 17.3584 41.9824q17.3584 16.9551 43.1943 16.9551q16.1475 0 29.873 -7.66992q13.7246 -7.66992 21.7988 -21.3955q8.07324 -13.7256 8.07324 -29.8721q0 -16.9551 -8.07324 -30.6807
q-8.07422 -13.7256 -21.7988 -21.7988q-13.7256 -8.07422 -29.873 -8.07422q-16.9551 0 -30.6807 8.07422zM146.172 -55.4697q10.4951 6.05469 16.5508 16.9541q6.05469 10.9004 6.05469 23.8184t-6.05469 23.0098q-6.05566 10.0918 -16.5508 16.1475
q-10.4961 6.05566 -23.4141 6.05566t-23.8174 -6.05566t-16.9551 -16.1475t-6.05566 -23.0098t6.05566 -23.8184q6.05566 -10.8994 16.9551 -16.9541q10.8994 -6.05566 23.8174 -6.05566t23.4141 6.05566z" />
    <glyph glyph-name="tehRing-ar.fina" unicode="&#x67c;" horiz-adv-x="724" vert-adv-y="1170" 
d="M169 5.5q-51 16.5 -79 54t-28 97.5q0 17 4 41t13 46q1 2 2.5 3t3.5 0l11 -4q3 -1 3 -6q-8 -19 -12 -40.5t-4 -37.5q0 -77 51.5 -111t157.5 -34q108 0 174.5 35t83.5 111q4 19 4 55q0 2 1 3t3 1h14q2 0 3 -1t1 -3v-55q0 -69 38.5 -102t109.5 -33q6 0 10.5 -4t4.5 -9
t-4.5 -8.5t-10.5 -3.5q-72 0 -113 28.5t-55 87.5l12 34q-14 -60 -54.5 -96t-97 -50.5t-124.5 -14.5q-72 0 -123 16.5zM340 312q0 2 1 4l18 31q1 1 2.5 1t2.5 -1l32 -18q2 0 3 -2t-1 -4l-17 -31q-1 -3 -2.5 -3t-3.5 1l-1 1l-32 18q-2 1 -2 3zM222 312q0 2 1 4l18 31q1 1 2 1
t3 -1l32 -18q2 0 3 -2t-1 -4l-17 -31q-2 -3 -6 -2h-0.5h-0.5l-32 19q-2 1 -2 3zM279 -132q-17 10 -27 27t-10 38q0 31 21.5 52t53.5 21q20 0 37 -9.5t27 -26.5t10 -37q0 -21 -10 -38t-27 -27t-37 -10q-21 0 -38 10zM346 -117.5q13 7.5 20.5 21t7.5 29.5t-7.5 28.5t-20.5 20
t-29 7.5t-29.5 -7.5t-21 -20t-7.5 -28.5t7.5 -29.5t21 -21t29.5 -7.5t29 7.5z" />
    <glyph glyph-name="peh-ar.init" unicode="&#x67e;" horiz-adv-x="247" vert-adv-y="1170" arabic-form="initial" 
d="M-11.5 3.5q-3.5 3.5 -3.5 8.5q0 6 3.5 9.5t11.5 3.5q7 0 10 -1q85 0 119.5 31t34.5 91q0 26 -6 53.5t-17 56.5l-6 15q-1 3 1 5l11 6q1 1 3 0t3 -3q14 -33 23 -67.5t9 -65.5q0 -71 -41 -109t-136 -37h-8q-8 0 -11.5 3.5zM114.5 -146.5q-0.5 1.5 0.5 3.5l17 31q1 3 3 3
t4 -1l32 -19q2 -1 2 -3t-1 -3l-18 -31q-1 -2 -2.5 -2t-2.5 1l-32 18q-2 1 -2.5 2.5zM60.5 -234.5q-0.5 2.5 0.5 4.5l17 31q1 3 3 3t5 -1l32 -19q2 -1 2 -3t-1 -4l-19 -31q0 -1 -1.5 -1t-3.5 1l-32 16q-2 1 -2.5 3.5zM-4 -146q0 2 1 3l17 31q1 3 2.5 3t4.5 -1l32 -19
q2 -1 2 -3t-1 -3l-18 -31q-1 -2 -2.5 -2t-3.5 1l-32 18q-2 1 -2 3z" />
    <glyph glyph-name="peh-ar.medi" unicode="&#x67e;" horiz-adv-x="319" vert-adv-y="1170" arabic-form="medial" 
d="M-10.5 3.5q-4.5 3.5 -4.5 8.5t4.5 9t10.5 4q49 0 82.5 15t49.5 47q17 32 17 73v55q0 2 1 3t3 1h13q2 0 3 -1t1 -3v-55q0 -43 16 -73q17 -32 50.5 -47t82.5 -15q6 0 10.5 -4t4.5 -9t-4.5 -8.5t-10.5 -3.5q-62 0 -102 22t-58 66q-18 -44 -57.5 -66t-101.5 -22
q-6 0 -10.5 3.5zM188.5 -146.5q-0.5 1.5 0.5 3.5l17 31q1 3 3 3t4 -1l32 -19q2 -1 2 -3t-1 -3l-18 -31q-1 -2 -2.5 -2t-2.5 1l-32 18q-2 1 -2.5 2.5zM134.5 -234.5q-0.5 2.5 0.5 4.5l17 31q1 3 3 3t5 -1l32 -19q2 -1 2 -3t-1 -4l-19 -31q0 -1 -1.5 -1t-3.5 1l-32 16
q-2 1 -2.5 3.5zM70 -146q0 2 1 3l17 31q1 3 2.5 3t4.5 -1l32 -19q2 -1 2 -3t-1 -3l-18 -31q-1 -2 -2.5 -2t-3.5 1l-32 18q-2 1 -2 3z" />
    <glyph glyph-name="peh-ar.fina" unicode="&#x67e;" horiz-adv-x="724" vert-adv-y="1170" arabic-form="final" 
d="M169 5.5q-51 16.5 -79 54t-28 97.5q0 17 4 41t13 46q1 2 2.5 3t3.5 0l11 -4q3 -1 3 -6q-8 -19 -12 -40.5t-4 -37.5q0 -77 51.5 -111t157.5 -34q108 0 174.5 35t83.5 111q4 19 4 55q0 2 1 3t3 1h14q2 0 3 -1t1 -3v-55q0 -69 38.5 -102t109.5 -33q6 0 10.5 -4t4.5 -9
t-4.5 -8.5t-10.5 -3.5q-72 0 -113 28.5t-55 87.5l12 34q-14 -60 -54.5 -96t-97 -50.5t-124.5 -14.5q-72 0 -123 16.5zM321.5 -157.5q-0.5 1.5 0.5 3.5l17 31q1 3 3 3t4 -1l32 -19q2 -1 2 -3t-1 -3l-18 -31q-1 -2 -2.5 -2t-2.5 1l-32 18q-2 1 -2.5 2.5zM267.5 -245.5
q-0.5 2.5 0.5 4.5l17 31q1 3 3 3t5 -1l32 -19q2 -1 2 -3t-1 -4l-19 -31q0 -1 -1.5 -1t-3.5 1l-32 16q-2 1 -2.5 3.5zM203 -157q0 2 1 3l17 31q1 3 2.5 3t4.5 -1l32 -19q2 -1 2 -3t-1 -3l-18 -31q-1 -2 -2.5 -2t-3.5 1l-32 18q-2 1 -2 3z" />
    <glyph glyph-name="tcheh-ar.init" unicode="&#x686;" horiz-adv-x="483" vert-adv-y="1170" arabic-form="initial" 
d="M-10.5 3.5q-4.5 3.5 -4.5 8.5t4.5 9t10.5 4q54 0 116 25q25 11 49.5 23t48.5 25q42 22 71 36q22 10 46.5 20t47.5 16q-13 7 -25 15l-7 5l-87 56l-13 8q-28 18 -48.5 27.5t-44.5 9.5q-32 1 -53.5 -19.5t-27.5 -51.5q-2 -18 1 -31q1 -2 -0.5 -3.5t-3.5 -2.5l-10 -2
q-3 -1 -5 4q-4 17 -1 37q3 26 17 47.5t36.5 34t48.5 12.5q27 0 53 -12.5t61 -35.5l40 -27q30 -17 52 -33q17 -11 30 -18.5t26 -10.5q3 -1 3 -6l-1 -17q0 -4 -4 -4q-5 -1 -45 -11q-40 -11 -76.5 -28t-87.5 -43q-71 -36 -114.5 -53t-91.5 -17h-1q-6 0 -10.5 3.5zM289.5 -113.5
q-0.5 1.5 0.5 3.5l17 31q1 3 3 3t4 -1l32 -19q2 -1 2 -3t-1 -3l-18 -31q-1 -2 -2.5 -2t-2.5 1l-32 18q-2 1 -2.5 2.5zM235.5 -201.5q-0.5 2.5 0.5 4.5l17 31q1 3 3 3t5 -1l32 -19q2 -1 2 -3t-1 -4l-19 -31q0 -1 -1.5 -1t-3.5 1l-32 16q-2 1 -2.5 3.5zM171 -113q0 2 1 3
l17 31q1 3 2.5 3t4.5 -1l32 -19q2 -1 2 -3t-1 -3l-18 -31q-1 -2 -2.5 -2t-3.5 1l-32 18q-2 1 -2 3z" />
    <glyph glyph-name="tcheh-ar.medi" unicode="&#x686;" horiz-adv-x="516" vert-adv-y="1170" arabic-form="medial" 
d="M-10.5 3.5q-4.5 3.5 -4.5 8.5t4.5 9t10.5 4q54 0 116 25q25 11 49.5 23t48.5 25q42 22 71 36q22 10 46.5 20t47.5 16q-13 7 -25 15l-7 5l-87 56l-13 8q-28 18 -48.5 27.5t-44.5 9.5q-32 1 -53.5 -19.5t-27.5 -51.5q-2 -18 1 -31q1 -2 -0.5 -3.5t-3.5 -2.5l-10 -2
q-3 -1 -5 4q-4 17 -1 37q3 26 17 47.5t36.5 34t48.5 12.5q27 0 53 -12.5t61 -35.5l40 -27q30 -17 52 -33q17 -11 30 -18.5t26 -10.5q3 -1 3 -6l-1 -17q0 -4 -4 -4q-5 -1 -45 -11q-40 -11 -76.5 -28t-87.5 -43q-71 -36 -114.5 -53t-91.5 -17h-1q-6 0 -10.5 3.5zM435.5 15
q-35.5 15 -57 45.5t-25.5 75.5l18 7q4 -40 22.5 -66t49.5 -39t73 -13q6 0 10.5 -4t4.5 -9t-4.5 -8.5t-10.5 -3.5q-45 0 -80.5 15zM289.5 -113.5q-0.5 1.5 0.5 3.5l17 31q1 3 3 3t4 -1l32 -19q2 -1 2 -3t-1 -3l-18 -31q-1 -2 -2.5 -2t-2.5 1l-32 18q-2 1 -2.5 2.5z
M235.5 -201.5q-0.5 2.5 0.5 4.5l17 31q1 3 3 3t5 -1l32 -19q2 -1 2 -3t-1 -4l-19 -31q0 -1 -1.5 -1t-3.5 1l-32 16q-2 1 -2.5 3.5zM171 -113q0 2 1 3l17 31q1 3 2.5 3t4.5 -1l32 -19q2 -1 2 -3t-1 -3l-18 -31q-1 -2 -2.5 -2t-3.5 1l-32 18q-2 1 -2 3z" />
    <glyph glyph-name="tcheh-ar.fina" unicode="&#x686;" horiz-adv-x="562" vert-adv-y="1170" arabic-form="final" 
d="M168.5 -186q-48.5 18 -77 53t-29.5 85q-1 81 55 133t135.5 79t178.5 45q-30 12 -77 38l-74 40q-24 14 -50 23.5t-48 10.5q-34 0 -55 -20t-27 -51q-3 -20 0 -40q0 -4 -4 -5l-13 -1q-4 -1 -6 3q-3 25 2 51q4 25 19 45t37.5 30.5t50.5 10.5q25 0 48.5 -8.5t53.5 -25.5
l58 -31l34 -18q36 -19 50 -24t30 -8q3 0 4 -4v-1v-32q0 -2 -1 -3t-3 -2q-13 -2 -27 -4q-3 0 -7 -1q-142 -26 -242 -77t-100 -153q0 -64 54 -97.5t138 -33.5q51 0 96.5 9.5t85.5 28.5q2 0 3.5 -0.5t2.5 -2.5l6 -11q1 -2 0.5 -4t-2.5 -2q-47 -22 -93 -32.5t-98 -10.5
q-60 0 -108.5 18zM471 19.5q-38 19.5 -57 59t-16 97.5l22 5q-4 -52 11.5 -87t48.5 -52t82 -17q6 0 10.5 -4t4.5 -9t-4.5 -8.5t-10.5 -3.5q-53 0 -91 19.5zM302 -3l16 28q1 3 2.5 3t3.5 -1l28 -17q2 -1 2 -3t-1 -3l-16 -27q-1 -1 -2 -1.5t-2 0.5l-29 16q-4 1 -2 5zM254 -80
l15 27q1 3 3 3t4 -1l29 -17q2 -1 2 -3t-1 -3l-17 -28q0 -1 -1.5 -1t-3.5 1l-28 14q-5 3 -2 8zM196 -5.5q0 1.5 1 2.5l15 28q1 3 2.5 3t3.5 -1l29 -17q2 -1 2 -3t-1 -3l-16 -27q-1 -2 -2.5 -2t-3.5 1l-28 16q-2 1 -2 2.5z" />
    <glyph glyph-name="ddal-ar.fina" unicode="&#x688;" horiz-adv-x="502" vert-adv-y="1170" arabic-form="final" 
d="M67 0q-4 2 -4 5l2 15q0 2 1 3t3 1q27 -3 53 -3q84 0 136 26.5t52 83.5q0 40 -5 64q-13 66 -26 131q-1 4 3 6l12 4q3 1 4.5 0t2.5 -3q6 -28 12 -57q8 -38 11 -57q20 -97 58.5 -145.5t119.5 -48.5q6 0 10.5 -4t4.5 -9t-4.5 -8.5t-10.5 -3.5q-66 0 -107.5 29t-62.5 83
q-10 -52 -61.5 -83t-145.5 -31q-16 0 -58 2zM179 408q-1 1 -1 2v14q0 4 5 4h33v198q0 4 5 4h11q5 0 5 -4v-90q0 -25 -5 -39q17 33 40 51t51 18q32 0 52 -23.5t20 -54.5q0 -40 -30.5 -60.5t-79.5 -20.5h-104q-1 0 -2 1zM349 443q25 15 25 45q0 23 -14 40t-37 17
q-31 0 -58 -32.5t-33 -84.5h53q39 0 64 15z" />
    <glyph glyph-name="dalRing-ar.fina" unicode="&#x689;" horiz-adv-x="502" vert-adv-y="1170" 
d="M67 0q-4 2 -4 5l2 15q0 2 1 3t3 1q27 -3 53 -3q84 0 136 26.5t52 83.5q0 40 -5 64q-13 66 -26 131q-1 4 3 6l12 4q3 1 4.5 0t2.5 -3q6 -28 12 -57q8 -38 11 -57q20 -97 58.5 -145.5t119.5 -48.5q6 0 10.5 -4t4.5 -9t-4.5 -8.5t-10.5 -3.5q-66 0 -107.5 29t-62.5 83
q-10 -52 -61.5 -83t-145.5 -31q-16 0 -58 2zM166 -118q-17 10 -27 27t-10 38q0 31 21.5 52t53.5 21q20 0 37 -9.5t27 -26.5t10 -37q0 -21 -10 -38t-27 -27t-37 -10q-21 0 -38 10zM233 -103.5q13 7.5 20.5 21t7.5 29.5t-7.5 28.5t-20.5 20t-29 7.5t-29.5 -7.5t-21 -20
t-7.5 -28.5t7.5 -29.5t21 -21t29.5 -7.5t29 7.5z" />
    <glyph glyph-name="rreh-ar.fina" unicode="&#x691;" horiz-adv-x="302" vert-adv-y="1170" arabic-form="final" 
d="M-47 -190q-4 0 -4 4v17q0 2 1 3t3 1q21 -1 40 0q71 7 111 52t42 121q1 49 -6.5 88t-22.5 99q-1 3 0 5t3 3l12 2q2 1 3 0l2 -2q13 -48 15 -59q12 -53 51 -86t99 -33q6 0 10.5 -4t4.5 -9t-4.5 -8.5t-10.5 -3.5q-50 0 -91.5 23t-57.5 59l10 1q4 -32 4 -73q-1 -49 -19 -92.5
t-55.5 -72.5t-94.5 -34q-28 -2 -45 -1zM10 288q-1 1 -1 2v14q0 4 5 4h33v198q0 4 5 4h11q5 0 5 -4v-90q0 -25 -5 -39q17 33 40 51t51 18q32 0 52 -23.5t20 -54.5q0 -40 -30.5 -60.5t-79.5 -20.5h-104q-1 0 -2 1zM180 323q25 15 25 45q0 23 -14 40t-37 17q-31 0 -58 -32.5
t-33 -84.5h53q39 0 64 15z" />
    <glyph glyph-name="rehRing-ar.fina" unicode="&#x693;" horiz-adv-x="302" vert-adv-y="1170" 
d="M-47 -190q-4 0 -4 4v17q0 2 1 3t3 1q21 -1 40 0q71 7 111 52t42 121q1 49 -6.5 88t-22.5 99q-1 3 0 5t3 3l12 2q2 1 3 0l2 -2q13 -48 15 -59q12 -53 51 -86t99 -33q6 0 10.5 -4t4.5 -9t-4.5 -8.5t-10.5 -3.5q-50 0 -91.5 23t-57.5 59l10 1q4 -32 4 -73q-1 -49 -19 -92.5
t-55.5 -72.5t-94.5 -34q-28 -2 -45 -1zM146 -226q-17 10 -27 27t-10 38q0 31 21.5 52t53.5 21q20 0 37 -9.5t27 -26.5t10 -37q0 -21 -10 -38t-27 -27t-37 -10q-21 0 -38 10zM213 -211.5q13 7.5 20.5 21t7.5 29.5t-7.5 28.5t-20.5 20t-29 7.5t-29.5 -7.5t-21 -20t-7.5 -28.5
t7.5 -29.5t21 -21t29.5 -7.5t29 7.5z" />
    <glyph glyph-name="rehVbelow-ar.fina" unicode="&#x695;" horiz-adv-x="302" vert-adv-y="1170" 
d="M-47 -190q-4 0 -4 4v17q0 2 1 3t3 1q21 -1 40 0q71 7 111 52t42 121q1 49 -6.5 88t-22.5 99q-1 3 0 5t3 3l12 2q2 1 3 0l2 -2q13 -48 15 -59q12 -53 51 -86t99 -33q6 0 10.5 -4t4.5 -9t-4.5 -8.5t-10.5 -3.5q-50 0 -91.5 23t-57.5 59l10 1q4 -32 4 -73q-1 -49 -19 -92.5
t-55.5 -72.5t-94.5 -34q-28 -2 -45 -1zM95.5 -413q-1.5 1 -2.5 3l-71 171q-1 4 2 6l7 4q2 1 4 0t2 -3l72 -165l72 167q0 2 2 2.5t4 -0.5l7 -4q2 -1 2.5 -2t-0.5 -3l-72 -173q0 -2 -1.5 -3t-2.5 -1h-22q-1 0 -2.5 1z" />
    <glyph glyph-name="jeh-ar.fina" unicode="&#x698;" horiz-adv-x="302" vert-adv-y="1170" arabic-form="final" 
d="M-47 -190q-4 0 -4 4v17q0 2 1 3t3 1q21 -1 40 0q71 7 111 52t42 121q1 49 -6.5 88t-22.5 99q-1 3 0 5t3 3l12 2q2 1 3 0l2 -2q13 -48 15 -59q12 -53 51 -86t99 -33q6 0 10.5 -4t4.5 -9t-4.5 -8.5t-10.5 -3.5q-50 0 -91.5 23t-57.5 59l10 1q4 -32 4 -73q-1 -49 -19 -92.5
t-55.5 -72.5t-94.5 -34q-28 -2 -45 -1zM79 340.5q1 -1.5 -1 -3.5l-17 -31q-1 -3 -3 -3t-4 1l-32 19q-2 1 -2 3t1 3l18 31q1 2 2.5 2t2.5 -1l32 -18q2 -1 3 -2.5zM132.5 428.5q0.5 -2.5 -0.5 -4.5l-17 -31q-1 -3 -3 -3t-5 1l-32 19q-2 1 -2 3t1 4l19 31q0 1 1.5 1t3.5 -1
l32 -16q2 -1 2.5 -3.5zM197 340q0 -2 -1 -3l-17 -31q-1 -3 -2.5 -3t-4.5 1l-32 19q-2 1 -2 3t1 3l18 31q1 2 2.5 2t3.5 -1l32 -18q2 -1 2 -3z" />
    <glyph glyph-name="fehDotless-ar.init" unicode="&#x6a1;" horiz-adv-x="360" vert-adv-y="1170" 
d="M-10.5 3.5q-4.5 3.5 -4.5 8.5t4.5 9t10.5 4h74q106 0 158 42t49 118q-18 -32 -49.5 -48.5t-76.5 -15.5q-41 0 -69 14.5t-42 40t-14 59.5q0 39 16.5 74.5t46 57.5t64.5 22q52 0 85 -36t47 -85.5t14 -91.5q0 -87 -58.5 -131.5t-170.5 -44.5h-74q-6 0 -10.5 3.5z
M237.5 168.5q29.5 24.5 29.5 65.5q0 32 -13 62t-38 49.5t-57 19.5q-50 0 -79 -38.5t-29 -92.5q0 -44 27.5 -67t76.5 -23q53 0 82.5 24.5z" />
    <glyph glyph-name="fehDotless-ar.medi" unicode="&#x6a1;" horiz-adv-x="424" vert-adv-y="1170" 
d="M-10.5 3.5q-4.5 3.5 -4.5 8.5t4.5 9t10.5 4h32q69 0 121 7q-43 18 -59.5 52t-16.5 68q0 38 18 74t49 58.5t68 22.5t67.5 -22.5t48.5 -58.5t18 -74q0 -35 -16.5 -68.5t-59.5 -51.5q53 -7 122 -7h32q5 0 10 -4t5 -9q0 -4 -5 -8t-10 -4h-12q-56 0 -109 6.5t-91 18.5
q-38 -12 -91 -18.5t-110 -6.5h-11q-6 0 -10.5 3.5zM291 75.5q33 26.5 33 76.5q0 33 -15 63t-40.5 48.5t-56.5 18.5t-57 -18.5t-41 -49t-15 -62.5q0 -51 33.5 -77t79.5 -26t79 26.5z" />
    <glyph glyph-name="fehDotless-ar.fina" unicode="&#x6a1;" horiz-adv-x="764" vert-adv-y="1170" 
d="M631.5 75.5q33.5 26.5 33.5 76.5q0 32 -15 62.5t-41 49t-57 18.5t-57 -18.5t-41 -49t-15 -62.5q0 -50 33.5 -76.5t79.5 -26.5t79.5 26.5zM392.5 18.5q54.5 4.5 100.5 13.5q-43 18 -59 51.5t-16 68.5q0 38 18 74t48.5 58.5t67.5 22.5t67.5 -22.5t48.5 -58.5t18 -74
q0 -35 -16.5 -68.5t-59.5 -51.5q53 -7 122 -7h32q6 0 10.5 -4t4.5 -9t-4.5 -8.5t-10.5 -3.5h-12q-55 0 -108.5 7t-92.5 18q-53 -19 -123 -27.5t-127 -8.5q-113 0 -176 39.5t-63 127.5q0 18 4 42t13 46q1 2 2.5 3t3.5 0l11 -4q3 -1 3 -6q-8 -19 -12 -40.5t-4 -37.5
q0 -77 53.5 -111t164.5 -34q37 0 91.5 4.5z" />
    <glyph glyph-name="veh-ar.init" unicode="&#x6a4;" horiz-adv-x="360" vert-adv-y="1170" arabic-form="initial" 
d="M-10.5 3.5q-4.5 3.5 -4.5 8.5t4.5 9t10.5 4h74q106 0 158 42t49 118q-18 -32 -49.5 -48.5t-76.5 -15.5q-41 0 -69 14.5t-42 40t-14 59.5q0 39 16.5 74.5t46 57.5t64.5 22q52 0 85 -36t47 -85.5t14 -91.5q0 -87 -58.5 -131.5t-170.5 -44.5h-74q-6 0 -10.5 3.5z
M237.5 168.5q29.5 24.5 29.5 65.5q0 32 -13 62t-38 49.5t-57 19.5q-50 0 -79 -38.5t-29 -92.5q0 -44 27.5 -67t76.5 -23q53 0 82.5 24.5zM116 518.5q1 -1.5 -1 -3.5l-17 -31q-1 -3 -3 -3t-4 1l-32 19q-2 1 -2 3t1 3l18 31q1 2 2.5 2t2.5 -1l32 -18q2 -1 3 -2.5zM169.5 606.5
q0.5 -2.5 -0.5 -4.5l-17 -31q-1 -3 -3 -3t-5 1l-32 19q-2 1 -2 3t1 4l19 31q0 1 1.5 1t3.5 -1l32 -16q2 -1 2.5 -3.5zM234 518q0 -2 -1 -3l-17 -31q-1 -3 -2.5 -3t-4.5 1l-32 19q-2 1 -2 3t1 3l18 31q1 2 2.5 2t3.5 -1l32 -18q2 -1 2 -3z" />
    <glyph glyph-name="veh-ar.medi" unicode="&#x6a4;" horiz-adv-x="424" vert-adv-y="1170" arabic-form="medial" 
d="M-10.5 3.5q-4.5 3.5 -4.5 8.5t4.5 9t10.5 4h32q69 0 121 7q-43 18 -59.5 52t-16.5 68q0 38 18 74t49 58.5t68 22.5t67.5 -22.5t48.5 -58.5t18 -74q0 -35 -16.5 -68.5t-59.5 -51.5q53 -7 122 -7h32q5 0 10 -4t5 -9q0 -4 -5 -8t-10 -4h-12q-56 0 -109 6.5t-91 18.5
q-38 -12 -91 -18.5t-110 -6.5h-11q-6 0 -10.5 3.5zM291 75.5q33 26.5 33 76.5q0 33 -15 63t-40.5 48.5t-56.5 18.5t-57 -18.5t-41 -49t-15 -62.5q0 -51 33.5 -77t79.5 -26t79 26.5zM173 436.5q1 -1.5 -1 -3.5l-17 -31q-1 -3 -3 -3t-4 1l-32 19q-2 1 -2 3t1 3l18 31
q1 2 2.5 2t2.5 -1l32 -18q2 -1 3 -2.5zM226.5 524.5q0.5 -2.5 -0.5 -4.5l-17 -31q-1 -3 -3 -3t-5 1l-32 19q-2 1 -2 3t1 4l19 31q0 1 1.5 1t3.5 -1l32 -16q2 -1 2.5 -3.5zM291 436q0 -2 -1 -3l-17 -31q-1 -3 -2.5 -3t-4.5 1l-32 19q-2 1 -2 3t1 3l18 31q1 2 2.5 2t3.5 -1
l32 -18q2 -1 2 -3z" />
    <glyph glyph-name="veh-ar.fina" unicode="&#x6a4;" horiz-adv-x="764" vert-adv-y="1170" arabic-form="final" 
d="M631.5 75.5q33.5 26.5 33.5 76.5q0 32 -15 62.5t-41 49t-57 18.5t-57 -18.5t-41 -49t-15 -62.5q0 -50 33.5 -76.5t79.5 -26.5t79.5 26.5zM392.5 18.5q54.5 4.5 100.5 13.5q-43 18 -59 51.5t-16 68.5q0 38 18 74t48.5 58.5t67.5 22.5t67.5 -22.5t48.5 -58.5t18 -74
q0 -35 -16.5 -68.5t-59.5 -51.5q53 -7 122 -7h32q6 0 10.5 -4t4.5 -9t-4.5 -8.5t-10.5 -3.5h-12q-55 0 -108.5 7t-92.5 18q-53 -19 -123 -27.5t-127 -8.5q-113 0 -176 39.5t-63 127.5q0 18 4 42t13 46q1 2 2.5 3t3.5 0l11 -4q3 -1 3 -6q-8 -19 -12 -40.5t-4 -37.5
q0 -77 53.5 -111t164.5 -34q37 0 91.5 4.5zM522 436.5q1 -1.5 -1 -3.5l-17 -31q-1 -3 -3 -3t-4 1l-32 19q-2 1 -2 3t1 3l18 31q1 2 2.5 2t2.5 -1l32 -18q2 -1 3 -2.5zM575.5 524.5q0.5 -2.5 -0.5 -4.5l-17 -31q-1 -3 -3 -3t-5 1l-32 19q-2 1 -2 3t1 4l19 31q0 1 1.5 1
t3.5 -1l32 -16q2 -1 2.5 -3.5zM640 436q0 -2 -1 -3l-17 -31q-1 -3 -2.5 -3t-4.5 1l-32 19q-2 1 -2 3t1 3l18 31q1 2 2.5 2t3.5 -1l32 -18q2 -1 2 -3z" />
    <glyph glyph-name="keheh-ar.init" unicode="&#x6a9;" horiz-adv-x="242" vert-adv-y="1170" arabic-form="initial" 
d="M-10.5 3.5q-4.5 3.5 -4.5 8.5t4.5 9t10.5 4h13q76 0 117.5 31t41.5 82q0 49 -31 96.5t-96 91.5q-20 14 -43 27t-49 26q-4 1 -4 5v31q0 2 3 5l281 110q2 1 4 0.5t2 -2.5l5 -13q1 -2 0.5 -3.5t-2.5 -2.5l-276 -107q129 -68 178 -134.5t49 -129.5q0 -42 -21.5 -73t-62.5 -48
t-97 -17h-12q-6 0 -10.5 3.5z" />
    <glyph glyph-name="keheh-ar.medi" unicode="&#x6a9;" horiz-adv-x="439" vert-adv-y="1170" arabic-form="medial" 
d="M-10.5 3.5q-4.5 3.5 -4.5 8.5t4.5 9t10.5 4h26q72 0 118 33t46 84q0 33 -13 57.5t-45 62.5q-58 68 -144 121q-3 2 -3 5v25q0 3 4 5l280 110q2 1 4 0.5t2 -2.5l5 -13q1 -2 0.5 -3.5t-2.5 -2.5l-275 -107q71 -47 142 -120q19 -20 38 -45t39 -54q15 -19 22 -28.5l21 -28.5
l24 -28q23 -23 46.5 -39t49.5 -24t54 -8q5 0 10 -4t5 -9q0 -4 -5 -8t-10 -4q-55 0 -101 26.5t-92 86.5q-11 14 -22 31l-12 18q4 -46 -17.5 -82.5t-65.5 -58t-104 -21.5h-25q-6 0 -10.5 3.5z" />
    <glyph glyph-name="keheh-ar.fina" unicode="&#x6a9;" horiz-adv-x="805" vert-adv-y="1170" arabic-form="final" 
d="M165 5.5q-56 16.5 -85 53.5t-29 97q0 17 4.5 41.5t12.5 46.5q1 2 2.5 3t3.5 0l11 -4q5 -1 3 -6q-8 -19 -12 -40.5t-4 -37.5q0 -77 55 -111t177 -34q85 0 141.5 18.5t85.5 51.5q25 32 25 63q0 29 -14 54t-46 63q-26 32 -62.5 62.5t-79.5 56.5q-1 1 -1.5 2.5t-0.5 2.5
l-1 25q0 3 4 5l281 110q2 1 3.5 0t1.5 -2l5 -13q1 -2 0.5 -3.5t-2.5 -2.5l-275 -107q73 -48 142 -121q18 -19 39.5 -46.5t40.5 -54.5t43 -58l12 -14t13 -14q21 -22 44 -37t48.5 -22.5t53.5 -7.5q6 0 10.5 -4t4.5 -9t-4.5 -8.5t-10.5 -3.5q-56 0 -102.5 26.5t-91.5 86.5
q-16 24 -31 48q-4 -82 -71.5 -127t-204.5 -45q-83 0 -139 16.5z" />
    <glyph glyph-name="kafRing-ar.init" unicode="&#x6ab;" horiz-adv-x="242" vert-adv-y="1170" 
d="M-10.5 3.5q-4.5 3.5 -4.5 8.5t4.5 9t10.5 4h13q76 0 117.5 31t41.5 82q0 49 -31 96.5t-96 91.5q-20 14 -43 27t-49 26q-4 1 -4 5v31q0 2 3 5l281 110q2 1 4 0.5t2 -2.5l5 -13q1 -2 0.5 -3.5t-2.5 -2.5l-276 -107q129 -68 178 -134.5t49 -129.5q0 -42 -21.5 -73t-62.5 -48
t-97 -17h-12q-6 0 -10.5 3.5zM98 359q-22 22 -22 54q0 31 22 52.5t54 21.5t53.5 -21.5t21.5 -52.5q0 -32 -21.5 -54t-53.5 -22t-54 22zM193.5 371q16.5 17 16.5 42q0 24 -16.5 40.5t-41.5 16.5t-42 -16.5t-17 -40.5q0 -25 17 -42t42 -17t41.5 17z" />
    <glyph glyph-name="kafRing-ar.medi" unicode="&#x6ab;" horiz-adv-x="439" vert-adv-y="1170" 
d="M-10.5 3.5q-4.5 3.5 -4.5 8.5t4.5 9t10.5 4h26q72 0 118 33t46 84q0 33 -13 57.5t-45 62.5q-58 68 -144 121q-3 2 -3 5v25q0 3 4 5l280 110q2 1 4 0.5t2 -2.5l5 -13q1 -2 0.5 -3.5t-2.5 -2.5l-275 -107q71 -47 142 -120q19 -20 38 -45t39 -54q15 -19 22 -28.5l21 -28.5
l24 -28q23 -23 46.5 -39t49.5 -24t54 -8q5 0 10 -4t5 -9q0 -4 -5 -8t-10 -4q-55 0 -101 26.5t-92 86.5q-11 14 -22 31l-12 18q4 -46 -17.5 -82.5t-65.5 -58t-104 -21.5h-25q-6 0 -10.5 3.5zM134 357q-22 22 -22 54q0 31 22 52.5t54 21.5t53.5 -21.5t21.5 -52.5
q0 -32 -21.5 -54t-53.5 -22t-54 22zM229.5 369q16.5 17 16.5 42q0 24 -16.5 40.5t-41.5 16.5t-42 -16.5t-17 -40.5q0 -25 17 -42t42 -17t41.5 17z" />
    <glyph glyph-name="kafRing-ar.fina" unicode="&#x6ab;" horiz-adv-x="805" vert-adv-y="1170" 
d="M165 5.5q-56 16.5 -85 53.5t-29 97q0 17 4.5 41.5t12.5 46.5q1 2 2.5 3t3.5 0l11 -4q5 -1 3 -6q-8 -19 -12 -40.5t-4 -37.5q0 -77 55 -111t177 -34q85 0 141.5 18.5t85.5 51.5q25 32 25 63q0 29 -14 54t-46 63q-26 32 -62.5 62.5t-79.5 56.5q-1 1 -1.5 2.5t-0.5 2.5
l-1 25q0 3 4 5l281 110q2 1 3.5 0t1.5 -2l5 -13q1 -2 0.5 -3.5t-2.5 -2.5l-275 -107q73 -48 142 -121q18 -19 39.5 -46.5t40.5 -54.5t43 -58l12 -14t13 -14q21 -22 44 -37t48.5 -22.5t53.5 -7.5q6 0 10.5 -4t4.5 -9t-4.5 -8.5t-10.5 -3.5q-56 0 -102.5 26.5t-91.5 86.5
q-16 24 -31 48q-4 -82 -71.5 -127t-204.5 -45q-83 0 -139 16.5zM500 357q-22 22 -22 54q0 31 22 52.5t54 21.5t53.5 -21.5t21.5 -52.5q0 -32 -21.5 -54t-53.5 -22t-54 22zM595.5 369q16.5 17 16.5 42q0 24 -16.5 40.5t-41.5 16.5t-42 -16.5t-17 -40.5q0 -25 17 -42t42 -17
t41.5 17z" />
    <glyph glyph-name="gaf-ar.init" unicode="&#x6af;" horiz-adv-x="242" vert-adv-y="1170" arabic-form="initial" 
d="M-10.5 3.5q-4.5 3.5 -4.5 8.5t4.5 9t10.5 4h13q76 0 117.5 31t41.5 82q0 49 -31 96.5t-96 91.5q-20 14 -43 27t-49 26q-4 1 -4 5v31q0 2 3 5l281 110q2 1 4 0.5t2 -2.5l5 -13q1 -2 0.5 -3.5t-2.5 -2.5l-276 -107q129 -68 178 -134.5t49 -129.5q0 -42 -21.5 -73t-62.5 -48
t-97 -17h-12q-6 0 -10.5 3.5zM-44 510l-6 16q0 5 4 6l234 91q5 2 7 -3l5 -15q2 -5 -3 -7l-235 -90q-5 -2 -6 2z" />
    <glyph glyph-name="gaf-ar.medi" unicode="&#x6af;" horiz-adv-x="439" vert-adv-y="1170" arabic-form="medial" 
d="M-10.5 3.5q-4.5 3.5 -4.5 8.5t4.5 9t10.5 4h26q72 0 118 33t46 84q0 33 -13 57.5t-45 62.5q-58 68 -144 121q-3 2 -3 5v25q0 3 4 5l280 110q2 1 4 0.5t2 -2.5l5 -13q1 -2 0.5 -3.5t-2.5 -2.5l-275 -107q71 -47 142 -120q19 -20 38 -45t39 -54q15 -19 22 -28.5l21 -28.5
l24 -28q23 -23 46.5 -39t49.5 -24t54 -8q5 0 10 -4t5 -9q0 -4 -5 -8t-10 -4q-55 0 -101 26.5t-92 86.5q-11 14 -22 31l-12 18q4 -46 -17.5 -82.5t-65.5 -58t-104 -21.5h-25q-6 0 -10.5 3.5zM-43 508l-6 16q0 5 4 6l234 91q5 2 7 -3l5 -15q2 -5 -3 -7l-235 -90q-5 -2 -6 2z
" />
    <glyph glyph-name="gaf-ar.fina" unicode="&#x6af;" horiz-adv-x="805" vert-adv-y="1170" arabic-form="final" 
d="M165 5.5q-56 16.5 -85 53.5t-29 97q0 17 4.5 41.5t12.5 46.5q1 2 2.5 3t3.5 0l11 -4q5 -1 3 -6q-8 -19 -12 -40.5t-4 -37.5q0 -77 55 -111t177 -34q85 0 141.5 18.5t85.5 51.5q25 32 25 63q0 29 -14 54t-46 63q-26 32 -62.5 62.5t-79.5 56.5q-1 1 -1.5 2.5t-0.5 2.5
l-1 25q0 3 4 5l281 110q2 1 3.5 0t1.5 -2l5 -13q1 -2 0.5 -3.5t-2.5 -2.5l-275 -107q73 -48 142 -121q18 -19 39.5 -46.5t40.5 -54.5t43 -58l12 -14t13 -14q21 -22 44 -37t48.5 -22.5t53.5 -7.5q6 0 10.5 -4t4.5 -9t-4.5 -8.5t-10.5 -3.5q-56 0 -102.5 26.5t-91.5 86.5
q-16 24 -31 48q-4 -82 -71.5 -127t-204.5 -45q-83 0 -139 16.5zM358 509l-6 16q0 5 4 6l234 91q5 2 7 -3l5 -15q2 -5 -3 -7l-235 -90q-5 -2 -6 2z" />
    <glyph glyph-name="gafRing-ar.init" unicode="&#x6b0;" horiz-adv-x="242" vert-adv-y="1170" 
d="M-10.5 3.5q-4.5 3.5 -4.5 8.5t4.5 9t10.5 4h13q76 0 117.5 31t41.5 82q0 49 -31 96.5t-96 91.5q-20 14 -43 27t-49 26q-4 1 -4 5v31q0 2 3 5l281 110q2 1 4 0.5t2 -2.5l5 -13q1 -2 0.5 -3.5t-2.5 -2.5l-276 -107q129 -68 178 -134.5t49 -129.5q0 -42 -21.5 -73t-62.5 -48
t-97 -17h-12q-6 0 -10.5 3.5zM-44 510l-6 16q0 5 4 6l234 91q5 2 7 -3l5 -15q2 -5 -3 -7l-235 -90q-5 -2 -6 2zM96 360q-22 22 -22 54q0 31 22 52.5t54 21.5t53.5 -21.5t21.5 -52.5q0 -32 -21.5 -54t-53.5 -22t-54 22zM191.5 372q16.5 17 16.5 42q0 24 -16.5 40.5
t-41.5 16.5t-42 -16.5t-17 -40.5q0 -25 17 -42t42 -17t41.5 17z" />
    <glyph glyph-name="gafRing-ar.medi" unicode="&#x6b0;" horiz-adv-x="439" vert-adv-y="1170" 
d="M-10.5 3.5q-4.5 3.5 -4.5 8.5t4.5 9t10.5 4h26q72 0 118 33t46 84q0 33 -13 57.5t-45 62.5q-58 68 -144 121q-3 2 -3 5v25q0 3 4 5l280 110q2 1 4 0.5t2 -2.5l5 -13q1 -2 0.5 -3.5t-2.5 -2.5l-275 -107q71 -47 142 -120q19 -20 38 -45t39 -54q15 -19 22 -28.5l21 -28.5
l24 -28q23 -23 46.5 -39t49.5 -24t54 -8q5 0 10 -4t5 -9q0 -4 -5 -8t-10 -4q-55 0 -101 26.5t-92 86.5q-11 14 -22 31l-12 18q4 -46 -17.5 -82.5t-65.5 -58t-104 -21.5h-25q-6 0 -10.5 3.5zM-43 508l-6 16q0 5 4 6l234 91q5 2 7 -3l5 -15q2 -5 -3 -7l-235 -90q-5 -2 -6 2z
M119 352q-22 22 -22 54q0 31 22 52.5t54 21.5t53.5 -21.5t21.5 -52.5q0 -32 -21.5 -54t-53.5 -22t-54 22zM214.5 364q16.5 17 16.5 42q0 24 -16.5 40.5t-41.5 16.5t-42 -16.5t-17 -40.5q0 -25 17 -42t42 -17t41.5 17z" />
    <glyph glyph-name="gafRing-ar.fina" unicode="&#x6b0;" horiz-adv-x="805" vert-adv-y="1170" 
d="M165 5.5q-56 16.5 -85 53.5t-29 97q0 17 4.5 41.5t12.5 46.5q1 2 2.5 3t3.5 0l11 -4q5 -1 3 -6q-8 -19 -12 -40.5t-4 -37.5q0 -77 55 -111t177 -34q85 0 141.5 18.5t85.5 51.5q25 32 25 63q0 29 -14 54t-46 63q-26 32 -62.5 62.5t-79.5 56.5q-1 1 -1.5 2.5t-0.5 2.5
l-1 25q0 3 4 5l281 110q2 1 3.5 0t1.5 -2l5 -13q1 -2 0.5 -3.5t-2.5 -2.5l-275 -107q73 -48 142 -121q18 -19 39.5 -46.5t40.5 -54.5t43 -58l12 -14t13 -14q21 -22 44 -37t48.5 -22.5t53.5 -7.5q6 0 10.5 -4t4.5 -9t-4.5 -8.5t-10.5 -3.5q-56 0 -102.5 26.5t-91.5 86.5
q-16 24 -31 48q-4 -82 -71.5 -127t-204.5 -45q-83 0 -139 16.5zM358 509l-6 16q0 5 4 6l234 91q5 2 7 -3l5 -15q2 -5 -3 -7l-235 -90q-5 -2 -6 2zM501 360q-22 22 -22 54q0 31 22 52.5t54 21.5t53.5 -21.5t21.5 -52.5q0 -32 -21.5 -54t-53.5 -22t-54 22zM596.5 372
q16.5 17 16.5 42q0 24 -16.5 40.5t-41.5 16.5t-42 -16.5t-17 -40.5q0 -25 17 -42t42 -17t41.5 17z" />
    <glyph glyph-name="lamVabove-ar.init" unicode="&#x6b5;" horiz-adv-x="233" vert-adv-y="1170" 
d="M-10.5 3.5q-4.5 3.5 -4.5 8.5t4.5 9t10.5 4q69 0 109 33t40 99v367q0 2 1.5 3t3.5 1h13q2 0 3 -1t1 -3v-361q0 -79 -46.5 -121t-124.5 -42q-6 0 -10.5 3.5zM140.5 583q-1.5 1 -2.5 3l-71 171q-1 4 2 6l7 4q2 1 4 0t2 -3l72 -165l72 167q0 2 2 2.5t4 -0.5l7 -4
q2 -1 2.5 -2t-0.5 -3l-72 -173q0 -2 -1.5 -3t-2.5 -1h-22q-1 0 -2.5 1z" />
    <glyph glyph-name="lamVabove-ar.medi" unicode="&#x6b5;" horiz-adv-x="320" vert-adv-y="1170" 
d="M-10.5 3.5q-4.5 3.5 -4.5 8.5t4.5 9t10.5 4q72 0 110 33t39 103v363q0 2 1.5 3t3.5 1h13q2 0 3 -1t1 -3v-363q1 -70 39 -103t110 -33q6 0 10.5 -4t4.5 -9t-4.5 -8.5t-10.5 -3.5q-62 0 -102 22t-58 66q-18 -44 -58 -66t-102 -22q-6 0 -10.5 3.5zM146.5 583q-1.5 1 -2.5 3
l-71 171q-1 4 2 6l7 4q2 1 4 0t2 -3l72 -165l72 167q0 2 2 2.5t4 -0.5l7 -4q2 -1 2.5 -2t-0.5 -3l-72 -173q0 -2 -1.5 -3t-2.5 -1h-22q-1 0 -2.5 1z" />
    <glyph glyph-name="lamVabove-ar.fina" unicode="&#x6b5;" horiz-adv-x="574" vert-adv-y="1170" 
d="M145 -176.5q-41 23.5 -62 64.5t-21 94q0 35 9 71t27 72l2 2t3 0l12 -6l2 -2t0 -3q-33 -69 -33 -132q0 -72 41 -115.5t119 -43.5q92 0 134 52.5t42 131.5v515q0 2 1 3t3 1h13q2 0 3 -1t1 -3v-366q0 -66 36 -99.5t97 -33.5q6 0 10.5 -4t4.5 -9t-4.5 -8.5t-10.5 -3.5
q-52 0 -89.5 22t-55.5 66l12 -4v-74q0 -57 -19.5 -104t-63.5 -76.5t-113 -29.5q-59 0 -100 23.5zM416.5 583q-1.5 1 -2.5 3l-71 171q-1 4 2 6l7 4q2 1 4 0t2 -3l72 -165l72 167q0 2 2 2.5t4 -0.5l7 -4q2 -1 2.5 -2t-0.5 -3l-72 -173q0 -2 -1.5 -3t-2.5 -1h-22q-1 0 -2.5 1z
" />
    <glyph glyph-name="noonghunna-ar.fina" unicode="&#x6ba;" horiz-adv-x="643" vert-adv-y="1170" arabic-form="final" 
d="M159.5 -174.5q-48.5 25.5 -73 70t-24.5 99.5q0 31 7.5 65.5t22.5 66.5q1 2 2.5 3t3.5 0l10 -5q1 -1 2 -2.5t0 -2.5q-14 -32 -21 -62.5t-7 -58.5q0 -78 50.5 -126.5t146.5 -48.5q97 0 147.5 50.5t50.5 128.5q0 54 -14 116q-6 32 -13 60q-1 1 0 2.5t3 1.5l15 3q2 0 3 -1
t2 -3q3 -12 5 -25q6 -29 8 -33q17 -51 56 -75t101 -24q6 0 10.5 -4t4.5 -9t-4.5 -8.5t-10.5 -3.5q-61 0 -100.5 20.5t-60.5 59.5l9 -6q15 -67 -0.5 -130t-68.5 -103.5t-146 -40.5q-68 0 -116.5 25.5z" />
    <glyph glyph-name="noonRing-ar.init" unicode="&#x6bc;" horiz-adv-x="247" vert-adv-y="1170" 
d="M-11.5 3.5q-3.5 3.5 -3.5 8.5q0 6 3.5 9.5t11.5 3.5q7 0 10 -1q85 0 119.5 31t34.5 91q0 26 -6 53.5t-17 56.5l-6 15q-1 3 1 5l11 6q1 1 3 0t3 -3q14 -33 23 -67.5t9 -65.5q0 -71 -41 -109t-136 -37h-8q-8 0 -11.5 3.5zM92.5 399.5q-0.5 1.5 0.5 3.5l21 38q1 3 5 2
l39 -21q1 -1 1.5 -2.5t-0.5 -2.5l-20 -39q-1 -2 -3 -2t-5 1l-36 21q-2 0 -2.5 1.5zM82 -94q-17 10 -27 27t-10 38q0 31 21.5 52t53.5 21q20 0 37 -9.5t27 -26.5t10 -37q0 -21 -10 -38t-27 -27t-37 -10q-21 0 -38 10zM149 -79.5q13 7.5 20.5 21t7.5 29.5t-7.5 28.5t-20.5 20
t-29 7.5t-29.5 -7.5t-21 -20t-7.5 -28.5t7.5 -29.5t21 -21t29.5 -7.5t29 7.5z" />
    <glyph glyph-name="noonRing-ar.medi" unicode="&#x6bc;" horiz-adv-x="319" vert-adv-y="1170" 
d="M-10.5 3.5q-4.5 3.5 -4.5 8.5t4.5 9t10.5 4q49 0 82.5 15t49.5 47q17 32 17 73v55q0 2 1 3t3 1h13q2 0 3 -1t1 -3v-55q0 -43 16 -73q17 -32 50.5 -47t82.5 -15q6 0 10.5 -4t4.5 -9t-4.5 -8.5t-10.5 -3.5q-62 0 -102 22t-58 66q-18 -44 -57.5 -66t-101.5 -22
q-6 0 -10.5 3.5zM121.5 334.5q-0.5 1.5 0.5 3.5l21 38q1 3 5 2l39 -21q1 -1 1.5 -2.5t-0.5 -2.5l-20 -39q-1 -2 -3 -2t-5 1l-36 21q-2 0 -2.5 1.5zM57 -100q-17 10 -27 27t-10 38q0 31 21.5 52t53.5 21q20 0 37 -9.5t27 -26.5t10 -37q0 -21 -10 -38t-27 -27t-37 -10
q-21 0 -38 10zM124 -85.5q13 7.5 20.5 21t7.5 29.5t-7.5 28.5t-20.5 20t-29 7.5t-29.5 -7.5t-21 -20t-7.5 -28.5t7.5 -29.5t21 -21t29.5 -7.5t29 7.5z" />
    <glyph glyph-name="noonRing-ar.fina" unicode="&#x6bc;" horiz-adv-x="643" vert-adv-y="1170" 
d="M159.5 -174.5q-48.5 25.5 -73 70t-24.5 99.5q0 31 7.5 65.5t22.5 66.5q1 2 2.5 3t3.5 0l10 -5q1 -1 2 -2.5t0 -2.5q-14 -32 -21 -62.5t-7 -58.5q0 -78 50.5 -126.5t146.5 -48.5q97 0 147.5 50.5t50.5 128.5q0 54 -14 116q-6 32 -13 60q-1 1 0 2.5t3 1.5l15 3q2 0 3 -1
t2 -3q3 -12 5 -25q6 -29 8 -33q17 -51 56 -75t101 -24q6 0 10.5 -4t4.5 -9t-4.5 -8.5t-10.5 -3.5q-61 0 -100.5 20.5t-60.5 59.5l9 -6q15 -67 -0.5 -130t-68.5 -103.5t-146 -40.5q-68 0 -116.5 25.5zM234.5 235.5q-0.5 1.5 0.5 3.5l21 38q1 3 5 2l39 -21q1 -1 1.5 -2.5
t-0.5 -2.5l-20 -39q-1 -2 -3 -2t-5 1l-36 21q-2 0 -2.5 1.5zM248 -322q-17 10 -27 27t-10 38q0 31 21.5 52t53.5 21q20 0 37 -9.5t27 -26.5t10 -37q0 -21 -10 -38t-27 -27t-37 -10q-21 0 -38 10zM315 -307.5q13 7.5 20.5 21t7.5 29.5t-7.5 28.5t-20.5 20t-29 7.5t-29.5 -7.5
t-21 -20t-7.5 -28.5t7.5 -29.5t21 -21t29.5 -7.5t29 7.5z" />
    <glyph glyph-name="hehDoachashmee-ar.init" unicode="&#x6be;" horiz-adv-x="551" vert-adv-y="1170" arabic-form="initial" 
d="M257.5 -12.5q-51.5 10.5 -96.5 30.5q-39 -9 -78 -13.5t-83 -4.5q-6 0 -10.5 3.5t-4.5 8.5t4.5 9t10.5 4h2q61 0 117 9q-41 18 -56.5 51t-15.5 67q0 39 18 75t49 58.5t68 22.5q13 0 28.5 -3.5t27.5 -7.5l-18 12l5 12q0 6 5 4q66 -18 125.5 -56t96.5 -88t37 -100
q0 -47 -32 -75.5t-101 -28.5q-47 0 -98.5 10.5zM263.5 77.5q31.5 28.5 31.5 74.5q0 32 -15 62.5t-41 49.5t-57 19t-57.5 -19t-41.5 -50t-15 -64q0 -44 31.5 -72.5t82.5 -28.5q50 0 81.5 28.5zM435.5 19.5q31.5 17.5 31.5 58.5q0 39 -29.5 81.5t-79.5 78t-108 55.5
q31 -24 49 -62t18 -78q1 -40 -20.5 -77.5t-78.5 -52.5q42 -12 74 -16.5t65 -4.5q47 0 78.5 17.5z" />
    <glyph glyph-name="hehDoachashmee-ar.medi" unicode="&#x6be;" horiz-adv-x="551" vert-adv-y="1170" arabic-form="medial" 
d="M257.5 -12.5q-51.5 10.5 -96.5 30.5q-39 -9 -78 -13.5t-83 -4.5q-6 0 -10.5 3.5t-4.5 8.5t4.5 9t10.5 4h2q61 0 117 9q-41 18 -56.5 51t-15.5 67q0 39 18 75t49 58.5t68 22.5q13 0 28.5 -3.5t27.5 -7.5l-18 12l5 12q0 6 5 4q66 -18 125.5 -56t96.5 -88t37 -100
q0 -47 -32 -75.5t-101 -28.5q-47 0 -98.5 10.5zM263.5 77.5q31.5 28.5 31.5 74.5q0 32 -15 62.5t-41 49.5t-57 19t-57.5 -19t-41.5 -50t-15 -64q0 -44 31.5 -72.5t82.5 -28.5q50 0 81.5 28.5zM435.5 19.5q31.5 17.5 31.5 58.5q0 39 -29.5 81.5t-79.5 78t-108 55.5
q31 -24 49 -62t18 -78q1 -40 -20.5 -77.5t-78.5 -52.5q42 -12 74 -16.5t65 -4.5q47 0 78.5 17.5z" />
    <glyph glyph-name="hehDoachashmee-ar.fina" unicode="&#x6be;" horiz-adv-x="590" vert-adv-y="1170" arabic-form="final" 
d="M267.5 -154.5q-52.5 46.5 -69.5 117.5q-39 -11 -124 -31q-4 -2 -6 4l-6 15q-1 2 0.5 3.5t3.5 2.5q16 3 31 7q67 15 95 23q-8 52 5 126t46.5 127.5t84.5 53.5q30 0 53 -18t35 -46.5t12 -57.5q0 -75 -57.5 -123t-154.5 -80q16 -67 66 -107t115 -48q8 65 29.5 111.5t61.5 73
t102 26.5q6 0 10.5 -4t4.5 -9t-4.5 -8.5t-10.5 -3.5q-83 0 -120 -46.5t-49 -135.5q-2 -16 -10 -23.5t-23 -5.5q-68 10 -120.5 56.5zM352.5 64q53.5 43 53.5 106q0 37 -23 68t-55 31q-45 0 -73 -48.5t-39 -114.5t-5 -113q88 28 141.5 71z" />
    <glyph glyph-name="hehgoal-ar.init" unicode="&#x6c1;" horiz-adv-x="247" vert-adv-y="1170" arabic-form="initial" 
d="M-11.5 3.5q-3.5 3.5 -3.5 8.5q0 6 3.5 9.5t11.5 3.5q7 0 10 -1q85 0 119.5 31t34.5 91q0 26 -6 53.5t-17 56.5l-6 15q-1 3 1 5l11 6q1 1 3 0t3 -3q14 -33 23 -67.5t9 -65.5q0 -71 -41 -109t-136 -37h-8q-8 0 -11.5 3.5zM80.5 -188.5q-7.5 6.5 -8.5 18.5v4v7t1 8l22 79
q0 3 5 3l9 -2q1 0 2 -1t1 -3l-17 -71q10 2 17.5 -5t8.5 -17t-5 -17.5t-16 -8.5q-12 -1 -19.5 5.5z" />
    <glyph glyph-name="hehgoal-ar.medi" unicode="&#x6c1;" horiz-adv-x="319" vert-adv-y="1170" arabic-form="medial" 
d="M-10.5 3.5q-4.5 3.5 -4.5 8.5t4.5 9t10.5 4q49 0 82.5 15t49.5 47q17 32 17 73v55q0 2 1 3t3 1h13q2 0 3 -1t1 -3v-55q0 -43 16 -73q17 -32 50.5 -47t82.5 -15q6 0 10.5 -4t4.5 -9t-4.5 -8.5t-10.5 -3.5q-62 0 -102 22t-58 66q-18 -44 -57.5 -66t-101.5 -22
q-6 0 -10.5 3.5zM142.5 -189.5q-7.5 6.5 -8.5 18.5v4v7t1 8l22 79q0 3 5 3l9 -2q1 0 2 -1t1 -3l-17 -71q10 2 17.5 -5t8.5 -17t-5 -17.5t-16 -8.5q-12 -1 -19.5 5.5z" />
    <glyph glyph-name="hehgoal-ar.fina" unicode="&#x6c1;" horiz-adv-x="437" vert-adv-y="1170" arabic-form="final" 
d="M315 44q-42 44 -59 147q-4 22 -6 32.5l-6 31.5q-58 -29 -102.5 -83.5t-69.5 -115.5q-2 -3 -6 -2l-11 8q-3 2 -1 5q24 61 73.5 121t106.5 88q9 4 15.5 3.5t10.5 -5t6 -12.5l12 -68q16 -92 51.5 -130.5t107.5 -38.5q6 0 10.5 -4t4.5 -9t-4.5 -8.5t-10.5 -3.5q-80 0 -122 44
z" />
    <glyph glyph-name="hehgoalHamzaabove-ar.fina" unicode="&#x6c2;" horiz-adv-x="393" vert-adv-y="1170" 
d="M126 15q-31 15 -47.5 42.5t-16.5 63.5q0 42 18 79.5t49 60t68 22.5t67.5 -22.5t48.5 -60t18 -79.5q0 -36 -16.5 -63.5t-47 -42.5t-70.5 -15t-71 15zM278.5 49.5q30.5 24.5 30.5 70.5q0 33 -15 65t-41 52.5t-56 20.5q-31 0 -57 -20.5t-41 -52.5t-15 -65q0 -46 31 -70.5
t82 -24.5t81.5 24.5zM110 336l-4 11q-1 2 0.5 3.5t3.5 2.5l119 44l1 -16q-7 -1 -19 -1q-44 -1 -67 22t-23 56q-1 34 19.5 55t54.5 22q14 0 32 -5q2 0 3.5 -1.5t0.5 -3.5l-1 -12q-1 -5 -5 -3q-27 3 -30 3q-26 0 -41.5 -16.5t-15.5 -38.5q0 -26 22 -41t52 -15q15 0 30 3t32 9
l7 3q6 2 7 -3l4 -11q1 -1 -0.5 -3t-3.5 -3l-171 -64q-5 -2 -7 3z" />
    <glyph glyph-name="tehMarbutagoal-ar.fina" unicode="&#x6c3;" horiz-adv-x="393" vert-adv-y="1170" 
d="M126 15q-31 15 -47.5 42.5t-16.5 63.5q0 42 18 79.5t49 60t68 22.5t67.5 -22.5t48.5 -60t18 -79.5q0 -36 -16.5 -63.5t-47 -42.5t-70.5 -15t-71 15zM278.5 49.5q30.5 24.5 30.5 70.5q0 33 -15 65t-41 52.5t-56 20.5q-31 0 -57 -20.5t-41 -52.5t-15 -65q0 -46 31 -70.5
t82 -24.5t81.5 24.5zM226 397q0 2 1 4l18 31q1 1 2.5 1t2.5 -1l32 -18q2 0 3 -2t-1 -4l-17 -31q-1 -3 -2.5 -3t-3.5 1l-1 1l-32 18q-2 1 -2 3zM108 397q0 2 1 4l18 31q1 1 2 1t3 -1l32 -18q2 0 3 -2t-1 -4l-17 -31q-2 -3 -6 -2h-0.5h-0.5l-32 19q-2 1 -2 3z" />
    <glyph glyph-name="wawRing-ar.fina" unicode="&#x6c4;" horiz-adv-x="428" vert-adv-y="1170" 
d="M64 -182q-2 -1 -3.5 1.5t-0.5 4.5l5 12q1 2 2.5 3.5t3.5 0.5q35 -8 66 -8q84 0 136 44t69 123q-35 1 -105 1q-48 0 -80.5 15.5t-48 42t-15.5 61.5q0 42 18 79t50 60t71 23q46 0 77.5 -28.5t47.5 -75.5t16 -103q0 -79 -26.5 -138.5t-80 -93t-130.5 -33.5q-43 0 -72 9z
M350 71q0 63 -24.5 124t-93.5 61q-37 0 -63.5 -20.5t-40 -52.5t-13.5 -65q0 -46 30.5 -69.5t90.5 -23.5q42 0 62 -0.5t61 -0.5l-13 -12q4 25 4 59zM363 25h65q6 0 10.5 -4t4.5 -9t-4.5 -8.5t-10.5 -3.5h-70zM99 -170q-17 10 -27 27t-10 38q0 31 21.5 52t53.5 21
q20 0 37 -9.5t27 -26.5t10 -37q0 -21 -10 -38t-27 -27t-37 -10q-21 0 -38 10zM166 -155.5q13 7.5 20.5 21t7.5 29.5t-7.5 28.5t-20.5 20t-29 7.5t-29.5 -7.5t-21 -20t-7.5 -28.5t7.5 -29.5t21 -21t29.5 -7.5t29 7.5z" />
    <glyph glyph-name="oe-ar.fina" unicode="&#x6c6;" horiz-adv-x="428" vert-adv-y="1170" arabic-form="final" 
d="M64 -182q-2 -1 -3.5 1.5t-0.5 4.5l5 12q1 2 2.5 3.5t3.5 0.5q35 -8 66 -8q84 0 136 44t69 123q-35 1 -105 1q-48 0 -80.5 15.5t-48 42t-15.5 61.5q0 42 18 79t50 60t71 23q46 0 77.5 -28.5t47.5 -75.5t16 -103q0 -79 -26.5 -138.5t-80 -93t-130.5 -33.5q-43 0 -72 9z
M350 71q0 63 -24.5 124t-93.5 61q-37 0 -63.5 -20.5t-40 -52.5t-13.5 -65q0 -46 30.5 -69.5t90.5 -23.5q42 0 62 -0.5t61 -0.5l-13 -12q4 25 4 59zM363 25h65q6 0 10.5 -4t4.5 -9t-4.5 -8.5t-10.5 -3.5h-70zM218.5 336q-1.5 1 -2.5 3l-71 171q-1 4 2 6l7 4q2 1 4 0t2 -3
l72 -165l72 167q0 2 2 2.5t4 -0.5l7 -4q2 -1 2.5 -2t-0.5 -3l-72 -173q0 -2 -1.5 -3t-2.5 -1h-22q-1 0 -2.5 1z" />
    <glyph glyph-name="yehFarsi-ar.init" unicode="&#x6cc;" horiz-adv-x="247" vert-adv-y="1170" arabic-form="initial" 
d="M-11.5 3.5q-3.5 3.5 -3.5 8.5q0 6 3.5 9.5t11.5 3.5q7 0 10 -1q85 0 119.5 31t34.5 91q0 26 -6 53.5t-17 56.5l-6 15q-1 3 1 5l11 6q1 1 3 0t3 -3q14 -33 23 -67.5t9 -65.5q0 -71 -41 -109t-136 -37h-8q-8 0 -11.5 3.5zM114 -146q0 2 1 4l18 31q1 1 2.5 1t2.5 -1l32 -18
q2 0 3 -2t-1 -4l-17 -31q-1 -3 -2.5 -3t-3.5 1l-1 1l-32 18q-2 1 -2 3zM-4 -146q0 2 1 4l18 31q1 1 2 1t3 -1l32 -18q2 0 3 -2t-1 -4l-17 -31q-2 -3 -6 -2h-0.5h-0.5l-32 19q-2 1 -2 3z" />
    <glyph glyph-name="yehFarsi-ar.medi" unicode="&#x6cc;" horiz-adv-x="319" vert-adv-y="1170" arabic-form="medial" 
d="M-10.5 3.5q-4.5 3.5 -4.5 8.5t4.5 9t10.5 4q49 0 82.5 15t49.5 47q17 32 17 73v55q0 2 1 3t3 1h13q2 0 3 -1t1 -3v-55q0 -43 16 -73q17 -32 50.5 -47t82.5 -15q6 0 10.5 -4t4.5 -9t-4.5 -8.5t-10.5 -3.5q-62 0 -102 22t-58 66q-18 -44 -57.5 -66t-101.5 -22
q-6 0 -10.5 3.5zM188 -146q0 2 1 4l18 31q1 1 2.5 1t2.5 -1l32 -18q2 0 3 -2t-1 -4l-17 -31q-1 -3 -2.5 -3t-3.5 1l-1 1l-32 18q-2 1 -2 3zM70 -146q0 2 1 4l18 31q1 1 2 1t3 -1l32 -18q2 0 3 -2t-1 -4l-17 -31q-2 -3 -6 -2h-0.5h-0.5l-32 19q-2 1 -2 3z" />
    <glyph glyph-name="yehFarsi-ar.fina" unicode="&#x6cc;" horiz-adv-x="499" vert-adv-y="1170" arabic-form="final" 
d="M160.5 -201q-49.5 22 -74 61t-24.5 89q0 29 9.5 62.5t27.5 68.5q3 5 7 2l7 -4q4 -1 2 -6q-33 -68 -33 -121q0 -68 52 -108.5t152 -40.5q55 0 103.5 13t77 35.5t28.5 49.5q0 34 -29 55.5t-65.5 32t-99.5 24.5q-3 1 -4.5 2.5t-0.5 3.5l6 22q0 3 5 5q44 -10 90 -15t102 -5
q5 0 10 -4t5 -9q0 -4 -5 -8t-10 -4h-74l-12 13q104 -38 104 -110q0 -35 -30.5 -64t-84 -45.5t-120.5 -16.5q-72 0 -121.5 22z" />
    <glyph glyph-name="yehVabove-ar.init" unicode="&#x6ce;" horiz-adv-x="247" vert-adv-y="1170" 
d="M-11.5 3.5q-3.5 3.5 -3.5 8.5q0 6 3.5 9.5t11.5 3.5q7 0 10 -1q85 0 119.5 31t34.5 91q0 26 -6 53.5t-17 56.5l-6 15q-1 3 1 5l11 6q1 1 3 0t3 -3q14 -33 23 -67.5t9 -65.5q0 -71 -41 -109t-136 -37h-8q-8 0 -11.5 3.5zM114 -146q0 2 1 4l18 31q1 1 2.5 1t2.5 -1l32 -18
q2 0 3 -2t-1 -4l-17 -31q-1 -3 -2.5 -3t-3.5 1l-1 1l-32 18q-2 1 -2 3zM-4 -146q0 2 1 4l18 31q1 1 2 1t3 -1l32 -18q2 0 3 -2t-1 -4l-17 -31q-2 -3 -6 -2h-0.5h-0.5l-32 19q-2 1 -2 3zM115.5 338q-1.5 1 -2.5 3l-71 171q-1 4 2 6l7 4q2 1 4 0t2 -3l72 -165l72 167
q0 2 2 2.5t4 -0.5l7 -4q2 -1 2.5 -2t-0.5 -3l-72 -173q0 -2 -1.5 -3t-2.5 -1h-22q-1 0 -2.5 1z" />
    <glyph glyph-name="yehVabove-ar.medi" unicode="&#x6ce;" horiz-adv-x="319" vert-adv-y="1170" 
d="M-10.5 3.5q-4.5 3.5 -4.5 8.5t4.5 9t10.5 4q49 0 82.5 15t49.5 47q17 32 17 73v55q0 2 1 3t3 1h13q2 0 3 -1t1 -3v-55q0 -43 16 -73q17 -32 50.5 -47t82.5 -15q6 0 10.5 -4t4.5 -9t-4.5 -8.5t-10.5 -3.5q-62 0 -102 22t-58 66q-18 -44 -57.5 -66t-101.5 -22
q-6 0 -10.5 3.5zM188 -146q0 2 1 4l18 31q1 1 2.5 1t2.5 -1l32 -18q2 0 3 -2t-1 -4l-17 -31q-1 -3 -2.5 -3t-3.5 1l-1 1l-32 18q-2 1 -2 3zM70 -146q0 2 1 4l18 31q1 1 2 1t3 -1l32 -18q2 0 3 -2t-1 -4l-17 -31q-2 -3 -6 -2h-0.5h-0.5l-32 19q-2 1 -2 3zM144.5 273
q-1.5 1 -2.5 3l-71 171q-1 4 2 6l7 4q2 1 4 0t2 -3l72 -165l72 167q0 2 2 2.5t4 -0.5l7 -4q2 -1 2.5 -2t-0.5 -3l-72 -173q0 -2 -1.5 -3t-2.5 -1h-22q-1 0 -2.5 1z" />
    <glyph glyph-name="yehVabove-ar.fina" unicode="&#x6ce;" horiz-adv-x="499" vert-adv-y="1170" 
d="M160.5 -201q-49.5 22 -74 61t-24.5 89q0 29 9.5 62.5t27.5 68.5q3 5 7 2l7 -4q4 -1 2 -6q-33 -68 -33 -121q0 -68 52 -108.5t152 -40.5q55 0 103.5 13t77 35.5t28.5 49.5q0 34 -29 55.5t-65.5 32t-99.5 24.5q-3 1 -4.5 2.5t-0.5 3.5l6 22q0 3 5 5q44 -10 90 -15t102 -5
q5 0 10 -4t5 -9q0 -4 -5 -8t-10 -4h-74l-12 13q104 -38 104 -110q0 -35 -30.5 -64t-84 -45.5t-120.5 -16.5q-72 0 -121.5 22zM97.5 138q-1.5 1 -2.5 3l-71 171q-1 4 2 6l7 4q2 1 4 0t2 -3l72 -165l72 167q0 2 2 2.5t4 -0.5l7 -4q2 -1 2.5 -2t-0.5 -3l-72 -173q0 -2 -1.5 -3
t-2.5 -1h-22q-1 0 -2.5 1z" />
    <glyph glyph-name="yehbarree-ar.fina" unicode="&#x6d2;" horiz-adv-x="318" vert-adv-y="1170" arabic-form="final" 
d="M128 -194.5q-33 16.5 -49.5 43.5t-16.5 58t16.5 58t49.5 43.5t79 16.5h111q6 0 10.5 -4t4.5 -9t-4.5 -8.5t-10.5 -3.5h-112q-57 0 -89.5 -28t-32.5 -65q0 -38 32 -65.5t90 -27.5h535q5 0 5 -5v-16q0 -4 -5 -4h-534q-46 0 -79 16.5z" />
    <glyph glyph-name="yehbarreeHamzaabove-ar.fina" unicode="&#x6d3;" horiz-adv-x="318" vert-adv-y="1170" arabic-form="final" 
d="M128 -194.5q-33 16.5 -49.5 43.5t-16.5 58t16.5 58t49.5 43.5t79 16.5h111q6 0 10.5 -4t4.5 -9t-4.5 -8.5t-10.5 -3.5h-112q-57 0 -89.5 -28t-32.5 -65q0 -38 32 -65.5t90 -27.5h535q5 0 5 -5v-16q0 -4 -5 -4h-534q-46 0 -79 16.5zM123 78l-4 11q-1 2 0.5 3.5t3.5 2.5
l119 44l1 -16q-7 -1 -19 -1q-44 -1 -67 22t-23 56q-1 34 19.5 55t54.5 22q14 0 32 -5q2 0 3.5 -1.5t0.5 -3.5l-1 -12q-1 -5 -5 -3q-27 3 -30 3q-26 0 -41.5 -16.5t-15.5 -38.5q0 -26 22 -41t52 -15q15 0 30 3t32 9l7 3q6 2 7 -3l4 -11q1 -1 -0.5 -3t-3.5 -3l-171 -64
q-5 -2 -7 3z" />
    <glyph glyph-name="ae-ar.fina" unicode="&#x6d5;" horiz-adv-x="468" vert-adv-y="1170" 
d="M380.5 16.5q-34.5 16.5 -55.5 46.5q-59 -31 -136 -31q-35 0 -64 11t-46 33t-17 55q0 46 32 87.5t85.5 66.5t113.5 25v44q0 2 1 3t3 1h12q2 0 3 -1t1 -3v-173q0 -71 38.5 -113.5t116.5 -42.5q6 0 10.5 -4t4.5 -9t-4.5 -8.5t-10.5 -3.5q-53 0 -87.5 16.5zM312 85
q-15 32 -19 79v14v107q-61 0 -109 -23.5t-74 -59.5t-26 -72q0 -34 29 -54t78 -20q71 0 121 29z" />
    <glyph glyph-name="rial" unicode="&#xfdfc;" horiz-adv-x="871" vert-adv-y="1170" arabic-form="isolated" 
d="M134 94.5q-29 17.5 -45 48t-16 68.5q0 27 8 55t25 57q1 2 2.5 3t3.5 0l6 -3q4 -1 2 -5q-32 -59 -32 -105q0 -51 31.5 -84t83.5 -33q64 0 95.5 41t31.5 100v245q0 26 18 45t43 19h37q12 0 18 -6.5t6 -18.5v-178q0 -62 31.5 -91t79.5 -29q44 0 71.5 26t27.5 77q0 37 -14 80
q-2 6 2 6l8 4q5 0 6 -3q16 -47 16 -87q0 -38 -13.5 -65.5t-40 -42.5t-63.5 -15q-57 0 -92 36t-35 108v180h-45q-18 0 -31 -13t-13 -32v-245q0 -69 -34.5 -114.5t-111.5 -45.5q-38 0 -67 17.5zM409.5 83q-1.5 1 -1.5 3v13q0 2 1.5 3t3.5 1h173q2 0 3.5 -1t1.5 -3v-13
q0 -2 -1.5 -3t-3.5 -1h-173q-2 0 -3.5 1zM671.5 80q-1.5 1 -1.5 3l-1 9q0 5 3 6q56 7 82.5 45.5t26.5 94.5q0 29 -7 58.5t-19 56.5q-2 2 2 5l9 5q2 1 3.5 0t2.5 -3q12 -29 18.5 -59.5t6.5 -60.5q0 -64 -30.5 -108.5t-91.5 -52.5q-2 0 -3.5 1z" />
    <glyph glyph-name=".notdef" horiz-adv-x="585" vert-adv-y="1170" 
d="M480 -380h-371v1170h371v-1170zM195 -8v-132h195v132h-195zM351 -102h-117v55h117v-55zM273 194v-65h39v27h39v-55h-117v93h-39v-132h195v132h-117zM351 337v-77h-156v-40h195v117h-39zM195 407v-38h78v-43h-78v-39h117v82h78v38h-195zM273 479h-39v42h39v-42zM195 561
v-122h195v40h-78v82h-117zM197 712v-39h76v-43h-78v-39h195v39h-78v43h78v39h-193zM195 -167v-39h82l-82 -55v-38h195v38h-120l82 55h38v39h-195z" />
    <glyph glyph-name=".null" vert-adv-y="0" 
 />
    <glyph glyph-name="nonmarkingreturn" horiz-adv-x="333" 
 />
    <glyph glyph-name="space" unicode=" " horiz-adv-x="122" vert-adv-y="1170" 
 />
    <glyph glyph-name="exclam" unicode="!" horiz-adv-x="183" vert-adv-y="1170" 
d="M81 170q-1 1 -1 3l1 350q0 2 1 3t3 1h15q2 0 3.5 -0.5t1.5 -3.5l-3 -350q0 -2 -1 -3t-3 -1h-14q-2 0 -3 1zM71.5 10q-8.5 9 -8.5 21q0 11 8.5 19.5t20.5 8.5q11 0 19.5 -8.5t8.5 -19.5q0 -12 -8.5 -21t-19.5 -9q-12 0 -20.5 9z" />
    <glyph glyph-name="quotedbl" unicode="&#x22;" horiz-adv-x="223" vert-adv-y="1170" 
d="M30 504l-1 121q1 5 7 4l29 -14q5 0 5 -6l-11 -121q-1 -5 -7 -4l-18 13q-5 2 -4 7zM130 504l-1 121q1 5 7 4l29 -14q5 0 5 -6l-11 -121q-1 -5 -7 -4l-18 13q-5 2 -4 7z" />
    <glyph glyph-name="numbersign" unicode="#" horiz-adv-x="657" vert-adv-y="1170" 
d="M145 1.5q-1 1.5 0 3.5l37 130h-115q-2 0 -3.5 1t-0.5 3l3 16q1 3 5 3h118l53 197h-134q-2 0 -3.5 1t-0.5 3l3 16q2 3 5 3h137l38 132q2 3 4 3h15q2 0 3 -1.5t0 -3.5l-36 -130h165l37 132q2 3 4 3h16q2 0 3 -1t0 -4l-37 -130h128q2 0 3.5 -1t0.5 -3l-3 -16q-1 -3 -5 -3
h-131l-53 -197h147q2 0 3.5 -0.5t0.5 -3.5l-3 -16q-1 -3 -5 -3h-150l-38 -132l-0.5 -0.5l-0.5 -0.5q0 -2 -3 -2h-15q-2 0 -3 1.5t0 3.5l36 130h-165l-37 -132q-3 -3 -4 -3h-16q-2 0 -3 1.5zM377 158l53 197h-164l-54 -197h165z" />
    <glyph glyph-name="dollar" unicode="$" horiz-adv-x="453" vert-adv-y="1170" 
d="M216.5 -93q-1.5 1 -1.5 3v84q-53 4 -100 23.5t-76 48.5q-1 1 -0.5 3t1.5 3l9 10q3 2 6 0q30 -26 71.5 -44.5t88.5 -21.5v242q-54 13 -87.5 28t-54.5 42t-21 72q0 63 46 98.5t117 39.5v84q0 2 1.5 3.5t3.5 1.5h11q2 0 3.5 -1.5t1.5 -3.5v-84q42 -1 83 -13t69 -33
q2 -1 2 -3t-1 -3l-8 -12q-3 -2 -6 0q-29 21 -65.5 31.5t-73.5 11.5v-242q58 -14 94 -28.5t59.5 -42t23.5 -73.5q0 -65 -50 -100t-127 -37v-84q0 -2 -1.5 -3t-3.5 -1h-11q-2 0 -3.5 1zM350 49q40 31 40 82q0 39 -21 62.5t-51.5 35t-81.5 24.5v-238q74 3 114 34zM110.5 480.5
q-36.5 -31.5 -36.5 -80.5q0 -53 35.5 -78t105.5 -42v236q-68 -4 -104.5 -35.5z" />
    <glyph glyph-name="percent" unicode="%" horiz-adv-x="393" vert-adv-y="1170" 
d="M123 0h-14q-2 0 -3 1.5t0 3.5l161 590l1 1q0 2 3 2h14q2 0 3 -1t0 -4l-161 -590q-3 -3 -4 -3zM314.5 8.5q-8.5 8.5 -8.5 20.5q0 11 8.5 19.5t20.5 8.5q10 0 18.5 -8.5t8.5 -19.5q0 -12 -8 -20.5t-19 -8.5q-12 0 -20.5 8.5zM38.5 546.5q-8.5 8.5 -7.5 19.5q0 11 8 19.5
t19 8.5q12 0 20.5 -8.5t8.5 -19.5t-8.5 -19.5t-20.5 -8.5q-11 0 -19.5 8.5z" />
    <glyph glyph-name="ampersand" unicode="&#x26;" horiz-adv-x="478" vert-adv-y="1170" 
d="M122.5 14.5q-38.5 16.5 -60.5 46.5t-22 70q0 46 33 85.5t109 86.5q-32 32 -48 68t-16 69q0 32 13.5 58t38.5 41t59 15q50 0 81 -32t31 -79q0 -41 -31.5 -77t-93.5 -69l168 -182l8 14t7 15q14 31 25 81q0 2 1.5 3.5t2.5 0.5l12 -3q4 -1 4 -5q-8 -37 -19 -67.5t-26 -55.5
l70 -74q1 -2 0.5 -3l-1.5 -3l-10 -9q-1 -1 -3 -1t-3 2l-66 69q-64 -81 -177 -81q-48 0 -86.5 16.5zM303.5 37.5q43.5 20.5 68.5 57.5l-176 190q-74 -45 -104 -78t-30 -75q0 -51 40 -83t107 -32q51 0 94.5 20.5zM224 327q42 25 68 52t26 64q0 38 -23.5 64t-65.5 26
q-35 0 -62.5 -26t-27.5 -67q0 -28 15 -60t46 -66z" />
    <glyph glyph-name="quotesingle" unicode="'" horiz-adv-x="93" vert-adv-y="1170" 
d="M30 504l-1 121q1 5 7 4l29 -14q5 0 5 -6l-11 -121q-1 -5 -7 -4l-18 13q-5 2 -4 7z" />
    <glyph glyph-name="parenleft" unicode="(" horiz-adv-x="219" vert-adv-y="1170" 
d="M65.5 85q-34.5 91 -34.5 185t34.5 185t103.5 171q3 4 6 1l12 -11q2 -2 1 -5q-66 -79 -99.5 -165t-33.5 -175t33.5 -176t99.5 -166q1 -2 -1 -6l-12 -11q-1 -1 -3 -0.5t-3 2.5q-69 80 -103.5 171z" />
    <glyph glyph-name="parenright" unicode=")" horiz-adv-x="219" vert-adv-y="1170" 
d="M47 -88.5q-2 -0.5 -3 0.5l-12 11q-2 4 -1 6q66 79 99.5 166t33.5 176t-33.5 175t-99.5 165q-1 3 1 5l12 11q3 3 6 -1q69 -80 103.5 -171t34.5 -185t-34.5 -185t-103.5 -171q-1 -2 -3 -2.5z" />
    <glyph glyph-name="asterisk" unicode="*" horiz-adv-x="301" vert-adv-y="1170" 
d="M142 359q-3 3 -3 7v32l4 81l-98 -59q-2 0 -4 -1q-4 0 -7 3t-3 7q0 3 1 5.5t3 3.5l101 53l-100 56q-2 1 -3 3.5t-1 5.5q0 4 3 7t7 3h0.5h0.5q1 0 1.5 0.5t1.5 -0.5l97 -62l-1 86q0 14 -1 28q0 4 3 7t7 3q5 0 8 -3t3 -7q0 -14 -1 -29l-4 -85l98 59q3 1 5 1q4 0 7 -3t3 -7
q0 -3 -1 -5.5t-3 -3.5l-102 -54l101 -54q2 -2 3 -4.5t1 -4.5q0 -4 -3 -7.5t-8 -3.5h-4l-97 62l2 -80q1 -16 1 -33q0 -4 -3 -7t-8 -3q-4 0 -7 3z" />
    <glyph glyph-name="plus" unicode="+" horiz-adv-x="362" vert-adv-y="1170" 
d="M172 2q-1 1 -1 3v136h-136q-2 0 -3 1t-1 3v13q0 2 1 3t3 1h136v135q0 2 1 3t3 1h13q2 0 3 -1t1 -3v-135h135q2 0 3 -1t1 -3v-13q0 -2 -1 -3t-3 -1h-135v-136q0 -2 -1 -3t-3 -1h-13q-2 0 -3 1z" />
    <glyph glyph-name="comma" unicode="," horiz-adv-x="137" vert-adv-y="1170" 
d="M56 -104l-10 2h-1l-3 1.5t0 3.5l21 95q-8 1 -13.5 8.5t-5.5 15.5q0 9 6.5 16.5t16.5 7.5t17 -8t7 -16q0 -4 -1 -11t-3 -14l-26 -97q-2 -6 -5 -4z" />
    <glyph glyph-name="hyphen" unicode="-" horiz-adv-x="309" vert-adv-y="1170" 
d="M32 116q-1 1 -1 3v16q0 2 1 3t3 1h239q2 0 3 -1t1 -3v-16q0 -2 -1 -3t-3 -1h-239q-2 0 -3 1z" />
    <glyph glyph-name="period" unicode="." horiz-adv-x="117" vert-adv-y="1170" 
d="M39.5 8.5q-8.5 8.5 -8.5 19.5t8.5 19.5t19.5 8.5t19 -8.5t8 -19.5t-8 -19.5t-19 -8.5t-19.5 8.5z" />
    <glyph glyph-name="slash" unicode="/" horiz-adv-x="261" vert-adv-y="1170" 
d="M31 -12q-1 1 0 4l177 617l0.5 0.5l0.5 0.5q0 2 3 2h15q2 0 3 -1.5t0 -3.5l-177 -617q-1 -3 -4 -3h-15q-2 0 -3 1z" />
    <glyph glyph-name="zero" unicode="0" horiz-adv-x="498" vert-adv-y="1170" 
d="M142 30.5q-47 32.5 -73.5 94t-26.5 145.5t26.5 145t73.5 93.5t107 32.5q67 0 113.5 -37.5t69.5 -99.5t23 -134q0 -73 -22.5 -135t-69 -99.5t-114.5 -37.5q-60 0 -107 32.5zM88.5 135.5q23.5 -56.5 65 -86t95.5 -29.5q61 0 102.5 34.5t61.5 91.5t20 124t-20 123.5
t-61.5 91t-102.5 34.5q-55 0 -96.5 -29.5t-64.5 -85.5t-23 -134t23.5 -134.5z" />
    <glyph glyph-name="one" unicode="1" horiz-adv-x="261" vert-adv-y="1170" 
d="M163 1q-1 -1 -3 -1h-14q-2 0 -3 1t-1 3v512h-129q-2 0 -3 1t-1 3v15q0 2 1 3t3 1h147q2 0 3 -1t1 -3v-531q0 -2 -1 -3z" />
    <glyph glyph-name="two" unicode="2" horiz-adv-x="421" vert-adv-y="1170" 
d="M41 4q0 14 4.5 24.5t12.5 20.5l163 164q63 63 90.5 108.5t27.5 85.5q0 53 -40 84t-98 31q-41 0 -81.5 -15t-73.5 -42q-2 -1 -3.5 -0.5t-2.5 1.5l-8 12q-1 1 -1 3t1 3q32 29 75 45.5t93 16.5q40 0 77 -16t60.5 -47.5t23.5 -74.5q0 -45 -29.5 -94t-94.5 -116l-173 -176h328
q2 0 3 -1t1 -3v-14q0 -2 -1 -3t-3 -1h-347q-4 0 -4 4z" />
    <glyph glyph-name="three" unicode="3" horiz-adv-x="416" vert-adv-y="1170" 
d="M93 15q-47 17 -74 46q-2 3 1 6l10 10q1 1 2.5 1.5t3.5 -1.5q25 -26 67 -41.5t92 -15.5q77 0 117.5 34t40.5 95t-42 95.5t-126 34.5h-10q-2 0 -3 1t-1 3v32q1 3 1 5l152 196h-211q-36 0 -55 -19t-19 -55v-10q0 -2 -1 -3t-3 -1h-15q-2 0 -3.5 1t-1.5 3v-1q0 52 26 80t75 28
h226q2 0 3 -1t1 -3v-22q0 -2 -1 -5l-159 -206q93 -1 141 -42t48 -111q0 -45 -21 -79t-61.5 -53t-97.5 -19q-55 0 -102 17z" />
    <glyph glyph-name="four" unicode="4" horiz-adv-x="489" vert-adv-y="1170" 
d="M339 1q-1 1 -1 3v153h-291q-2 0 -3 1t-1 3v26q1 3 1 5l288 347q1 1 3 1.5t3 -0.5l7 -8q1 -1 1.5 -2.5t-0.5 -3.5l-284 -347h276v136q0 2 1 3t3 1h15q2 0 3 -1t1 -3v-136h115q2 0 3 -1t1 -3v-14q0 -2 -1 -3t-3 -1h-115v-153q0 -2 -1 -3t-3 -1h-15q-2 0 -3 1z" />
    <glyph glyph-name="five" unicode="5" horiz-adv-x="412" vert-adv-y="1170" 
d="M93 17.5q-51 19.5 -76 55.5q-2 3 0 6l11 7q2 1 3.5 1t2.5 -2q24 -29 70 -47t107 -18q72 0 110 35.5t38 86.5q0 65 -58.5 104.5t-196.5 39.5h-49q-2 0 -2.5 1t-0.5 3l25 245q0 2 1 3t3 1h270q2 0 3 -1t1 -3v-15q0 -2 -1 -3t-3 -1h-254l-25 -207h29q151 0 215 -46.5
t64 -119.5q0 -38 -18.5 -71t-57 -53.5t-93.5 -20.5q-67 0 -118 19.5z" />
    <glyph glyph-name="six" unicode="6" horiz-adv-x="452" vert-adv-y="1170" 
d="M137.5 29q-47.5 31 -71.5 91.5t-24 148.5q0 68 28 130.5t86.5 102.5t143.5 40q16 0 34 -1.5t35 -4.5q3 0 3 -4v-14q0 -2 -1.5 -3t-3.5 0q-34 6 -65 6q-76 0 -130 -34t-81 -91.5t-26 -127.5q0 -43 6 -78q16 60 62.5 92.5t113.5 32.5q55 0 95.5 -20t62.5 -56t22 -82
q0 -48 -22 -84t-61.5 -55.5t-90.5 -19.5q-68 0 -115.5 31zM363.5 57.5q41.5 37.5 41.5 98.5q0 63 -41.5 100.5t-113.5 37.5t-117 -39.5t-45 -99.5q0 -38 22 -69t60 -48.5t83 -17.5q69 0 110.5 37.5z" />
    <glyph glyph-name="seven" unicode="7" horiz-adv-x="436" vert-adv-y="1170" 
d="M141.5 1.5q-0.5 1.5 -0.5 3.5l233 511h-253q-35 0 -54 -19t-19 -54v-11q0 -2 -1.5 -3t-3.5 -1h-14q-2 0 -3 1t-1 3v-1q0 53 26 80.5t75 27.5h266q2 0 3.5 -1t1.5 -3v-21q0 -2 -1 -5l-232 -506q-3 -3 -5 -3h-16q-1 0 -1.5 1.5z" />
    <glyph glyph-name="eight" unicode="8" horiz-adv-x="476" vert-adv-y="1170" 
d="M131 16q-45 18 -68.5 51.5t-23.5 78.5q0 51 31 86t89 50q-48 14 -74.5 46t-26.5 76q0 41 22 72t62.5 48t95.5 17q54 0 95 -17t63 -48t22 -72q0 -44 -26.5 -76t-74.5 -46q58 -15 89 -50.5t31 -85.5q0 -45 -23.5 -78.5t-68.5 -51.5t-107 -18t-107 18zM108.5 53.5
q46.5 -33.5 129.5 -33.5q84 0 131 33.5t47 92.5q0 57 -47 90.5t-131 33.5t-130 -33t-46 -91q0 -59 46.5 -92.5zM122.5 323q41.5 -30 115.5 -30q75 0 116 29.5t41 82.5t-42 83.5t-115 30.5t-115 -30.5t-42 -83.5q0 -52 41.5 -82z" />
    <glyph glyph-name="nine" unicode="9" horiz-adv-x="452" vert-adv-y="1170" 
d="M114 4q-29 6 -48 18q-3 2 -2 6l9 12q0 2 1.5 3t2.5 -1q37 -22 101 -22q99 0 154.5 64t54.5 187q0 39 -4 79q-11 -61 -56.5 -98t-122.5 -37q-64 0 -104 25.5t-57.5 62.5t-17.5 74q0 50 21.5 87t62 57t96.5 20q101 0 153 -68t52 -203q0 -84 -26 -145t-77.5 -94t-127.5 -33
q-36 0 -65 6zM322 279.5q41 41.5 41 103.5q0 38 -20 69t-56 49t-83 18q-72 0 -114 -38t-42 -104q0 -64 42 -101.5t114 -37.5q77 0 118 41.5z" />
    <glyph glyph-name="colon" unicode=":" horiz-adv-x="117" vert-adv-y="1170" 
d="M40.5 8.5q-8.5 8.5 -8.5 19.5t8.5 19.5t19.5 8.5t19 -8.5t8 -19.5t-8 -19.5t-19 -8.5t-19.5 8.5zM40.5 275.5q-8.5 8.5 -8.5 19.5t8.5 19.5t19.5 8.5t19 -8.5t8 -19.5t-8 -19.5t-19 -8.5t-19.5 8.5z" />
    <glyph glyph-name="semicolon" unicode=";" horiz-adv-x="117" vert-adv-y="1170" 
d="M47 -104l-10 2h-1l-3 1.5t0 3.5l21 95q-8 1 -13.5 8.5t-5.5 15.5q0 9 6.5 16.5t16.5 7.5t17 -8t7 -16q0 -4 -1 -11t-3 -14l-26 -97q-2 -6 -5 -4zM39.5 275.5q-8.5 8.5 -8.5 19.5t8.5 19.5t19.5 8.5t19 -8.5t8 -19.5t-8 -19.5t-19 -8.5t-19.5 8.5z" />
    <glyph glyph-name="less" unicode="&#x3c;" horiz-adv-x="459" vert-adv-y="1170" 
d="M44 204q-3 2 -3 5v29q0 3 3 5l381 209q2 1 3.5 0t1.5 -4l-3 -24q-1 -2 -2 -2.5t-2 -2.5l-358 -196l358 -195q2 -1 2.5 -2.5t1.5 -2.5l3 -26q0 -2 -1.5 -3.5t-3.5 -0.5z" />
    <glyph glyph-name="equal" unicode="=" horiz-adv-x="363" vert-adv-y="1170" 
d="M32 201q-1 1 -1 3v13q0 2 1 3t3 1h293q2 0 3 -1t1 -3v-13q0 -2 -1 -3t-3 -1h-293q-2 0 -3 1zM32 1q-1 1 -1 3v13q0 2 1 3.5t3 1.5h293q2 0 3 -1.5t1 -3.5v-13q0 -2 -1 -3t-3 -1h-293q-2 0 -3 1z" />
    <glyph glyph-name="greater" unicode="&#x3e;" horiz-adv-x="459" vert-adv-y="1170" 
d="M30.5 -6.5q-1.5 1.5 -1.5 3.5l3 26q1 1 1.5 2.5t2.5 2.5l358 195l-358 196q-1 2 -2 2.5t-2 2.5l-3 24q0 3 1.5 4t3.5 0l381 -209q3 -2 3 -5v-29q0 -3 -3 -5l-381 -211q-2 -1 -3.5 0.5z" />
    <glyph glyph-name="question" unicode="?" horiz-adv-x="316" vert-adv-y="1170" 
d="M83 171q-2 0 -3 1t-1 3v78q0 19 5.5 28t20.5 17l57 29q35 18 51.5 42.5t16.5 51.5q0 39 -28 68.5t-70 29.5q-27 0 -48 -12q-5 -2 -6 2l-8 15q-2 4 2 6q25 14 59 14q38 0 66 -17.5t42 -45.5t14 -59q0 -40 -23.5 -71t-60.5 -50l-74 -38l8 20v-108q0 -2 -1.5 -3t-3.5 -1h-15
zM70.5 10q-8.5 9 -8.5 21q0 11 8.5 19.5t19.5 8.5q12 0 20.5 -8.5t8.5 -19.5q0 -12 -8.5 -21t-20.5 -9q-11 0 -19.5 9z" />
    <glyph glyph-name="at" unicode="@" horiz-adv-x="787" vert-adv-y="1170" 
d="M209.5 -109q-79.5 44 -123.5 122.5t-44 179.5t44.5 179.5t125 122t183.5 43.5q101 0 180.5 -42.5t124.5 -120t45 -178.5q0 -64 -14 -109.5t-39 -69t-57 -23.5q-34 0 -55 21.5t-20 57.5v25q-23 -49 -67.5 -76.5t-102.5 -27.5q-59 0 -103 26.5t-68 72.5t-24 103
q0 58 25.5 103.5t70 71.5t99.5 26q58 0 103 -27.5t69 -76.5l-1 97q-1 4 3 4h16q2 0 3 -1t1 -3v-314q0 -32 14 -46.5t37 -14.5q40 0 64 46.5t24 134.5q0 96 -41.5 168.5t-116 112t-170.5 39.5q-97 0 -172 -41t-117 -115t-42 -168t40.5 -167.5t115 -115.5t172.5 -42
q35 0 72 7.5t65 23.5q2 1 3.5 0.5t2.5 -2.5l5 -13q2 -3 -2 -5q-30 -17 -69 -24.5t-77 -7.5q-103 0 -182.5 44zM514 67q48 51 48 130q0 52 -22 93t-61.5 64t-89.5 23t-88.5 -22.5t-60.5 -63.5t-22 -94t22 -94t61 -64t88 -23q77 0 125 51z" />
    <glyph glyph-name="A" unicode="A" horiz-adv-x="526" vert-adv-y="1170" 
d="M25 0h-17q-1 0 -2 1.5t0 3.5l246 531q0 2 1.5 3t3.5 1h12q3 0 5 -4l246 -531q0 -2 -0.5 -3.5t-2.5 -1.5h-16q-2 2 -5 3l-71 157h-324l-71 -157q-2 -1 -5 -3zM414 181l-151 328l-151 -328h302z" />
    <glyph glyph-name="B" unicode="B" horiz-adv-x="571" vert-adv-y="1170" 
d="M99.5 1q-1.5 1 -1.5 3v531q0 2 1.5 3t3.5 1h210q56 0 97 -15.5t63 -46.5t22 -76t-23.5 -77.5t-65.5 -46.5q45 -5 81.5 -39t36.5 -95q0 -46 -22 -78t-65 -48.5t-108 -16.5h-226q-2 0 -3.5 1zM458 51.5q43 29.5 43 90.5q0 63 -42.5 92t-128.5 29h-209v-241h209
q85 0 128 29.5zM432.5 314q40.5 29 40.5 86t-41 87t-117 30h-194v-232h194q77 0 117.5 29z" />
    <glyph glyph-name="C" unicode="C" horiz-adv-x="538" vert-adv-y="1170" 
d="M177.5 33.5q-63.5 35.5 -99.5 97.5t-36 139q0 76 36 138t99.5 97.5t141.5 35.5q54 0 101.5 -17t79.5 -49q2 -3 0 -6l-9 -10q-4 -2 -6 1q-33 30 -74.5 44.5t-90.5 14.5q-73 0 -131 -32.5t-91 -89.5t-33 -127q0 -71 33 -128t91 -89.5t131 -32.5q49 0 90.5 14.5t74.5 45.5
q2 3 6 1l10 -9q2 -3 0 -6q-33 -33 -80 -50.5t-102 -17.5q-78 0 -141.5 35.5z" />
    <glyph glyph-name="D" unicode="D" horiz-adv-x="630" vert-adv-y="1170" 
d="M99.5 1q-1.5 1 -1.5 3v532q0 2 1.5 3t3.5 1h200q85 0 149.5 -34.5t100 -96t35.5 -139.5q0 -79 -35.5 -140.5t-100 -95.5t-149.5 -34h-200q-2 0 -3.5 1zM440.5 53.5q59.5 31.5 92 87.5t32.5 129q0 72 -32.5 128.5t-92 88t-138.5 31.5h-181v-496h181q79 0 138.5 31.5z" />
    <glyph glyph-name="E" unicode="E" horiz-adv-x="509" vert-adv-y="1170" 
d="M99.5 1q-1.5 1 -1.5 3v532q0 2 1.5 3t3.5 1h336q2 0 3 -1t1 -3v-15q0 -2 -1 -3t-3 -1h-318v-232h283q2 0 3 -1t1 -3v-14q0 -2 -1 -3t-3 -1h-283v-240h329q2 0 3 -1.5t1 -3.5v-14q0 -2 -1 -3t-3 -1h-347q-2 0 -3.5 1z" />
    <glyph glyph-name="F" unicode="F" horiz-adv-x="480" vert-adv-y="1170" 
d="M99.5 1q-1.5 1 -1.5 3v532q0 2 1.5 3t3.5 1h336q2 0 3 -1t1 -3v-15q0 -2 -1 -3t-3 -1h-318v-248h283q2 0 3 -1t1 -3v-13q0 -2 -1 -3t-3 -1h-283v-244q0 -2 -1 -3t-3 -1h-14q-2 0 -3.5 1z" />
    <glyph glyph-name="G" unicode="G" horiz-adv-x="589" vert-adv-y="1170" 
d="M98 142q33 -57 91.5 -89.5t131.5 -32.5q104 0 165 56v181q0 2 1 3t3 1h14q2 0 3 -1t1 -3v-186l-2 -6q-34 -33 -82 -50t-103 -17q-79 0 -143 35.5t-100 97.5t-36 139q0 76 36 138t99.5 97.5t141.5 35.5q54 0 101.5 -17t79.5 -49q2 -3 0 -6l-9 -10q-4 -2 -6 1
q-33 30 -74.5 44.5t-90.5 14.5q-73 0 -131 -32.5t-91 -89.5t-33 -127q0 -71 33 -128z" />
    <glyph glyph-name="H" unicode="H" horiz-adv-x="622" vert-adv-y="1170" 
d="M502 1q-1 1 -1 3v259h-380v-259q0 -2 -1 -3t-3 -1h-14q-2 0 -3.5 1t-1.5 3v532q0 2 1.5 3t3.5 1h14q2 0 3 -1t1 -3v-251h380v251q0 2 1 3t3 1h15q2 0 3 -1t1 -3v-532q0 -2 -1 -3t-3 -1h-15q-2 0 -3 1z" />
    <glyph glyph-name="I" unicode="I" horiz-adv-x="218" vert-adv-y="1170" 
d="M120 1q-1 -1 -3 -1h-14q-2 0 -3.5 1t-1.5 3v532q0 2 1.5 3t3.5 1h14q2 0 3 -1t1 -3v-532q0 -2 -1 -3z" />
    <glyph glyph-name="J" unicode="J" horiz-adv-x="362" vert-adv-y="1170" 
d="M56.5 17q-35.5 19 -56.5 53q-1 1 0 2.5t2 2.5l10 7q2 2 3.5 2t2.5 -2q22 -30 52 -46t64 -16q57 0 84.5 32.5t27.5 100.5v363h-189q-2 0 -3 1t-1 3v15q0 2 1 3t3 1h207q2 0 3 -1t1 -3v-384q0 -50 -14.5 -84t-45 -51.5t-76.5 -17.5q-40 0 -75.5 19z" />
    <glyph glyph-name="K" unicode="K" horiz-adv-x="511" vert-adv-y="1170" 
d="M99.5 1q-1.5 1 -1.5 3v532q0 2 1.5 3t3.5 1h14q2 0 3 -1t1 -3v-362l354 363q3 3 6 3h18q2 0 3 -2t0 -3l-236 -244l252 -286q2 -3 1 -4t-3 -1h-19q-3 0 -5 2l-242 275l-129 -133v-140q0 -2 -1 -3t-3 -1h-14q-2 0 -3.5 1z" />
    <glyph glyph-name="L" unicode="L" horiz-adv-x="442" vert-adv-y="1170" 
d="M99.5 1q-1.5 1 -1.5 3v532q0 2 1.5 3t3.5 1h14q2 0 3 -1t1 -3v-514h307q2 0 3 -1t1 -3v-14q0 -2 -1 -3t-3 -1h-325q-2 0 -3.5 1z" />
    <glyph glyph-name="M" unicode="M" horiz-adv-x="729" vert-adv-y="1170" 
d="M120 1q-1 -1 -3 -1h-14q-2 0 -3.5 1t-1.5 3v532q0 2 1.5 3t3.5 1h10q5 0 5 -3l246 -430l247 430q0 3 5 3h10q2 0 3.5 -1t1.5 -3l1 -532q0 -2 -1.5 -3t-3.5 -1h-15q-2 0 -3 1t-1 3l-1 483l-227 -398q-2 -2 -5 -2h-21q-3 0 -5 2l-228 397v-482q0 -2 -1 -3z" />
    <glyph glyph-name="N" unicode="N" horiz-adv-x="622" vert-adv-y="1170" 
d="M99.5 1q-1.5 1 -1.5 3v532q0 2 1.5 3t3.5 1h7q5 0 5 -3l386 -493v492q0 2 1 3t3 1h15q2 0 3 -1t1 -3v-532q0 -2 -1 -3t-3 -1h-10q-3 0 -5 3l-384 492v-491q0 -2 -1 -3t-3 -1h-14q-2 0 -3.5 1z" />
    <glyph glyph-name="O" unicode="O" horiz-adv-x="637" vert-adv-y="1170" 
d="M177.5 33.5q-63.5 35.5 -99.5 97.5t-36 139q0 76 36 138t99.5 97.5t141.5 35.5q77 0 140.5 -35t100 -97t36.5 -139q0 -78 -36.5 -140t-100 -97t-140.5 -35q-78 0 -141.5 35.5zM98 141q33 -57 91 -89t130 -32t130 32t91 89t33 129q0 71 -33 128t-91 89t-130 32t-130 -32
t-91 -89t-33 -128q0 -72 33 -129z" />
    <glyph glyph-name="P" unicode="P" horiz-adv-x="541" vert-adv-y="1170" 
d="M120 1q-1 -1 -3 -1h-14q-2 0 -3.5 1t-1.5 3v531q0 2 1.5 3t3.5 1h179q65 0 113 -21t74 -61t26 -97q0 -56 -25.5 -96t-73.5 -61t-114 -21h-161v-178q0 -2 -1 -3zM424.5 244.5q48.5 40.5 48.5 115.5q0 76 -48.5 116t-140.5 40h-163v-312h163q92 0 140.5 40.5z" />
    <glyph glyph-name="Q" unicode="Q" horiz-adv-x="632" vert-adv-y="1170" 
d="M412 -73q-41 23 -85 70q-81 0 -146 35t-102 97.5t-37 140.5q0 76 36 138t99.5 97.5t141.5 35.5q77 0 140.5 -35t100 -97t36.5 -139q0 -71 -30.5 -129.5t-85 -95.5t-122.5 -46q35 -36 69 -54t67 -18q30 0 55 11t47 35q1 2 2.5 2t2.5 -2l12 -9q3 -3 0 -6q-48 -54 -119 -54
q-41 0 -82 23zM449 52.5q58 32.5 91 89.5t33 128q0 70 -33 127t-91 89.5t-130 32.5t-130 -32.5t-91 -89.5t-33 -127q0 -71 33 -128t91 -89.5t130 -32.5t130 32.5z" />
    <glyph glyph-name="R" unicode="R" horiz-adv-x="536" vert-adv-y="1170" 
d="M99.5 1q-1.5 1 -1.5 3v531q0 2 1.5 3t3.5 1h179q65 0 113 -21t74 -61t26 -97q0 -64 -33.5 -107.5t-95.5 -60.5l135 -187q1 -2 0.5 -3.5t-3.5 -1.5h-17q-3 0 -5 2l-133 185q-30 -5 -58 -5h-164v-178q0 -2 -1 -3t-3 -1h-14q-2 0 -3.5 1zM424.5 244.5q48.5 40.5 48.5 115.5
q0 76 -48.5 116t-140.5 40h-163v-312h163q92 0 140.5 40.5z" />
    <glyph glyph-name="S" unicode="S" horiz-adv-x="454" vert-adv-y="1170" 
d="M120 18q-51 20 -81 53q-1 3 1 6l10 8q1 1 2.5 1t3.5 -1q27 -28 73 -47t98 -19q79 0 121 31t42 84q0 43 -25 68t-71 39l-34 9q-80 19 -116.5 31.5t-63.5 41t-27 80.5q0 46 24 77t65 46t92 15q43 0 84.5 -12t68.5 -34q2 -1 2 -5l-10 -13q-3 -2 -6 0q-29 22 -65.5 32.5
t-72.5 10.5q-77 0 -119 -32t-42 -85q0 -46 28 -71t79 -40q13 -3 25 -7q74 -17 112.5 -30t66.5 -42t28 -79q0 -45 -25 -75.5t-66.5 -45.5t-93.5 -15q-57 0 -108 20z" />
    <glyph glyph-name="T" unicode="T" horiz-adv-x="419" vert-adv-y="1170" 
d="M200 1q-1 1 -1 3v514h-194q-2 0 -3.5 1t-1.5 3v14q0 2 1.5 3t3.5 1h409q2 0 3 -1t1 -3v-14q0 -2 -1 -3t-3 -1h-194v-514q0 -2 -1 -3t-3 -1h-13q-2 0 -3 1z" />
    <glyph glyph-name="U" unicode="U" horiz-adv-x="605" vert-adv-y="1170" 
d="M148.5 56.5q-55.5 58.5 -55.5 169.5v310q0 2 1.5 3t3.5 1h14q2 0 3 -1t1 -3v-309q0 -104 48 -155.5t139 -51.5t138.5 51.5t47.5 155.5v309q0 2 1 3t3 1h15q2 0 3 -1t1 -3v-310q0 -111 -55.5 -169.5t-153.5 -58.5q-99 0 -154.5 58.5z" />
    <glyph glyph-name="V" unicode="V" horiz-adv-x="498" vert-adv-y="1170" 
d="M236 3l-237 532q-1 2 0 3.5t2 1.5h17q1 0 2.5 -1t2.5 -3l226 -507l226 507q1 2 2.5 3t2.5 1h17q1 0 2 -1.5t0 -3.5l-239 -532q0 -1 -1.5 -2t-2.5 -1h-15q-2 2 -5 3z" />
    <glyph glyph-name="W" unicode="W" horiz-adv-x="812" vert-adv-y="1170" 
d="M208 3l-183 532q-1 2 0 3.5t3 1.5h19q3 0 3 -3l169 -508l176 508q3 3 4 3h13q1 0 4 -3l176 -509l170 509q0 3 4 3h18q2 0 3 -1.5t0 -3.5l-184 -532q-3 -3 -4 -3h-13q-1 0 -4 3l-176 500l-177 -500q-3 -3 -4 -3h-13q-1 0 -4 3z" />
    <glyph glyph-name="X" unicode="X" horiz-adv-x="454" vert-adv-y="1170" 
d="M5 1.5q-1 1.5 1 3.5l205 274l-190 256q-2 2 -1 3.5t3 1.5h19q4 0 5 -3l180 -241l179 241q2 3 5 3h19q2 0 3 -1.5t-1 -3.5l-192 -256l207 -274q2 -2 1 -3.5t-3 -1.5h-19q-5 0 -5 2l-196 259l-194 -259q0 -2 -5 -2h-18q-2 0 -3 1.5z" />
    <glyph glyph-name="Y" unicode="Y" horiz-adv-x="455" vert-adv-y="1170" 
d="M216 1q-1 1 -1 3v180l-217 351q-1 2 -0.5 3.5t3.5 1.5h18q4 0 4 -3l204 -329l204 329q2 3 5 3h18q2 0 2.5 -1.5t-0.5 -3.5l-218 -351v-180q0 -2 -1.5 -3t-3.5 -1h-14q-2 0 -3 1z" />
    <glyph glyph-name="Z" unicode="Z" horiz-adv-x="484" vert-adv-y="1170" 
d="M34 1q-1 1 -1 3v14q0 3 2 5l382 495h-379q-2 0 -3 1t-1 3v14q0 2 1 3t3 1h404q2 0 3 -1t1 -3v-13q0 -4 -1 -5l-382 -496h393q2 0 3 -1t1 -3v-14q0 -2 -1 -3t-3 -1h-419q-2 0 -3 1z" />
    <glyph glyph-name="bracketleft" unicode="[" horiz-adv-x="181" vert-adv-y="1170" 
d="M68 -78.5q-18 9.5 -27.5 27t-9.5 42.5v559q0 25 9 43t27 27t43 9h36q4 0 4 -4v-17q0 -4 -4 -4h-34q-28 0 -42.5 -15t-14.5 -43v-551q0 -28 14.5 -43t42.5 -15h34q4 0 4 -3v-18q0 -4 -4 -4h-36q-24 0 -42 9.5z" />
    <glyph glyph-name="backslash" unicode="\" horiz-adv-x="218" vert-adv-y="1170" 
d="M203 -13q-2 0 -4 3l-177 617q-1 2 0 3.5t3 1.5h15q3 0 3 -2l0.5 -0.5l0.5 -0.5l177 -617q1 -3 0 -4t-3 -1h-15z" />
    <glyph glyph-name="bracketright" unicode="]" horiz-adv-x="181" vert-adv-y="1170" 
d="M35 -88q-4 0 -4 4v18q0 3 4 3h34q28 0 42.5 15t14.5 43v551q0 28 -14.5 43t-42.5 15h-34q-4 0 -4 4v17q0 4 4 4h36q25 0 43 -9t27 -27t9 -43v-559q0 -25 -9.5 -42.5t-27.5 -27t-42 -9.5h-36z" />
    <glyph glyph-name="underscore" unicode="_" horiz-adv-x="379" vert-adv-y="1170" 
d="M32 -199q-1 1 -1 3v16q0 2 1 3t3 1h309q2 0 3 -1t1 -3v-16q0 -2 -1 -3t-3 -1h-309q-2 0 -3 1z" />
    <glyph glyph-name="a" unicode="a" horiz-adv-x="438" vert-adv-y="1170" 
d="M112 12q-32 14 -48.5 39.5t-16.5 59.5q0 54 38.5 81.5t104.5 27.5h146v39q0 61 -30.5 91.5t-90.5 30.5q-82 0 -138 -51q-1 -1 -2.5 -0.5t-2.5 1.5l-10 9q-3 3 0 6q27 26 67.5 41.5t83.5 15.5q70 0 107.5 -37t37.5 -105v-257q0 -2 -1 -3t-3 -1h-15q-4 0 -4 4l1 70
q-21 -36 -58 -56t-88 -20q-46 0 -78 14zM252 29.5q27 10.5 48 31.5q24 25 30 51.5t6 72.5v14h-147q-63 0 -91.5 -23t-28.5 -64q0 -44 31.5 -68.5t88.5 -24.5q36 0 63 10.5z" />
    <glyph glyph-name="b" unicode="b" horiz-adv-x="512" vert-adv-y="1170" 
d="M176.5 26q-45.5 28 -69.5 76l1 -98q1 -1 0 -2.5t-3 -1.5h-16q-2 0 -3 1t-1 3v562q0 2 1 3t3 1h15q2 0 3 -1t1 -3v-266q24 48 69.5 75.5t101.5 27.5q55 0 99.5 -26t70 -72t25.5 -105q0 -58 -25.5 -104t-70 -72t-99.5 -26q-57 0 -102.5 28zM129 108q21 -41 60.5 -64.5
t90.5 -23.5t90 23.5t60.5 64.5t21.5 92q0 79 -47.5 129.5t-124.5 50.5q-78 0 -125 -50t-47 -130q0 -51 21 -92z" />
    <glyph glyph-name="c" unicode="c" horiz-adv-x="413" vert-adv-y="1170" 
d="M134 23q-45 26 -70.5 72t-25.5 105t25.5 105t70.5 72t101 26q44 0 81 -16.5t61 -47.5q3 -3 0 -5l-11 -10q-4 -2 -6 0q-21 27 -53.5 41.5t-71.5 14.5q-78 0 -126.5 -50.5t-48.5 -129.5t48.5 -129.5t126.5 -50.5q39 0 71.5 14t53.5 41q2 4 5 0l12 -9q2 -3 0 -6
q-24 -31 -61.5 -47t-80.5 -16q-56 0 -101 26z" />
    <glyph glyph-name="d" unicode="d" horiz-adv-x="512" vert-adv-y="1170" 
d="M134 24q-45 26 -70.5 72t-25.5 104q0 59 25.5 105t70.5 72t100 26q57 0 101.5 -27.5t69.5 -75.5v266q0 2 1 3t3 1h15q2 0 3 -1t1 -3v-562q0 -2 -1 -3t-3 -1h-16q-2 0 -3.5 1.5t-0.5 2.5l1 98q-25 -48 -69.5 -76t-101.5 -28q-55 0 -100 26zM322.5 43.5
q39.5 23.5 60.5 64.5t21 92q0 80 -47 130t-125 50q-50 0 -89.5 -23t-61 -64t-21.5 -93q0 -51 22 -92t61 -64.5t89 -23.5q51 0 90.5 23.5z" />
    <glyph glyph-name="e" unicode="e" horiz-adv-x="447" vert-adv-y="1170" 
d="M133.5 24.5q-45.5 26.5 -70.5 72.5t-25 103q0 58 24 104.5t66 72.5t96 26q52 0 94 -25t66.5 -71.5t24.5 -106.5q0 -4 -4 -4h-345q1 -78 50.5 -126.5t128.5 -48.5q39 0 72 14t53 40q2 4 5 1l13 -10q5 -1 1 -5q-24 -30 -62 -46.5t-82 -16.5q-60 0 -105.5 26.5zM338.5 334.5
q-45.5 45.5 -114.5 45.5q-68 0 -113.5 -45t-50.5 -117h328q-4 71 -49.5 116.5z" />
    <glyph glyph-name="f" unicode="f" horiz-adv-x="232" vert-adv-y="1170" 
d="M91 1q-1 1 -1 3v375h-71q-2 0 -3 1t-1 3v14q0 2 1 3t3 1h71v71q0 46 26.5 73.5t73.5 27.5q21 0 38 -4.5t33 -15.5q2 -1 2 -3t-1 -3l-7 -12q-3 -3 -6 0q-28 16 -59 16q-38 0 -57 -20.5t-19 -61.5v-68h127q2 0 3 -1t1 -3v-14q0 -2 -1 -3t-3 -1h-128v-375q0 -2 -1 -3t-3 -1
h-15q-2 0 -3 1z" />
    <glyph glyph-name="g" unicode="g" horiz-adv-x="517" vert-adv-y="1170" 
d="M146 -133q-47 17 -74 47q-2 2 0 6l10 8q1 1 3 1.5t3 -0.5q29 -28 70 -42.5t88 -14.5q85 0 124.5 39.5t39.5 124.5v77q-25 -47 -70.5 -73.5t-103.5 -26.5q-56 0 -101 25t-71 69.5t-26 101.5q0 56 26 100t71 69t101 25q58 0 104 -27t70 -74l-2 94q0 4 4 4h15q2 0 3 -1t1 -3
v-357q0 -96 -45.5 -142.5t-138.5 -46.5q-54 0 -101 17zM361.5 83.5q47.5 48.5 47.5 125.5t-48 124t-126 47q-77 0 -126 -47.5t-49 -123.5q0 -50 22 -89.5t61.5 -62t91.5 -22.5q79 0 126.5 48.5z" />
    <glyph glyph-name="h" unicode="h" horiz-adv-x="510" vert-adv-y="1170" 
d="M85 1q-1 1 -1 3v562q0 2 1 3t3 1h15q2 0 3 -1t1 -3v-256q23 44 64 68.5t98 24.5q74 0 117.5 -44.5t43.5 -123.5v-231q0 -2 -1 -3t-3 -1h-14q-2 0 -3 1t-1 3v230q0 72 -36 109t-103 37q-77 0 -119.5 -43.5t-42.5 -119.5v-213q0 -2 -1 -3t-3 -1h-15q-2 0 -3 1z" />
    <glyph glyph-name="i" unicode="i" horiz-adv-x="191" vert-adv-y="1170" 
d="M106 1q-1 -1 -3 -1h-15q-2 0 -3 1t-1 3v393q0 2 1 3t3 1h15q2 0 3 -1t1 -3v-393q0 -2 -1 -3zM78.5 544q7.5 7 17.5 7q9 0 16 -7.5t7 -15.5q0 -10 -6.5 -17.5t-16.5 -7.5t-17.5 7.5t-7.5 16.5q0 10 7.5 17z" />
    <glyph glyph-name="j" unicode="j" horiz-adv-x="189" vert-adv-y="1170" 
d="M-33.5 -145q-18.5 5 -34.5 16q-2 1 -2.5 3t0.5 3l8 11q1 2 2.5 2t2.5 -1q28 -17 63 -17q38 0 56.5 20.5t18.5 61.5v443q0 2 1 3t3 1h15q2 0 3 -1t1 -3v-446q0 -30 -11 -52.5t-33 -35.5t-53 -13q-22 0 -40.5 5zM75.5 510.5q-7.5 7.5 -7.5 16.5q0 10 7.5 17t17.5 7
q9 0 16 -7.5t7 -15.5q0 -10 -6.5 -17.5t-16.5 -7.5t-17.5 7.5z" />
    <glyph glyph-name="k" unicode="k" horiz-adv-x="420" vert-adv-y="1170" 
d="M85 1q-1 1 -1 3v562q0 2 1 3t3 1h15q2 0 3 -1t1 -3v-415l279 255q2 2 3 1.5t2 -1.5l1 -1l8 -9q1 -2 -1 -6l-162 -150l185 -235q2 -2 1 -3.5t-3 -1.5h-16q-3 0 -5 2l-180 224l-112 -102v-120q0 -2 -1 -3t-3 -1h-15q-2 0 -3 1z" />
    <glyph glyph-name="l" unicode="l" horiz-adv-x="191" vert-adv-y="1170" 
d="M106 1q-1 -1 -3 -1h-15q-2 0 -3 1t-1 3v562q0 2 1 3t3 1h15q2 0 3 -1t1 -3v-562q0 -2 -1 -3z" />
    <glyph glyph-name="m" unicode="m" horiz-adv-x="814" vert-adv-y="1170" 
d="M85 1q-1 1 -1 3v392q0 2 1 3t3 1h16q2 0 3 -1.5t1 -3.5l-1 -84q22 43 62 67.5t95 24.5q58 0 97 -26.5t52 -77.5q20 48 62.5 76t101.5 28q74 0 115.5 -45t41.5 -123v-231q0 -2 -1 -3t-3 -1h-14q-2 0 -3 1t-1 3v230q0 72 -34.5 109t-100.5 37q-74 0 -115.5 -43.5
t-41.5 -119.5v-213q0 -2 -1 -3t-3 -1h-14q-2 0 -3 1t-1 3v230q0 72 -34.5 109t-99.5 37q-73 0 -115 -43.5t-42 -119.5v-213q0 -2 -1 -3t-3 -1h-15q-2 0 -3 1z" />
    <glyph glyph-name="n" unicode="n" horiz-adv-x="510" vert-adv-y="1170" 
d="M85 1q-1 1 -1 3v392q0 2 1 3t3 1h16q4 0 4 -4l-1 -86q22 43 63.5 68t98.5 25q74 0 117.5 -44.5t43.5 -123.5v-231q0 -2 -1 -3t-3 -1h-14q-2 0 -3 1t-1 3v230q0 72 -36 109t-103 37q-77 0 -119.5 -43.5t-42.5 -119.5v-213q0 -2 -1 -3t-3 -1h-15q-2 0 -3 1z" />
    <glyph glyph-name="o" unicode="o" horiz-adv-x="466" vert-adv-y="1170" 
d="M131 24.5q-44 26.5 -68.5 73t-24.5 102.5q0 58 25.5 104.5t69.5 72.5t99 26q56 0 100.5 -26t70 -72.5t25.5 -104.5q0 -56 -24.5 -102.5t-69 -73t-102.5 -26.5q-57 0 -101 26.5zM82 108q22 -41 61 -64.5t89 -23.5q52 0 91 23.5t60.5 64.5t21.5 92q0 80 -47 130t-126 50
q-50 0 -89.5 -23t-61 -64t-21.5 -93q0 -51 22 -92z" />
    <glyph glyph-name="p" unicode="p" horiz-adv-x="512" vert-adv-y="1170" 
d="M177.5 25q-44.5 27 -70.5 75v-243q0 -2 -1 -3.5t-3 -1.5h-15q-2 0 -3 1.5t-1 3.5v539q0 2 1 3t3 1h16q4 0 4 -4l-1 -98q25 49 70 77t102 28q55 0 99 -26t69.5 -72.5t25.5 -105.5q0 -58 -25.5 -103.5t-69.5 -71.5t-99 -26q-57 0 -101.5 27zM128.5 107q21.5 -41 60.5 -64
t90 -23t90.5 23t61 64t21.5 92q0 81 -48.5 131t-124.5 50t-124 -50t-48 -131q0 -51 21.5 -92z" />
    <glyph glyph-name="q" unicode="q" horiz-adv-x="512" vert-adv-y="1170" 
d="M134 24q-45 26 -70.5 71.5t-25.5 103.5q0 59 25.5 105.5t70.5 72.5t100 26q56 0 101 -28t70 -77l-1 98q0 2 1 3t3 1h16q2 0 3 -1t1 -3v-539q0 -2 -1 -3.5t-3 -1.5h-15q-2 0 -3 1.5t-1 3.5v242q-25 -47 -69.5 -74t-101.5 -27q-55 0 -100 26zM82 107q22 -41 61 -64t89 -23
q52 0 91 23t60.5 64t21.5 92q0 81 -48 131t-125 50q-49 0 -88.5 -22.5t-61.5 -63.5t-22 -95q0 -51 22 -92z" />
    <glyph glyph-name="r" unicode="r" horiz-adv-x="298" vert-adv-y="1170" 
d="M85 1q-1 1 -1 3v392q0 2 1 3t3 1h16q2 0 3 -1t1 -3l-1 -94q19 52 62.5 79.5t99.5 14.5q4 -2 3 -5l-5 -14q0 -2 -1.5 -3t-3.5 0q-51 10 -86 -9.5t-52 -59.5t-17 -90v-211q0 -2 -1 -3t-3 -1h-15q-2 0 -3 1z" />
    <glyph glyph-name="s" unicode="s" horiz-adv-x="351" vert-adv-y="1170" 
d="M100 10.5q-43 13.5 -76 38.5q-2 1 -2 3t2 3l9 12q3 3 6 1q29 -23 69 -35t79 -12q48 0 82 20t34 59q0 32 -26 51t-68 32q-17 5 -35 10q-43 11 -71.5 22.5t-48.5 32.5t-20 54q0 34 20.5 56.5t52.5 33t68 10.5q29 0 60.5 -6.5t58.5 -18.5q2 -1 2.5 -2.5t-0.5 -3.5l-7 -13
q-1 -2 -2.5 -3t-3.5 0q-49 24 -111 24q-46 0 -81 -19.5t-35 -55.5q0 -30 25 -48.5t66 -31.5q11 -3 16 -4.5t16 -4.5q49 -13 79 -25.5t49 -34.5t19 -57q0 -32 -20 -55t-52 -34.5t-69 -11.5q-42 0 -85 13.5z" />
    <glyph glyph-name="t" unicode="t" horiz-adv-x="288" vert-adv-y="1170" 
d="M116 25q-26 27 -26 73v280h-71q-2 0 -3 1t-1 3v14q0 2 1 3t3 1h71v81q0 2 1 3t3 1h15q2 0 3 -1t1 -3v-81h128q2 0 3 -1t1 -3v-14q0 -2 -1 -3t-3 -1h-128v-276q0 -41 19.5 -62t57.5 -21q17 0 30 4t30 13q1 1 2.5 1t2.5 -1l7 -12q1 -1 0.5 -2.5t-1.5 -1.5
q-14 -10 -33.5 -16t-37.5 -6q-48 0 -74 27z" />
    <glyph glyph-name="u" unicode="u" horiz-adv-x="507" vert-adv-y="1170" 
d="M123.5 41.5q-43.5 43.5 -43.5 123.5v231q0 2 1 3t3 1h14q2 0 3 -1t1 -3v-232q0 -71 37 -107.5t105 -36.5q73 0 114.5 44t41.5 119v213q0 2 1 3t3 1h13q2 0 3.5 -1t1.5 -3v-392q0 -2 -1.5 -3t-3.5 -1h-14q-4 0 -4 4l1 85q-22 -42 -62 -66.5t-93 -24.5q-78 0 -121.5 43.5z
" />
    <glyph glyph-name="v" unicode="v" horiz-adv-x="374" vert-adv-y="1170" 
d="M177.5 1q-1.5 1 -1.5 2l-180 392q-1 2 0 3.5t2 1.5h18q3 0 5 -4l166 -368l168 368q2 4 5 4h16q1 0 2 -1.5t0 -3.5l-180 -392q-3 -3 -5 -3h-12q-2 0 -3.5 1z" />
    <glyph glyph-name="w" unicode="w" horiz-adv-x="635" vert-adv-y="1170" 
d="M153 3l-152 392q0 2 1 3.5t3 1.5h15q2 0 4 -4l140 -367l140 367q2 4 5 4h15q2 0 4 -4l139 -367l140 367q0 2 1.5 3t3.5 1h13q2 0 3 -1.5t0 -3.5l-149 -392q-3 -3 -5 -3h-13q-2 2 -5 3l-141 365l-141 -365q-3 -3 -5 -3h-11q-2 2 -5 3z" />
    <glyph glyph-name="x" unicode="x" horiz-adv-x="354" vert-adv-y="1170" 
d="M7 1.5q-1 1.5 1 3.5l155 202l-148 188q-2 2 -1 3.5t3 1.5h18q5 0 5 -3l137 -174l136 174q0 3 5 3h15q3 0 3.5 -1.5t-0.5 -3.5l-146 -188l159 -202q2 -2 1 -3.5t-3 -1.5h-20q-3 0 -5 2l-145 188l-147 -188q-2 -2 -5 -2h-15q-2 0 -3 1.5z" />
    <glyph glyph-name="y" unicode="y" horiz-adv-x="378" vert-adv-y="1170" 
d="M13 -141q-22 9 -39 25q-3 3 0 6l9 9q1 1 3 1t3 -1q18 -15 34.5 -21.5t36.5 -6.5q30 0 51 16.5t41 58.5l27 58l-179 391q-1 2 0 3.5t2 1.5h17q2 0 3.5 -1t1.5 -3l167 -368l167 368q1 2 2.5 3t2.5 1h17q1 0 2 -1.5t0 -3.5l-207 -456q-22 -47 -50 -68t-65 -21q-25 0 -47 9z
" />
    <glyph glyph-name="z" unicode="z" horiz-adv-x="372" vert-adv-y="1170" 
d="M33 1q-1 1 -1 3v16l2 4l279 353h-277q-2 0 -3 1t-1 3v15q0 2 1 3t3 1h301q2 0 3.5 -1t1.5 -3v-18q-1 -2 -2 -5l-278 -352h274q2 0 3.5 -1t1.5 -3v-13q0 -2 -1.5 -3t-3.5 -1h-300q-2 0 -3 1z" />
    <glyph glyph-name="braceleft" unicode="{" horiz-adv-x="224" vert-adv-y="1170" 
d="M111 -78.5q-18 9.5 -27.5 27t-9.5 42.5v201q0 12 -3 20t-9 13l-28 24q-3 2 -3 5v32q0 4 3 5l28 25q6 5 9 13t3 20v201q0 25 9 43t27 27t43 9h36q4 0 4 -4v-17q0 -4 -4 -4h-34q-28 0 -42.5 -15t-14.5 -43v-190q0 -30 -5.5 -43.5t-23.5 -28.5l-16 -13l16 -14
q18 -16 23.5 -29t5.5 -43v-190q0 -28 14.5 -43t42.5 -15h34q4 0 4 -3v-18q0 -4 -4 -4h-36q-24 0 -42 9.5z" />
    <glyph glyph-name="bar" unicode="|" horiz-adv-x="83" vert-adv-y="1170" 
d="M32 -150q-1 1 -1 3v712q0 2 1 3t3 1h14q2 0 3 -1t1 -3v-712q0 -2 -1 -3t-3 -1h-14q-2 0 -3 1z" />
    <glyph glyph-name="braceright" unicode="}" horiz-adv-x="224" vert-adv-y="1170" 
d="M35 -88q-4 0 -4 4v18q0 3 4 3h34q28 0 42.5 15t14.5 43v190q0 30 5.5 43t23.5 29l16 14l-16 13q-18 15 -23.5 28.5t-5.5 43.5v190q0 28 -14.5 43t-42.5 15h-34q-4 0 -4 4v17q0 4 4 4h36q25 0 43 -9t27 -27t9 -43v-201q0 -12 3 -20t9 -13l28 -25q3 -1 3 -5v-32q0 -3 -3 -5
l-28 -24q-6 -5 -9 -13t-3 -20v-201q0 -25 -9.5 -42.5t-27.5 -27t-42 -9.5h-36z" />
    <glyph glyph-name="asciitilde" unicode="~" horiz-adv-x="426" vert-adv-y="1170" 
d="M243.5 225.5q-18.5 11.5 -41.5 34.5l-5 5q-15 16 -29 24.5t-33 8.5q-26 0 -42 -15.5t-22 -44.5q0 -2 -1.5 -3t-2.5 0l-11 1q-2 1 -3.5 2.5t-0.5 2.5q6 36 28 56t55 20q28 0 46 -11t41 -33l9 -10q14 -14 28 -21.5t32 -7.5q26 0 41.5 16t22.5 45q1 4 5 4l11 -2q2 -1 3 -2.5
t0 -2.5q-5 -37 -27.5 -57.5t-55.5 -20.5q-29 0 -47.5 11.5z" />
    <glyph glyph-name="nbspace" unicode="&#xa0;" horiz-adv-x="150" vert-adv-y="1170" 
 />
    <glyph glyph-name="exclamdown" unicode="&#xa1;" horiz-adv-x="182" vert-adv-y="1170" 
d="M98 237q2 0 3 -1t1 -3l3 -350q0 -3 -1.5 -3.5t-3.5 -0.5h-15q-2 0 -3 1t-1 3l-1 350q0 2 1 3t3 1h14zM111.5 396q8.5 -9 8.5 -21q0 -11 -8.5 -19.5t-19.5 -8.5q-12 0 -20.5 8.5t-8.5 19.5q0 12 8.5 21t20.5 9q11 0 19.5 -9z" />
    <glyph glyph-name="brokenbar" unicode="&#xa6;" horiz-adv-x="219" vert-adv-y="1170" 
d="M99 299q-1 1 -1 3v263q0 2 1 3t3 1h14q2 0 3 -1t1 -3v-263q0 -2 -1 -3t-3 -1h-14q-2 0 -3 1zM99 -150q-1 1 -1 3v264q0 2 1 3t3 1h14q2 0 3 -1t1 -3v-264q0 -2 -1 -3t-3 -1h-14q-2 0 -3 1z" />
    <glyph glyph-name="guillemotleft" unicode="&#xab;" horiz-adv-x="399" vert-adv-y="1170" 
d="M230 124v26q0 5 3 6l119 119q1 2 3 1.5t4 -1.5l8 -8q1 -2 1 -3.5t-1 -3.5l-122 -123l121 -120q1 -2 1 -3.5t-1 -3.5l-9 -9q-2 -2 -3.5 -2t-2.5 2l-118 117q-3 3 -3 6zM31 124v26q0 5 3 6l119 119q1 2 3 1.5t4 -1.5l8 -8q1 -2 1 -3.5t-1 -3.5l-122 -123l121 -120
q1 -2 1 -3.5t-1 -3.5l-9 -9q-2 -2 -3.5 -2t-2.5 2l-118 117q-3 3 -3 6z" />
    <glyph glyph-name="degree" unicode="&#xb0;" horiz-adv-x="189" vert-adv-y="1170" 
d="M62.5 490.5q-14.5 8.5 -23 23.5t-8.5 33q0 17 8.5 31.5t23 23t31.5 8.5t32 -8.5t23.5 -23t8.5 -31.5q0 -18 -8.5 -33t-23.5 -23.5t-32 -8.5t-31.5 8.5zM123 517.5q12 12.5 12 29.5t-12 28.5t-29 11.5t-28.5 -11.5t-11.5 -28.5t12 -29.5t28 -12.5q17 0 29 12.5z" />
    <glyph glyph-name="plusminus" unicode="&#xb1;" horiz-adv-x="362" vert-adv-y="1170" 
d="M32 1q-1 1 -1 3v13q0 2 1 3.5t3 1.5h136v123h-136q-2 0 -3 1.5t-1 3.5v13q0 2 1 3t3 1h136v135q0 2 1 3t3 1h13q2 0 3 -1t1 -3v-135h135q2 0 3 -1t1 -3v-13q0 -2 -1 -3.5t-3 -1.5h-135v-123h135q2 0 3 -1.5t1 -3.5v-13q0 -2 -1 -3t-3 -1h-292q-2 0 -3 1z" />
    <glyph glyph-name="periodcentered" unicode="&#xb7;" horiz-adv-x="111" vert-adv-y="1170" 
d="M39.5 256.5q-8.5 8.5 -8.5 19.5t8.5 19.5t19.5 8.5t19 -8.5t8 -19.5t-8 -19.5t-19 -8.5t-19.5 8.5z" />
    <glyph glyph-name="guillemotright" unicode="&#xbb;" horiz-adv-x="399" vert-adv-y="1170" 
d="M48 1q-1 -2 -2.5 -2t-3.5 2l-9 9q-1 2 -1 3.5t1 3.5l121 120l-122 123q-1 2 -1 3.5t1 3.5l8 8q2 1 4 1.5t3 -1.5l119 -119q3 -1 3 -6v-26q0 -3 -3 -6zM247 1q-1 -2 -2.5 -2t-3.5 2l-9 9q-1 2 -1 3.5t1 3.5l121 120l-122 123q-1 2 -1 3.5t1 3.5l8 8q2 1 4 1.5t3 -1.5
l119 -119q3 -1 3 -6v-26q0 -3 -3 -6z" />
    <glyph glyph-name="questiondown" unicode="&#xbf;" horiz-adv-x="315" vert-adv-y="1170" 
d="M233 244q2 0 3 -1t1 -3v-78q0 -19 -5.5 -28t-20.5 -17l-57 -29q-35 -18 -51.5 -42.5t-16.5 -51.5q0 -39 28 -68.5t70 -29.5q27 0 48 12q5 2 6 -2l8 -15q2 -4 -2 -6q-25 -14 -59 -14q-38 0 -66 17.5t-42 45.5t-14 59q0 40 23.5 71t60.5 50l74 38l-8 -20v108q0 2 1.5 3
t3.5 1h15zM245.5 405q8.5 -9 8.5 -21q0 -11 -8.5 -19.5t-19.5 -8.5q-12 0 -20.5 8.5t-8.5 19.5q0 12 8.5 21t20.5 9q11 0 19.5 -9z" />
    <glyph glyph-name="multiply" unicode="&#xd7;" horiz-adv-x="278" vert-adv-y="1170" 
d="M27 9.5q0 1.5 1 2.5l96 97l-96 96q-1 1 -1 3t1 3l9 9q3 3 6 0l96 -96l96 95q1 2 3 1.5t3 -1.5l9 -9q2 -2 0 -6l-96 -95l96 -96q2 -1 2 -2.5t-2 -2.5l-9 -9q-1 -1 -3 -1t-3 1l-96 94l-96 -96q-3 -2 -6 0l-9 10q-1 1 -1 2.5z" />
    <glyph glyph-name="divide" unicode="&#xf7;" horiz-adv-x="363" vert-adv-y="1170" 
d="M32 142q-1 1 -1 3v13q0 2 1 3t3 1h293q2 0 3 -1t1 -3v-13q0 -2 -1 -3t-3 -1h-293q-2 0 -3 1zM161.5 13.5q-8.5 8.5 -8.5 20.5q0 11 8.5 19.5t20.5 8.5q11 0 19.5 -8.5t8.5 -19.5q0 -12 -8.5 -20.5t-19.5 -8.5q-12 0 -20.5 8.5zM161.5 249.5q-8.5 8.5 -8.5 19.5
q0 12 8.5 20.5t20.5 8.5q11 0 19.5 -8.5t8.5 -20.5q0 -11 -8.5 -19.5t-19.5 -8.5q-12 0 -20.5 8.5z" />
    <glyph glyph-name="perthousand-ar" unicode="&#x609;" horiz-adv-x="576" vert-adv-y="1170" 
d="M71.9531 1.42871q-0.952148 1.42871 0 3.33301l153.336 561.912l0.952148 0.952148q0 1.90527 2.85742 1.90527h13.333q1.90527 0 2.85742 -0.953125q0.952148 -0.952148 0 -3.80957l-153.335 -561.911q-2.85742 -2.85742 -3.80957 -2.85742h-13.334
q-1.9043 0 -2.85742 1.42871zM270.527 8.0957q-8.0957 8.09473 -8.0957 19.5234q0 10.4766 8.0957 18.5723q8.0957 8.09473 19.5244 8.09473q9.52344 0 17.6191 -8.09473q8.09473 -8.0957 8.09473 -18.5723q0 -11.4287 -7.61914 -19.5234q-7.61914 -8.0957 -18.0947 -8.0957
q-11.4287 0 -19.5244 8.0957zM7.66699 520.482q-8.09473 8.0957 -7.14258 18.5723q0 10.4756 7.61914 18.5713q7.61914 8.09473 18.0947 8.09473q11.4297 0 19.5244 -8.09473q8.0957 -8.0957 8.0957 -18.5713q0 -10.4766 -8.0957 -18.5723
q-8.09473 -8.0957 -19.5244 -8.0957q-10.4756 0 -18.5713 8.0957zM468.625 8.0957q-8.0957 8.09473 -8.0957 19.5234q0 10.4766 8.0957 18.5723q8.0957 8.09473 19.5244 8.09473q9.52344 0 17.6191 -8.09473q8.09473 -8.0957 8.09473 -18.5723q0 -11.4287 -7.61914 -19.5234
q-7.61914 -8.0957 -18.0947 -8.0957q-11.4287 0 -19.5244 8.0957z" />
    <glyph glyph-name="commaarabic" unicode="&#x60c;" horiz-adv-x="184" vert-adv-y="1170" 
d="M71 7.5q-8 8.5 -8 22.5q0 5 0.5 10.5t2.5 11.5l32 92q1 2 2.5 2.5t3.5 0.5l11 -3q3 -1 3 -6l-26 -82q11 2 20 -6.5t9 -21.5q0 -12 -8 -20.5t-19 -8.5q-15 0 -23 8.5z" />
    <glyph glyph-name="tahabove-ar" unicode="&#x615;" vert-adv-y="1170" 
d="M1 456q-1 1 -1 2v14q0 4 5 4h33v198q0 4 5 4h11q5 0 5 -4v-90q0 -25 -5 -39q17 33 40 51t51 18q32 0 52 -23.5t20 -54.5q0 -40 -30.5 -60.5t-79.5 -20.5h-104q-1 0 -2 1zM171 491q25 15 25 45q0 23 -14 40t-37 17q-31 0 -58 -32.5t-33 -84.5h53q39 0 64 15z" />
    <glyph glyph-name="semicolonarabic" unicode="&#x61b;" horiz-adv-x="153" vert-adv-y="1170" 
d="M42.5 8.5q-8.5 8.5 -8.5 19.5t8.5 19.5t19.5 8.5t19 -8.5t8 -19.5t-8 -19.5t-19 -8.5t-19.5 8.5zM72.1572 242.622q-8.13086 8.63867 -8.13086 22.8672q0 5.08105 0.508789 10.6709q0.507812 5.58984 2.54004 11.6875l32.5215 93.499q1.0166 2.03223 2.54102 2.54102
q1.52441 0.507812 3.55762 0.507812l11.1787 -3.04883q3.04883 -1.0166 3.04883 -6.09766l-26.4238 -83.3369q11.1797 2.0332 20.3262 -6.60547t9.14648 -21.8506q0 -12.1953 -8.12988 -20.834q-8.13086 -8.63867 -19.3096 -8.63867q-15.2451 0 -23.375 8.63867z" />
    <glyph glyph-name="question-ar" unicode="&#x61f;" horiz-adv-x="316" vert-adv-y="1170" 
d="M214.5 172q-1.5 1 -1.5 3v108l8 -20l-74 38q-37 19 -60.5 50t-23.5 71q0 31 14 59t42 45.5t66 17.5q34 0 59 -14q4 -2 2 -6l-8 -15q-1 -4 -6 -2q-21 12 -48 12q-42 0 -70 -29.5t-28 -68.5q0 -27 16.5 -51.5t51.5 -42.5l57 -29q15 -8 20.5 -17t5.5 -28v-78q0 -2 -1 -3
t-3 -1h-15q-2 0 -3.5 1zM205.5 10q-8.5 9 -8.5 21q0 11 8.5 19.5t20.5 8.5q11 0 19.5 -8.5t8.5 -19.5q0 -12 -8.5 -21t-19.5 -9q-12 0 -20.5 9z" />
    <glyph glyph-name="hamza-ar" unicode="&#x621;" horiz-adv-x="429" vert-adv-y="1170" 
d="M70.5 -10.5q-1.5 0.5 -2.5 2.5l-6 16q-1 2 -0.5 3.5t2.5 2.5l176 66l-7 -14q-39 -6 -72 9.5t-52 44t-18 59.5q0 28 12.5 54t37 43t57.5 17q24 0 54 -10q2 -1 3 -3t0 -3l-4 -16q-2 -5 -5 -3q-37 10 -56 10q-35 0 -56.5 -26t-21.5 -59q1 -38 28 -65.5t80 -27.5q31 0 55 6.5
t58 18.5l18 7l5 2q2 0 3.5 -0.5t2.5 -2.5l5 -15q1 -4 -2 -6l-291 -110q-2 -1 -3.5 -0.5z" />
    <glyph glyph-name="alefMadda-ar" unicode="&#x622;" horiz-adv-x="146" vert-adv-y="1170" 
d="M63 1q-1 1 -1 3v462q0 2 1 3t3 1h13q2 0 3.5 -1t1.5 -3v-462q0 -2 -1.5 -3t-3.5 -1h-13q-2 0 -3 1zM85 556l-30 14q-32 15 -52 13.5t-35 -34.5q-1 -2 -2.5 -3t-3.5 0l-14 8q-1 1 -1.5 2.5t0.5 3.5q11 27 27.5 38.5t36.5 11.5q24 0 54 -14l30 -14q33 -15 53 -13.5t35 34.5
q1 2 2.5 3t3.5 0l13 -8q2 -1 2.5 -3t-0.5 -3q-11 -27 -27.5 -38.5t-37.5 -11.5q-22 0 -54 14z" />
    <glyph glyph-name="alefHamzaabove-ar" unicode="&#x623;" horiz-adv-x="146" vert-adv-y="1170" 
d="M63 1q-1 1 -1 3v462q0 2 1 3t3 1h13q2 0 3.5 -1t1.5 -3v-462q0 -2 -1.5 -3t-3.5 -1h-13q-2 0 -3 1zM-14 522l-4 11q-1 2 0.5 3.5t3.5 2.5l119 44l1 -16q-7 -1 -19 -1q-44 -1 -67 22t-23 56q-1 34 19.5 55t54.5 22q14 0 32 -5q2 0 3.5 -1.5t0.5 -3.5l-1 -12q-1 -5 -5 -3
q-27 3 -30 3q-26 0 -41.5 -16.5t-15.5 -38.5q0 -26 22 -41t52 -15q15 0 30 3t32 9l7 3q6 2 7 -3l4 -11q1 -1 -0.5 -3t-3.5 -3l-171 -64q-5 -2 -7 3z" />
    <glyph glyph-name="wawHamzaabove-ar" unicode="&#x624;" horiz-adv-x="431" vert-adv-y="1170" 
d="M64 -182q-2 -1 -3.5 1.5t-0.5 4.5l5 12q1 2 2.5 3.5t3.5 0.5q35 -8 66 -8q95 0 149 58t60 158q-40 -50 -123 -50q-45 0 -75 16t-45 44.5t-15 64.5q0 41 17.5 77.5t48.5 58.5t69 22q47 0 79.5 -30t49 -79t16.5 -107q0 -76 -26 -133.5t-78 -90t-128 -32.5q-43 0 -72 9z
M308.5 46.5q31.5 23.5 31.5 69.5q0 33 -14.5 65.5t-41 53.5t-61.5 21q-36 0 -61.5 -20t-38.5 -51.5t-13 -64.5q0 -48 29 -72.5t82 -24.5q56 0 87.5 23.5zM136 334l-4 11q-1 2 0.5 3.5t3.5 2.5l119 44l1 -16q-7 -1 -19 -1q-44 -1 -67 22t-23 56q-1 34 19.5 55t54.5 22
q14 0 32 -5q2 0 3.5 -1.5t0.5 -3.5l-1 -12q-1 -5 -5 -3q-27 3 -30 3q-26 0 -41.5 -16.5t-15.5 -38.5q0 -26 22 -41t52 -15q15 0 30 3t32 9l7 3q6 2 7 -3l4 -11q1 -1 -0.5 -3t-3.5 -3l-171 -64q-5 -2 -7 3z" />
    <glyph glyph-name="alefHamzabelow-ar" unicode="&#x625;" horiz-adv-x="146" vert-adv-y="1170" 
d="M62 4v520q0 4 4 4h13q5 0 5 -4v-520q0 -4 -5 -4h-13q-4 0 -4 4zM-16 -250l-4 11q-1 2 0.5 3.5t3.5 2.5l119 44l1 -16q-7 -1 -19 -1q-44 -1 -67 22t-23 56q-1 34 19.5 55t54.5 22q14 0 32 -5q2 0 3.5 -1.5t0.5 -3.5l-1 -12q-1 -5 -5 -3q-27 3 -30 3q-26 0 -41.5 -16.5
t-15.5 -38.5q0 -26 22 -41t52 -15q15 0 30 3t32 9l7 3q6 2 7 -3l4 -11q1 -1 -0.5 -3t-3.5 -3l-171 -64q-5 -2 -7 3z" />
    <glyph glyph-name="yehHamzaabove-ar" unicode="&#x626;" horiz-adv-x="580" vert-adv-y="1170" 
d="M161.5 -174.5q-49.5 25.5 -74.5 69.5t-25 99q0 30 7.5 63t23.5 67q1 2 2.5 2.5t3.5 -0.5l9 -3q2 -1 2 -3t-1 -3q-13 -32 -20 -62.5t-7 -58.5q0 -77 52.5 -124.5t152.5 -47.5q60 0 107.5 14.5t74.5 39t27 55.5q0 39 -24.5 57.5t-81.5 33.5q-67 17 -109 45.5t-42 89.5
q0 30 13.5 55.5t37.5 45t54 31.5q27 10 54.5 13t53.5 -3q2 0 3.5 -2t0.5 -4v-14q-1 -2 -2.5 -3t-3.5 -1q-41 10 -93 -7q-42 -13 -69.5 -41.5t-27.5 -65.5q0 -43 29 -67.5t78 -39.5q13 -3 26 -7q64 -16 94.5 -41t30.5 -73q0 -38 -29 -69t-82 -48.5t-124 -17.5
q-72 0 -121.5 25.5zM15 182l-4 11q-1 2 0.5 3.5t3.5 2.5l119 44l1 -16q-7 -1 -19 -1q-44 -1 -67 22t-23 56q-1 34 19.5 55t54.5 22q14 0 32 -5q2 0 3.5 -1.5t0.5 -3.5l-1 -12q-1 -5 -5 -3q-27 3 -30 3q-26 0 -41.5 -16.5t-15.5 -38.5q0 -26 22 -41t52 -15q15 0 30 3t32 9
l7 3q6 2 7 -3l4 -11q1 -1 -0.5 -3t-3.5 -3l-171 -64q-5 -2 -7 3z" />
    <glyph glyph-name="alef-ar" unicode="&#x627;" horiz-adv-x="146" vert-adv-y="1170" 
d="M62 4v520q0 4 4 4h13q5 0 5 -4v-520q0 -4 -5 -4h-13q-4 0 -4 4z" />
    <glyph glyph-name="beh-ar" unicode="&#x628;" horiz-adv-x="635" vert-adv-y="1170" 
d="M175.5 5.5q-55.5 16.5 -84.5 53.5t-29 98q0 17 4 41t13 46q1 2 2.5 3t3.5 0l11 -4q3 -1 3 -6q-8 -19 -12 -40.5t-4 -37.5q0 -77 54.5 -111t176.5 -34q108 0 173.5 28.5t65.5 104.5q0 43 -22 102l-9 22v1q0 2 2 4l11 6q1 1 3 0t3 -3q15 -34 23.5 -69t8.5 -64
q0 -60 -37 -95t-94.5 -48.5t-127.5 -13.5q-83 0 -138.5 16.5zM277.5 -165.5q-0.5 1.5 0.5 3.5l21 38q1 3 5 2l39 -21q1 -1 1.5 -2.5t-0.5 -2.5l-20 -39q-1 -2 -3 -2t-5 1l-36 21q-2 0 -2.5 1.5z" />
    <glyph glyph-name="tehMarbuta-ar" unicode="&#x629;" horiz-adv-x="393" vert-adv-y="1170" 
d="M126 15q-31 15 -47.5 42.5t-16.5 63.5q0 42 18 79.5t49 60t68 22.5t67.5 -22.5t48.5 -60t18 -79.5q0 -36 -16.5 -63.5t-47 -42.5t-70.5 -15t-71 15zM278.5 49.5q30.5 24.5 30.5 70.5q0 33 -15 65t-41 52.5t-56 20.5q-31 0 -57 -20.5t-41 -52.5t-15 -65q0 -46 31 -70.5
t82 -24.5t81.5 24.5zM226 397q0 2 1 4l18 31q1 1 2.5 1t2.5 -1l32 -18q2 0 3 -2t-1 -4l-17 -31q-1 -3 -2.5 -3t-3.5 1l-1 1l-32 18q-2 1 -2 3zM108 397q0 2 1 4l18 31q1 1 2 1t3 -1l32 -18q2 0 3 -2t-1 -4l-17 -31q-2 -3 -6 -2h-0.5h-0.5l-32 19q-2 1 -2 3z" />
    <glyph glyph-name="teh-ar" unicode="&#x62a;" horiz-adv-x="635" vert-adv-y="1170" 
d="M175.5 5.5q-55.5 16.5 -84.5 53.5t-29 98q0 17 4 41t13 46q1 2 2.5 3t3.5 0l11 -4q3 -1 3 -6q-8 -19 -12 -40.5t-4 -37.5q0 -77 54.5 -111t176.5 -34q108 0 173.5 28.5t65.5 104.5q0 43 -22 102l-9 22v1q0 2 2 4l11 6q1 1 3 0t3 -3q15 -34 23.5 -69t8.5 -64
q0 -60 -37 -95t-94.5 -48.5t-127.5 -13.5q-83 0 -138.5 16.5zM341 312q0 2 1 4l18 31q1 1 2.5 1t2.5 -1l32 -18q2 0 3 -2t-1 -4l-17 -31q-1 -3 -2.5 -3t-3.5 1l-1 1l-32 18q-2 1 -2 3zM223 312q0 2 1 4l18 31q1 1 2 1t3 -1l32 -18q2 0 3 -2t-1 -4l-17 -31q-2 -3 -6 -2h-0.5
h-0.5l-32 19q-2 1 -2 3z" />
    <glyph glyph-name="theh-ar" unicode="&#x62b;" horiz-adv-x="635" vert-adv-y="1170" 
d="M175.5 5.5q-55.5 16.5 -84.5 53.5t-29 98q0 17 4 41t13 46q1 2 2.5 3t3.5 0l11 -4q3 -1 3 -6q-8 -19 -12 -40.5t-4 -37.5q0 -77 54.5 -111t176.5 -34q108 0 173.5 28.5t65.5 104.5q0 43 -22 102l-9 22v1q0 2 2 4l11 6q1 1 3 0t3 -3q15 -34 23.5 -69t8.5 -64
q0 -60 -37 -95t-94.5 -48.5t-127.5 -13.5q-83 0 -138.5 16.5zM283 327.5q1 -1.5 -1 -3.5l-17 -31q-1 -3 -3 -3t-4 1l-32 19q-2 1 -2 3t1 3l18 31q1 2 2.5 2t2.5 -1l32 -18q2 -1 3 -2.5zM336.5 415.5q0.5 -2.5 -0.5 -4.5l-17 -31q-1 -3 -3 -3t-5 1l-32 19q-2 1 -2 3t1 4
l19 31q0 1 1.5 1t3.5 -1l32 -16q2 -1 2.5 -3.5zM401 327q0 -2 -1 -3l-17 -31q-1 -3 -2.5 -3t-4.5 1l-32 19q-2 1 -2 3t1 3l18 31q1 2 2.5 2t3.5 -1l32 -18q2 -1 2 -3z" />
    <glyph glyph-name="jeem-ar" unicode="&#x62c;" horiz-adv-x="532" vert-adv-y="1170" 
d="M168.5 -186q-48.5 18 -77 53t-29.5 85q-1 81 55 133t135.5 79t178.5 45q-30 12 -77 38l-74 40q-24 14 -50 23.5t-48 10.5q-34 0 -55 -20t-27 -51q-3 -20 0 -40q0 -4 -4 -5l-13 -1q-4 -1 -6 3q-3 25 2 51q4 25 19 45t37.5 30.5t50.5 10.5q25 0 48.5 -8.5t53.5 -25.5
l58 -31l34 -18q36 -19 50 -24t30 -8q3 0 4 -4v-1v-32q0 -2 -1 -3t-3 -2q-13 -2 -27 -4q-3 0 -7 -1q-142 -26 -242 -77t-100 -153q0 -64 54 -97.5t138 -33.5q51 0 96.5 9.5t85.5 28.5q2 0 3.5 -0.5t2.5 -2.5l6 -11q1 -2 0.5 -4t-2.5 -2q-47 -22 -93 -32.5t-98 -10.5
q-60 0 -108.5 18zM249.5 -24.5q-0.5 1.5 0.5 4.5l21 38q1 3 5 2l40 -21q3 -1 1 -5l-21 -40q-1 -2 -3 -2t-5 1l-36 21q-2 0 -2.5 1.5z" />
    <glyph glyph-name="hah-ar" unicode="&#x62d;" horiz-adv-x="532" vert-adv-y="1170" 
d="M168.5 -186q-48.5 18 -77 53t-29.5 85q-1 81 55 133t135.5 79t178.5 45q-30 12 -77 38l-74 40q-24 14 -50 23.5t-48 10.5q-34 0 -55 -20t-27 -51q-3 -20 0 -40q0 -4 -4 -5l-13 -1q-4 -1 -6 3q-3 25 2 51q4 25 19 45t37.5 30.5t50.5 10.5q25 0 48.5 -8.5t53.5 -25.5
l58 -31l34 -18q36 -19 50 -24t30 -8q3 0 4 -4v-1v-32q0 -2 -1 -3t-3 -2q-13 -2 -27 -4q-3 0 -7 -1q-142 -26 -242 -77t-100 -153q0 -64 54 -97.5t138 -33.5q51 0 96.5 9.5t85.5 28.5q2 0 3.5 -0.5t2.5 -2.5l6 -11q1 -2 0.5 -4t-2.5 -2q-47 -22 -93 -32.5t-98 -10.5
q-60 0 -108.5 18z" />
    <glyph glyph-name="khah-ar" unicode="&#x62e;" horiz-adv-x="532" vert-adv-y="1170" 
d="M168.5 -186q-48.5 18 -77 53t-29.5 85q-1 81 55 133t135.5 79t178.5 45q-30 12 -77 38l-74 40q-24 14 -50 23.5t-48 10.5q-34 0 -55 -20t-27 -51q-3 -20 0 -40q0 -4 -4 -5l-13 -1q-4 -1 -6 3q-3 25 2 51q4 25 19 45t37.5 30.5t50.5 10.5q25 0 48.5 -8.5t53.5 -25.5
l58 -31l34 -18q36 -19 50 -24t30 -8q3 0 4 -4v-1v-32q0 -2 -1 -3t-3 -2q-13 -2 -27 -4q-3 0 -7 -1q-142 -26 -242 -77t-100 -153q0 -64 54 -97.5t138 -33.5q51 0 96.5 9.5t85.5 28.5q2 0 3.5 -0.5t2.5 -2.5l6 -11q1 -2 0.5 -4t-2.5 -2q-47 -22 -93 -32.5t-98 -10.5
q-60 0 -108.5 18zM149.5 459.5q-0.5 1.5 0.5 3.5l21 38q1 3 5 2l39 -21q1 -1 1.5 -2.5t-0.5 -2.5l-20 -39q-1 -2 -3 -2t-5 1l-36 21q-2 0 -2.5 1.5z" />
    <glyph glyph-name="dal-ar" unicode="&#x62f;" horiz-adv-x="392" vert-adv-y="1170" 
d="M66 0q-4 2 -4 5l1 15q0 2 1 3t3 1q13 -1 26.5 -2t27.5 -1q83 0 135.5 27t52.5 84q0 48 -32.5 96.5t-79.5 84.5q-2 1 -2.5 2.5t1.5 2.5l9 15q1 1 2.5 1.5t2.5 -0.5q54 -40 87 -95t33 -105q0 -39 -22 -70t-68 -48.5t-116 -17.5z" />
    <glyph glyph-name="thal-ar" unicode="&#x630;" horiz-adv-x="392" vert-adv-y="1170" 
d="M66 0q-4 2 -4 5l1 15q0 2 1 3t3 1q13 -1 26.5 -2t27.5 -1q83 0 135.5 27t52.5 84q0 48 -32.5 96.5t-79.5 84.5q-2 1 -2.5 2.5t1.5 2.5l9 15q1 1 2.5 1.5t2.5 -0.5q54 -40 87 -95t33 -105q0 -39 -22 -70t-68 -48.5t-116 -17.5zM153.5 440.5q-0.5 1.5 0.5 3.5l21 38
q1 3 5 2l39 -21q1 -1 1.5 -2.5t-0.5 -2.5l-20 -39q-1 -2 -3 -2t-5 1l-36 21q-2 0 -2.5 1.5z" />
    <glyph glyph-name="reh-ar" unicode="&#x631;" horiz-adv-x="229" vert-adv-y="1170" 
d="M-51 -186v17q0 2 1 3t3 1q28 -2 61 3q62 12 95.5 56t35.5 114q1 49 -6 89t-23 101q0 2 1 3t3 2l12 2q2 1 3 0l2 -2q3 -9 5 -18q13 -51 19.5 -89t5.5 -86q-1 -47 -17 -88t-49.5 -70t-82.5 -39q-15 -2 -31.5 -3t-33.5 0q-4 0 -4 4z" />
    <glyph glyph-name="zain-ar" unicode="&#x632;" horiz-adv-x="229" vert-adv-y="1170" 
d="M-51 -186v17q0 2 1 3t3 1q28 -2 61 3q62 12 95.5 56t35.5 114q1 49 -6 89t-23 101q0 2 1 3t3 2l12 2q2 1 3 0l2 -2q3 -9 5 -18q13 -51 19.5 -89t5.5 -86q-1 -47 -17 -88t-49.5 -70t-82.5 -39q-15 -2 -31.5 -3t-33.5 0q-4 0 -4 4zM72.5 326.5q-0.5 1.5 0.5 3.5l21 38
q1 3 5 2l39 -21q1 -1 1.5 -2.5t-0.5 -2.5l-20 -39q-1 -2 -3 -2t-5 1l-36 21q-2 0 -2.5 1.5z" />
    <glyph glyph-name="seen-ar" unicode="&#x633;" horiz-adv-x="934" vert-adv-y="1170" 
d="M148.5 -173q-45.5 27 -66.5 70t-20 92q1 39 8.5 73.5t23.5 68.5q0 1 1.5 1.5t2.5 -0.5l11 -4q2 -2 2 -5q-14 -33 -21.5 -66t-7.5 -65q0 -71 45.5 -119.5t134.5 -48.5q93 0 134.5 48.5t41.5 127.5q0 53 -16 111q-4 16 -8 31q-3 11 -5.5 22t-6.5 22q-1 2 0.5 3.5t3.5 2.5
l12 2q2 1 3.5 0t1.5 -2q6 -20 11 -41l14 -48q12 -40 44.5 -59t71.5 -19q43 0 69 19t40 53q10 26 13 59q0 4 4 4h13q5 0 5 -4q1 -20 6 -37q4 -20 9.5 -36t13.5 -27q11 -15 25 -23t32 -8q32 0 44 21t12 55q0 36 -14 97q-4 18 -17 57q-1 4 3 6l12 4q2 1 3.5 0.5t2.5 -2.5
q16 -47 23.5 -87t7.5 -72q1 -50 -18.5 -77t-57.5 -27q-34 0 -61 24.5t-37 64.5q-19 -47 -53.5 -68t-79.5 -21q-39 0 -73 17t-52 53l19 -3q11 -68 -1.5 -128t-59.5 -99.5t-135 -39.5q-68 0 -113.5 27z" />
    <glyph glyph-name="sheen-ar" unicode="&#x634;" horiz-adv-x="934" vert-adv-y="1170" 
d="M148.5 -173q-45.5 27 -66.5 70t-20 92q1 39 8.5 73.5t23.5 68.5q0 1 1.5 1.5t2.5 -0.5l11 -4q2 -2 2 -5q-14 -33 -21.5 -66t-7.5 -65q0 -71 45.5 -119.5t134.5 -48.5q93 0 134.5 48.5t41.5 127.5q0 53 -16 111q-4 16 -8 31q-3 11 -5.5 22t-6.5 22q-1 2 0.5 3.5t3.5 2.5
l12 2q2 1 3.5 0t1.5 -2q6 -20 11 -41l14 -48q12 -40 44.5 -59t71.5 -19q43 0 69 19t40 53q10 26 13 59q0 4 4 4h13q5 0 5 -4q1 -20 6 -37q4 -20 9.5 -36t13.5 -27q11 -15 25 -23t32 -8q32 0 44 21t12 55q0 36 -14 97q-4 18 -17 57q-1 4 3 6l12 4q2 1 3.5 0.5t2.5 -2.5
q16 -47 23.5 -87t7.5 -72q1 -50 -18.5 -77t-57.5 -27q-34 0 -61 24.5t-37 64.5q-19 -47 -53.5 -68t-79.5 -21q-39 0 -73 17t-52 53l19 -3q11 -68 -1.5 -128t-59.5 -99.5t-135 -39.5q-68 0 -113.5 27zM657 323.5q1 -1.5 -1 -3.5l-17 -31q-1 -3 -3 -3t-4 1l-32 19q-2 1 -2 3
t1 3l18 31q1 2 2.5 2t2.5 -1l32 -18q2 -1 3 -2.5zM710.5 411.5q0.5 -2.5 -0.5 -4.5l-17 -31q-1 -3 -3 -3t-5 1l-32 19q-2 1 -2 3t1 4l19 31q0 1 1.5 1t3.5 -1l32 -16q2 -1 2.5 -3.5zM775 323q0 -2 -1 -3l-17 -31q-1 -3 -2.5 -3t-4.5 1l-32 19q-2 1 -2 3t1 3l18 31q1 2 2.5 2
t3.5 -1l32 -18q2 -1 2 -3z" />
    <glyph glyph-name="sad-ar" unicode="&#x635;" horiz-adv-x="957" vert-adv-y="1170" 
d="M148.5 -173q-45.5 27 -66.5 70t-20 92q1 39 8.5 73.5t23.5 68.5q0 1 1.5 1.5t2.5 -0.5l11 -4q2 -2 2 -5q-14 -33 -21.5 -66t-7.5 -65q0 -71 45.5 -119.5t134.5 -48.5q93 0 134.5 48.5t41.5 128.5q0 38 -11.5 90t-23.5 92q-1 1 0 3t3 3l13 2q2 1 3.5 0t2.5 -3
q10 -41 26 -71q36 -55 97.5 -77.5t127.5 -22.5q85 0 141.5 32t56.5 100q0 54 -33.5 92.5t-85.5 39.5q-63 1 -120 -66t-108 -186l-18 12q33 80 71.5 139t82.5 92.5t92 33.5q41 0 73 -22t49.5 -58.5t17.5 -76.5q0 -51 -28.5 -86.5t-77.5 -53t-112 -17.5q-74 1 -141 26t-102 81
l15 -6q13 -49 13 -94q0 -56 -20 -100.5t-64.5 -71.5t-115.5 -27q-68 0 -113.5 27z" />
    <glyph glyph-name="dad-ar" unicode="&#x636;" horiz-adv-x="957" vert-adv-y="1170" 
d="M148.5 -173q-45.5 27 -66.5 70t-20 92q1 39 8.5 73.5t23.5 68.5q0 1 1.5 1.5t2.5 -0.5l11 -4q2 -2 2 -5q-14 -33 -21.5 -66t-7.5 -65q0 -71 45.5 -119.5t134.5 -48.5q93 0 134.5 48.5t41.5 128.5q0 38 -11.5 90t-23.5 92q-1 1 0 3t3 3l13 2q2 1 3.5 0t2.5 -3
q10 -41 26 -71q36 -55 97.5 -77.5t127.5 -22.5q85 0 141.5 32t56.5 100q0 54 -33.5 92.5t-85.5 39.5q-63 1 -120 -66t-108 -186l-18 12q33 80 71.5 139t82.5 92.5t92 33.5q41 0 73 -22t49.5 -58.5t17.5 -76.5q0 -51 -28.5 -86.5t-77.5 -53t-112 -17.5q-74 1 -141 26t-102 81
l15 -6q13 -49 13 -94q0 -56 -20 -100.5t-64.5 -71.5t-115.5 -27q-68 0 -113.5 27zM718.5 421.5q-0.5 1.5 0.5 3.5l21 38q1 3 5 2l39 -21q1 -1 1.5 -2.5t-0.5 -2.5l-20 -39q-1 -2 -3 -2t-5 1l-36 21q-2 0 -2.5 1.5z" />
    <glyph glyph-name="tah-ar" unicode="&#x637;" horiz-adv-x="598" vert-adv-y="1170" 
d="M63 1q-1 1 -1 2v17q0 2 1 3.5t3 1.5h80q20 45 28 69t8 56v374q0 2 1 3t3 1h13q2 0 3 -1t1 -3v-288q0 -31 -2.5 -55.5t-6.5 -48.5q44 83 94 128.5t108 45.5q41 0 73 -22.5t49.5 -58t17.5 -71.5q0 -61 -39 -95.5t-93 -46.5t-112 -12h-227q-1 0 -2 1zM445.5 51.5
q68.5 26.5 68.5 102.5q0 29 -14.5 58.5t-41.5 49t-62 19.5q-63 1 -120.5 -67t-107.5 -189h123q86 0 154.5 26.5z" />
    <glyph glyph-name="zah-ar" unicode="&#x638;" horiz-adv-x="598" vert-adv-y="1170" 
d="M63 1q-1 1 -1 2v17q0 2 1 3.5t3 1.5h80q20 45 28 69t8 56v374q0 2 1 3t3 1h13q2 0 3 -1t1 -3v-288q0 -31 -2.5 -55.5t-6.5 -48.5q44 83 94 128.5t108 45.5q41 0 73 -22.5t49.5 -58t17.5 -71.5q0 -61 -39 -95.5t-93 -46.5t-112 -12h-227q-1 0 -2 1zM445.5 51.5
q68.5 26.5 68.5 102.5q0 29 -14.5 58.5t-41.5 49t-62 19.5q-63 1 -120.5 -67t-107.5 -189h123q86 0 154.5 26.5zM356.5 421.5q-0.5 1.5 0.5 3.5l21 38q1 3 5 2l39 -21q1 -1 1.5 -2.5t-0.5 -2.5l-20 -39q-1 -2 -3 -2t-5 1l-36 21q-2 0 -2.5 1.5z" />
    <glyph glyph-name="ain-ar" unicode="&#x639;" horiz-adv-x="518" vert-adv-y="1170" 
d="M165.5 -186q-47.5 18 -75.5 53.5t-28 84.5q-1 71 56 125t145 73l7 -12q-75 -9 -125.5 25t-50.5 105q0 36 17 67.5t46 50.5t65 19q14 0 28 -2t30 -8q2 0 3.5 -2t0.5 -3l-4 -15q-2 -5 -5 -4q-15 4 -26.5 6t-25.5 2q-49 0 -79 -33t-30 -78q0 -51 36.5 -78t90.5 -27
q22 0 38.5 2.5t42.5 9.5l22 7l55 18q2 1 3.5 0t2.5 -3l5 -13q1 -2 0 -4t-3 -2l-23 -8q-13 -5 -39 -13q-98 -34 -139 -53q-59 -28 -90.5 -64t-31.5 -88q0 -65 52.5 -98.5t135.5 -33.5q43 0 87 10t85 29q5 0 6 -3l6 -12q0 -6 -2 -6q-46 -21 -91 -31.5t-91 -10.5
q-59 0 -106.5 18z" />
    <glyph glyph-name="ghain-ar" unicode="&#x63a;" horiz-adv-x="518" vert-adv-y="1170" 
d="M165.5 -186q-47.5 18 -75.5 53.5t-28 84.5q-1 71 56 125t145 73l7 -12q-75 -9 -125.5 25t-50.5 105q0 36 17 67.5t46 50.5t65 19q14 0 28 -2t30 -8q2 0 3.5 -2t0.5 -3l-4 -15q-2 -5 -5 -4q-15 4 -26.5 6t-25.5 2q-49 0 -79 -33t-30 -78q0 -51 36.5 -78t90.5 -27
q22 0 38.5 2.5t42.5 9.5l22 7l55 18q2 1 3.5 0t2.5 -3l5 -13q1 -2 0 -4t-3 -2l-23 -8q-13 -5 -39 -13q-98 -34 -139 -53q-59 -28 -90.5 -64t-31.5 -88q0 -65 52.5 -98.5t135.5 -33.5q43 0 87 10t85 29q5 0 6 -3l6 -12q0 -6 -2 -6q-46 -21 -91 -31.5t-91 -10.5
q-59 0 -106.5 18zM176.5 520.5q-0.5 1.5 0.5 3.5l21 38q1 3 5 2l39 -21q1 -1 1.5 -2.5t-0.5 -2.5l-20 -39q-1 -2 -3 -2t-5 1l-36 21q-2 0 -2.5 1.5z" />
    <glyph glyph-name="kashida-ar" unicode="&#x640;" horiz-adv-x="203" vert-adv-y="1170" 
d="M-10.5 3.5q-4.5 3.5 -4.5 8.5t4.5 9t10.5 4h203q6 0 10.5 -4t4.5 -9t-4.5 -8.5t-10.5 -3.5h-203q-6 0 -10.5 3.5z" />
    <glyph glyph-name="feh-ar" unicode="&#x641;" horiz-adv-x="668" vert-adv-y="1170" 
d="M125.5 28q-63.5 39 -63.5 129q0 17 4 41t13 46q1 2 2.5 3t3.5 0l11 -4q3 -1 3 -6q-8 -19 -12 -40.5t-4 -37.5q0 -78 54.5 -112t175.5 -34q138 0 210 40.5t66 132.5q-18 -33 -48.5 -49t-76.5 -16q-42 0 -70 14.5t-41.5 40t-13.5 59.5q0 39 16.5 74.5t45.5 57.5t64 22
q53 0 86 -36t47 -85.5t14 -91.5q-1 -102 -77.5 -144.5t-221.5 -42.5q-124 0 -187.5 39zM546 168.5q29 24.5 29 65.5q0 32 -13 62.5t-37.5 49.5t-56.5 19q-51 0 -80 -38.5t-29 -92.5q0 -44 27.5 -67t76.5 -23q54 0 83 24.5zM428.5 504.5q-0.5 1.5 0.5 3.5l21 38q1 3 5 2
l39 -21q1 -1 1.5 -2.5t-0.5 -2.5l-20 -39q-1 -2 -3 -2t-5 1l-36 21q-2 0 -2.5 1.5z" />
    <glyph glyph-name="qaf-ar" unicode="&#x642;" horiz-adv-x="591" vert-adv-y="1170" 
d="M163.5 -173.5q-52.5 26.5 -77 72t-24.5 103.5q0 31 7.5 63.5t22.5 64.5q1 2 3 3t3 0l10 -5q3 -2 2 -5q-27 -61 -27 -120q0 -81 50.5 -129.5t163.5 -48.5q112 0 161 52.5t49 139.5q0 40 -2 66.5t-10 53.5l12 -37q-8 -47 -45.5 -74.5t-96.5 -27.5q-44 0 -74.5 16.5
t-45.5 44.5t-15 64q0 41 17.5 77.5t48.5 58.5t69 22q45 0 78 -25t53 -68q17 -36 25 -80t8 -89q0 -94 -55 -156.5t-177 -62.5q-81 0 -133.5 26.5zM451.5 46.5q31.5 23.5 31.5 69.5q0 33 -15 65.5t-42 53.5t-60 21q-36 0 -62 -20t-39 -51.5t-13 -64.5q0 -48 29.5 -72.5
t83.5 -24.5q55 0 86.5 23.5zM384 395q0 2 1 4l18 31q1 1 2.5 1t2.5 -1l32 -18q2 0 3 -2t-1 -4l-17 -31q-1 -3 -2.5 -3t-3.5 1l-1 1l-32 18q-2 1 -2 3zM266 395q0 2 1 4l18 31q1 1 2 1t3 -1l32 -18q2 0 3 -2t-1 -4l-17 -31q-2 -3 -6 -2h-0.5h-0.5l-32 19q-2 1 -2 3z" />
    <glyph glyph-name="kaf-ar" unicode="&#x643;" horiz-adv-x="652" vert-adv-y="1170" 
d="M63 1q-1 1 -1 3v16q0 2 1 3.5t3 1.5h361q67 0 104 32.5t37 98.5v368q0 2 1 3t3 1h14q2 0 3 -1t1 -3v-363q0 -78 -44 -119.5t-119 -41.5h-361q-2 0 -3 1zM237 189v15q0 5 5 5h93q32 0 49 16.5t16 37.5t-17.5 36t-46.5 14q-28 1 -57 1q-4 0 -6 4l-9 17q-2 3 1 7l63 77
q4 4 6 1l10 -9q2 -4 1 -6l-59 -73l-6 6h55q42 0 65 -22.5t24 -52.5q1 -31 -22 -55t-66 -24h-94q-5 0 -5 5z" />
    <glyph glyph-name="lam-ar" unicode="&#x644;" horiz-adv-x="503" vert-adv-y="1170" 
d="M145 -176.5q-41 23.5 -62 64.5t-21 94q0 35 9 71t27 72l2 2t3 0l12 -6l2 -2t0 -3q-33 -69 -33 -132q0 -72 41 -115.5t119 -43.5q92 0 134 52.5t42 131.5v515q0 2 1 3t3 1h13q2 0 3 -1t1 -3v-514q0 -57 -19.5 -104t-63.5 -76.5t-113 -29.5q-59 0 -100 23.5z" />
    <glyph glyph-name="meem-ar" unicode="&#x645;" horiz-adv-x="498" vert-adv-y="1170" 
d="M63 -264q-1 1 -1 3v111q0 60 21 100t57 58.5t82 16.5l-26 -21q-4 14 -9 27q-10 28 -14.5 48.5t-4.5 48.5q0 42 15.5 77.5t45 56.5t69.5 21q38 0 70 -23t50 -61.5t18 -80.5q0 -35 -14.5 -61.5t-45.5 -41.5t-79 -15h-83q-59 0 -94.5 -35.5t-35.5 -108.5v-117q0 -2 -1.5 -3
t-3.5 -1h-13q-2 0 -3 1zM211 25h92q56 0 83.5 24t27.5 67q0 34 -15.5 67t-42 54t-58.5 21q-46 0 -77.5 -35.5t-31.5 -94.5q0 -30 9.5 -60t27.5 -69z" />
    <glyph glyph-name="noon-ar" unicode="&#x646;" horiz-adv-x="561" vert-adv-y="1170" 
d="M159.5 -174.5q-48.5 25.5 -73 69.5t-24.5 100q0 31 7.5 65.5t22.5 66.5q1 2 2.5 3t3.5 0l10 -5q1 -1 2 -2.5t0 -2.5q-14 -32 -21 -62.5t-7 -58.5q0 -78 50.5 -126.5t146.5 -48.5q101 0 149.5 51.5t48.5 135.5q0 41 -10 83t-25 79q-1 3 1 5l12 5q1 1 3 0.5t2 -2.5
q20 -43 29.5 -85t9.5 -80q0 -59 -21.5 -107.5t-71 -78.5t-129.5 -30q-69 0 -117.5 25.5zM234.5 235.5q-0.5 1.5 0.5 3.5l21 38q1 3 5 2l39 -21q1 -1 1.5 -2.5t-0.5 -2.5l-20 -39q-1 -2 -3 -2t-5 1l-36 21q-2 0 -2.5 1.5z" />
    <glyph glyph-name="heh-ar" unicode="&#x647;" horiz-adv-x="393" vert-adv-y="1170" 
d="M126 15q-31 15 -47.5 42.5t-16.5 63.5q0 42 18 79.5t49 60t68 22.5t67.5 -22.5t48.5 -60t18 -79.5q0 -36 -16.5 -63.5t-47 -42.5t-70.5 -15t-71 15zM278.5 49.5q30.5 24.5 30.5 70.5q0 33 -15 65t-41 52.5t-56 20.5q-31 0 -57 -20.5t-41 -52.5t-15 -65q0 -46 31 -70.5
t82 -24.5t81.5 24.5z" />
    <glyph glyph-name="waw-ar" unicode="&#x648;" horiz-adv-x="431" vert-adv-y="1170" 
d="M64 -182q-2 -1 -3.5 1.5t-0.5 4.5l5 12q1 2 2.5 3.5t3.5 0.5q35 -8 66 -8q95 0 149 58t60 158q-40 -50 -123 -50q-45 0 -75 16t-45 44.5t-15 64.5q0 41 17.5 77.5t48.5 58.5t69 22q47 0 79.5 -30t49 -79t16.5 -107q0 -76 -26 -133.5t-78 -90t-128 -32.5q-43 0 -72 9z
M308.5 46.5q31.5 23.5 31.5 69.5q0 33 -14.5 65.5t-41 53.5t-61.5 21q-36 0 -61.5 -20t-38.5 -51.5t-13 -64.5q0 -48 29 -72.5t82 -24.5q56 0 87.5 23.5z" />
    <glyph glyph-name="alefMaksura-ar" unicode="&#x649;" horiz-adv-x="580" vert-adv-y="1170" 
d="M161.5 -174.5q-49.5 25.5 -74.5 69.5t-25 99q0 30 7.5 63t23.5 67q1 2 2.5 2.5t3.5 -0.5l9 -3q2 -1 2 -3t-1 -3q-13 -32 -20 -62.5t-7 -58.5q0 -77 52.5 -124.5t152.5 -47.5q60 0 107.5 14.5t74.5 39t27 55.5q0 39 -24.5 57.5t-81.5 33.5q-67 17 -109 45.5t-42 89.5
q0 30 13.5 55.5t37.5 45t54 31.5q27 10 54.5 13t53.5 -3q2 0 3.5 -2t0.5 -4v-14q-1 -2 -2.5 -3t-3.5 -1q-41 10 -93 -7q-42 -13 -69.5 -41.5t-27.5 -65.5q0 -43 29 -67.5t78 -39.5q13 -3 26 -7q64 -16 94.5 -41t30.5 -73q0 -38 -29 -69t-82 -48.5t-124 -17.5
q-72 0 -121.5 25.5z" />
    <glyph glyph-name="yeh-ar" unicode="&#x64a;" horiz-adv-x="580" vert-adv-y="1170" 
d="M161.5 -174.5q-49.5 25.5 -74.5 69.5t-25 99q0 30 7.5 63t23.5 67q1 2 2.5 2.5t3.5 -0.5l9 -3q2 -1 2 -3t-1 -3q-13 -32 -20 -62.5t-7 -58.5q0 -77 52.5 -124.5t152.5 -47.5q60 0 107.5 14.5t74.5 39t27 55.5q0 39 -24.5 57.5t-81.5 33.5q-67 17 -109 45.5t-42 89.5
q0 30 13.5 55.5t37.5 45t54 31.5q27 10 54.5 13t53.5 -3q2 0 3.5 -2t0.5 -4v-14q-1 -2 -2.5 -3t-3.5 -1q-41 10 -93 -7q-42 -13 -69.5 -41.5t-27.5 -65.5q0 -43 29 -67.5t78 -39.5q13 -3 26 -7q64 -16 94.5 -41t30.5 -73q0 -38 -29 -69t-82 -48.5t-124 -17.5
q-72 0 -121.5 25.5zM312 -346q0 2 1 4l18 31q1 1 2.5 1t2.5 -1l32 -18q2 0 3 -2t-1 -4l-17 -31q-1 -3 -2.5 -3t-3.5 1l-1 1l-32 18q-2 1 -2 3zM194 -346q0 2 1 4l18 31q1 1 2 1t3 -1l32 -18q2 0 3 -2t-1 -4l-17 -31q-2 -3 -6 -2h-0.5h-0.5l-32 19q-2 1 -2 3z" />
    <glyph glyph-name="fathatan-ar" unicode="&#x64b;" vert-adv-y="1170" 
d="M4 612l-4 11q-2 5 4 7l173 63q2 1 3.5 0.5t2.5 -2.5l4 -11q2 -5 -3 -7l-173 -63q-5 -2 -7 2zM9 532q-2 1 -2 2l-5 11q-2 5 4 7l173 63q4 1 6 -2l5 -11q2 -5 -4 -7l-173 -63q-2 -1 -4 0z" />
    <glyph glyph-name="dammatan-ar" unicode="&#x64c;" vert-adv-y="1170" 
d="M39 570l-4 11q-2 5 4 7l79 29q-23 12 -38 33.5t-15 47.5q0 35 25 59.5t61 24.5q35 0 59.5 -24.5t24.5 -59.5q0 -28 -15.5 -50.5t-50.5 -35.5l-123 -44q-5 -2 -7 2zM7 654q-2 1 -2 3q-12 39 0.5 81t44.5 66q4 2 7 -1l8 -9q3 -3 -1 -7q-26 -19 -36.5 -56t-1.5 -69
q0 -4 -4 -5l-11 -4q-2 0 -4 1zM194.5 653q18.5 19 18.5 45t-18 44.5t-44 18.5q-27 0 -45.5 -18.5t-18.5 -44.5t18.5 -45t45.5 -19q25 0 43.5 19z" />
    <glyph glyph-name="kasratan-ar" unicode="&#x64d;" vert-adv-y="1170" 
d="M4 -169l-4 11q-2 5 4 7l173 63q2 1 3.5 0.5t2.5 -2.5l4 -11q2 -5 -3 -7l-173 -63q-5 -2 -7 2zM9 -249q-2 1 -2 2l-5 11q-2 5 4 7l173 63q4 1 6 -2l5 -11q2 -5 -4 -7l-173 -63q-2 -1 -4 0z" />
    <glyph glyph-name="fatha-ar" unicode="&#x64e;" vert-adv-y="1170" 
d="M4 574l-4 11q-1 2 0.5 3.5t3.5 2.5l172 64q5 2 7 -3l4 -11q1 -1 0 -3t-3 -3l-173 -64q-5 -2 -7 3z" />
    <glyph glyph-name="damma-ar" unicode="&#x64f;" vert-adv-y="1170" 
d="M5 570l-4 11q-1 2 0.5 3.5t3.5 2.5l79 29q-24 12 -38.5 33.5t-14.5 48.5q0 34 25 58.5t60 24.5q36 0 60.5 -24.5t24.5 -58.5q0 -27 -16 -50t-51 -36l-122 -45q-5 -2 -7 3zM160.5 652q18.5 19 18.5 46q0 26 -18.5 44t-44.5 18t-44.5 -18t-18.5 -44q0 -27 18.5 -46
t44.5 -19t44.5 19z" />
    <glyph glyph-name="kasra-ar" unicode="&#x650;" vert-adv-y="1170" 
d="M4 -209l-4 11q-1 2 0.5 3.5t3.5 2.5l172 64q5 2 7 -3l4 -11q1 -1 0 -3t-3 -3l-173 -64q-5 -2 -7 3z" />
    <glyph glyph-name="shadda-ar" unicode="&#x651;" vert-adv-y="1170" 
d="M18.5 621q-18.5 19 -18.5 49q0 12 3 24t9 25q0 2 2 3t4 0l8 -4q5 -2 3 -7q-9 -19 -9 -38q0 -23 13.5 -35t32.5 -12q21 0 38 16t21 47q2 5 6 5h10q4 0 6 -5q0 -4 2 -14q5 -24 16.5 -36.5t29.5 -12.5q16 0 26.5 13.5t10.5 36.5q0 14 -2 24.5t-9 31.5q-2 6 2 7l8 4q2 0 4 -1
t2 -2q15 -31 15 -62q0 -33 -15.5 -54.5t-42.5 -21.5q-18 0 -34.5 12t-24.5 37q-23 -49 -69 -49q-29 0 -47.5 19z" />
    <glyph glyph-name="sukun-ar" unicode="&#x652;" vert-adv-y="1170" 
d="M24.5 636.5q-24.5 24.5 -24.5 59.5t24.5 59t60.5 24q35 0 59.5 -24.5t24.5 -58.5q0 -35 -24.5 -59.5t-59.5 -24.5q-36 0 -60.5 24.5zM128.5 651q18.5 19 18.5 45t-18 44.5t-44 18.5q-27 0 -45.5 -18.5t-18.5 -44.5t18.5 -45t45.5 -19q25 0 43.5 19z" />
    <glyph glyph-name="madda-ar" unicode="&#x653;" vert-adv-y="1170" 
d="M139 617l-30 14q-32 15 -52 13.5t-35 -34.5q-1 -2 -2.5 -3t-3.5 0l-14 8q-1 1 -1.5 2.5t0.5 3.5q11 27 27.5 38.5t36.5 11.5q24 0 54 -14l30 -14q33 -15 53 -13.5t35 34.5q1 2 2.5 3t3.5 0l13 -8q2 -1 2.5 -3t-0.5 -3q-11 -27 -27.5 -38.5t-37.5 -11.5q-22 0 -54 14z" />
    <glyph glyph-name="hamzaabove-ar" unicode="&#x654;" vert-adv-y="1170" 
d="M4 545l-4 11q-1 2 0.5 3.5t3.5 2.5l119 44l1 -16q-7 -1 -19 -1q-44 -1 -67 22t-23 56q-1 34 19.5 55t54.5 22q14 0 32 -5q2 0 3.5 -1.5t0.5 -3.5l-1 -12q-1 -5 -5 -3q-27 3 -30 3q-26 0 -41.5 -16.5t-15.5 -38.5q0 -26 22 -41t52 -15q15 0 30 3t32 9l7 3q6 2 7 -3l4 -11
q1 -1 -0.5 -3t-3.5 -3l-171 -64q-5 -2 -7 3z" />
    <glyph glyph-name="hamzabelow-ar" unicode="&#x655;" vert-adv-y="1170" 
d="M4 240l-4 11q-1 2 0.5 3.5t3.5 2.5l119 44l1 -16q-7 -1 -19 -1q-44 -1 -67 22t-23 56q-1 34 19.5 55t54.5 22q14 0 32 -5q2 0 3.5 -1.5t0.5 -3.5l-1 -12q-1 -5 -5 -3q-27 3 -30 3q-26 0 -41.5 -16.5t-15.5 -38.5q0 -26 22 -41t52 -15q15 0 30 3t32 9l7 3q6 2 7 -3l4 -11
q1 -1 -0.5 -3t-3.5 -3l-171 -64q-5 -2 -7 3z" />
    <glyph glyph-name="alefbelow-ar" unicode="&#x656;" vert-adv-y="1170" 
d="M3 -160v127q0 4 5 4h11q5 0 5 -4v-129q0 -1 -1 -1.5t-2 -0.5h-13q-5 0 -5 4z" />
    <glyph glyph-name="noonghunnaabove-ar" unicode="&#x658;" vert-adv-y="1170" 
d="M26 227q-26 27 -26 69q0 15 4 30.5t11 31.5q1 2 2.5 3t3.5 0l8 -5q3 -2 2 -5q-13 -30 -13 -56q0 -33 21 -54t60 -21q41 0 60.5 23t19.5 60q0 33 -15 71q-1 4 2 6l7 4q2 1 4 0t3 -3q16 -37 16 -79q0 -44 -23 -73t-75 -29q-46 0 -72 27z" />
    <glyph glyph-name="vabove-ar" unicode="&#x65a;" vert-adv-y="1170" 
d="M78.5 510q-1.5 1 -2.5 3l-71 171q-1 4 2 6l7 4q2 1 4 0t2 -3l72 -165l72 167q0 2 2 2.5t4 -0.5l7 -4q2 -1 2.5 -2t-0.5 -3l-72 -173q0 -2 -1.5 -3t-2.5 -1h-22q-1 0 -2.5 1z" />
    <glyph glyph-name="vinvertedabove-ar" unicode="&#x65b;" vert-adv-y="1170" 
d="M103 431q1 0 2.5 -1t1.5 -3l72 -173q1 -2 0.5 -3t-2.5 -2l-7 -4q-2 -1 -4 -0.5t-2 2.5l-72 167l-72 -165q0 -2 -2 -3t-4 0l-7 4q-3 2 -2 6l71 171q1 2 2.5 3t2.5 1h22z" />
    <glyph glyph-name="zero-ar" unicode="&#x660;" horiz-adv-x="274" vert-adv-y="1170" 
d="M99 152q-17 10 -27 27.5t-10 37.5q0 21 10 38t27 27t38 10t38 -10t27 -27t10 -38q0 -20 -10 -37.5t-27 -27.5t-38 -10t-38 10zM172 181.5q14 14.5 14 35.5t-14 35.5t-35 14.5t-35.5 -14.5t-14.5 -35.5q0 -20 14.5 -35t35.5 -15t35 14.5z" />
    <glyph glyph-name="one-ar" unicode="&#x661;" horiz-adv-x="210" vert-adv-y="1170" 
d="M126 4q1 139 -15.5 271t-48.5 263q-1 2 0.5 3t3.5 2l12 4q1 1 2.5 0t2.5 -3q65 -266 65 -540q0 -4 -5 -4h-13q-4 0 -4 4z" />
    <glyph glyph-name="two-ar" unicode="&#x662;" horiz-adv-x="382" vert-adv-y="1170" 
d="M127 1q-1 1 -1 3q1 139 -15.5 271t-48.5 263q-1 2 0.5 3t3.5 2l12 4q1 1 2.5 0t2.5 -3q12 -53 19 -90l12 -54q9 -39 34 -61t67 -23q44 0 64 27t20 73q0 43 -19 108l-8 26q-1 2 -0.5 3.5t2.5 2.5l12 4q2 1 3.5 0.5t2.5 -2.5q11 -31 18 -60t9 -56q1 -10 1 -29
q-1 -37 -12 -64.5t-34.5 -42.5t-60.5 -15q-55 0 -88 38q9 -66 15 -132t7 -134q1 -20 1 -59q0 -2 -1.5 -3t-3.5 -1h-13q-2 0 -3 1z" />
    <glyph glyph-name="three-ar" unicode="&#x663;" horiz-adv-x="603" vert-adv-y="1170" 
d="M127 1q-1 1 -1 3q1 139 -15.5 271t-48.5 263q-1 2 0.5 3t3.5 2l12 4q1 1 2.5 0t2.5 -3q11 -46 19 -90q6 -26 11 -53q10 -48 39 -66.5t70 -18.5q42 1 71 22t41 67q3 11 5 23t3 25v16q0 4 4 4h17q4 0 4 -4q0 -34 6 -63q9 -43 29.5 -66.5t50.5 -23.5q34 0 50 24.5t16 65.5
q0 57 -28 145q0 2 0.5 3.5t2.5 2.5l12 4q1 1 3 0t3 -3q22 -65 28 -125q1 -10 1 -30q-1 -35 -10.5 -60t-29 -38.5t-50.5 -13.5q-33 0 -59.5 25t-38.5 66q-14 -47 -49.5 -69t-81.5 -22q-38 0 -68 15.5t-48 47.5l14 2q7 -41 12 -85t9 -89q3 -43 5 -89t2 -89q0 -2 -1.5 -3
t-3.5 -1h-13q-2 0 -3 1z" />
    <glyph glyph-name="four-ar" unicode="&#x664;" horiz-adv-x="416" vert-adv-y="1170" 
d="M105 26.5q-44 31.5 -43 91.5q0 47 34.5 95t79.5 65q-51 12 -75.5 39t-24.5 68q0 45 31 83.5t76 62t82 25.5q2 0 3.5 -1t1.5 -3l3 -17q0 -4 -3 -4q-21 -2 -48 -11q-49 -18 -86 -53.5t-38 -79.5q-1 -36 24 -56.5t87 -29.5q5 2 5 -4v-25q0 -5 -4 -5q-48 -16 -87 -60.5
t-39 -90.5q-1 -50 37.5 -73t88.5 -23q39 0 69.5 5t65.5 16q2 0 3 -0.5t2 -2.5l4 -14q1 -2 0.5 -3.5t-2.5 -2.5q-35 -12 -70 -17.5t-76 -5.5q-57 0 -101 31.5z" />
    <glyph glyph-name="five-ar" unicode="&#x665;" horiz-adv-x="475" vert-adv-y="1170" 
d="M106 42q-44 42 -44 111q0 62 25.5 116.5t66.5 86.5t84 32t83.5 -32t66 -86.5t25.5 -116.5q0 -70 -43.5 -111.5t-131.5 -41.5t-132 42zM354 59.5q38 34.5 38 92.5q0 55 -21.5 103.5t-57.5 78t-75 29.5q-40 0 -75.5 -29.5t-57 -78t-21.5 -103.5q0 -50 33.5 -88.5
t120.5 -38.5q78 0 116 34.5z" />
    <glyph glyph-name="six-ar" unicode="&#x666;" horiz-adv-x="454" vert-adv-y="1170" 
d="M374 -1q-1 1 -2 3q-29 119 -47.5 247t-26.5 278q-52 -10 -115 -9.5t-116 7.5q-5 1 -5 5l2 16q0 2 2 3t5 1q56 -9 115.5 -9t109.5 11q11 3 18 -2.5t8 -16.5q5 -138 23 -268.5t47 -256.5q1 -2 0 -3t-3 -2l-12 -4q-2 -1 -3 0z" />
    <glyph glyph-name="seven-ar" unicode="&#x667;" horiz-adv-x="536" vert-adv-y="1170" 
d="M76 554q2 1 3.5 0.5t1.5 -2.5q60 -116 107 -244t79 -276q33 148 80 276t107 244q0 2 1.5 2.5t2.5 -0.5l13 -7q1 0 2 -1.5t0 -2.5q-65 -138 -105.5 -249t-80.5 -279q-1 -4 -4 -4h-31q-3 0 -4 4q-40 168 -80.5 279t-105.5 249q-1 1 0 2.5t2 1.5z" />
    <glyph glyph-name="eight-ar" unicode="&#x668;" horiz-adv-x="535" vert-adv-y="1170" 
d="M62 10.5q-1 1.5 0 2.5q65 138 105.5 249t80.5 279q1 4 4 4h31q3 0 4 -4q40 -168 80.5 -279t105.5 -249q1 -1 0 -2.5t-2 -1.5l-13 -7q-1 -1 -2.5 -0.5t-1.5 2.5q-60 116 -107 244t-80 276q-32 -148 -79 -276t-107 -244q0 -2 -1.5 -2.5t-3.5 0.5l-12 7q-1 0 -2 1.5z" />
    <glyph glyph-name="nine-ar" unicode="&#x669;" horiz-adv-x="451" vert-adv-y="1170" 
d="M370.5 1q-1.5 1 -1.5 3q-45 176 -60 379l11 8q-10 -43 -45 -66.5t-88 -23.5q-41 0 -69 14.5t-42 40t-14 59.5q0 42 17 77t46 56t64 21q72 0 104 -59.5t38 -144.5q3 -24 5 -49q9 -79 22.5 -157t30.5 -149q1 -1 0 -2.5t-3 -2.5l-13 -4q-1 -1 -2.5 0zM268.5 349
q29.5 25 29.5 65q0 32 -13 62.5t-37.5 49.5t-56.5 19q-51 0 -80 -37.5t-29 -93.5q0 -44 27.5 -67t76.5 -23q53 0 82.5 25z" />
    <glyph glyph-name="percent-ar" unicode="&#x66a;" horiz-adv-x="393" vert-adv-y="1170" 
d="M123 0h-14q-2 0 -3 1.5t0 3.5l161 590l1 1q0 2 3 2h14q2 0 3 -1t0 -4l-161 -590q-3 -3 -4 -3zM314.5 8.5q-8.5 8.5 -8.5 20.5q0 11 8.5 19.5t20.5 8.5q10 0 18.5 -8.5t8.5 -19.5q0 -12 -8 -20.5t-19 -8.5q-12 0 -20.5 8.5zM38.5 546.5q-8.5 8.5 -7.5 19.5q0 11 8 19.5
t19 8.5q12 0 20.5 -8.5t8.5 -19.5t-8.5 -19.5t-20.5 -8.5q-11 0 -19.5 8.5z" />
    <glyph glyph-name="decimalseparator-ar" unicode="&#x66b;" horiz-adv-x="267" vert-adv-y="1170" 
d="M43 -14q-6 0 -10.5 4.5t-2.5 10.5l186 507q2 7 8.5 7.5t10.5 -4t1 -11.5l-185 -507q-2 -7 -8 -7z" />
    <glyph glyph-name="thousandseparator-ar" unicode="&#x66c;" horiz-adv-x="164" vert-adv-y="1170" 
d="M42.5 -108q-6.5 -1 -10.5 4t-1 12l82 226q2 7 8.5 8t10.5 -4t1 -12l-82 -226q-2 -7 -8.5 -8z" />
    <glyph glyph-name="asterisk-ar" unicode="&#x66d;" horiz-adv-x="294" vert-adv-y="1170" 
d="M142 359q-3 3 -3 7v32l4 81l-98 -59q-2 0 -4 -1q-4 0 -7 3t-3 7q0 3 1 5.5t3 3.5l101 53l-100 56q-2 1 -3 3.5t-1 5.5q0 4 3 7t7 3h0.5h0.5q1 0 1.5 0.5t1.5 -0.5l97 -62l-1 86q0 14 -1 28q0 4 3 7t7 3q5 0 8 -3t3 -7q0 -14 -1 -29l-4 -85l98 59q3 1 5 1q4 0 7 -3t3 -7
q0 -3 -1 -5.5t-3 -3.5l-102 -54l101 -54q2 -2 3 -4.5t1 -4.5q0 -4 -3 -7.5t-8 -3.5h-4l-97 62l2 -80q1 -16 1 -33q0 -4 -3 -7t-8 -3q-4 0 -7 3z" />
    <glyph glyph-name="behDotless-ar" unicode="&#x66e;" horiz-adv-x="635" vert-adv-y="1170" 
d="M175.5 5.5q-55.5 16.5 -84.5 53.5t-29 98q0 17 4 41t13 46q1 2 2.5 3t3.5 0l11 -4q3 -1 3 -6q-8 -19 -12 -40.5t-4 -37.5q0 -77 54.5 -111t176.5 -34q108 0 173.5 28.5t65.5 104.5q0 43 -22 102l-9 22v1q0 2 2 4l11 6q1 1 3 0t3 -3q15 -34 23.5 -69t8.5 -64
q0 -60 -37 -95t-94.5 -48.5t-127.5 -13.5q-83 0 -138.5 16.5z" />
    <glyph glyph-name="qafDotless-ar" unicode="&#x66f;" horiz-adv-x="591" vert-adv-y="1170" 
d="M163.5 -173.5q-52.5 26.5 -77 72t-24.5 103.5q0 31 7.5 63.5t22.5 64.5q1 2 3 3t3 0l10 -5q3 -2 2 -5q-27 -61 -27 -120q0 -81 50.5 -129.5t163.5 -48.5q112 0 161 52.5t49 139.5q0 40 -2 66.5t-10 53.5l12 -37q-8 -47 -45.5 -74.5t-96.5 -27.5q-44 0 -74.5 16.5
t-45.5 44.5t-15 64q0 41 17.5 77.5t48.5 58.5t69 22q45 0 78 -25t53 -68q17 -36 25 -80t8 -89q0 -94 -55 -156.5t-177 -62.5q-81 0 -133.5 26.5zM451.5 46.5q31.5 23.5 31.5 69.5q0 33 -15 65.5t-42 53.5t-60 21q-36 0 -62 -20t-39 -51.5t-13 -64.5q0 -48 29.5 -72.5
t83.5 -24.5q55 0 86.5 23.5z" />
    <glyph glyph-name="alefabove-ar" unicode="&#x670;" vert-adv-y="1170" 
d="M3 600v127q0 4 5 4h11q5 0 5 -4v-129q0 -1 -1 -1.5t-2 -0.5h-13q-5 0 -5 4z" />
    <glyph glyph-name="alefWasla-ar" unicode="&#x671;" horiz-adv-x="146" vert-adv-y="1170" 
d="M63 1q-1 1 -1 3v462q0 2 1 3t3 1h13q2 0 3.5 -1t1.5 -3v-462q0 -2 -1.5 -3t-3.5 -1h-13q-2 0 -3 1zM-96 533l-3 13q0 2 1 3.5t3 1.5q27 1 46.5 12.5t33.5 29.5l2 2q2 2 4.5 3t4.5 1q3 0 5 -1t4 -3q2 -1 3 -3q17 -19 52.5 -30t67.5 -11q39 0 64.5 15t25.5 46q0 22 -15 39
t-37 17q-25 0 -47.5 -21.5t-40.5 -59.5q-3 -6 -8 -3l-8 5q-5 3 -3 8q19 40 47 66t60 26q31 0 50.5 -23.5t19.5 -53.5q0 -41 -29.5 -61.5t-78.5 -20.5q-37 0 -74 11.5t-58 31.5q-14 -18 -37 -30t-51 -13q-2 0 -4 3z" />
    <glyph glyph-name="tteh-ar" unicode="&#x679;" horiz-adv-x="635" vert-adv-y="1170" 
d="M175.5 5.5q-55.5 16.5 -84.5 53.5t-29 98q0 17 4 41t13 46q1 2 2.5 3t3.5 0l11 -4q3 -1 3 -6q-8 -19 -12 -40.5t-4 -37.5q0 -77 54.5 -111t176.5 -34q108 0 173.5 28.5t65.5 104.5q0 43 -22 102l-9 22v1q0 2 2 4l11 6q1 1 3 0t3 -3q15 -34 23.5 -69t8.5 -64
q0 -60 -37 -95t-94.5 -48.5t-127.5 -13.5q-83 0 -138.5 16.5zM213 276q-1 1 -1 2v14q0 4 5 4h33v198q0 4 5 4h11q5 0 5 -4v-90q0 -25 -5 -39q17 33 40 51t51 18q32 0 52 -23.5t20 -54.5q0 -40 -30.5 -60.5t-79.5 -20.5h-104q-1 0 -2 1zM383 311q25 15 25 45q0 23 -14 40
t-37 17q-31 0 -58 -32.5t-33 -84.5h53q39 0 64 15z" />
    <glyph glyph-name="tehRing-ar" unicode="&#x67c;" horiz-adv-x="635" vert-adv-y="1170" 
d="M175.5 5.5q-55.5 16.5 -84.5 53.5t-29 98q0 17 4 41t13 46q1 2 2.5 3t3.5 0l11 -4q3 -1 3 -6q-8 -19 -12 -40.5t-4 -37.5q0 -77 54.5 -111t176.5 -34q108 0 173.5 28.5t65.5 104.5q0 43 -22 102l-9 22v1q0 2 2 4l11 6q1 1 3 0t3 -3q15 -34 23.5 -69t8.5 -64
q0 -60 -37 -95t-94.5 -48.5t-127.5 -13.5q-83 0 -138.5 16.5zM341 312q0 2 1 4l18 31q1 1 2.5 1t2.5 -1l32 -18q2 0 3 -2t-1 -4l-17 -31q-1 -3 -2.5 -3t-3.5 1l-1 1l-32 18q-2 1 -2 3zM223 312q0 2 1 4l18 31q1 1 2 1t3 -1l32 -18q2 0 3 -2t-1 -4l-17 -31q-2 -3 -6 -2h-0.5
h-0.5l-32 19q-2 1 -2 3zM279 -132q-17 10 -27 27t-10 38q0 31 21.5 52t53.5 21q20 0 37 -9.5t27 -26.5t10 -37q0 -21 -10 -38t-27 -27t-37 -10q-21 0 -38 10zM346 -117.5q13 7.5 20.5 21t7.5 29.5t-7.5 28.5t-20.5 20t-29 7.5t-29.5 -7.5t-21 -20t-7.5 -28.5t7.5 -29.5
t21 -21t29.5 -7.5t29 7.5z" />
    <glyph glyph-name="peh-ar" unicode="&#x67e;" horiz-adv-x="635" vert-adv-y="1170" 
d="M175.5 5.5q-55.5 16.5 -84.5 53.5t-29 98q0 17 4 41t13 46q1 2 2.5 3t3.5 0l11 -4q3 -1 3 -6q-8 -19 -12 -40.5t-4 -37.5q0 -77 54.5 -111t176.5 -34q108 0 173.5 28.5t65.5 104.5q0 43 -22 102l-9 22v1q0 2 2 4l11 6q1 1 3 0t3 -3q15 -34 23.5 -69t8.5 -64
q0 -60 -37 -95t-94.5 -48.5t-127.5 -13.5q-83 0 -138.5 16.5zM342.5 -157.5q-0.5 1.5 0.5 3.5l17 31q1 3 3 3t4 -1l32 -19q2 -1 2 -3t-1 -3l-18 -31q-1 -2 -2.5 -2t-2.5 1l-32 18q-2 1 -2.5 2.5zM288.5 -245.5q-0.5 2.5 0.5 4.5l17 31q1 3 3 3t5 -1l32 -19q2 -1 2 -3t-1 -4
l-19 -31q0 -1 -1.5 -1t-3.5 1l-32 16q-2 1 -2.5 3.5zM224 -157q0 2 1 3l17 31q1 3 2.5 3t4.5 -1l32 -19q2 -1 2 -3t-1 -3l-18 -31q-1 -2 -2.5 -2t-3.5 1l-32 18q-2 1 -2 3z" />
    <glyph glyph-name="tcheh-ar" unicode="&#x686;" horiz-adv-x="532" vert-adv-y="1170" 
d="M168.5 -186q-48.5 18 -77 53t-29.5 85q-1 81 55 133t135.5 79t178.5 45q-30 12 -77 38l-74 40q-24 14 -50 23.5t-48 10.5q-34 0 -55 -20t-27 -51q-3 -20 0 -40q0 -4 -4 -5l-13 -1q-4 -1 -6 3q-3 25 2 51q4 25 19 45t37.5 30.5t50.5 10.5q25 0 48.5 -8.5t53.5 -25.5
l58 -31l34 -18q36 -19 50 -24t30 -8q3 0 4 -4v-1v-32q0 -2 -1 -3t-3 -2q-13 -2 -27 -4q-3 0 -7 -1q-142 -26 -242 -77t-100 -153q0 -64 54 -97.5t138 -33.5q51 0 96.5 9.5t85.5 28.5q2 0 3.5 -0.5t2.5 -2.5l6 -11q1 -2 0.5 -4t-2.5 -2q-47 -22 -93 -32.5t-98 -10.5
q-60 0 -108.5 18zM300 -4l16 28q1 3 2.5 3t3.5 -1l28 -17q2 -1 2 -3t-1 -3l-16 -27q-2 -3 -4 -1l-29 16q-4 1 -2 5zM251.5 -85.5q-0.5 2.5 0.5 4.5l15 27q1 3 3 3t4 -1l29 -17q2 -1 2 -3t-1 -3l-17 -28q0 -1 -1.5 -1t-3.5 1l-28 14q-2 1 -2.5 3.5zM194 -6.5q0 1.5 1 2.5
l15 28q1 3 2.5 3t3.5 -1l29 -17q2 -1 2 -3t-1 -3l-16 -27q-1 -2 -2.5 -2t-3.5 1l-28 16q-2 1 -2 2.5z" />
    <glyph glyph-name="ddal-ar" unicode="&#x688;" horiz-adv-x="392" vert-adv-y="1170" 
d="M66 0q-4 2 -4 5l1 15q0 2 1 3t3 1q13 -1 26.5 -2t27.5 -1q83 0 135.5 27t52.5 84q0 48 -32.5 96.5t-79.5 84.5q-2 1 -2.5 2.5t1.5 2.5l9 15q1 1 2.5 1.5t2.5 -0.5q54 -40 87 -95t33 -105q0 -39 -22 -70t-68 -48.5t-116 -17.5zM91 402q-1 1 -1 2v14q0 4 5 4h33v198
q0 4 5 4h11q5 0 5 -4v-90q0 -25 -5 -39q17 33 40 51t51 18q32 0 52 -23.5t20 -54.5q0 -40 -30.5 -60.5t-79.5 -20.5h-104q-1 0 -2 1zM261 437q25 15 25 45q0 23 -14 40t-37 17q-31 0 -58 -32.5t-33 -84.5h53q39 0 64 15z" />
    <glyph glyph-name="dalRing-ar" unicode="&#x689;" horiz-adv-x="392" vert-adv-y="1170" 
d="M66 0q-4 2 -4 5l1 15q0 2 1 3t3 1q13 -1 26.5 -2t27.5 -1q83 0 135.5 27t52.5 84q0 48 -32.5 96.5t-79.5 84.5q-2 1 -2.5 2.5t1.5 2.5l9 15q1 1 2.5 1.5t2.5 -0.5q54 -40 87 -95t33 -105q0 -39 -22 -70t-68 -48.5t-116 -17.5zM165 -118q-17 10 -27 27t-10 38
q0 31 21.5 52t53.5 21q20 0 37 -9.5t27 -26.5t10 -37q0 -21 -10 -38t-27 -27t-37 -10q-21 0 -38 10zM232 -103.5q13 7.5 20.5 21t7.5 29.5t-7.5 28.5t-20.5 20t-29 7.5t-29.5 -7.5t-21 -20t-7.5 -28.5t7.5 -29.5t21 -21t29.5 -7.5t29 7.5z" />
    <glyph glyph-name="rreh-ar" unicode="&#x691;" horiz-adv-x="229" vert-adv-y="1170" 
d="M-51 -186v17q0 2 1 3t3 1q28 -2 61 3q62 12 95.5 56t35.5 114q1 49 -6 89t-23 101q0 2 1 3t3 2l12 2q2 1 3 0l2 -2q3 -9 5 -18q13 -51 19.5 -89t5.5 -86q-1 -47 -17 -88t-49.5 -70t-82.5 -39q-15 -2 -31.5 -3t-33.5 0q-4 0 -4 4zM10 288q-1 1 -1 2v14q0 4 5 4h33v198
q0 4 5 4h11q5 0 5 -4v-90q0 -25 -5 -39q17 33 40 51t51 18q32 0 52 -23.5t20 -54.5q0 -40 -30.5 -60.5t-79.5 -20.5h-104q-1 0 -2 1zM180 323q25 15 25 45q0 23 -14 40t-37 17q-31 0 -58 -32.5t-33 -84.5h53q39 0 64 15z" />
    <glyph glyph-name="rehRing-ar" unicode="&#x693;" horiz-adv-x="229" vert-adv-y="1170" 
d="M-51 -186v17q0 2 1 3t3 1q28 -2 61 3q62 12 95.5 56t35.5 114q1 49 -6 89t-23 101q0 2 1 3t3 2l12 2q2 1 3 0l2 -2q3 -9 5 -18q13 -51 19.5 -89t5.5 -86q-1 -47 -17 -88t-49.5 -70t-82.5 -39q-15 -2 -31.5 -3t-33.5 0q-4 0 -4 4zM135 -226q-17 10 -27 27t-10 38
q0 31 21.5 52t53.5 21q20 0 37 -9.5t27 -26.5t10 -37q0 -21 -10 -38t-27 -27t-37 -10q-21 0 -38 10zM202 -211.5q13 7.5 20.5 21t7.5 29.5t-7.5 28.5t-20.5 20t-29 7.5t-29.5 -7.5t-21 -20t-7.5 -28.5t7.5 -29.5t21 -21t29.5 -7.5t29 7.5z" />
    <glyph glyph-name="rehVbelow-ar" unicode="&#x695;" horiz-adv-x="229" vert-adv-y="1170" 
d="M-51 -186v17q0 2 1 3t3 1q28 -2 61 3q62 12 95.5 56t35.5 114q1 49 -6 89t-23 101q0 2 1 3t3 2l12 2q2 1 3 0l2 -2q3 -9 5 -18q13 -51 19.5 -89t5.5 -86q-1 -47 -17 -88t-49.5 -70t-82.5 -39q-15 -2 -31.5 -3t-33.5 0q-4 0 -4 4zM85.5 -413q-1.5 1 -2.5 3l-71 171
q-1 4 2 6l7 4q2 1 4 0t2 -3l72 -165l72 167q0 2 2 2.5t4 -0.5l7 -4q2 -1 2.5 -2t-0.5 -3l-72 -173q0 -2 -1.5 -3t-2.5 -1h-22q-1 0 -2.5 1z" />
    <glyph glyph-name="jeh-ar" unicode="&#x698;" horiz-adv-x="229" vert-adv-y="1170" 
d="M-51 -186v17q0 2 1 3t3 1q28 -2 61 3q62 12 95.5 56t35.5 114q1 49 -6 89t-23 101q0 2 1 3t3 2l12 2q2 1 3 0l2 -2q3 -9 5 -18q13 -51 19.5 -89t5.5 -86q-1 -47 -17 -88t-49.5 -70t-82.5 -39q-15 -2 -31.5 -3t-33.5 0q-4 0 -4 4zM79 340.5q1 -1.5 -1 -3.5l-17 -31
q-1 -3 -3 -3t-4 1l-32 19q-2 1 -2 3t1 3l18 31q1 2 2.5 2t2.5 -1l32 -18q2 -1 3 -2.5zM132.5 428.5q0.5 -2.5 -0.5 -4.5l-17 -31q-1 -3 -3 -3t-5 1l-32 19q-2 1 -2 3t1 4l19 31q0 1 1.5 1t3.5 -1l32 -16q2 -1 2.5 -3.5zM197 340q0 -2 -1 -3l-17 -31q-1 -3 -2.5 -3t-4.5 1
l-32 19q-2 1 -2 3t1 3l18 31q1 2 2.5 2t3.5 -1l32 -18q2 -1 2 -3z" />
    <glyph glyph-name="fehDotless-ar" unicode="&#x6a1;" horiz-adv-x="668" vert-adv-y="1170" 
d="M125.5 28q-63.5 39 -63.5 129q0 17 4 41t13 46q1 2 2.5 3t3.5 0l11 -4q3 -1 3 -6q-8 -19 -12 -40.5t-4 -37.5q0 -78 54.5 -112t175.5 -34q138 0 210 40.5t66 132.5q-18 -33 -48.5 -49t-76.5 -16q-42 0 -70 14.5t-41.5 40t-13.5 59.5q0 39 16.5 74.5t45.5 57.5t64 22
q53 0 86 -36t47 -85.5t14 -91.5q-1 -102 -77.5 -144.5t-221.5 -42.5q-124 0 -187.5 39zM546 168.5q29 24.5 29 65.5q0 32 -13 62.5t-37.5 49.5t-56.5 19q-51 0 -80 -38.5t-29 -92.5q0 -44 27.5 -67t76.5 -23q54 0 83 24.5z" />
    <glyph glyph-name="veh-ar" unicode="&#x6a4;" horiz-adv-x="668" vert-adv-y="1170" 
d="M125.5 28q-63.5 39 -63.5 129q0 17 4 41t13 46q1 2 2.5 3t3.5 0l11 -4q3 -1 3 -6q-8 -19 -12 -40.5t-4 -37.5q0 -78 54.5 -112t175.5 -34q138 0 210 40.5t66 132.5q-18 -33 -48.5 -49t-76.5 -16q-42 0 -70 14.5t-41.5 40t-13.5 59.5q0 39 16.5 74.5t45.5 57.5t64 22
q53 0 86 -36t47 -85.5t14 -91.5q-1 -102 -77.5 -144.5t-221.5 -42.5q-124 0 -187.5 39zM546 168.5q29 24.5 29 65.5q0 32 -13 62.5t-37.5 49.5t-56.5 19q-51 0 -80 -38.5t-29 -92.5q0 -44 27.5 -67t76.5 -23q54 0 83 24.5zM435 518.5q1 -1.5 -1 -3.5l-17 -31q-1 -3 -3 -3
t-4 1l-32 19q-2 1 -2 3t1 3l18 31q1 2 2.5 2t2.5 -1l32 -18q2 -1 3 -2.5zM488.5 606.5q0.5 -2.5 -0.5 -4.5l-17 -31q-1 -3 -3 -3t-5 1l-32 19q-2 1 -2 3t1 4l19 31q0 1 1.5 1t3.5 -1l32 -16q2 -1 2.5 -3.5zM553 518q0 -2 -1 -3l-17 -31q-1 -3 -2.5 -3t-4.5 1l-32 19
q-2 1 -2 3t1 3l18 31q1 2 2.5 2t3.5 -1l32 -18q2 -1 2 -3z" />
    <glyph glyph-name="keheh-ar" unicode="&#x6a9;" horiz-adv-x="624" vert-adv-y="1170" 
d="M115 28q-64 39 -64 128q0 17 4.5 41.5t12.5 46.5q1 2 2.5 3t3.5 0l11 -4q5 -1 3 -6q-8 -19 -12 -40.5t-4 -37.5q0 -77 55 -111t177 -34q98 0 174 27.5t76 96.5q0 49 -31.5 96.5t-95.5 91.5q-20 14 -43 27t-49 26q-4 1 -4 5v31q0 2 3 5l281 110q4 1 6 -2l5 -13
q1 -2 0.5 -3.5t-2.5 -2.5l-276 -107q128 -68 177.5 -135t49.5 -129q0 -59 -41 -92.5t-101 -45t-129 -11.5q-125 0 -189 39z" />
    <glyph glyph-name="kafRing-ar" unicode="&#x6ab;" horiz-adv-x="624" vert-adv-y="1170" 
d="M115 28q-64 39 -64 128q0 17 4.5 41.5t12.5 46.5q1 2 2.5 3t3.5 0l11 -4q5 -1 3 -6q-8 -19 -12 -40.5t-4 -37.5q0 -77 55 -111t177 -34q98 0 174 27.5t76 96.5q0 49 -31.5 96.5t-95.5 91.5q-20 14 -43 27t-49 26q-4 1 -4 5v31q0 2 3 5l281 110q4 1 6 -2l5 -13
q1 -2 0.5 -3.5t-2.5 -2.5l-276 -107q128 -68 177.5 -135t49.5 -129q0 -59 -41 -92.5t-101 -45t-129 -11.5q-125 0 -189 39zM488 359q-22 22 -22 54q0 31 22 52.5t54 21.5t53.5 -21.5t21.5 -52.5q0 -32 -21.5 -54t-53.5 -22t-54 22zM583.5 371q16.5 17 16.5 42
q0 24 -16.5 40.5t-41.5 16.5t-42 -16.5t-17 -40.5q0 -25 17 -42t42 -17t41.5 17z" />
    <glyph glyph-name="gaf-ar" unicode="&#x6af;" horiz-adv-x="624" vert-adv-y="1170" 
d="M115 28q-64 39 -64 128q0 17 4.5 41.5t12.5 46.5q1 2 2.5 3t3.5 0l11 -4q5 -1 3 -6q-8 -19 -12 -40.5t-4 -37.5q0 -77 55 -111t177 -34q98 0 174 27.5t76 96.5q0 49 -31.5 96.5t-95.5 91.5q-20 14 -43 27t-49 26q-4 1 -4 5v31q0 2 3 5l281 110q4 1 6 -2l5 -13
q1 -2 0.5 -3.5t-2.5 -2.5l-276 -107q128 -68 177.5 -135t49.5 -129q0 -59 -41 -92.5t-101 -45t-129 -11.5q-125 0 -189 39zM327 510l-6 16q0 5 4 6l234 91q5 2 7 -3l5 -15q2 -5 -3 -7l-235 -90q-5 -2 -6 2z" />
    <glyph glyph-name="gafRing-ar" unicode="&#x6b0;" horiz-adv-x="624" vert-adv-y="1170" 
d="M115 28q-64 39 -64 128q0 17 4.5 41.5t12.5 46.5q1 2 2.5 3t3.5 0l11 -4q5 -1 3 -6q-8 -19 -12 -40.5t-4 -37.5q0 -77 55 -111t177 -34q98 0 174 27.5t76 96.5q0 49 -31.5 96.5t-95.5 91.5q-20 14 -43 27t-49 26q-4 1 -4 5v31q0 2 3 5l281 110q4 1 6 -2l5 -13
q1 -2 0.5 -3.5t-2.5 -2.5l-276 -107q128 -68 177.5 -135t49.5 -129q0 -59 -41 -92.5t-101 -45t-129 -11.5q-125 0 -189 39zM327 510l-6 16q0 5 4 6l234 91q5 2 7 -3l5 -15q2 -5 -3 -7l-235 -90q-5 -2 -6 2zM471 357q-22 22 -22 54q0 31 22 52.5t54 21.5t53.5 -21.5
t21.5 -52.5q0 -32 -21.5 -54t-53.5 -22t-54 22zM566.5 369q16.5 17 16.5 42q0 24 -16.5 40.5t-41.5 16.5t-42 -16.5t-17 -40.5q0 -25 17 -42t42 -17t41.5 17z" />
    <glyph glyph-name="lamVabove-ar" unicode="&#x6b5;" horiz-adv-x="503" vert-adv-y="1170" 
d="M145 -176.5q-41 23.5 -62 64.5t-21 94q0 35 9 71t27 72l2 2t3 0l12 -6l2 -2t0 -3q-33 -69 -33 -132q0 -72 41 -115.5t119 -43.5q92 0 134 52.5t42 131.5v515q0 2 1 3t3 1h13q2 0 3 -1t1 -3v-514q0 -57 -19.5 -104t-63.5 -76.5t-113 -29.5q-59 0 -100 23.5zM417.5 583
q-1.5 1 -2.5 3l-71 171q-1 4 2 6l7 4q2 1 4 0t2 -3l72 -165l72 167q0 2 2 2.5t4 -0.5l7 -4q2 -1 2.5 -2t-0.5 -3l-72 -173q0 -2 -1.5 -3t-2.5 -1h-22q-1 0 -2.5 1z" />
    <glyph glyph-name="noonghunna-ar" unicode="&#x6ba;" horiz-adv-x="561" vert-adv-y="1170" 
d="M159.5 -174.5q-48.5 25.5 -73 69.5t-24.5 100q0 31 7.5 65.5t22.5 66.5q1 2 2.5 3t3.5 0l10 -5q1 -1 2 -2.5t0 -2.5q-14 -32 -21 -62.5t-7 -58.5q0 -78 50.5 -126.5t146.5 -48.5q101 0 149.5 51.5t48.5 135.5q0 41 -10 83t-25 79q-1 3 1 5l12 5q1 1 3 0.5t2 -2.5
q20 -43 29.5 -85t9.5 -80q0 -59 -21.5 -107.5t-71 -78.5t-129.5 -30q-69 0 -117.5 25.5z" />
    <glyph glyph-name="noonRing-ar" unicode="&#x6bc;" horiz-adv-x="561" vert-adv-y="1170" 
d="M159.5 -174.5q-48.5 25.5 -73 69.5t-24.5 100q0 31 7.5 65.5t22.5 66.5q1 2 2.5 3t3.5 0l10 -5q1 -1 2 -2.5t0 -2.5q-14 -32 -21 -62.5t-7 -58.5q0 -78 50.5 -126.5t146.5 -48.5q101 0 149.5 51.5t48.5 135.5q0 41 -10 83t-25 79q-1 3 1 5l12 5q1 1 3 0.5t2 -2.5
q20 -43 29.5 -85t9.5 -80q0 -59 -21.5 -107.5t-71 -78.5t-129.5 -30q-69 0 -117.5 25.5zM234.5 235.5q-0.5 1.5 0.5 3.5l21 38q1 3 5 2l39 -21q1 -1 1.5 -2.5t-0.5 -2.5l-20 -39q-1 -2 -3 -2t-5 1l-36 21q-2 0 -2.5 1.5zM248 -322q-17 10 -27 27t-10 38q0 31 21.5 52
t53.5 21q20 0 37 -9.5t27 -26.5t10 -37q0 -21 -10 -38t-27 -27t-37 -10q-21 0 -38 10zM315 -307.5q13 7.5 20.5 21t7.5 29.5t-7.5 28.5t-20.5 20t-29 7.5t-29.5 -7.5t-21 -20t-7.5 -28.5t7.5 -29.5t21 -21t29.5 -7.5t29 7.5z" />
    <glyph glyph-name="hehDoachashmee-ar" unicode="&#x6be;" horiz-adv-x="551" vert-adv-y="1170" 
d="M257.5 -12.5q-51.5 10.5 -96.5 30.5q-39 -9 -78 -13.5t-83 -4.5q-6 0 -10.5 3.5t-4.5 8.5t4.5 9t10.5 4h2q61 0 117 9q-41 18 -56.5 51t-15.5 67q0 39 18 75t49 58.5t68 22.5q13 0 28.5 -3.5t27.5 -7.5l-18 12l5 12q0 6 5 4q66 -18 125.5 -56t96.5 -88t37 -100
q0 -47 -32 -75.5t-101 -28.5q-47 0 -98.5 10.5zM263.5 77.5q31.5 28.5 31.5 74.5q0 32 -15 62.5t-41 49.5t-57 19t-57.5 -19t-41.5 -50t-15 -64q0 -44 31.5 -72.5t82.5 -28.5q50 0 81.5 28.5zM435.5 19.5q31.5 17.5 31.5 58.5q0 39 -29.5 81.5t-79.5 78t-108 55.5
q31 -24 49 -62t18 -78q1 -40 -20.5 -77.5t-78.5 -52.5q42 -12 74 -16.5t65 -4.5q47 0 78.5 17.5z" />
    <glyph glyph-name="hehgoal-ar" unicode="&#x6c1;" horiz-adv-x="393" vert-adv-y="1170" 
d="M126 15q-31 15 -47.5 42.5t-16.5 63.5q0 42 18 79.5t49 60t68 22.5t67.5 -22.5t48.5 -60t18 -79.5q0 -36 -16.5 -63.5t-47 -42.5t-70.5 -15t-71 15zM278.5 49.5q30.5 24.5 30.5 70.5q0 33 -15 65t-41 52.5t-56 20.5q-31 0 -57 -20.5t-41 -52.5t-15 -65q0 -46 31 -70.5
t82 -24.5t81.5 24.5z" />
    <glyph glyph-name="hehgoalHamzaabove-ar" unicode="&#x6c2;" horiz-adv-x="393" vert-adv-y="1170" 
d="M126 15q-31 15 -47.5 42.5t-16.5 63.5q0 42 18 79.5t49 60t68 22.5t67.5 -22.5t48.5 -60t18 -79.5q0 -36 -16.5 -63.5t-47 -42.5t-70.5 -15t-71 15zM278.5 49.5q30.5 24.5 30.5 70.5q0 33 -15 65t-41 52.5t-56 20.5q-31 0 -57 -20.5t-41 -52.5t-15 -65q0 -46 31 -70.5
t82 -24.5t81.5 24.5zM110 336l-4 11q-1 2 0.5 3.5t3.5 2.5l119 44l1 -16q-7 -1 -19 -1q-44 -1 -67 22t-23 56q-1 34 19.5 55t54.5 22q14 0 32 -5q2 0 3.5 -1.5t0.5 -3.5l-1 -12q-1 -5 -5 -3q-27 3 -30 3q-26 0 -41.5 -16.5t-15.5 -38.5q0 -26 22 -41t52 -15q15 0 30 3t32 9
l7 3q6 2 7 -3l4 -11q1 -1 -0.5 -3t-3.5 -3l-171 -64q-5 -2 -7 3z" />
    <glyph glyph-name="tehMarbutagoal-ar" unicode="&#x6c3;" horiz-adv-x="393" vert-adv-y="1170" 
d="M126 15q-31 15 -47.5 42.5t-16.5 63.5q0 42 18 79.5t49 60t68 22.5t67.5 -22.5t48.5 -60t18 -79.5q0 -36 -16.5 -63.5t-47 -42.5t-70.5 -15t-71 15zM278.5 49.5q30.5 24.5 30.5 70.5q0 33 -15 65t-41 52.5t-56 20.5q-31 0 -57 -20.5t-41 -52.5t-15 -65q0 -46 31 -70.5
t82 -24.5t81.5 24.5zM226 397q0 2 1 4l18 31q1 1 2.5 1t2.5 -1l32 -18q2 0 3 -2t-1 -4l-17 -31q-1 -3 -2.5 -3t-3.5 1l-1 1l-32 18q-2 1 -2 3zM108 397q0 2 1 4l18 31q1 1 2 1t3 -1l32 -18q2 0 3 -2t-1 -4l-17 -31q-2 -3 -6 -2h-0.5h-0.5l-32 19q-2 1 -2 3z" />
    <glyph glyph-name="wawRing-ar" unicode="&#x6c4;" horiz-adv-x="431" vert-adv-y="1170" 
d="M64 -182q-2 -1 -3.5 1.5t-0.5 4.5l5 12q1 2 2.5 3.5t3.5 0.5q35 -8 66 -8q95 0 149 58t60 158q-40 -50 -123 -50q-45 0 -75 16t-45 44.5t-15 64.5q0 41 17.5 77.5t48.5 58.5t69 22q47 0 79.5 -30t49 -79t16.5 -107q0 -76 -26 -133.5t-78 -90t-128 -32.5q-43 0 -72 9z
M308.5 46.5q31.5 23.5 31.5 69.5q0 33 -14.5 65.5t-41 53.5t-61.5 21q-36 0 -61.5 -20t-38.5 -51.5t-13 -64.5q0 -48 29 -72.5t82 -24.5q56 0 87.5 23.5zM98 -170q-17 10 -27 27t-10 38q0 31 21.5 52t53.5 21q20 0 37 -9.5t27 -26.5t10 -37q0 -21 -10 -38t-27 -27t-37 -10
q-21 0 -38 10zM165 -155.5q13 7.5 20.5 21t7.5 29.5t-7.5 28.5t-20.5 20t-29 7.5t-29.5 -7.5t-21 -20t-7.5 -28.5t7.5 -29.5t21 -21t29.5 -7.5t29 7.5z" />
    <glyph glyph-name="oe-ar" unicode="&#x6c6;" horiz-adv-x="431" vert-adv-y="1170" 
d="M64 -182q-2 -1 -3.5 1.5t-0.5 4.5l5 12q1 2 2.5 3.5t3.5 0.5q35 -8 66 -8q95 0 149 58t60 158q-40 -50 -123 -50q-45 0 -75 16t-45 44.5t-15 64.5q0 41 17.5 77.5t48.5 58.5t69 22q47 0 79.5 -30t49 -79t16.5 -107q0 -76 -26 -133.5t-78 -90t-128 -32.5q-43 0 -72 9z
M308.5 46.5q31.5 23.5 31.5 69.5q0 33 -14.5 65.5t-41 53.5t-61.5 21q-36 0 -61.5 -20t-38.5 -51.5t-13 -64.5q0 -48 29 -72.5t82 -24.5q56 0 87.5 23.5zM209.5 336q-1.5 1 -2.5 3l-71 171q-1 4 2 6l7 4q2 1 4 0t2 -3l72 -165l72 167q0 2 2 2.5t4 -0.5l7 -4q2 -1 2.5 -2
t-0.5 -3l-72 -173q0 -2 -1.5 -3t-2.5 -1h-22q-1 0 -2.5 1z" />
    <glyph glyph-name="yehFarsi-ar" unicode="&#x6cc;" horiz-adv-x="580" vert-adv-y="1170" 
d="M161.5 -174.5q-49.5 25.5 -74.5 69.5t-25 99q0 30 7.5 63t23.5 67q1 2 2.5 2.5t3.5 -0.5l9 -3q2 -1 2 -3t-1 -3q-13 -32 -20 -62.5t-7 -58.5q0 -77 52.5 -124.5t152.5 -47.5q60 0 107.5 14.5t74.5 39t27 55.5q0 39 -24.5 57.5t-81.5 33.5q-67 17 -109 45.5t-42 89.5
q0 30 13.5 55.5t37.5 45t54 31.5q27 10 54.5 13t53.5 -3q2 0 3.5 -2t0.5 -4v-14q-1 -2 -2.5 -3t-3.5 -1q-41 10 -93 -7q-42 -13 -69.5 -41.5t-27.5 -65.5q0 -43 29 -67.5t78 -39.5q13 -3 26 -7q64 -16 94.5 -41t30.5 -73q0 -38 -29 -69t-82 -48.5t-124 -17.5
q-72 0 -121.5 25.5z" />
    <glyph glyph-name="yehVabove-ar" unicode="&#x6ce;" horiz-adv-x="580" vert-adv-y="1170" 
d="M161.5 -174.5q-49.5 25.5 -74.5 69.5t-25 99q0 30 7.5 63t23.5 67q1 2 2.5 2.5t3.5 -0.5l9 -3q2 -1 2 -3t-1 -3q-13 -32 -20 -62.5t-7 -58.5q0 -77 52.5 -124.5t152.5 -47.5q60 0 107.5 14.5t74.5 39t27 55.5q0 39 -24.5 57.5t-81.5 33.5q-67 17 -109 45.5t-42 89.5
q0 30 13.5 55.5t37.5 45t54 31.5q27 10 54.5 13t53.5 -3q2 0 3.5 -2t0.5 -4v-14q-1 -2 -2.5 -3t-3.5 -1q-41 10 -93 -7q-42 -13 -69.5 -41.5t-27.5 -65.5q0 -43 29 -67.5t78 -39.5q13 -3 26 -7q64 -16 94.5 -41t30.5 -73q0 -38 -29 -69t-82 -48.5t-124 -17.5
q-72 0 -121.5 25.5zM88.5 184q-1.5 1 -2.5 3l-71 171q-1 4 2 6l7 4q2 1 4 0t2 -3l72 -165l72 167q0 2 2 2.5t4 -0.5l7 -4q2 -1 2.5 -2t-0.5 -3l-72 -173q0 -2 -1.5 -3t-2.5 -1h-22q-1 0 -2.5 1z" />
    <glyph glyph-name="yehbarree-ar" unicode="&#x6d2;" horiz-adv-x="874" vert-adv-y="1170" 
d="M169 24.5q-52 24.5 -79.5 66t-27.5 93.5q0 58 25 100.5t65.5 65t86.5 22.5q42 0 77 -17q4 -3 3 -7l-4 -12q0 -2 -1.5 -3t-3.5 0q-30 14 -71 14q-63 0 -109.5 -39.5t-46.5 -121.5q0 -44 24 -80.5t71 -58.5t112 -22h518q4 0 4 -5v-16q0 -4 -4 -4h-516q-71 0 -123 24.5z" />
    <glyph glyph-name="yehbarreeHamzaabove-ar" unicode="&#x6d3;" horiz-adv-x="874" vert-adv-y="1170" 
d="M169 24.5q-52 24.5 -79.5 66t-27.5 93.5q0 58 25 100.5t65.5 65t86.5 22.5q42 0 77 -17q4 -3 3 -7l-4 -12q0 -2 -1.5 -3t-3.5 0q-30 14 -71 14q-63 0 -109.5 -39.5t-46.5 -121.5q0 -44 24 -80.5t71 -58.5t112 -22h518q4 0 4 -5v-16q0 -4 -4 -4h-516q-71 0 -123 24.5z
M152 425l-4 11q-1 2 0.5 3.5t3.5 2.5l119 44l1 -16q-7 -1 -19 -1q-44 -1 -67 22t-23 56q-1 34 19.5 55t54.5 22q14 0 32 -5q2 0 3.5 -1.5t0.5 -3.5l-1 -12q-1 -5 -5 -3q-27 3 -30 3q-26 0 -41.5 -16.5t-15.5 -38.5q0 -26 22 -41t52 -15q15 0 30 3t32 9l7 3q6 2 7 -3l4 -11
q1 -1 -0.5 -3t-3.5 -3l-171 -64q-5 -2 -7 3z" />
    <glyph glyph-name="fullstop-ar" unicode="&#x6d4;" horiz-adv-x="334" vert-adv-y="1170" 
d="M138 11.5q-33 11.5 -65 37.5l-41 34q-3 4 -1 6l9 14q1 1 3 1t3 -1l43 -35q27 -23 56 -33t66 -10h89q2 0 3 -1.5t1 -3.5v-16q0 -2 -1 -3t-3 -1h-87q-42 0 -75 11.5z" />
    <glyph glyph-name="ae-ar" unicode="&#x6d5;" horiz-adv-x="393" vert-adv-y="1170" 
d="M126 15q-31 15 -47.5 42.5t-16.5 63.5q0 42 18 79.5t49 60t68 22.5t67.5 -22.5t48.5 -60t18 -79.5q0 -36 -16.5 -63.5t-47 -42.5t-70.5 -15t-71 15zM278.5 49.5q30.5 24.5 30.5 70.5q0 33 -15 65t-41 52.5t-56 20.5q-31 0 -57 -20.5t-41 -52.5t-15 -65q0 -46 31 -70.5
t82 -24.5t81.5 24.5z" />
    <glyph glyph-name="yehabove-ar" unicode="&#x6e7;" vert-adv-y="1170" 
d="M52.5 380q-25.5 12 -39 32.5t-13.5 46.5q0 28 12.5 49t32.5 32t43 11q24 0 39 -8q4 -3 2 -7l-3 -9q-2 -5 -7 -3q-14 7 -31 7q-27 0 -48.5 -17.5t-21.5 -53.5q0 -31 25 -51.5t69 -20.5h247q4 0 4 -5v-11q0 -4 -4 -4h-246q-35 0 -60.5 12z" />
    <glyph glyph-name="zeroFarsi-ar" unicode="&#x6f0;" horiz-adv-x="274" vert-adv-y="1170" 
d="M99 152q-17 10 -27 27.5t-10 37.5q0 21 10 38t27 27t38 10t38 -10t27 -27t10 -38q0 -20 -10 -37.5t-27 -27.5t-38 -10t-38 10zM172 181.5q14 14.5 14 35.5t-14 35.5t-35 14.5t-35.5 -14.5t-14.5 -35.5q0 -20 14.5 -35t35.5 -15t35 14.5z" />
    <glyph glyph-name="oneFarsi-ar" unicode="&#x6f1;" horiz-adv-x="210" vert-adv-y="1170" 
d="M126 4q1 139 -15.5 271t-48.5 263q-1 2 0.5 3t3.5 2l12 4q1 1 2.5 0t2.5 -3q65 -266 65 -540q0 -4 -5 -4h-13q-4 0 -4 4z" />
    <glyph glyph-name="twoFarsi-ar" unicode="&#x6f2;" horiz-adv-x="382" vert-adv-y="1170" 
d="M127 1q-1 1 -1 3q1 139 -15.5 271t-48.5 263q-1 2 0.5 3t3.5 2l12 4q1 1 2.5 0t2.5 -3q12 -53 19 -90l12 -54q9 -39 34 -61t67 -23q44 0 64 27t20 73q0 43 -19 108l-8 26q-1 2 -0.5 3.5t2.5 2.5l12 4q2 1 3.5 0.5t2.5 -2.5q11 -31 18 -60t9 -56q1 -10 1 -29
q-1 -37 -12 -64.5t-34.5 -42.5t-60.5 -15q-55 0 -88 38q9 -66 15 -132t7 -134q1 -20 1 -59q0 -2 -1.5 -3t-3.5 -1h-13q-2 0 -3 1z" />
    <glyph glyph-name="threeFarsi-ar" unicode="&#x6f3;" horiz-adv-x="603" vert-adv-y="1170" 
d="M127 1q-1 1 -1 3q1 139 -15.5 271t-48.5 263q-1 2 0.5 3t3.5 2l12 4q1 1 2.5 0t2.5 -3q11 -46 19 -90q6 -26 11 -53q10 -48 39 -66.5t70 -18.5q42 1 71 22t41 67q3 11 5 23t3 25v16q0 4 4 4h17q4 0 4 -4q0 -34 6 -63q9 -43 29.5 -66.5t50.5 -23.5q34 0 50 24.5t16 65.5
q0 57 -28 145q0 2 0.5 3.5t2.5 2.5l12 4q1 1 3 0t3 -3q22 -65 28 -125q1 -10 1 -30q-1 -35 -10.5 -60t-29 -38.5t-50.5 -13.5q-33 0 -59.5 25t-38.5 66q-14 -47 -49.5 -69t-81.5 -22q-38 0 -68 15.5t-48 47.5l14 2q7 -41 12 -85t9 -89q3 -43 5 -89t2 -89q0 -2 -1.5 -3
t-3.5 -1h-13q-2 0 -3 1z" />
    <glyph glyph-name="fourFarsi-ar" unicode="&#x6f4;" horiz-adv-x="570" vert-adv-y="1170" 
d="M127 1q-1 1 -1 3q1 139 -15.5 271t-48.5 263q-1 2 0.5 3t3.5 2l12 4q1 1 2.5 0t2.5 -3q4 -15 8 -31l26 -130q9 -45 39 -66t76 -20q23 0 51 5q16 4 32 7l2 -12q-57 7 -92.5 41.5t-35.5 93.5q0 36 17 68t47 51.5t66 19.5q17 0 32 -3.5t31 -10.5q1 0 1.5 -1.5t-0.5 -3.5
l-4 -15q0 -1 -2 -2t-4 -1q-15 5 -27.5 7.5t-25.5 2.5q-51 0 -80.5 -33.5t-29.5 -77.5q0 -51 36.5 -78.5t90.5 -27.5q22 0 41.5 3t41.5 9q7 2 13 4q16 5 31 10q17 6 33 11q5 2 5 -2l6 -15q0 -5 -4 -6q-104 -35 -164 -49q-37 -9 -63 -13.5t-51 -4.5q-28 0 -54.5 9.5
t-43.5 27.5q19 -162 20 -307q0 -2 -1.5 -3t-3.5 -1h-13q-2 0 -3 1z" />
    <glyph glyph-name="fiveFarsi-ar" unicode="&#x6f5;" horiz-adv-x="540" vert-adv-y="1170" 
d="M110 15.5q-23 15.5 -35 43.5t-13 65q-1 78 51 179.5t143 183.5q-16 15 -29.5 26t-25.5 20q-7 6 -15 12q-3 3 0 6l7 9q1 1 2.5 1.5t3.5 -0.5q36 -25 84 -75q60 -57 104.5 -125t67.5 -131t23 -106q0 -41 -12 -69t-33 -41.5t-49 -13.5q-36 0 -65.5 22.5t-43.5 67.5
q-14 -45 -44 -67.5t-66 -22.5q-32 0 -55 15.5zM206.5 35q19.5 10 33.5 29q22 30 23 77q0 5 4 5h15q4 0 4 -5q1 -47 23 -77q14 -19 33.5 -29t41.5 -10q36 0 54 23.5t18 64.5q0 65 -39 151.5t-103 157.5q-34 38 -44 48q-56 -51 -98.5 -114.5t-65 -125t-22.5 -110.5
q1 -44 21 -69.5t60 -25.5q22 0 41.5 10z" />
    <glyph glyph-name="sixFarsi-ar" unicode="&#x6f6;" horiz-adv-x="471" vert-adv-y="1170" 
d="M62 3q50 89 135 189t139 130l30 10q-88 -42 -155 -38.5t-104.5 40.5t-41.5 88q-3 38 12.5 73.5t45.5 58.5t68 26q14 2 30 1t37 -7q2 -1 3.5 -2.5t0.5 -3.5l-3 -17q-1 -3 -5 -3q-4 1 -7.5 2t-6.5 1q-25 5 -45 3q-36 -2 -61.5 -21.5t-37.5 -49t-9 -59.5q3 -54 43.5 -79.5
t98.5 -21.5q29 3 54.5 8t53.5 15l14 6q21 9 44 22q1 1 2.5 0.5t2.5 -1.5l8 -15q0 -1 0.5 -2t0.5 -2q-34 -20 -83 -61q-64 -58 -128.5 -135t-116.5 -165q-2 -1 -3.5 -1.5t-2.5 -0.5l-11 7q-2 1 -2 5z" />
    <glyph glyph-name="sevenFarsi-ar" unicode="&#x6f7;" horiz-adv-x="536" vert-adv-y="1170" 
d="M76 554q2 1 3.5 0.5t1.5 -2.5q60 -116 107 -244t79 -276q33 148 80 276t107 244q0 2 1.5 2.5t2.5 -0.5l13 -7q1 0 2 -1.5t0 -2.5q-65 -138 -105.5 -249t-80.5 -279q-1 -4 -4 -4h-31q-3 0 -4 4q-40 168 -80.5 279t-105.5 249q-1 1 0 2.5t2 1.5z" />
    <glyph glyph-name="eightFarsi-ar" unicode="&#x6f8;" horiz-adv-x="535" vert-adv-y="1170" 
d="M62 10.5q-1 1.5 0 2.5q65 138 105.5 249t80.5 279q1 4 4 4h31q3 0 4 -4q40 -168 80.5 -279t105.5 -249q1 -1 0 -2.5t-2 -1.5l-13 -7q-1 -1 -2.5 -0.5t-1.5 2.5q-60 116 -107 244t-80 276q-32 -148 -79 -276t-107 -244q0 -2 -1.5 -2.5t-3.5 0.5l-12 7q-1 0 -2 1.5z" />
    <glyph glyph-name="nineFarsi-ar" unicode="&#x6f9;" horiz-adv-x="451" vert-adv-y="1170" 
d="M370.5 1q-1.5 1 -1.5 3q-45 176 -60 379l11 8q-10 -43 -45 -66.5t-88 -23.5q-41 0 -69 14.5t-42 40t-14 59.5q0 42 17 77t46 56t64 21q72 0 104 -59.5t38 -144.5q3 -24 5 -49q9 -79 22.5 -157t30.5 -149q1 -1 0 -2.5t-3 -2.5l-13 -4q-1 -1 -2.5 0zM268.5 349
q29.5 25 29.5 65q0 32 -13 62.5t-37.5 49.5t-56.5 19q-51 0 -80 -37.5t-29 -93.5q0 -44 27.5 -67t76.5 -23q53 0 82.5 25z" />
    <glyph glyph-name="enquad" unicode="&#x2000;" horiz-adv-x="500" vert-adv-y="1170" 
 />
    <glyph glyph-name="emquad" unicode="&#x2001;" horiz-adv-x="1000" vert-adv-y="1170" 
 />
    <glyph glyph-name="enspace" unicode="&#x2002;" horiz-adv-x="500" vert-adv-y="1170" 
 />
    <glyph glyph-name="emspace" unicode="&#x2003;" horiz-adv-x="1000" vert-adv-y="1170" 
 />
    <glyph glyph-name="threeperemspace" unicode="&#x2004;" horiz-adv-x="333" vert-adv-y="1170" 
 />
    <glyph glyph-name="fourperemspace" unicode="&#x2005;" horiz-adv-x="250" vert-adv-y="1170" 
 />
    <glyph glyph-name="sixperemspace" unicode="&#x2006;" horiz-adv-x="167" vert-adv-y="1170" 
 />
    <glyph glyph-name="figurespace" unicode="&#x2007;" horiz-adv-x="600" vert-adv-y="1170" 
 />
    <glyph glyph-name="punctuationspace" unicode="&#x2008;" horiz-adv-x="181" vert-adv-y="1170" 
 />
    <glyph glyph-name="thinspace" unicode="&#x2009;" horiz-adv-x="200" vert-adv-y="1170" 
 />
    <glyph glyph-name="hairspace" unicode="&#x200a;" horiz-adv-x="143" vert-adv-y="1170" 
 />
    <glyph glyph-name="zerowidthspace" unicode="&#x200b;" vert-adv-y="1170" 
 />
    <glyph glyph-name="zerowidthnonjoiner" unicode="&#x200c;" vert-adv-y="1170" 
 />
    <glyph glyph-name="zerowidthjoiner" unicode="&#x200d;" vert-adv-y="1170" 
 />
    <glyph glyph-name="lefttorightmark" unicode="&#x200e;" vert-adv-y="1170" 
 />
    <glyph glyph-name="righttoleftmark" unicode="&#x200f;" vert-adv-y="1170" 
 />
    <glyph glyph-name="nonbreakinghyphen" unicode="&#x2011;" horiz-adv-x="285" vert-adv-y="1170" 
d="M32 116q-1 1 -1 3v16q0 2 1 3t3 1h215q2 0 3 -1t1 -3v-16q0 -2 -1 -3t-3 -1h-215q-2 0 -3 1z" />
    <glyph glyph-name="endash" unicode="&#x2013;" horiz-adv-x="416" vert-adv-y="1170" 
d="M32 116q-1 1 -1 3v16q0 2 1 3t3 1h346q2 0 3 -1t1 -3v-16q0 -2 -1 -3t-3 -1h-346q-2 0 -3 1z" />
    <glyph glyph-name="emdash" unicode="&#x2014;" horiz-adv-x="536" vert-adv-y="1170" 
d="M32 116q-1 1 -1 3v16q0 2 1 3t3 1h466q2 0 3 -1t1 -3v-16q0 -2 -1 -3t-3 -1h-466q-2 0 -3 1z" />
    <glyph glyph-name="quoteleft" unicode="&#x2018;" horiz-adv-x="47" vert-adv-y="1170" 
d="M6.5 478q-6.5 7 -6.5 17q0 6 1.5 12t2.5 12l24 94q1 3 2.5 3.5t2.5 -0.5l16 -5h1q3 -2 2 -5l-24 -87q8 -3 13.5 -9.5t5.5 -14.5q0 -11 -7 -17.5t-16 -6.5q-11 0 -17.5 7z" />
    <glyph glyph-name="quoteright" unicode="&#x2019;" horiz-adv-x="47" vert-adv-y="1170" 
d="M40.5 574q6.5 -7 6.5 -17q0 -6 -1.5 -12t-2.5 -12l-24 -94q-1 -3 -2.5 -3.5t-2.5 0.5l-16 5h-1q-3 2 -2 5l24 87q-8 3 -13.5 9.5t-5.5 14.5q0 11 7 17.5t16 6.5q11 0 17.5 -7z" />
    <glyph glyph-name="quotedblleft" unicode="&#x201c;" horiz-adv-x="240" vert-adv-y="1170" 
d="M6.5 478q-6.5 7 -6.5 17q0 6 1.5 12t2.5 12l24 94q1 3 2.5 3.5t2.5 -0.5l16 -5h1q3 -2 2 -5l-24 -87q8 -3 13.5 -9.5t5.5 -14.5q0 -11 -7 -17.5t-16 -6.5q-11 0 -17.5 7zM139.5 478q-6.5 7 -6.5 17q0 6 1.5 12t2.5 12l24 94q1 3 2.5 3.5t2.5 -0.5l16 -5h1q3 -2 2 -5
l-24 -87q8 -3 13.5 -9.5t5.5 -14.5q0 -11 -7 -17.5t-16 -6.5q-11 0 -17.5 7z" />
    <glyph glyph-name="quotedblright" unicode="&#x201d;" horiz-adv-x="241" vert-adv-y="1170" 
d="M96.5 574q6.5 -7 6.5 -17q0 -6 -1.5 -12t-2.5 -12l-24 -94q-1 -3 -2.5 -3.5t-2.5 0.5l-16 5h-1q-3 2 -2 5l24 87q-8 3 -13.5 9.5t-5.5 14.5q0 11 7 17.5t16 6.5q11 0 17.5 -7zM174.5 574q6.5 -7 6.5 -17q0 -6 -1.5 -12t-2.5 -12l-24 -94q-1 -3 -2.5 -3.5t-2.5 0.5l-16 5
h-1q-3 2 -2 5l24 87q-8 3 -13.5 9.5t-5.5 14.5q0 11 7 17.5t16 6.5q11 0 17.5 -7z" />
    <glyph glyph-name="bullet" unicode="&#x2022;" horiz-adv-x="232" vert-adv-y="1170" 
d="M73 211q-19 11 -30.5 31t-11.5 44t11 43.5t30 31t43 11.5q25 0 44.5 -11.5t30.5 -31t11 -43.5q0 -25 -11.5 -44.5t-31 -30.5t-43.5 -11q-23 0 -42 11z" />
    <glyph glyph-name="ellipsis" unicode="&#x2026;" horiz-adv-x="478" vert-adv-y="1170" 
d="M221.5 8.5q-8.5 8.5 -8.5 19.5t8.5 19.5t19.5 8.5t19 -8.5t8 -19.5t-8 -19.5t-19 -8.5t-19.5 8.5zM404.5 8.5q-8.5 8.5 -8.5 19.5t8.5 19.5t19.5 8.5t19 -8.5t8 -19.5t-8 -19.5t-19 -8.5t-19.5 8.5zM39.5 8.5q-8.5 8.5 -8.5 19.5t8.5 19.5t19.5 8.5t19 -8.5t8 -19.5
t-8 -19.5t-19 -8.5t-19.5 8.5z" />
    <glyph glyph-name="narrownbspace" unicode="&#x202f;" horiz-adv-x="120" vert-adv-y="1170" 
 />
    </font>
</defs>
</svg>
